<?xml version="1.0" encoding="UTF-8"?>
<svg xmlns="http://www.w3.org/2000/svg" xmlns:xlink="http://www.w3.org/1999/xlink" width="500" height="500" viewBox="0 0 500 500">
<rect x="-50" y="-50" width="600" height="600" fill="rgb(100%, 100%, 100%)" fill-opacity="1"/>
<path fill="none" stroke-width="3.75" stroke-linecap="round" stroke-linejoin="miter" stroke="rgb(100%, 0%, 0%)" stroke-opacity="1" stroke-miterlimit="10" d="M 362.5 421.25 L 362.5 450 C 362.5 456.8989378061689 356.8989378061689 462.5 350 462.5 C 343.1010621938311 462.5 337.5 456.8989378061689 337.5 450 L 337.5 446.25 M 337.5 396.25 L 337.5 428.75 M 321.25 387.5 L 350 387.5 C 356.8989378061689 387.5 362.5 393.1010621938311 362.5 400 L 362.5 403.75 M 221.25 362.5 L 225 362.5 C 231.89893780616887 362.5 237.5 368.1010621938311 237.5 375 C 237.5 381.8989378061689 243.10106219383113 387.5 250 387.5 L 303.75 387.5 M 412.5 346.25 L 412.5 350 C 412.5 356.8989378061689 406.8989378061689 362.5 400 362.5 L 350 362.5 C 343.1010621938311 362.5 337.5 368.1010621938311 337.5 375 L 337.5 378.75 M 471.25 312.5 L 500 312.5 M 437.5 321.25 L 437.5 400 C 437.5 406.8989378061689 431.8989378061689 412.5 425 412.5 C 418.1010621938311 412.5 412.5 418.1010621938311 412.5 425 L 412.5 450 C 412.5 456.8989378061689 418.1010621938311 462.5 425 462.5 L 475 462.5 C 481.8989378061689 462.5 487.5 468.1010621938311 487.5 475 L 487.5 500 M 453.75 312.5 L 425 312.5 C 418.1010621938311 312.5 412.5 318.1010621938311 412.5 325 L 412.5 328.75 M 296.25 312.5 L 300 312.5 C 306.8989378061689 312.5 312.5 318.1010621938311 312.5 325 C 312.5 331.8989378061689 306.8989378061689 337.5 300 337.5 L 296.25 337.5 M 262.5 321.25 L 262.5 325 C 262.5 331.8989378061689 268.1010621938311 337.5 275 337.5 L 278.75 337.5 M 146.25 312.5 L 178.75 312.5 M 121.25 312.5 L 128.75 312.5 M 262.5 296.25 L 262.5 303.75 M 237.5 296.25 L 237.5 300 C 237.5 306.8989378061689 243.10106219383113 312.5 250 312.5 L 278.75 312.5 M 437.5 271.25 L 437.5 303.75 M 296.25 262.5 L 328.75 262.5 M 278.75 262.5 L 275 262.5 C 268.1010621938311 262.5 262.5 268.1010621938311 262.5 275 L 262.5 278.75 M 137.5 271.25 L 137.5 275 C 137.5 281.8989378061689 143.10106219383113 287.5 150 287.5 L 175 287.5 C 181.89893780616887 287.5 187.5 293.1010621938311 187.5 300 L 187.5 350 C 187.5 356.8989378061689 193.10106219383113 362.5 200 362.5 L 203.75 362.5 M 62.5 271.25 L 62.5 300 C 62.5 306.8989378061689 68.10106219383111 312.5 75 312.5 L 103.75 312.5 M 346.25 237.5 L 350 237.5 C 356.8989378061689 237.5 362.5 243.10106219383113 362.5 250 C 362.5 256.8989378061689 356.8989378061689 262.5 350 262.5 L 346.25 262.5 M 237.5 246.25 L 237.5 278.75 M 212.5 246.25 L 212.5 300 C 212.5 306.8989378061689 206.89893780616887 312.5 200 312.5 L 196.25 312.5 M 153.75 237.5 L 150 237.5 C 143.10106219383113 237.5 137.5 243.10106219383113 137.5 250 L 137.5 253.75 M 321.25 212.5 L 328.75 212.5 M 271.25 212.5 L 303.75 212.5 M 246.25 212.5 L 253.75 212.5 M 228.75 212.5 L 225 212.5 C 218.10106219383113 212.5 212.5 218.10106219383113 212.5 225 L 212.5 228.75 M 62.5 221.25 L 62.5 253.75 M 387.5 196.25 L 387.5 200 C 387.5 206.89893780616887 381.8989378061689 212.5 375 212.5 L 346.25 212.5 M 262.5 196.25 L 262.5 225 C 262.5 231.89893780616887 256.8989378061689 237.5 250 237.5 L 171.25 237.5 M 421.25 162.5 L 425 162.5 C 431.8989378061689 162.5 437.5 168.10106219383113 437.5 175 L 437.5 253.75 M 403.75 162.5 L 400 162.5 C 393.1010621938311 162.5 387.5 168.10106219383113 387.5 175 L 387.5 178.75 M 312.5 171.25 L 312.5 225 C 312.5 231.89893780616887 318.1010621938311 237.5 325 237.5 L 328.75 237.5 M 237.5 171.25 L 237.5 228.75 M 221.25 162.5 L 250 162.5 C 256.8989378061689 162.5 262.5 168.10106219383113 262.5 175 L 262.5 178.75 M 62.5 171.25 L 62.5 203.75 M 237.5 146.25 L 237.5 153.75 M 312.5 121.25 L 312.5 153.75 M 237.5 121.25 L 237.5 128.75 M 128.75 112.5 L 125 112.5 C 118.10106219383111 112.5 112.5 118.10106219383111 112.5 125 L 112.5 150 C 112.5 156.89893780616887 118.10106219383111 162.5 125 162.5 L 203.75 162.5 M 62.5 121.25 L 62.5 153.75 M 246.25 87.5 L 300 87.5 C 306.8989378061689 87.5 312.5 93.10106219383111 312.5 100 L 312.5 103.75 M 187.5 96.25 L 187.5 100 C 187.5 106.89893780616889 181.89893780616887 112.5 175 112.5 L 146.25 112.5 M 171.25 87.5 L 228.75 87.5 M 153.75 87.5 L 75 87.5 C 68.10106219383111 87.5 62.5 93.10106219383111 62.5 100 L 62.5 103.75 M 237.5 103.75 L 237.5 75 C 237.5 68.10106219383111 231.89893780616887 62.5 225 62.5 L 200 62.5 C 193.10106219383113 62.5 187.5 68.10106219383111 187.5 75 L 187.5 78.75 "/>
<path fill="none" stroke-width="3.75" stroke-linecap="round" stroke-linejoin="miter" stroke="rgb(0%, 0%, 0%)" stroke-opacity="1" stroke-miterlimit="10" d="M 428.75 471.25 L 428.75 475 C 428.75 486.7281942704871 438.2718057295129 496.25 450 496.25 C 461.7281942704871 496.25 471.25 486.7281942704871 471.25 475 L 471.25 471.25 M 446.25 471.25 L 446.25 475 C 446.25 477.06968134185064 447.93031865814936 478.75 450 478.75 C 452.06968134185064 478.75 453.75 477.06968134185064 453.75 475 L 453.75 471.25 M 296.25 471.25 L 296.25 487.5 C 296.25 492.32925646431823 292.32925646431823 496.25 287.5 496.25 C 282.67074353568177 496.25 278.75 492.32925646431823 278.75 487.5 L 278.75 471.25 M 271.25 471.25 L 271.25 475 C 271.25 486.7281942704871 261.7281942704871 496.25 250 496.25 L 237.5 496.25 C 232.6707435356818 496.25 228.75 492.32925646431823 228.75 487.5 C 228.75 482.67074353568177 232.6707435356818 478.75 237.5 478.75 L 250 478.75 C 252.06968134185067 478.75 253.75 477.06968134185064 253.75 475 L 253.75 471.25 M 196.25 471.25 L 196.25 487.5 C 196.25 492.32925646431823 192.3292564643182 496.25 187.5 496.25 C 182.6707435356818 496.25 178.75 492.32925646431823 178.75 487.5 L 178.75 471.25 M 146.25 471.25 L 146.25 487.5 C 146.25 492.32925646431823 142.3292564643182 496.25 137.5 496.25 C 132.6707435356818 496.25 128.75 492.32925646431823 128.75 487.5 L 128.75 471.25 M 121.25 471.25 L 121.25 487.5 C 121.25 492.32925646431823 117.32925646431822 496.25 112.5 496.25 C 107.67074353568178 496.25 103.75 492.32925646431823 103.75 487.5 L 103.75 471.25 M 71.25 471.25 L 71.25 487.5 C 71.25 492.32925646431823 67.32925646431822 496.25 62.5 496.25 C 57.67074353568178 496.25 53.75 492.32925646431823 53.75 487.5 L 53.75 471.25 M 46.25 471.25 L 46.25 475 C 46.25 486.7281942704871 36.7281942704871 496.25 25 496.25 L 12.5 496.25 C 7.670743535681782 496.25 3.75 492.32925646431823 3.7500000000000004 487.5 C 3.75 482.67074353568177 7.670743535681782 478.75 12.5 478.75 L 25 478.75 C 27.069681341850664 478.75 28.75 477.06968134185064 28.75 475 L 28.75 471.25 M 78.75 453.75 L 12.5 453.75 C 7.670743535681782 453.75 3.75 457.67074353568177 3.7500000000000004 462.5 C 3.75 467.32925646431823 7.670743535681782 471.25 12.5 471.25 L 78.75 471.25 M 421.25 428.75 L 425 428.75 C 436.7281942704871 428.75 446.25 438.2718057295129 446.25 450 L 446.25 453.75 M 421.25 446.25 L 425 446.25 C 427.06968134185064 446.25 428.75 447.93031865814936 428.75 450 L 428.75 453.75 M 396.25 428.75 L 403.75 428.75 M 396.25 446.25 L 403.75 446.25 M 371.25 428.75 L 378.75 428.75 M 371.25 446.25 L 378.75 446.25 M 328.75 446.25 L 328.75 450 C 328.75 452.06968134185064 327.06968134185064 453.75 325 453.75 L 321.25 453.75 M 321.25 428.75 L 353.75 428.75 M 321.25 446.25 L 353.75 446.25 M 296.25 428.75 L 303.75 428.75 M 296.25 446.25 L 303.75 446.25 M 271.25 453.75 L 271.25 450 C 271.25 447.93031865814936 272.93031865814936 446.25 275 446.25 L 278.75 446.25 M 228.75 446.25 L 228.75 450 C 228.75 461.7281942704871 238.2718057295129 471.25 250 471.25 L 303.75 471.25 M 246.25 446.25 L 246.25 450 C 246.25 452.06968134185064 247.93031865814933 453.75 250 453.75 L 303.75 453.75 M 221.25 428.75 L 278.75 428.75 M 221.25 446.25 L 250 446.25 C 252.06968134185067 446.25 253.75 447.93031865814936 253.75 450 L 253.75 453.75 M 196.25 428.75 L 203.75 428.75 M 196.25 446.25 L 203.75 446.25 M 153.75 446.25 L 153.75 450 C 153.75 452.06968134185064 152.06968134185067 453.75 150 453.75 L 96.25 453.75 M 146.25 453.75 L 146.25 450 C 146.25 447.93031865814936 147.93031865814933 446.25 150 446.25 L 178.75 446.25 M 46.25 446.25 L 50 446.25 C 52.06968134185067 446.25 53.75 447.93031865814936 53.75 450 L 53.75 453.75 M 28.75 428.75 L 12.5 428.75 C 7.670743535681782 428.75 3.75 432.67074353568177 3.7500000000000004 437.5 C 3.75 442.32925646431823 7.670743535681782 446.25 12.5 446.25 L 28.75 446.25 M 471.25 453.75 L 471.25 425 C 471.25 422.93031865814936 472.93031865814936 421.25 475 421.25 C 477.06968134185064 421.25 478.75 422.93031865814936 478.75 425 L 478.75 437.5 C 478.75 442.32925646431823 482.67074353568177 446.25 487.5 446.25 C 492.32925646431823 446.25 496.25 442.32925646431823 496.25 437.5 L 496.25 425 C 496.25 413.2718057295129 486.7281942704871 403.75 475 403.75 C 463.2718057295129 403.75 453.75 413.2718057295129 453.75 425 L 453.75 453.75 M 353.75 421.25 L 353.75 450 C 353.75 452.06968134185064 352.06968134185064 453.75 350 453.75 C 347.93031865814936 453.75 346.25 452.06968134185064 346.25 450 L 346.25 446.25 M 371.25 421.25 L 371.25 487.5 C 371.25 492.32925646431823 367.32925646431823 496.25 362.5 496.25 C 357.67074353568177 496.25 353.75 492.32925646431823 353.75 487.5 L 353.75 475 C 353.75 472.93031865814936 352.06968134185064 471.25 350 471.25 C 347.93031865814936 471.25 346.25 472.93031865814936 346.25 475 L 346.25 487.5 C 346.25 492.32925646431823 342.32925646431823 496.25 337.5 496.25 C 332.67074353568177 496.25 328.75 492.32925646431823 328.75 487.5 L 328.75 475 C 328.75 472.93031865814936 327.06968134185064 471.25 325 471.25 L 321.25 471.25 M 221.25 403.75 L 225 403.75 C 236.7281942704871 403.75 246.25 413.2718057295129 246.25 425 L 246.25 428.75 M 221.25 421.25 L 225 421.25 C 227.06968134185067 421.25 228.75 422.93031865814936 228.75 425 L 228.75 428.75 M 178.75 453.75 L 178.75 425 C 178.75 413.2718057295129 188.2718057295129 403.75 200 403.75 L 203.75 403.75 M 196.25 453.75 L 196.25 425 C 196.25 422.93031865814936 197.93031865814933 421.25 200 421.25 L 203.75 421.25 M 146.25 421.25 L 150 421.25 C 152.06968134185067 421.25 153.75 422.93031865814936 153.75 425 L 153.75 428.75 M 121.25 453.75 L 121.25 425 C 121.25 422.93031865814936 122.93031865814933 421.25 125 421.25 L 128.75 421.25 M 96.25 403.75 L 128.75 403.75 M 96.25 421.25 L 100 421.25 C 102.06968134185067 421.25 103.75 422.93031865814936 103.75 425 L 103.75 453.75 M 71.25 403.75 L 78.75 403.75 M 71.25 421.25 L 78.75 421.25 M 28.75 421.25 L 28.75 453.75 M 46.25 421.25 L 46.25 453.75 M 428.75 378.75 L 412.5 378.75 C 407.67074353568177 378.75 403.75 382.67074353568177 403.75 387.5 C 403.75 392.32925646431823 407.67074353568177 396.25 412.5 396.25 L 428.75 396.25 M 328.75 396.25 L 328.75 428.75 M 346.25 396.25 L 346.25 400 C 346.25 402.06968134185064 347.93031865814936 403.75 350 403.75 L 375 403.75 C 386.7281942704871 403.75 396.25 413.2718057295129 396.25 425 L 396.25 462.5 C 396.25 467.32925646431823 392.32925646431823 471.25 387.5 471.25 C 382.67074353568177 471.25 378.75 467.32925646431823 378.75 462.5 L 378.75 425 C 378.75 422.93031865814936 377.06968134185064 421.25 375 421.25 L 350 421.25 C 347.93031865814936 421.25 346.25 422.93031865814936 346.25 425 L 346.25 428.75 M 321.25 378.75 L 350 378.75 C 361.7281942704871 378.75 371.25 388.2718057295129 371.25 400 L 371.25 403.75 M 321.25 396.25 L 350 396.25 C 352.06968134185064 396.25 353.75 397.93031865814936 353.75 400 L 353.75 403.75 M 278.75 396.25 L 278.75 453.75 M 271.25 396.25 L 271.25 412.5 C 271.25 417.32925646431823 267.32925646431823 421.25 262.5 421.25 C 257.67074353568177 421.25 253.75 417.32925646431823 253.75 412.5 L 253.75 396.25 M 203.75 396.25 L 203.75 450 C 203.75 452.06968134185064 202.06968134185067 453.75 200 453.75 L 175 453.75 C 172.93031865814933 453.75 171.25 452.06968134185064 171.25 450 L 171.25 446.25 M 221.25 396.25 L 221.25 487.5 C 221.25 492.32925646431823 217.3292564643182 496.25 212.5 496.25 C 207.6707435356818 496.25 203.75 492.32925646431823 203.75 487.5 L 203.75 475 C 203.75 472.93031865814936 202.06968134185067 471.25 200 471.25 L 175 471.25 C 172.93031865814933 471.25 171.25 472.93031865814936 171.25 475 L 171.25 487.5 C 171.25 492.32925646431823 167.3292564643182 496.25 162.5 496.25 C 157.6707435356818 496.25 153.75 492.32925646431823 153.75 487.5 L 153.75 475 C 153.75 472.93031865814936 152.06968134185067 471.25 150 471.25 L 96.25 471.25 M 153.75 396.25 L 153.75 400 C 153.75 402.06968134185064 152.06968134185067 403.75 150 403.75 L 146.25 403.75 M 171.25 396.25 L 171.25 428.75 M 146.25 396.25 L 303.75 396.25 M 28.75 396.25 L 28.75 403.75 M 46.25 396.25 L 46.25 403.75 M 53.75 403.75 L 25 403.75 C 22.930318658149336 403.75 21.25 402.06968134185064 21.25 400 C 21.25 397.93031865814936 22.930318658149336 396.25 25 396.25 L 53.75 396.25 M 453.75 371.25 L 453.75 375 C 453.75 377.06968134185064 452.06968134185064 378.75 450 378.75 L 446.25 378.75 M 471.25 371.25 L 471.25 375 C 471.25 377.06968134185064 472.93031865814936 378.75 475 378.75 L 487.5 378.75 C 492.32925646431823 378.75 496.25 382.67074353568177 496.25 387.5 C 496.25 392.32925646431823 492.32925646431823 396.25 487.5 396.25 L 446.25 396.25 M 446.25 371.25 L 487.5 371.25 C 492.32925646431823 371.25 496.25 367.32925646431823 496.25 362.5 C 496.25 357.67074353568177 492.32925646431823 353.75 487.5 353.75 L 446.25 353.75 M 396.25 371.25 L 396.25 387.5 C 396.25 392.32925646431823 392.32925646431823 396.25 387.5 396.25 C 382.67074353568177 396.25 378.75 392.32925646431823 378.75 387.5 L 378.75 371.25 M 346.25 378.75 L 346.25 375 C 346.25 372.93031865814936 347.93031865814936 371.25 350 371.25 L 428.75 371.25 M 296.25 353.75 L 300 353.75 C 311.7281942704871 353.75 321.25 363.2718057295129 321.25 375 L 321.25 487.5 C 321.25 492.32925646431823 317.32925646431823 496.25 312.5 496.25 C 307.67074353568177 496.25 303.75 492.32925646431823 303.75 487.5 L 303.75 425 C 303.75 422.93031865814936 302.06968134185064 421.25 300 421.25 C 297.93031865814936 421.25 296.25 422.93031865814936 296.25 425 L 296.25 453.75 M 296.25 371.25 L 300 371.25 C 302.06968134185064 371.25 303.75 372.93031865814936 303.75 375 L 303.75 400 C 303.75 402.06968134185064 302.06968134185064 403.75 300 403.75 C 297.93031865814936 403.75 296.25 402.06968134185064 296.25 400 L 296.25 396.25 M 271.25 378.75 L 271.25 375 C 271.25 372.93031865814936 272.93031865814936 371.25 275 371.25 L 278.75 371.25 M 303.75 378.75 L 250 378.75 C 247.93031865814933 378.75 246.25 377.06968134185064 246.25 375 C 246.25 372.93031865814936 247.93031865814933 371.25 250 371.25 C 252.06968134185067 371.25 253.75 372.93031865814936 253.75 375 L 253.75 378.75 M 221.25 353.75 L 278.75 353.75 M 221.25 371.25 L 225 371.25 C 227.06968134185067 371.25 228.75 372.93031865814936 228.75 375 C 228.75 377.06968134185064 227.06968134185067 378.75 225 378.75 L 146.25 378.75 M 153.75 371.25 L 153.75 378.75 M 171.25 371.25 L 171.25 378.75 M 128.75 371.25 L 128.75 453.75 M 146.25 371.25 L 146.25 425 C 146.25 427.06968134185064 147.93031865814933 428.75 150 428.75 L 178.75 428.75 M 103.75 371.25 L 103.75 375 C 103.75 386.7281942704871 113.2718057295129 396.25 125 396.25 L 128.75 396.25 M 121.25 371.25 L 121.25 375 C 121.25 377.06968134185064 122.93031865814933 378.75 125 378.75 L 128.75 378.75 M 96.25 371.25 L 203.75 371.25 M 53.75 371.25 L 53.75 425 C 53.75 427.06968134185064 52.06968134185067 428.75 50 428.75 L 46.25 428.75 M 71.25 371.25 L 71.25 453.75 M 46.25 378.75 L 46.25 375 C 46.25 372.93031865814936 47.93031865814933 371.25 50 371.25 L 78.75 371.25 M 53.75 421.25 L 25 421.25 C 13.2718057295129 421.25 3.75 411.7281942704871 3.7500000000000004 400 L 3.7500000000000004 362.5 C 3.75 357.67074353568177 7.670743535681782 353.75 12.5 353.75 C 17.329256464318217 353.75 21.25 357.67074353568177 21.25 362.5 L 21.25 375 C 21.25 377.06968134185064 22.930318658149336 378.75 25 378.75 L 53.75 378.75 M 453.75 346.25 L 453.75 353.75 M 471.25 346.25 L 471.25 353.75 M 446.25 346.25 L 487.5 346.25 C 492.32925646431823 346.25 496.25 342.32925646431823 496.25 337.5 C 496.25 332.67074353568177 492.32925646431823 328.75 487.5 328.75 L 446.25 328.75 M 421.25 346.25 L 421.25 350 C 421.25 352.06968134185064 422.93031865814936 353.75 425 353.75 L 428.75 353.75 M 396.25 353.75 L 396.25 350 C 396.25 347.93031865814936 397.93031865814936 346.25 400 346.25 L 428.75 346.25 M 328.75 346.25 L 328.75 378.75 M 346.25 346.25 L 346.25 350 C 346.25 352.06968134185064 347.93031865814936 353.75 350 353.75 L 400 353.75 C 402.06968134185064 353.75 403.75 352.06968134185064 403.75 350 L 403.75 346.25 M 296.25 346.25 L 375 346.25 C 377.06968134185064 346.25 378.75 347.93031865814936 378.75 350 L 378.75 353.75 M 203.75 346.25 L 203.75 378.75 M 221.25 346.25 L 221.25 378.75 M 196.25 346.25 L 237.5 346.25 C 242.3292564643182 346.25 246.25 342.32925646431823 246.25 337.5 C 246.25 332.67074353568177 242.3292564643182 328.75 237.5 328.75 L 196.25 328.75 M 171.25 328.75 L 178.75 328.75 M 171.25 346.25 L 178.75 346.25 M 146.25 328.75 L 153.75 328.75 M 146.25 346.25 L 153.75 346.25 M 121.25 353.75 L 121.25 350 C 121.25 347.93031865814936 122.93031865814933 346.25 125 346.25 L 128.75 346.25 M 78.75 346.25 L 78.75 375 C 78.75 377.06968134185064 77.06968134185067 378.75 75 378.75 L 71.25 378.75 M 96.25 346.25 L 96.25 487.5 C 96.25 492.32925646431823 92.32925646431822 496.25 87.5 496.25 C 82.67074353568178 496.25 78.75 492.32925646431823 78.75 487.5 L 78.75 400 C 78.75 397.93031865814936 77.06968134185067 396.25 75 396.25 L 71.25 396.25 M 71.25 353.75 L 71.25 350 C 71.25 347.93031865814936 72.93031865814933 346.25 75 346.25 L 100 346.25 C 102.06968134185067 346.25 103.75 347.93031865814936 103.75 350 L 103.75 353.75 M 28.75 346.25 L 28.75 378.75 M 46.25 346.25 L 46.25 350 C 46.25 352.06968134185064 47.93031865814933 353.75 50 353.75 L 78.75 353.75 M 471.25 303.75 L 500 303.75 M 471.25 321.25 L 500 321.25 M 428.75 321.25 L 428.75 400 C 428.75 402.06968134185064 427.06968134185064 403.75 425 403.75 C 413.2718057295129 403.75 403.75 413.2718057295129 403.75 425 L 403.75 475 C 403.75 477.06968134185064 402.06968134185064 478.75 400 478.75 L 387.5 478.75 C 382.67074353568177 478.75 378.75 482.67074353568177 378.75 487.5 C 378.75 492.32925646431823 382.67074353568177 496.25 387.5 496.25 L 400 496.25 C 411.7281942704871 496.25 421.25 486.7281942704871 421.25 475 C 421.25 472.93031865814936 422.93031865814936 471.25 425 471.25 L 475 471.25 C 477.06968134185064 471.25 478.75 472.93031865814936 478.75 475 L 478.75 500 M 446.25 321.25 L 446.25 400 C 446.25 411.7281942704871 436.7281942704871 421.25 425 421.25 C 422.93031865814936 421.25 421.25 422.93031865814936 421.25 425 L 421.25 450 C 421.25 452.06968134185064 422.93031865814936 453.75 425 453.75 L 475 453.75 C 486.7281942704871 453.75 496.25 463.2718057295129 496.25 475 L 496.25 500 M 421.25 328.75 L 421.25 325 C 421.25 322.93031865814936 422.93031865814936 321.25 425 321.25 L 453.75 321.25 M 371.25 321.25 L 371.25 325 C 371.25 327.06968134185064 372.93031865814936 328.75 375 328.75 L 428.75 328.75 M 346.25 328.75 L 346.25 325 C 346.25 322.93031865814936 347.93031865814936 321.25 350 321.25 L 387.5 321.25 C 392.32925646431823 321.25 396.25 317.32925646431823 396.25 312.5 C 396.25 307.67074353568177 392.32925646431823 303.75 387.5 303.75 L 350 303.75 C 338.2718057295129 303.75 328.75 313.2718057295129 328.75 325 L 328.75 328.75 M 296.25 303.75 L 300 303.75 C 311.7281942704871 303.75 321.25 313.2718057295129 321.25 325 C 321.25 327.06968134185064 322.93031865814936 328.75 325 328.75 L 350 328.75 C 352.06968134185064 328.75 353.75 327.06968134185064 353.75 325 L 353.75 321.25 M 296.25 321.25 L 300 321.25 C 302.06968134185064 321.25 303.75 322.93031865814936 303.75 325 C 303.75 327.06968134185064 302.06968134185064 328.75 300 328.75 L 296.25 328.75 M 253.75 321.25 L 253.75 325 C 253.75 336.7281942704871 263.2718057295129 346.25 275 346.25 L 278.75 346.25 M 271.25 321.25 L 271.25 325 C 271.25 327.06968134185064 272.93031865814936 328.75 275 328.75 L 278.75 328.75 M 196.25 321.25 L 200 321.25 C 202.06968134185067 321.25 203.75 322.93031865814936 203.75 325 L 203.75 328.75 M 153.75 321.25 L 153.75 353.75 M 171.25 321.25 L 171.25 353.75 M 146.25 303.75 L 178.75 303.75 M 146.25 321.25 L 178.75 321.25 M 121.25 303.75 L 128.75 303.75 M 121.25 321.25 L 128.75 321.25 M 78.75 321.25 L 78.75 328.75 M 96.25 321.25 L 96.25 328.75 M 28.75 328.75 L 28.75 312.5 C 28.75 307.67074353568177 32.67074353568178 303.75 37.5 303.75 C 42.32925646431822 303.75 46.25 307.67074353568177 46.25 312.5 L 46.25 328.75 M 471.25 296.25 L 487.5 296.25 C 492.32925646431823 296.25 496.25 292.32925646431823 496.25 287.5 C 496.25 282.67074353568177 492.32925646431823 278.75 487.5 278.75 L 471.25 278.75 M 446.25 303.75 L 446.25 300 C 446.25 297.93031865814936 447.93031865814936 296.25 450 296.25 L 453.75 296.25 M 353.75 303.75 L 353.75 287.5 C 353.75 282.67074353568177 357.67074353568177 278.75 362.5 278.75 C 367.32925646431823 278.75 371.25 282.67074353568177 371.25 287.5 L 371.25 303.75 M 278.75 296.25 L 278.75 378.75 M 296.25 296.25 L 296.25 378.75 M 253.75 296.25 L 253.75 303.75 M 271.25 296.25 L 271.25 303.75 M 228.75 296.25 L 228.75 300 C 228.75 311.7281942704871 238.2718057295129 321.25 250 321.25 L 278.75 321.25 M 246.25 296.25 L 246.25 300 C 246.25 302.06968134185064 247.93031865814933 303.75 250 303.75 L 278.75 303.75 M 221.25 296.25 L 312.5 296.25 C 317.32925646431823 296.25 321.25 292.32925646431823 321.25 287.5 C 321.25 282.67074353568177 317.32925646431823 278.75 312.5 278.75 L 221.25 278.75 M 203.75 353.75 L 200 353.75 C 197.93031865814933 353.75 196.25 352.06968134185064 196.25 350 L 196.25 300 C 196.25 297.93031865814936 197.93031865814933 296.25 200 296.25 L 203.75 296.25 M 153.75 296.25 L 153.75 303.75 M 171.25 296.25 L 171.25 303.75 M 146.25 353.75 L 146.25 300 C 146.25 297.93031865814936 147.93031865814933 296.25 150 296.25 L 175 296.25 C 177.06968134185067 296.25 178.75 297.93031865814936 178.75 300 L 178.75 350 C 178.75 352.06968134185064 177.06968134185067 353.75 175 353.75 L 96.25 353.75 M 71.25 296.25 L 75 296.25 C 77.06968134185067 296.25 78.75 297.93031865814936 78.75 300 L 78.75 303.75 M 53.75 278.75 L 12.5 278.75 C 7.670743535681782 278.75 3.75 282.67074353568177 3.7500000000000004 287.5 C 3.75 292.32925646431823 7.670743535681782 296.25 12.5 296.25 L 53.75 296.25 M 471.25 271.25 L 487.5 271.25 C 492.32925646431823 271.25 496.25 267.32925646431823 496.25 262.5 C 496.25 257.67074353568177 492.32925646431823 253.75 487.5 253.75 L 471.25 253.75 M 428.75 271.25 L 428.75 303.75 M 446.25 271.25 L 446.25 275 C 446.25 277.06968134185064 447.93031865814936 278.75 450 278.75 L 453.75 278.75 M 421.25 253.75 L 453.75 253.75 M 421.25 271.25 L 453.75 271.25 M 396.25 271.25 L 396.25 287.5 C 396.25 292.32925646431823 392.32925646431823 296.25 387.5 296.25 C 382.67074353568177 296.25 378.75 292.32925646431823 378.75 287.5 L 378.75 271.25 M 346.25 271.25 L 403.75 271.25 M 296.25 253.75 L 328.75 253.75 M 296.25 271.25 L 328.75 271.25 M 253.75 278.75 L 253.75 275 C 253.75 263.2718057295129 263.2718057295129 253.75 275 253.75 L 278.75 253.75 M 271.25 278.75 L 271.25 275 C 271.25 272.93031865814936 272.93031865814936 271.25 275 271.25 L 278.75 271.25 M 196.25 271.25 L 196.25 275 C 196.25 277.06968134185064 197.93031865814933 278.75 200 278.75 L 203.75 278.75 M 153.75 271.25 L 153.75 278.75 M 171.25 271.25 L 171.25 278.75 M 128.75 271.25 L 128.75 353.75 M 146.25 271.25 L 146.25 275 C 146.25 277.06968134185064 147.93031865814933 278.75 150 278.75 L 175 278.75 C 177.06968134185067 278.75 178.75 277.06968134185064 178.75 275 L 178.75 271.25 M 121.25 271.25 L 200 271.25 C 202.06968134185067 271.25 203.75 272.93031865814936 203.75 275 L 203.75 300 C 203.75 302.06968134185064 202.06968134185067 303.75 200 303.75 L 196.25 303.75 M 96.25 253.75 L 103.75 253.75 M 96.25 271.25 L 103.75 271.25 M 53.75 271.25 L 53.75 300 C 53.75 311.7281942704871 63.2718057295129 321.25 75 321.25 L 103.75 321.25 M 71.25 271.25 L 71.25 300 C 71.25 302.06968134185064 72.93031865814933 303.75 75 303.75 L 103.75 303.75 M 446.25 246.25 L 450 246.25 C 452.06968134185064 246.25 453.75 247.93031865814933 453.75 250 L 453.75 328.75 M 421.25 228.75 L 428.75 228.75 M 421.25 246.25 L 428.75 246.25 M 378.75 246.25 L 378.75 253.75 M 396.25 246.25 L 396.25 253.75 M 403.75 253.75 L 375 253.75 C 372.93031865814936 253.75 371.25 252.06968134185067 371.25 250 C 371.25 247.93031865814933 372.93031865814936 246.25 375 246.25 L 403.75 246.25 M 346.25 246.25 L 350 246.25 C 352.06968134185064 246.25 353.75 247.93031865814933 353.75 250 C 353.75 252.06968134185067 352.06968134185064 253.75 350 253.75 L 346.25 253.75 M 278.75 278.75 L 278.75 237.5 C 278.75 232.6707435356818 282.67074353568177 228.75 287.5 228.75 C 292.32925646431823 228.75 296.25 232.6707435356818 296.25 237.5 L 296.25 278.75 M 228.75 246.25 L 228.75 278.75 M 246.25 246.25 L 246.25 278.75 M 203.75 246.25 L 203.75 250 C 203.75 252.06968134185067 202.06968134185067 253.75 200 253.75 L 121.25 253.75 M 221.25 246.25 L 221.25 328.75 M 178.75 246.25 L 178.75 253.75 M 196.25 246.25 L 196.25 253.75 M 128.75 253.75 L 128.75 250 C 128.75 238.2718057295129 138.2718057295129 228.75 150 228.75 L 153.75 228.75 M 146.25 253.75 L 146.25 250 C 146.25 247.93031865814933 147.93031865814933 246.25 150 246.25 L 153.75 246.25 M 53.75 353.75 L 53.75 350 C 53.75 347.93031865814936 52.06968134185067 346.25 50 346.25 L 25 346.25 C 13.2718057295129 346.25 3.75 336.7281942704871 3.7500000000000004 325 L 3.7500000000000004 312.5 C 3.75 307.67074353568177 7.670743535681782 303.75 12.5 303.75 C 17.329256464318217 303.75 21.25 307.67074353568177 21.25 312.5 L 21.25 325 C 21.25 327.06968134185064 22.930318658149336 328.75 25 328.75 L 100 328.75 C 102.06968134185067 328.75 103.75 327.06968134185064 103.75 325 L 103.75 237.5 C 103.75 232.6707435356818 107.67074353568178 228.75 112.5 228.75 C 117.32925646431822 228.75 121.25 232.6707435356818 121.25 237.5 L 121.25 325 C 121.25 327.06968134185064 122.93031865814933 328.75 125 328.75 L 128.75 328.75 M 71.25 278.75 L 75 278.75 C 77.06968134185067 278.75 78.75 277.06968134185064 78.75 275 L 78.75 237.5 C 78.75 232.6707435356818 82.67074353568178 228.75 87.5 228.75 C 92.32925646431822 228.75 96.25 232.6707435356818 96.25 237.5 L 96.25 303.75 M 78.75 253.75 L 50 253.75 C 47.93031865814933 253.75 46.25 252.06968134185067 46.25 250 C 46.25 238.2718057295129 36.7281942704871 228.75 25 228.75 L 12.5 228.75 C 7.670743535681782 228.75 3.75 232.6707435356818 3.7500000000000004 237.5 C 3.75 242.3292564643182 7.670743535681782 246.25 12.5 246.25 L 25 246.25 C 27.069681341850664 246.25 28.75 247.93031865814933 28.75 250 C 28.75 252.06968134185067 27.069681341850664 253.75 25 253.75 L 12.5 253.75 C 7.670743535681782 253.75 3.75 257.67074353568177 3.7500000000000004 262.5 C 3.75 267.32925646431823 7.670743535681782 271.25 12.5 271.25 L 78.75 271.25 M 471.25 221.25 L 487.5 221.25 C 492.32925646431823 221.25 496.25 217.3292564643182 496.25 212.5 C 496.25 207.6707435356818 492.32925646431823 203.75 487.5 203.75 L 471.25 203.75 M 446.25 253.75 L 446.25 225 C 446.25 222.93031865814933 447.93031865814936 221.25 450 221.25 L 453.75 221.25 M 403.75 328.75 L 403.75 212.5 C 403.75 207.6707435356818 407.67074353568177 203.75 412.5 203.75 C 417.32925646431823 203.75 421.25 207.6707435356818 421.25 212.5 L 421.25 300 C 421.25 302.06968134185064 422.93031865814936 303.75 425 303.75 L 453.75 303.75 M 353.75 221.25 L 353.75 225 C 353.75 227.06968134185067 352.06968134185064 228.75 350 228.75 L 346.25 228.75 M 371.25 221.25 L 371.25 225 C 371.25 227.06968134185067 372.93031865814936 228.75 375 228.75 L 403.75 228.75 M 346.25 221.25 L 375 221.25 C 377.06968134185064 221.25 378.75 222.93031865814933 378.75 225 L 378.75 228.75 M 321.25 203.75 L 328.75 203.75 M 321.25 221.25 L 328.75 221.25 M 271.25 221.25 L 303.75 221.25 M 246.25 203.75 L 253.75 203.75 M 246.25 221.25 L 253.75 221.25 M 203.75 228.75 L 203.75 225 C 203.75 213.2718057295129 213.2718057295129 203.75 225 203.75 L 228.75 203.75 M 221.25 228.75 L 221.25 225 C 221.25 222.93031865814933 222.93031865814933 221.25 225 221.25 L 228.75 221.25 M 178.75 228.75 L 178.75 212.5 C 178.75 207.6707435356818 182.6707435356818 203.75 187.5 203.75 C 192.3292564643182 203.75 196.25 207.6707435356818 196.25 212.5 L 196.25 228.75 M 53.75 221.25 L 53.75 253.75 M 71.25 221.25 L 71.25 253.75 M 453.75 196.25 L 453.75 225 C 453.75 227.06968134185067 452.06968134185064 228.75 450 228.75 L 446.25 228.75 M 471.25 196.25 L 471.25 225 C 471.25 227.06968134185067 472.93031865814936 228.75 475 228.75 L 487.5 228.75 C 492.32925646431823 228.75 496.25 232.6707435356818 496.25 237.5 C 496.25 242.3292564643182 492.32925646431823 246.25 487.5 246.25 L 475 246.25 C 472.93031865814936 246.25 471.25 247.93031865814933 471.25 250 L 471.25 328.75 M 446.25 196.25 L 487.5 196.25 C 492.32925646431823 196.25 496.25 192.3292564643182 496.25 187.5 C 496.25 182.6707435356818 492.32925646431823 178.75 487.5 178.75 L 446.25 178.75 M 378.75 196.25 L 378.75 200 C 378.75 202.06968134185067 377.06968134185064 203.75 375 203.75 L 346.25 203.75 M 396.25 196.25 L 396.25 228.75 M 371.25 203.75 L 371.25 200 C 371.25 197.93031865814933 372.93031865814936 196.25 375 196.25 L 428.75 196.25 M 321.25 196.25 L 325 196.25 C 327.06968134185064 196.25 328.75 197.93031865814933 328.75 200 L 328.75 287.5 C 328.75 292.32925646431823 332.67074353568177 296.25 337.5 296.25 C 342.32925646431823 296.25 346.25 292.32925646431823 346.25 287.5 L 346.25 200 C 346.25 188.2718057295129 336.7281942704871 178.75 325 178.75 L 321.25 178.75 M 278.75 196.25 L 278.75 200 C 278.75 202.06968134185067 277.06968134185064 203.75 275 203.75 L 271.25 203.75 M 296.25 196.25 L 296.25 200 C 296.25 202.06968134185067 297.93031865814936 203.75 300 203.75 L 303.75 203.75 M 253.75 196.25 L 253.75 225 C 253.75 227.06968134185067 252.06968134185067 228.75 250 228.75 L 171.25 228.75 M 271.25 196.25 L 271.25 225 C 271.25 236.7281942704871 261.7281942704871 246.25 250 246.25 L 171.25 246.25 M 246.25 178.75 L 303.75 178.75 M 246.25 196.25 L 303.75 196.25 M 146.25 196.25 L 150 196.25 C 152.06968134185067 196.25 153.75 197.93031865814933 153.75 200 L 153.75 253.75 M 121.25 196.25 L 121.25 212.5 C 121.25 217.3292564643182 117.32925646431822 221.25 112.5 221.25 C 107.67074353568178 221.25 103.75 217.3292564643182 103.75 212.5 L 103.75 196.25 M 71.25 178.75 L 128.75 178.75 M 71.25 196.25 L 128.75 196.25 M 28.75 196.25 L 28.75 200 C 28.75 202.06968134185067 27.069681341850664 203.75 25 203.75 L 12.5 203.75 C 7.670743535681782 203.75 3.75 207.6707435356818 3.7500000000000004 212.5 C 3.75 217.3292564643182 7.670743535681782 221.25 12.5 221.25 L 75 221.25 C 86.7281942704871 221.25 96.25 211.7281942704871 96.25 200 L 96.25 196.25 M 46.25 196.25 L 46.25 200 C 46.25 202.06968134185067 47.93031865814933 203.75 50 203.75 L 75 203.75 C 77.06968134185067 203.75 78.75 202.06968134185067 78.75 200 L 78.75 196.25 M 53.75 178.75 L 12.5 178.75 C 7.670743535681782 178.75 3.75 182.6707435356818 3.7500000000000004 187.5 C 3.75 192.3292564643182 7.670743535681782 196.25 12.5 196.25 L 53.75 196.25 M 471.25 171.25 L 487.5 171.25 C 492.32925646431823 171.25 496.25 167.3292564643182 496.25 162.5 C 496.25 157.6707435356818 492.32925646431823 153.75 487.5 153.75 L 471.25 153.75 M 453.75 203.75 L 450 203.75 C 447.93031865814936 203.75 446.25 202.06968134185067 446.25 200 L 446.25 175 C 446.25 172.93031865814933 447.93031865814936 171.25 450 171.25 L 453.75 171.25 M 421.25 153.75 L 453.75 153.75 M 421.25 171.25 L 425 171.25 C 427.06968134185064 171.25 428.75 172.93031865814933 428.75 175 L 428.75 253.75 M 378.75 178.75 L 378.75 175 C 378.75 163.2718057295129 388.2718057295129 153.75 400 153.75 L 403.75 153.75 M 396.25 178.75 L 396.25 175 C 396.25 172.93031865814933 397.93031865814936 171.25 400 171.25 L 403.75 171.25 M 303.75 171.25 L 303.75 225 C 303.75 236.7281942704871 313.2718057295129 246.25 325 246.25 L 328.75 246.25 M 321.25 171.25 L 321.25 225 C 321.25 227.06968134185067 322.93031865814936 228.75 325 228.75 L 328.75 228.75 M 278.75 171.25 L 278.75 178.75 M 296.25 171.25 L 296.25 178.75 M 228.75 171.25 L 228.75 228.75 M 246.25 171.25 L 246.25 228.75 M 221.25 153.75 L 337.5 153.75 C 342.32925646431823 153.75 346.25 157.6707435356818 346.25 162.5 C 346.25 167.3292564643182 342.32925646431823 171.25 337.5 171.25 L 275 171.25 C 272.93031865814936 171.25 271.25 172.93031865814933 271.25 175 L 271.25 178.75 M 221.25 171.25 L 250 171.25 C 252.06968134185067 171.25 253.75 172.93031865814933 253.75 175 L 253.75 178.75 M 196.25 171.25 L 196.25 187.5 C 196.25 192.3292564643182 192.3292564643182 196.25 187.5 196.25 C 182.6707435356818 196.25 178.75 192.3292564643182 178.75 187.5 L 178.75 171.25 M 153.75 171.25 L 153.75 175 C 153.75 177.06968134185067 152.06968134185067 178.75 150 178.75 L 146.25 178.75 M 171.25 171.25 L 171.25 253.75 M 146.25 171.25 L 146.25 212.5 C 146.25 217.3292564643182 142.3292564643182 221.25 137.5 221.25 C 132.6707435356818 221.25 128.75 217.3292564643182 128.75 212.5 L 128.75 171.25 M 121.25 178.75 L 121.25 175 C 121.25 172.93031865814933 122.93031865814933 171.25 125 171.25 L 203.75 171.25 M 53.75 171.25 L 53.75 203.75 M 71.25 171.25 L 71.25 203.75 M 46.25 153.75 L 75 153.75 C 86.7281942704871 153.75 96.25 163.2718057295129 96.25 175 L 96.25 178.75 M 46.25 171.25 L 75 171.25 C 77.06968134185067 171.25 78.75 172.93031865814933 78.75 175 L 78.75 178.75 M 28.75 153.75 L 12.5 153.75 C 7.670743535681782 153.75 3.75 157.6707435356818 3.7500000000000004 162.5 C 3.75 167.3292564643182 7.670743535681782 171.25 12.5 171.25 L 28.75 171.25 M 453.75 146.25 L 453.75 178.75 M 471.25 146.25 L 471.25 178.75 M 403.75 146.25 L 403.75 175 C 403.75 177.06968134185067 402.06968134185064 178.75 400 178.75 L 375 178.75 C 372.93031865814936 178.75 371.25 177.06968134185067 371.25 175 L 371.25 162.5 C 371.25 157.6707435356818 367.32925646431823 153.75 362.5 153.75 C 357.67074353568177 153.75 353.75 157.6707435356818 353.75 162.5 L 353.75 203.75 M 421.25 146.25 L 421.25 175 C 421.25 177.06968134185067 422.93031865814936 178.75 425 178.75 L 428.75 178.75 M 321.25 146.25 L 337.5 146.25 C 342.32925646431823 146.25 346.25 142.3292564643182 346.25 137.5 C 346.25 132.6707435356818 342.32925646431823 128.75 337.5 128.75 L 321.25 128.75 M 278.75 153.75 L 278.75 150 C 278.75 138.2718057295129 288.2718057295129 128.75 300 128.75 L 303.75 128.75 M 296.25 153.75 L 296.25 150 C 296.25 147.93031865814933 297.93031865814936 146.25 300 146.25 L 303.75 146.25 M 228.75 146.25 L 228.75 153.75 M 246.25 146.25 L 246.25 153.75 M 171.25 128.75 L 175 128.75 C 186.7281942704871 128.75 196.25 138.2718057295129 196.25 150 L 196.25 153.75 M 171.25 146.25 L 175 146.25 C 177.06968134185067 146.25 178.75 147.93031865814933 178.75 150 L 178.75 153.75 M 146.25 153.75 L 146.25 150 C 146.25 147.93031865814933 147.93031865814933 146.25 150 146.25 L 153.75 146.25 M 121.25 146.25 L 125 146.25 C 127.06968134185067 146.25 128.75 147.93031865814933 128.75 150 L 128.75 153.75 M 71.25 153.75 L 71.25 150 C 71.25 147.93031865814933 72.93031865814933 146.25 75 146.25 L 103.75 146.25 M 28.75 146.25 L 28.75 178.75 M 46.25 146.25 L 46.25 178.75 M 471.25 121.25 L 487.5 121.25 C 492.32925646431823 121.25 496.25 117.32925646431822 496.25 112.5 C 496.25 107.67074353568178 492.32925646431823 103.75 487.5 103.75 L 471.25 103.75 M 446.25 103.75 L 453.75 103.75 M 446.25 121.25 L 453.75 121.25 M 403.75 121.25 L 403.75 128.75 M 421.25 121.25 L 421.25 128.75 M 396.25 103.75 L 428.75 103.75 M 396.25 121.25 L 428.75 121.25 M 371.25 121.25 L 371.25 137.5 C 371.25 142.3292564643182 367.32925646431823 146.25 362.5 146.25 C 357.67074353568177 146.25 353.75 142.3292564643182 353.75 137.5 L 353.75 121.25 M 303.75 121.25 L 303.75 153.75 M 321.25 121.25 L 321.25 153.75 M 228.75 121.25 L 228.75 128.75 M 246.25 121.25 L 246.25 128.75 M 153.75 121.25 L 153.75 153.75 M 171.25 121.25 L 171.25 153.75 M 203.75 153.75 L 125 153.75 C 122.93031865814933 153.75 121.25 152.06968134185067 121.25 150 L 121.25 125 C 121.25 122.93031865814933 122.93031865814933 121.25 125 121.25 L 128.75 121.25 M 53.75 121.25 L 53.75 125 C 53.75 127.06968134185067 52.06968134185067 128.75 50 128.75 L 12.5 128.75 C 7.670743535681782 128.75 3.75 132.6707435356818 3.7500000000000004 137.5 C 3.75 142.3292564643182 7.670743535681782 146.25 12.5 146.25 L 50 146.25 C 52.06968134185067 146.25 53.75 147.93031865814933 53.75 150 L 53.75 153.75 M 46.25 121.25 L 75 121.25 C 77.06968134185067 121.25 78.75 122.93031865814933 78.75 125 C 78.75 127.06968134185067 77.06968134185067 128.75 75 128.75 C 72.93031865814933 128.75 71.25 127.06968134185067 71.25 125 L 71.25 121.25 M 403.75 96.25 L 403.75 103.75 M 421.25 96.25 L 421.25 103.75 M 428.75 96.25 L 428.75 125 C 428.75 127.06968134185067 427.06968134185064 128.75 425 128.75 L 400 128.75 C 397.93031865814936 128.75 396.25 127.06968134185067 396.25 125 L 396.25 100 C 396.25 97.93031865814933 397.93031865814936 96.25 400 96.25 L 450 96.25 C 452.06968134185064 96.25 453.75 97.93031865814933 453.75 100 L 453.75 128.75 M 371.25 78.75 L 450 78.75 C 461.7281942704871 78.75 471.25 88.2718057295129 471.25 100 L 471.25 128.75 M 371.25 96.25 L 375 96.25 C 377.06968134185064 96.25 378.75 97.93031865814933 378.75 100 L 378.75 125 C 378.75 136.7281942704871 388.2718057295129 146.25 400 146.25 L 487.5 146.25 C 492.32925646431823 146.25 496.25 142.3292564643182 496.25 137.5 C 496.25 132.6707435356818 492.32925646431823 128.75 487.5 128.75 L 450 128.75 C 447.93031865814936 128.75 446.25 127.06968134185067 446.25 125 L 446.25 96.25 M 378.75 103.75 L 300 103.75 C 297.93031865814936 103.75 296.25 102.06968134185067 296.25 100 C 296.25 97.93031865814933 297.93031865814936 96.25 300 96.25 C 302.06968134185064 96.25 303.75 97.93031865814933 303.75 100 L 303.75 103.75 M 253.75 96.25 L 253.75 100 C 253.75 102.06968134185067 252.06968134185067 103.75 250 103.75 L 225 103.75 C 213.2718057295129 103.75 203.75 113.2718057295129 203.75 125 L 203.75 175 C 203.75 186.7281942704871 213.2718057295129 196.25 225 196.25 L 228.75 196.25 M 271.25 96.25 L 271.25 100 C 271.25 111.7281942704871 261.7281942704871 121.25 250 121.25 L 225 121.25 C 222.93031865814933 121.25 221.25 122.93031865814933 221.25 125 C 221.25 127.06968134185067 222.93031865814933 128.75 225 128.75 L 262.5 128.75 C 267.32925646431823 128.75 271.25 132.6707435356818 271.25 137.5 C 271.25 142.3292564643182 267.32925646431823 146.25 262.5 146.25 L 225 146.25 C 222.93031865814933 146.25 221.25 147.93031865814933 221.25 150 L 221.25 175 C 221.25 177.06968134185067 222.93031865814933 178.75 225 178.75 L 228.75 178.75 M 246.25 96.25 L 275 96.25 C 277.06968134185064 96.25 278.75 97.93031865814933 278.75 100 C 278.75 111.7281942704871 288.2718057295129 121.25 300 121.25 L 378.75 121.25 M 178.75 96.25 L 178.75 100 C 178.75 102.06968134185067 177.06968134185067 103.75 175 103.75 L 146.25 103.75 M 196.25 96.25 L 196.25 100 C 196.25 111.7281942704871 186.7281942704871 121.25 175 121.25 L 146.25 121.25 M 171.25 96.25 L 228.75 96.25 M 128.75 96.25 L 128.75 125 C 128.75 127.06968134185067 127.06968134185067 128.75 125 128.75 L 121.25 128.75 M 146.25 96.25 L 146.25 125 C 146.25 127.06968134185067 147.93031865814933 128.75 150 128.75 L 153.75 128.75 M 103.75 96.25 L 103.75 178.75 M 121.25 96.25 L 121.25 100 C 121.25 102.06968134185067 122.93031865814933 103.75 125 103.75 L 128.75 103.75 M 78.75 96.25 L 78.75 100 C 78.75 102.06968134185067 77.06968134185067 103.75 75 103.75 L 46.25 103.75 M 96.25 96.25 L 96.25 125 C 96.25 127.06968134185067 97.93031865814933 128.75 100 128.75 L 103.75 128.75 M 53.75 103.75 L 53.75 100 C 53.75 88.2718057295129 63.2718057295129 78.75 75 78.75 L 153.75 78.75 M 71.25 103.75 L 71.25 100 C 71.25 97.93031865814933 72.93031865814933 96.25 75 96.25 L 153.75 96.25 M 28.75 121.25 L 25 121.25 C 13.2718057295129 121.25 3.75 111.7281942704871 3.7500000000000004 100 L 3.7500000000000004 87.5 C 3.75 82.67074353568178 7.670743535681782 78.75 12.5 78.75 C 17.329256464318217 78.75 21.25 82.67074353568178 21.25 87.5 L 21.25 100 C 21.25 102.06968134185067 22.930318658149336 103.75 25 103.75 L 28.75 103.75 M 421.25 71.25 L 425 71.25 C 427.06968134185064 71.25 428.75 72.93031865814933 428.75 75 L 428.75 78.75 M 371.25 71.25 L 403.75 71.25 M 346.25 53.75 L 353.75 53.75 M 346.25 71.25 L 353.75 71.25 M 296.25 53.75 L 328.75 53.75 M 296.25 71.25 L 328.75 71.25 M 271.25 78.75 L 271.25 75 C 271.25 72.93031865814933 272.93031865814936 71.25 275 71.25 L 278.75 71.25 M 203.75 71.25 L 203.75 75 C 203.75 77.06968134185067 202.06968134185067 78.75 200 78.75 L 171.25 78.75 M 221.25 71.25 L 221.25 75 C 221.25 77.06968134185067 222.93031865814933 78.75 225 78.75 L 228.75 78.75 M 196.25 78.75 L 196.25 75 C 196.25 72.93031865814933 197.93031865814933 71.25 200 71.25 L 225 71.25 C 227.06968134185067 71.25 228.75 72.93031865814933 228.75 75 L 228.75 103.75 M 128.75 78.75 L 128.75 62.5 C 128.75 57.67074353568178 132.6707435356818 53.75 137.5 53.75 C 142.3292564643182 53.75 146.25 57.67074353568178 146.25 62.5 L 146.25 78.75 M 78.75 71.25 L 78.75 78.75 M 96.25 71.25 L 96.25 78.75 M 46.25 71.25 L 100 71.25 C 102.06968134185067 71.25 103.75 72.93031865814933 103.75 75 L 103.75 78.75 M 28.75 53.75 L 12.5 53.75 C 7.670743535681782 53.75 3.75 57.67074353568178 3.7500000000000004 62.5 C 3.75 67.32925646431822 7.670743535681782 71.25 12.5 71.25 L 28.75 71.25 M 428.75 46.25 L 428.75 50 C 428.75 52.06968134185067 427.06968134185064 53.75 425 53.75 L 421.25 53.75 M 446.25 46.25 L 446.25 78.75 M 421.25 78.75 L 421.25 50 C 421.25 47.93031865814933 422.93031865814936 46.25 425 46.25 L 453.75 46.25 M 396.25 46.25 L 400 46.25 C 402.06968134185064 46.25 403.75 47.93031865814933 403.75 50 L 403.75 78.75 M 371.25 103.75 L 371.25 50 C 371.25 47.93031865814933 372.93031865814936 46.25 375 46.25 L 378.75 46.25 M 346.25 28.75 L 378.75 28.75 M 346.25 46.25 L 350 46.25 C 352.06968134185064 46.25 353.75 47.93031865814933 353.75 50 L 353.75 103.75 M 278.75 46.25 L 278.75 75 C 278.75 77.06968134185067 277.06968134185064 78.75 275 78.75 L 246.25 78.75 M 296.25 46.25 L 296.25 75 C 296.25 77.06968134185067 297.93031865814936 78.75 300 78.75 C 311.7281942704871 78.75 321.25 88.2718057295129 321.25 100 L 321.25 103.75 M 253.75 46.25 L 253.75 78.75 M 271.25 46.25 L 271.25 50 C 271.25 52.06968134185067 272.93031865814936 53.75 275 53.75 L 278.75 53.75 M 178.75 46.25 L 178.75 78.75 M 196.25 46.25 L 196.25 50 C 196.25 52.06968134185067 197.93031865814933 53.75 200 53.75 L 225 53.75 C 236.7281942704871 53.75 246.25 63.2718057295129 246.25 75 L 246.25 103.75 M 171.25 46.25 L 200 46.25 C 202.06968134185067 46.25 203.75 47.93031865814933 203.75 50 L 203.75 53.75 M 71.25 46.25 L 75 46.25 C 77.06968134185067 46.25 78.75 47.93031865814933 78.75 50 L 78.75 53.75 M 46.25 128.75 L 46.25 50 C 46.25 47.93031865814933 47.93031865814933 46.25 50 46.25 L 53.75 46.25 M 471.25 28.75 L 475 28.75 C 477.06968134185064 28.75 478.75 27.069681341850664 478.75 25 L 478.75 12.5 C 478.75 7.670743535681782 482.67074353568177 3.75 487.5 3.7500000000000004 C 492.32925646431823 3.75 496.25 7.670743535681782 496.25 12.5 L 496.25 25 C 496.25 36.7281942704871 486.7281942704871 46.25 475 46.25 L 471.25 46.25 M 446.25 28.75 L 446.25 25 C 446.25 22.930318658149336 447.93031865814936 21.25 450 21.25 C 452.06968134185064 21.25 453.75 22.930318658149336 453.75 25 L 453.75 50 C 453.75 61.7281942704871 463.2718057295129 71.25 475 71.25 C 477.06968134185064 71.25 478.75 72.93031865814933 478.75 75 L 478.75 87.5 C 478.75 92.32925646431822 482.67074353568177 96.25 487.5 96.25 C 492.32925646431823 96.25 496.25 92.32925646431822 496.25 87.5 L 496.25 75 C 496.25 63.2718057295129 486.7281942704871 53.75 475 53.75 C 472.93031865814936 53.75 471.25 52.06968134185067 471.25 50 L 471.25 25 C 471.25 13.2718057295129 461.7281942704871 3.75 450 3.7500000000000004 C 438.2718057295129 3.75 428.75 13.2718057295129 428.75 25 L 428.75 28.75 M 396.25 28.75 L 400 28.75 C 402.06968134185064 28.75 403.75 27.069681341850664 403.75 25 L 403.75 12.5 C 403.75 7.670743535681782 407.67074353568177 3.75 412.5 3.7500000000000004 C 417.32925646431823 3.75 421.25 7.670743535681782 421.25 12.5 L 421.25 25 C 421.25 27.069681341850664 422.93031865814936 28.75 425 28.75 L 453.75 28.75 M 403.75 53.75 L 400 53.75 C 397.93031865814936 53.75 396.25 52.06968134185067 396.25 50 L 396.25 25 C 396.25 13.2718057295129 386.7281942704871 3.75 375 3.7500000000000004 L 362.5 3.7500000000000004 C 357.67074353568177 3.75 353.75 7.670743535681782 353.75 12.5 C 353.75 17.329256464318217 357.67074353568177 21.25 362.5 21.25 L 375 21.25 C 377.06968134185064 21.25 378.75 22.930318658149336 378.75 25 L 378.75 50 C 378.75 52.06968134185067 377.06968134185064 53.75 375 53.75 L 371.25 53.75 M 353.75 96.25 L 350 96.25 C 338.2718057295129 96.25 328.75 86.7281942704871 328.75 75 L 328.75 12.5 C 328.75 7.670743535681782 332.67074353568177 3.75 337.5 3.7500000000000004 C 342.32925646431823 3.75 346.25 7.670743535681782 346.25 12.5 L 346.25 75 C 346.25 77.06968134185067 347.93031865814936 78.75 350 78.75 L 353.75 78.75 M 328.75 46.25 L 237.5 46.25 C 232.6707435356818 46.25 228.75 42.32925646431822 228.75 37.5 C 228.75 32.67074353568178 232.6707435356818 28.75 237.5 28.75 L 300 28.75 C 302.06968134185064 28.75 303.75 27.069681341850664 303.75 25 L 303.75 12.5 C 303.75 7.670743535681782 307.67074353568177 3.75 312.5 3.7500000000000004 C 317.32925646431823 3.75 321.25 7.670743535681782 321.25 12.5 L 321.25 25 C 321.25 27.069681341850664 322.93031865814936 28.75 325 28.75 L 328.75 28.75 M 278.75 28.75 L 278.75 12.5 C 278.75 7.670743535681782 282.67074353568177 3.75 287.5 3.7500000000000004 C 292.32925646431823 3.75 296.25 7.670743535681782 296.25 12.5 L 296.25 28.75 M 271.25 28.75 L 271.25 25 C 271.25 13.2718057295129 261.7281942704871 3.75 250 3.7500000000000004 L 237.5 3.7500000000000004 C 232.6707435356818 3.75 228.75 7.670743535681782 228.75 12.5 C 228.75 17.329256464318217 232.6707435356818 21.25 237.5 21.25 L 250 21.25 C 252.06968134185067 21.25 253.75 22.930318658149336 253.75 25 L 253.75 28.75 M 171.25 28.75 L 200 28.75 C 202.06968134185067 28.75 203.75 27.069681341850664 203.75 25 L 203.75 12.5 C 203.75 7.670743535681782 207.6707435356818 3.75 212.5 3.7500000000000004 C 217.3292564643182 3.75 221.25 7.670743535681782 221.25 12.5 L 221.25 53.75 M 178.75 28.75 L 178.75 12.5 C 178.75 7.670743535681782 182.6707435356818 3.75 187.5 3.7500000000000004 C 192.3292564643182 3.75 196.25 7.670743535681782 196.25 12.5 L 196.25 28.75 M 153.75 103.75 L 153.75 12.5 C 153.75 7.670743535681782 157.6707435356818 3.75 162.5 3.7500000000000004 C 167.3292564643182 3.75 171.25 7.670743535681782 171.25 12.5 L 171.25 103.75 M 153.75 28.75 L 150 28.75 C 147.93031865814933 28.75 146.25 27.069681341850664 146.25 25 C 146.25 13.2718057295129 136.7281942704871 3.75 125 3.7500000000000004 L 112.5 3.7500000000000004 C 107.67074353568178 3.75 103.75 7.670743535681782 103.75 12.5 C 103.75 17.329256464318217 107.67074353568178 21.25 112.5 21.25 L 125 21.25 C 127.06968134185067 21.25 128.75 22.930318658149336 128.75 25 C 128.75 36.7281942704871 138.2718057295129 46.25 150 46.25 L 153.75 46.25 M 71.25 28.75 L 75 28.75 C 77.06968134185067 28.75 78.75 27.069681341850664 78.75 25 L 78.75 12.5 C 78.75 7.670743535681782 82.67074353568178 3.75 87.5 3.7500000000000004 C 92.32925646431822 3.75 96.25 7.670743535681782 96.25 12.5 L 96.25 53.75 M 46.25 53.75 L 50 53.75 C 52.06968134185067 53.75 53.75 52.06968134185067 53.75 50 L 53.75 12.5 C 53.75 7.670743535681782 57.67074353568178 3.75 62.5 3.7500000000000004 C 67.32925646431822 3.75 71.25 7.670743535681782 71.25 12.5 L 71.25 50 C 71.25 52.06968134185067 72.93031865814933 53.75 75 53.75 L 100 53.75 C 102.06968134185067 53.75 103.75 52.06968134185067 103.75 50 L 103.75 37.5 C 103.75 32.67074353568178 107.67074353568178 28.75 112.5 28.75 C 117.32925646431822 28.75 121.25 32.67074353568178 121.25 37.5 L 121.25 78.75 M 53.75 28.75 L 50 28.75 C 47.93031865814933 28.75 46.25 27.069681341850664 46.25 25 C 46.25 13.2718057295129 36.7281942704871 3.75 25 3.7500000000000004 L 12.5 3.7500000000000004 C 7.670743535681782 3.75 3.75 7.670743535681782 3.7500000000000004 12.5 C 3.75 17.329256464318217 7.670743535681782 21.25 12.5 21.25 L 25 21.25 C 27.069681341850664 21.25 28.75 22.930318658149336 28.75 25 C 28.75 27.069681341850664 27.069681341850664 28.75 25 28.75 L 12.5 28.75 C 7.670743535681782 28.75 3.75 32.67074353568178 3.7500000000000004 37.5 C 3.75 42.32925646431822 7.670743535681782 46.25 12.5 46.25 L 25 46.25 C 27.069681341850664 46.25 28.75 47.93031865814933 28.75 50 L 28.75 128.75 "/>
</svg>
