<?xml version="1.0" encoding="UTF-8"?>
<svg xmlns="http://www.w3.org/2000/svg" xmlns:xlink="http://www.w3.org/1999/xlink" width="500" height="500" viewBox="0 0 500 500">
<rect x="-50" y="-50" width="600" height="600" fill="rgb(100%, 100%, 100%)" fill-opacity="1"/>
<path fill="none" stroke-width="3.75" stroke-linecap="round" stroke-linejoin="miter" stroke="rgb(100%, 0%, 0%)" stroke-opacity="1" stroke-miterlimit="10" d="M 212.5 471.25 L 212.5 500 M 412.5 446.25 L 412.5 453.75 M 337.5 446.25 L 337.5 453.75 M 387.5 421.25 L 387.5 475 C 387.5 481.8989378061689 393.1010621938311 487.5 400 487.5 C 406.8989378061689 487.5 412.5 481.8989378061689 412.5 475 L 412.5 471.25 M 337.5 421.25 L 337.5 428.75 M 212.5 421.25 L 212.5 453.75 M 337.5 396.25 L 337.5 403.75 M 271.25 387.5 L 350 387.5 C 356.8989378061689 387.5 362.5 393.1010621938311 362.5 400 L 362.5 475 C 362.5 481.8989378061689 356.8989378061689 487.5 350 487.5 C 343.1010621938311 487.5 337.5 481.8989378061689 337.5 475 L 337.5 471.25 M 221.25 387.5 L 253.75 387.5 M 212.5 371.25 L 212.5 403.75 M 187.5 371.25 L 187.5 375 C 187.5 381.8989378061689 193.10106219383113 387.5 200 387.5 L 203.75 387.5 M 71.25 362.5 L 78.75 362.5 M 396.25 337.5 L 400 337.5 C 406.8989378061689 337.5 412.5 343.1010621938311 412.5 350 L 412.5 428.75 M 296.25 337.5 L 378.75 337.5 M 221.25 337.5 L 278.75 337.5 M 203.75 337.5 L 200 337.5 C 193.10106219383113 337.5 187.5 343.1010621938311 187.5 350 L 187.5 353.75 M 112.5 346.25 L 112.5 350 C 112.5 356.8989378061689 106.89893780616889 362.5 100 362.5 L 96.25 362.5 M 28.75 337.5 L 25 337.5 C 18.10106219383112 337.5 12.5 343.1010621938311 12.5 350 C 12.5 356.8989378061689 18.10106219383112 362.5 25 362.5 L 53.75 362.5 M 387.5 321.25 L 387.5 403.75 M 112.5 321.25 L 112.5 328.75 M 296.25 287.5 L 378.75 287.5 M 246.25 287.5 L 278.75 287.5 M 212.5 296.25 L 212.5 353.75 M 137.5 296.25 L 137.5 325 C 137.5 331.8989378061689 131.89893780616887 337.5 125 337.5 L 46.25 337.5 M 387.5 271.25 L 387.5 303.75 M 212.5 271.25 L 212.5 278.75 M 162.5 271.25 L 162.5 275 C 162.5 281.8989378061689 156.89893780616887 287.5 150 287.5 L 125 287.5 C 118.10106219383111 287.5 112.5 293.1010621938311 112.5 300 L 112.5 303.75 M 137.5 271.25 L 137.5 278.75 M 412.5 246.25 L 412.5 275 C 412.5 281.8989378061689 406.8989378061689 287.5 400 287.5 L 396.25 287.5 M 162.5 246.25 L 162.5 253.75 M 137.5 246.25 L 137.5 253.75 M 412.5 221.25 L 412.5 228.75 M 387.5 221.25 L 387.5 253.75 M 212.5 221.25 L 212.5 253.75 M 187.5 221.25 L 187.5 275 C 187.5 281.8989378061689 193.10106219383113 287.5 200 287.5 L 228.75 287.5 M 162.5 221.25 L 162.5 228.75 M 387.5 196.25 L 387.5 203.75 M 162.5 196.25 L 162.5 203.75 M 187.5 203.75 L 187.5 200 C 187.5 193.10106219383113 181.89893780616887 187.5 175 187.5 L 150 187.5 C 143.10106219383113 187.5 137.5 193.10106219383113 137.5 200 L 137.5 228.75 M 412.5 171.25 L 412.5 203.75 M 387.5 171.25 L 387.5 178.75 M 162.5 171.25 L 162.5 178.75 M 412.5 146.25 L 412.5 153.75 M 387.5 146.25 L 387.5 153.75 M 287.5 146.25 L 287.5 350 C 287.5 356.8989378061689 293.1010621938311 362.5 300 362.5 L 325 362.5 C 331.8989378061689 362.5 337.5 368.1010621938311 337.5 375 L 337.5 378.75 M 212.5 203.75 L 212.5 150 C 212.5 143.10106219383113 206.89893780616887 137.5 200 137.5 L 175 137.5 C 168.10106219383113 137.5 162.5 143.10106219383113 162.5 150 L 162.5 153.75 M 412.5 121.25 L 412.5 128.75 M 296.25 112.5 L 375 112.5 C 381.8989378061689 112.5 387.5 118.10106219383111 387.5 125 L 387.5 128.75 M 271.25 112.5 L 278.75 112.5 M 196.25 112.5 L 253.75 112.5 M 121.25 112.5 L 178.75 112.5 M 46.25 112.5 L 103.75 112.5 M 0 112.5 L 28.75 112.5 M 371.25 62.5 L 400 62.5 C 406.8989378061689 62.5 412.5 68.10106219383111 412.5 75 L 412.5 103.75 M 346.25 62.5 L 353.75 62.5 M 321.25 62.5 L 328.75 62.5 M 303.75 62.5 L 300 62.5 C 293.1010621938311 62.5 287.5 68.10106219383111 287.5 75 L 287.5 128.75 "/>
<path fill="none" stroke-width="3.75" stroke-linecap="round" stroke-linejoin="miter" stroke="rgb(0%, 0%, 0%)" stroke-opacity="1" stroke-miterlimit="10" d="M 446.25 471.25 L 446.25 487.5 C 446.25 492.32925646431823 442.32925646431823 496.25 437.5 496.25 C 432.67074353568177 496.25 428.75 492.32925646431823 428.75 487.5 L 428.75 471.25 M 396.25 453.75 L 453.75 453.75 M 396.25 471.25 L 453.75 471.25 M 371.25 453.75 L 378.75 453.75 M 371.25 471.25 L 378.75 471.25 M 321.25 453.75 L 353.75 453.75 M 321.25 471.25 L 353.75 471.25 M 296.25 471.25 L 296.25 487.5 C 296.25 492.32925646431823 292.32925646431823 496.25 287.5 496.25 C 282.67074353568177 496.25 278.75 492.32925646431823 278.75 487.5 L 278.75 471.25 M 271.25 453.75 L 303.75 453.75 M 271.25 471.25 L 303.75 471.25 M 246.25 453.75 L 253.75 453.75 M 246.25 471.25 L 253.75 471.25 M 203.75 471.25 L 203.75 500 M 221.25 471.25 L 221.25 500 M 196.25 471.25 L 196.25 487.5 C 196.25 492.32925646431823 192.3292564643182 496.25 187.5 496.25 C 182.6707435356818 496.25 178.75 492.32925646431823 178.75 487.5 L 178.75 471.25 M 171.25 453.75 L 228.75 453.75 M 171.25 471.25 L 228.75 471.25 M 146.25 453.75 L 153.75 453.75 M 146.25 471.25 L 153.75 471.25 M 121.25 453.75 L 128.75 453.75 M 121.25 471.25 L 128.75 471.25 M 53.75 471.25 L 53.75 475 C 53.75 486.7281942704871 63.2718057295129 496.25 75 496.25 C 86.7281942704871 496.25 96.25 486.7281942704871 96.25 475 L 96.25 471.25 M 71.25 471.25 L 71.25 475 C 71.25 477.06968134185064 72.93031865814933 478.75 75 478.75 C 77.06968134185067 478.75 78.75 477.06968134185064 78.75 475 L 78.75 471.25 M 46.25 453.75 L 103.75 453.75 M 46.25 471.25 L 103.75 471.25 M 28.75 453.75 L 12.5 453.75 C 7.670743535681782 453.75 3.75 457.67074353568177 3.7500000000000004 462.5 C 3.75 467.32925646431823 7.670743535681782 471.25 12.5 471.25 L 28.75 471.25 M 471.25 428.75 L 475 428.75 C 486.7281942704871 428.75 496.25 438.2718057295129 496.25 450 L 496.25 487.5 C 496.25 492.32925646431823 492.32925646431823 496.25 487.5 496.25 C 482.67074353568177 496.25 478.75 492.32925646431823 478.75 487.5 L 478.75 475 C 478.75 472.93031865814936 477.06968134185064 471.25 475 471.25 L 471.25 471.25 M 471.25 446.25 L 475 446.25 C 477.06968134185064 446.25 478.75 447.93031865814936 478.75 450 C 478.75 452.06968134185064 477.06968134185064 453.75 475 453.75 L 471.25 453.75 M 428.75 446.25 L 428.75 453.75 M 446.25 446.25 L 446.25 453.75 M 403.75 446.25 L 403.75 453.75 M 421.25 446.25 L 421.25 453.75 M 396.25 428.75 L 453.75 428.75 M 396.25 446.25 L 453.75 446.25 M 371.25 428.75 L 378.75 428.75 M 371.25 446.25 L 378.75 446.25 M 328.75 446.25 L 328.75 453.75 M 346.25 446.25 L 346.25 453.75 M 271.25 446.25 L 271.25 487.5 C 271.25 492.32925646431823 267.32925646431823 496.25 262.5 496.25 C 257.67074353568177 496.25 253.75 492.32925646431823 253.75 487.5 L 253.75 446.25 M 246.25 446.25 L 275 446.25 C 277.06968134185064 446.25 278.75 447.93031865814936 278.75 450 L 278.75 453.75 M 221.25 428.75 L 228.75 428.75 M 221.25 446.25 L 228.75 446.25 M 196.25 428.75 L 203.75 428.75 M 196.25 446.25 L 203.75 446.25 M 171.25 428.75 L 178.75 428.75 M 171.25 446.25 L 178.75 446.25 M 71.25 428.75 L 78.75 428.75 M 71.25 446.25 L 78.75 446.25 M 46.25 446.25 L 46.25 475 C 46.25 486.7281942704871 36.7281942704871 496.25 25 496.25 L 12.5 496.25 C 7.670743535681782 496.25 3.75 492.32925646431823 3.7500000000000004 487.5 C 3.75 482.67074353568177 7.670743535681782 478.75 12.5 478.75 L 25 478.75 C 27.069681341850664 478.75 28.75 477.06968134185064 28.75 475 L 28.75 446.25 M 53.75 428.75 L 12.5 428.75 C 7.670743535681782 428.75 3.75 432.67074353568177 3.7500000000000004 437.5 C 3.75 442.32925646431823 7.670743535681782 446.25 12.5 446.25 L 53.75 446.25 M 471.25 421.25 L 471.25 487.5 C 471.25 492.32925646431823 467.32925646431823 496.25 462.5 496.25 C 457.67074353568177 496.25 453.75 492.32925646431823 453.75 487.5 L 453.75 421.25 M 446.25 421.25 L 487.5 421.25 C 492.32925646431823 421.25 496.25 417.32925646431823 496.25 412.5 C 496.25 407.67074353568177 492.32925646431823 403.75 487.5 403.75 L 446.25 403.75 M 421.25 403.75 L 428.75 403.75 M 421.25 421.25 L 428.75 421.25 M 378.75 421.25 L 378.75 475 C 378.75 486.7281942704871 388.2718057295129 496.25 400 496.25 C 411.7281942704871 496.25 421.25 486.7281942704871 421.25 475 L 421.25 471.25 M 396.25 421.25 L 396.25 475 C 396.25 477.06968134185064 397.93031865814936 478.75 400 478.75 C 402.06968134185064 478.75 403.75 477.06968134185064 403.75 475 L 403.75 471.25 M 371.25 403.75 L 403.75 403.75 M 371.25 421.25 L 403.75 421.25 M 328.75 421.25 L 328.75 428.75 M 346.25 421.25 L 346.25 428.75 M 321.25 403.75 L 353.75 403.75 M 321.25 421.25 L 353.75 421.25 M 296.25 453.75 L 296.25 425 C 296.25 422.93031865814936 297.93031865814936 421.25 300 421.25 L 303.75 421.25 M 253.75 421.25 L 253.75 428.75 M 271.25 421.25 L 271.25 428.75 M 246.25 403.75 L 303.75 403.75 M 246.25 421.25 L 275 421.25 C 277.06968134185064 421.25 278.75 422.93031865814936 278.75 425 C 278.75 427.06968134185064 277.06968134185064 428.75 275 428.75 L 246.25 428.75 M 203.75 421.25 L 203.75 453.75 M 221.25 421.25 L 221.25 453.75 M 196.25 403.75 L 228.75 403.75 M 196.25 421.25 L 228.75 421.25 M 171.25 421.25 L 171.25 487.5 C 171.25 492.32925646431823 167.3292564643182 496.25 162.5 496.25 C 157.6707435356818 496.25 153.75 492.32925646431823 153.75 487.5 L 153.75 421.25 M 146.25 403.75 L 178.75 403.75 M 146.25 421.25 L 178.75 421.25 M 103.75 421.25 L 103.75 425 C 103.75 427.06968134185064 102.06968134185067 428.75 100 428.75 L 96.25 428.75 M 121.25 421.25 L 121.25 487.5 C 121.25 492.32925646431823 117.32925646431822 496.25 112.5 496.25 C 107.67074353568178 496.25 103.75 492.32925646431823 103.75 487.5 L 103.75 450 C 103.75 447.93031865814936 102.06968134185067 446.25 100 446.25 L 96.25 446.25 M 78.75 421.25 L 78.75 453.75 M 96.25 421.25 L 96.25 453.75 M 53.75 421.25 L 53.75 453.75 M 71.25 421.25 L 71.25 453.75 M 28.75 421.25 L 28.75 428.75 M 46.25 421.25 L 46.25 428.75 M 128.75 403.75 L 12.5 403.75 C 7.670743535681782 403.75 3.75 407.67074353568177 3.7500000000000004 412.5 C 3.75 417.32925646431823 7.670743535681782 421.25 12.5 421.25 L 128.75 421.25 M 471.25 396.25 L 487.5 396.25 C 492.32925646431823 396.25 496.25 392.32925646431823 496.25 387.5 C 496.25 382.67074353568177 492.32925646431823 378.75 487.5 378.75 L 471.25 378.75 M 446.25 428.75 L 446.25 400 C 446.25 397.93031865814936 447.93031865814936 396.25 450 396.25 L 453.75 396.25 M 421.25 396.25 L 425 396.25 C 427.06968134185064 396.25 428.75 397.93031865814936 428.75 400 L 428.75 428.75 M 396.25 378.75 L 403.75 378.75 M 396.25 396.25 L 403.75 396.25 M 328.75 471.25 L 328.75 475 C 328.75 486.7281942704871 338.2718057295129 496.25 350 496.25 C 361.7281942704871 496.25 371.25 486.7281942704871 371.25 475 L 371.25 400 C 371.25 397.93031865814936 372.93031865814936 396.25 375 396.25 L 378.75 396.25 M 328.75 396.25 L 328.75 403.75 M 346.25 396.25 L 346.25 403.75 M 303.75 396.25 L 303.75 487.5 C 303.75 492.32925646431823 307.67074353568177 496.25 312.5 496.25 C 317.32925646431823 496.25 321.25 492.32925646431823 321.25 487.5 L 321.25 450 C 321.25 447.93031865814936 322.93031865814936 446.25 325 446.25 L 353.75 446.25 M 321.25 396.25 L 321.25 425 C 321.25 427.06968134185064 322.93031865814936 428.75 325 428.75 L 353.75 428.75 M 271.25 396.25 L 350 396.25 C 352.06968134185064 396.25 353.75 397.93031865814936 353.75 400 L 353.75 475 C 353.75 477.06968134185064 352.06968134185064 478.75 350 478.75 C 347.93031865814936 478.75 346.25 477.06968134185064 346.25 475 L 346.25 471.25 M 246.25 396.25 L 246.25 487.5 C 246.25 492.32925646431823 242.3292564643182 496.25 237.5 496.25 C 232.6707435356818 496.25 228.75 492.32925646431823 228.75 487.5 L 228.75 396.25 M 221.25 378.75 L 253.75 378.75 M 221.25 396.25 L 253.75 396.25 M 196.25 453.75 L 196.25 400 C 196.25 397.93031865814936 197.93031865814933 396.25 200 396.25 L 203.75 396.25 M 171.25 396.25 L 175 396.25 C 177.06968134185067 396.25 178.75 397.93031865814936 178.75 400 L 178.75 453.75 M 146.25 378.75 L 153.75 378.75 M 146.25 396.25 L 153.75 396.25 M 103.75 396.25 L 103.75 403.75 M 121.25 396.25 L 121.25 403.75 M 78.75 396.25 L 78.75 403.75 M 96.25 396.25 L 96.25 403.75 M 71.25 378.75 L 128.75 378.75 M 71.25 396.25 L 128.75 396.25 M 46.25 378.75 L 53.75 378.75 M 46.25 396.25 L 53.75 396.25 M 28.75 378.75 L 12.5 378.75 C 7.670743535681782 378.75 3.75 382.67074353568177 3.7500000000000004 387.5 C 3.75 392.32925646431823 7.670743535681782 396.25 12.5 396.25 L 28.75 396.25 M 471.25 371.25 L 487.5 371.25 C 492.32925646431823 371.25 496.25 367.32925646431823 496.25 362.5 C 496.25 357.67074353568177 492.32925646431823 353.75 487.5 353.75 L 471.25 353.75 M 428.75 371.25 L 428.75 375 C 428.75 377.06968134185064 427.06968134185064 378.75 425 378.75 L 421.25 378.75 M 446.25 371.25 L 446.25 375 C 446.25 377.06968134185064 447.93031865814936 378.75 450 378.75 L 453.75 378.75 M 421.25 353.75 L 453.75 353.75 M 421.25 371.25 L 453.75 371.25 M 396.25 353.75 L 403.75 353.75 M 396.25 371.25 L 403.75 371.25 M 353.75 371.25 L 353.75 375 C 353.75 377.06968134185064 352.06968134185064 378.75 350 378.75 L 271.25 378.75 M 371.25 371.25 L 371.25 375 C 371.25 377.06968134185064 372.93031865814936 378.75 375 378.75 L 378.75 378.75 M 346.25 378.75 L 346.25 375 C 346.25 372.93031865814936 347.93031865814936 371.25 350 371.25 L 378.75 371.25 M 303.75 371.25 L 303.75 378.75 M 321.25 371.25 L 321.25 378.75 M 271.25 371.25 L 325 371.25 C 327.06968134185064 371.25 328.75 372.93031865814936 328.75 375 L 328.75 378.75 M 246.25 378.75 L 246.25 375 C 246.25 372.93031865814936 247.93031865814933 371.25 250 371.25 L 253.75 371.25 M 203.75 371.25 L 203.75 403.75 M 221.25 371.25 L 221.25 403.75 M 178.75 371.25 L 178.75 375 C 178.75 377.06968134185064 177.06968134185067 378.75 175 378.75 L 171.25 378.75 M 196.25 371.25 L 196.25 375 C 196.25 377.06968134185064 197.93031865814933 378.75 200 378.75 L 203.75 378.75 M 171.25 371.25 L 225 371.25 C 227.06968134185067 371.25 228.75 372.93031865814936 228.75 375 L 228.75 378.75 M 153.75 446.25 L 150 446.25 C 147.93031865814933 446.25 146.25 447.93031865814936 146.25 450 L 146.25 487.5 C 146.25 492.32925646431823 142.3292564643182 496.25 137.5 496.25 C 132.6707435356818 496.25 128.75 492.32925646431823 128.75 487.5 L 128.75 375 C 128.75 363.2718057295129 138.2718057295129 353.75 150 353.75 L 153.75 353.75 M 153.75 428.75 L 150 428.75 C 147.93031865814933 428.75 146.25 427.06968134185064 146.25 425 L 146.25 375 C 146.25 372.93031865814936 147.93031865814933 371.25 150 371.25 L 153.75 371.25 M 96.25 371.25 L 100 371.25 C 102.06968134185067 371.25 103.75 372.93031865814936 103.75 375 L 103.75 378.75 M 71.25 353.75 L 78.75 353.75 M 71.25 371.25 L 78.75 371.25 M 28.75 371.25 L 28.75 403.75 M 46.25 371.25 L 46.25 403.75 M 453.75 346.25 L 453.75 403.75 M 471.25 346.25 L 471.25 403.75 M 396.25 328.75 L 400 328.75 C 411.7281942704871 328.75 421.25 338.2718057295129 421.25 350 L 421.25 428.75 M 396.25 346.25 L 400 346.25 C 402.06968134185064 346.25 403.75 347.93031865814936 403.75 350 L 403.75 428.75 M 353.75 346.25 L 353.75 353.75 M 371.25 346.25 L 371.25 353.75 M 346.25 346.25 L 346.25 350 C 346.25 352.06968134185064 347.93031865814936 353.75 350 353.75 L 378.75 353.75 M 303.75 346.25 L 303.75 353.75 M 321.25 346.25 L 321.25 353.75 M 296.25 328.75 L 378.75 328.75 M 296.25 346.25 L 378.75 346.25 M 253.75 346.25 L 253.75 403.75 M 271.25 346.25 L 271.25 403.75 M 228.75 346.25 L 228.75 350 C 228.75 352.06968134185064 227.06968134185067 353.75 225 353.75 L 171.25 353.75 M 246.25 346.25 L 246.25 350 C 246.25 352.06968134185064 247.93031865814933 353.75 250 353.75 L 253.75 353.75 M 221.25 328.75 L 278.75 328.75 M 221.25 346.25 L 278.75 346.25 M 178.75 353.75 L 178.75 350 C 178.75 338.2718057295129 188.2718057295129 328.75 200 328.75 L 203.75 328.75 M 196.25 353.75 L 196.25 350 C 196.25 347.93031865814936 197.93031865814933 346.25 200 346.25 L 203.75 346.25 M 103.75 346.25 L 103.75 350 C 103.75 352.06968134185064 102.06968134185067 353.75 100 353.75 L 96.25 353.75 M 121.25 346.25 L 121.25 378.75 M 78.75 346.25 L 78.75 378.75 M 96.25 346.25 L 96.25 378.75 M 53.75 346.25 L 53.75 403.75 M 71.25 346.25 L 71.25 403.75 M 53.75 371.25 L 25 371.25 C 13.2718057295129 371.25 3.75 361.7281942704871 3.7500000000000004 350 C 3.75 338.2718057295129 13.2718057295129 328.75 25 328.75 L 28.75 328.75 M 53.75 353.75 L 25 353.75 C 22.930318658149336 353.75 21.25 352.06968134185064 21.25 350 C 21.25 347.93031865814936 22.930318658149336 346.25 25 346.25 L 28.75 346.25 M 453.75 321.25 L 453.75 328.75 M 471.25 321.25 L 471.25 328.75 M 446.25 353.75 L 446.25 350 C 446.25 347.93031865814936 447.93031865814936 346.25 450 346.25 L 475 346.25 C 486.7281942704871 346.25 496.25 336.7281942704871 496.25 325 C 496.25 313.2718057295129 486.7281942704871 303.75 475 303.75 L 437.5 303.75 C 432.67074353568177 303.75 428.75 307.67074353568177 428.75 312.5 C 428.75 317.32925646431823 432.67074353568177 321.25 437.5 321.25 L 475 321.25 C 477.06968134185064 321.25 478.75 322.93031865814936 478.75 325 C 478.75 327.06968134185064 477.06968134185064 328.75 475 328.75 L 450 328.75 C 438.2718057295129 328.75 428.75 338.2718057295129 428.75 350 L 428.75 353.75 M 378.75 321.25 L 378.75 403.75 M 396.25 321.25 L 396.25 403.75 M 353.75 321.25 L 353.75 328.75 M 371.25 321.25 L 371.25 328.75 M 328.75 321.25 L 328.75 328.75 M 346.25 321.25 L 346.25 328.75 M 271.25 321.25 L 275 321.25 C 277.06968134185064 321.25 278.75 322.93031865814936 278.75 325 L 278.75 350 C 278.75 352.06968134185064 277.06968134185064 353.75 275 353.75 L 271.25 353.75 M 228.75 321.25 L 228.75 328.75 M 246.25 321.25 L 246.25 328.75 M 221.25 303.75 L 253.75 303.75 M 221.25 321.25 L 253.75 321.25 M 171.25 303.75 L 203.75 303.75 M 171.25 321.25 L 203.75 321.25 M 146.25 303.75 L 153.75 303.75 M 146.25 321.25 L 153.75 321.25 M 103.75 321.25 L 103.75 328.75 M 121.25 321.25 L 121.25 328.75 M 96.25 328.75 L 96.25 325 C 96.25 322.93031865814936 97.93031865814933 321.25 100 321.25 L 128.75 321.25 M 71.25 303.75 L 128.75 303.75 M 71.25 321.25 L 75 321.25 C 77.06968134185067 321.25 78.75 322.93031865814936 78.75 325 L 78.75 328.75 M 46.25 303.75 L 53.75 303.75 M 46.25 321.25 L 53.75 321.25 M 28.75 303.75 L 12.5 303.75 C 7.670743535681782 303.75 3.75 307.67074353568177 3.7500000000000004 312.5 C 3.75 317.32925646431823 7.670743535681782 321.25 12.5 321.25 L 28.75 321.25 M 453.75 296.25 L 453.75 303.75 M 471.25 296.25 L 471.25 303.75 M 353.75 296.25 L 353.75 303.75 M 371.25 296.25 L 371.25 303.75 M 328.75 296.25 L 328.75 303.75 M 346.25 296.25 L 346.25 303.75 M 303.75 296.25 L 303.75 328.75 M 321.25 296.25 L 321.25 300 C 321.25 302.06968134185064 322.93031865814936 303.75 325 303.75 L 412.5 303.75 C 417.32925646431823 303.75 421.25 307.67074353568177 421.25 312.5 C 421.25 317.32925646431823 417.32925646431823 321.25 412.5 321.25 L 325 321.25 C 322.93031865814936 321.25 321.25 322.93031865814936 321.25 325 L 321.25 328.75 M 296.25 278.75 L 378.75 278.75 M 296.25 296.25 L 378.75 296.25 M 253.75 296.25 L 253.75 328.75 M 271.25 296.25 L 271.25 328.75 M 246.25 278.75 L 278.75 278.75 M 246.25 296.25 L 278.75 296.25 M 203.75 296.25 L 203.75 353.75 M 221.25 296.25 L 221.25 353.75 M 128.75 296.25 L 128.75 325 C 128.75 327.06968134185064 127.06968134185067 328.75 125 328.75 L 46.25 328.75 M 146.25 296.25 L 146.25 325 C 146.25 336.7281942704871 136.7281942704871 346.25 125 346.25 L 46.25 346.25 M 121.25 303.75 L 121.25 300 C 121.25 297.93031865814936 122.93031865814933 296.25 125 296.25 L 150 296.25 C 152.06968134185067 296.25 153.75 297.93031865814936 153.75 300 L 153.75 403.75 M 46.25 353.75 L 46.25 300 C 46.25 297.93031865814936 47.93031865814933 296.25 50 296.25 L 53.75 296.25 M 446.25 253.75 L 453.75 253.75 M 446.25 271.25 L 453.75 271.25 M 421.25 253.75 L 428.75 253.75 M 421.25 271.25 L 428.75 271.25 M 378.75 271.25 L 378.75 303.75 M 396.25 271.25 L 396.25 303.75 M 353.75 271.25 L 353.75 278.75 M 371.25 271.25 L 371.25 278.75 M 328.75 271.25 L 328.75 278.75 M 346.25 271.25 L 346.25 278.75 M 303.75 271.25 L 303.75 278.75 M 321.25 271.25 L 321.25 278.75 M 296.25 253.75 L 403.75 253.75 M 296.25 271.25 L 403.75 271.25 M 253.75 278.75 L 253.75 275 C 253.75 263.2718057295129 263.2718057295129 253.75 275 253.75 L 278.75 253.75 M 271.25 278.75 L 271.25 275 C 271.25 272.93031865814936 272.93031865814936 271.25 275 271.25 L 278.75 271.25 M 203.75 271.25 L 203.75 278.75 M 221.25 271.25 L 221.25 278.75 M 196.25 271.25 L 225 271.25 C 227.06968134185067 271.25 228.75 272.93031865814936 228.75 275 L 228.75 303.75 M 171.25 271.25 L 171.25 403.75 M 128.75 271.25 L 128.75 278.75 M 146.25 271.25 L 146.25 278.75 M 121.25 253.75 L 178.75 253.75 M 121.25 271.25 L 178.75 271.25 M 78.75 271.25 L 78.75 275 C 78.75 277.06968134185064 77.06968134185067 278.75 75 278.75 L 71.25 278.75 M 96.25 271.25 L 96.25 275 C 96.25 286.7281942704871 86.7281942704871 296.25 75 296.25 L 71.25 296.25 M 71.25 253.75 L 103.75 253.75 M 71.25 271.25 L 103.75 271.25 M 28.75 271.25 L 28.75 275 C 28.75 277.06968134185064 27.069681341850664 278.75 25 278.75 L 12.5 278.75 C 7.670743535681782 278.75 3.75 282.67074353568177 3.7500000000000004 287.5 C 3.75 292.32925646431823 7.670743535681782 296.25 12.5 296.25 L 25 296.25 C 27.069681341850664 296.25 28.75 297.93031865814936 28.75 300 L 28.75 353.75 M 46.25 271.25 L 46.25 275 C 46.25 277.06968134185064 47.93031865814933 278.75 50 278.75 L 53.75 278.75 M 53.75 253.75 L 12.5 253.75 C 7.670743535681782 253.75 3.75 257.67074353568177 3.7500000000000004 262.5 C 3.75 267.32925646431823 7.670743535681782 271.25 12.5 271.25 L 53.75 271.25 M 471.25 278.75 L 471.25 250 C 471.25 247.93031865814933 472.93031865814936 246.25 475 246.25 C 477.06968134185064 246.25 478.75 247.93031865814933 478.75 250 C 478.75 252.06968134185067 477.06968134185064 253.75 475 253.75 L 471.25 253.75 M 446.25 246.25 L 446.25 275 C 446.25 277.06968134185064 447.93031865814936 278.75 450 278.75 L 487.5 278.75 C 492.32925646431823 278.75 496.25 282.67074353568177 496.25 287.5 C 496.25 292.32925646431823 492.32925646431823 296.25 487.5 296.25 L 450 296.25 C 438.2718057295129 296.25 428.75 286.7281942704871 428.75 275 L 428.75 246.25 M 403.75 246.25 L 403.75 275 C 403.75 277.06968134185064 402.06968134185064 278.75 400 278.75 L 396.25 278.75 M 421.25 246.25 L 421.25 275 C 421.25 286.7281942704871 411.7281942704871 296.25 400 296.25 L 396.25 296.25 M 396.25 246.25 L 450 246.25 C 452.06968134185064 246.25 453.75 247.93031865814933 453.75 250 L 453.75 278.75 M 371.25 228.75 L 378.75 228.75 M 371.25 246.25 L 378.75 246.25 M 328.75 246.25 L 328.75 253.75 M 346.25 246.25 L 346.25 253.75 M 321.25 228.75 L 353.75 228.75 M 321.25 246.25 L 353.75 246.25 M 328.75 346.25 L 328.75 350 C 328.75 352.06968134185064 327.06968134185064 353.75 325 353.75 L 300 353.75 C 297.93031865814936 353.75 296.25 352.06968134185064 296.25 350 L 296.25 250 C 296.25 247.93031865814933 297.93031865814936 246.25 300 246.25 L 303.75 246.25 M 221.25 228.75 L 228.75 228.75 M 221.25 246.25 L 228.75 246.25 M 196.25 228.75 L 203.75 228.75 M 196.25 246.25 L 203.75 246.25 M 153.75 246.25 L 153.75 253.75 M 171.25 246.25 L 171.25 253.75 M 128.75 246.25 L 128.75 253.75 M 146.25 246.25 L 146.25 253.75 M 103.75 246.25 L 103.75 303.75 M 121.25 246.25 L 121.25 275 C 121.25 277.06968134185064 122.93031865814933 278.75 125 278.75 L 150 278.75 C 152.06968134185067 278.75 153.75 277.06968134185064 153.75 275 L 153.75 271.25 M 96.25 228.75 L 178.75 228.75 M 96.25 246.25 L 178.75 246.25 M 71.25 328.75 L 71.25 250 C 71.25 247.93031865814933 72.93031865814933 246.25 75 246.25 L 78.75 246.25 M 46.25 228.75 L 78.75 228.75 M 46.25 246.25 L 50 246.25 C 52.06968134185067 246.25 53.75 247.93031865814933 53.75 250 L 53.75 328.75 M 28.75 228.75 L 12.5 228.75 C 7.670743535681782 228.75 3.75 232.6707435356818 3.7500000000000004 237.5 C 3.75 242.3292564643182 7.670743535681782 246.25 12.5 246.25 L 28.75 246.25 M 471.25 221.25 L 487.5 221.25 C 492.32925646431823 221.25 496.25 217.3292564643182 496.25 212.5 C 496.25 207.6707435356818 492.32925646431823 203.75 487.5 203.75 L 471.25 203.75 M 446.25 228.75 L 446.25 225 C 446.25 222.93031865814933 447.93031865814936 221.25 450 221.25 L 453.75 221.25 M 403.75 221.25 L 403.75 228.75 M 421.25 221.25 L 421.25 228.75 M 378.75 221.25 L 378.75 253.75 M 396.25 221.25 L 396.25 253.75 M 371.25 221.25 L 425 221.25 C 427.06968134185064 221.25 428.75 222.93031865814933 428.75 225 L 428.75 228.75 M 346.25 203.75 L 353.75 203.75 M 346.25 221.25 L 353.75 221.25 M 321.25 203.75 L 328.75 203.75 M 321.25 221.25 L 328.75 221.25 M 296.25 203.75 L 303.75 203.75 M 296.25 221.25 L 303.75 221.25 M 253.75 221.25 L 253.75 225 C 253.75 227.06968134185067 252.06968134185067 228.75 250 228.75 L 246.25 228.75 M 271.25 221.25 L 271.25 225 C 271.25 236.7281942704871 261.7281942704871 246.25 250 246.25 L 246.25 246.25 M 246.25 303.75 L 246.25 225 C 246.25 222.93031865814933 247.93031865814933 221.25 250 221.25 L 278.75 221.25 M 203.75 221.25 L 203.75 253.75 M 221.25 221.25 L 221.25 253.75 M 178.75 221.25 L 178.75 275 C 178.75 286.7281942704871 188.2718057295129 296.25 200 296.25 L 228.75 296.25 M 196.25 221.25 L 196.25 275 C 196.25 277.06968134185064 197.93031865814933 278.75 200 278.75 L 228.75 278.75 M 153.75 221.25 L 153.75 228.75 M 171.25 221.25 L 171.25 228.75 M 146.25 221.25 L 225 221.25 C 227.06968134185067 221.25 228.75 222.93031865814933 228.75 225 L 228.75 250 C 228.75 252.06968134185067 227.06968134185067 253.75 225 253.75 L 196.25 253.75 M 121.25 203.75 L 128.75 203.75 M 121.25 221.25 L 128.75 221.25 M 78.75 221.25 L 78.75 253.75 M 96.25 221.25 L 96.25 253.75 M 46.25 203.75 L 103.75 203.75 M 46.25 221.25 L 103.75 221.25 M 28.75 203.75 L 12.5 203.75 C 7.670743535681782 203.75 3.75 207.6707435356818 3.7500000000000004 212.5 C 3.75 217.3292564643182 7.670743535681782 221.25 12.5 221.25 L 28.75 221.25 M 471.25 196.25 L 487.5 196.25 C 492.32925646431823 196.25 496.25 192.3292564643182 496.25 187.5 C 496.25 182.6707435356818 492.32925646431823 178.75 487.5 178.75 L 471.25 178.75 M 446.25 178.75 L 453.75 178.75 M 446.25 196.25 L 453.75 196.25 M 421.25 178.75 L 428.75 178.75 M 421.25 196.25 L 428.75 196.25 M 378.75 196.25 L 378.75 203.75 M 396.25 196.25 L 396.25 203.75 M 371.25 178.75 L 403.75 178.75 M 371.25 196.25 L 403.75 196.25 M 328.75 196.25 L 328.75 228.75 M 346.25 196.25 L 346.25 228.75 M 321.25 253.75 L 321.25 200 C 321.25 197.93031865814933 322.93031865814936 196.25 325 196.25 L 353.75 196.25 M 296.25 178.75 L 353.75 178.75 M 296.25 196.25 L 300 196.25 C 302.06968134185064 196.25 303.75 197.93031865814933 303.75 200 L 303.75 253.75 M 271.25 178.75 L 278.75 178.75 M 271.25 196.25 L 278.75 196.25 M 246.25 178.75 L 253.75 178.75 M 246.25 196.25 L 253.75 196.25 M 221.25 178.75 L 228.75 178.75 M 221.25 196.25 L 228.75 196.25 M 196.25 203.75 L 196.25 200 C 196.25 197.93031865814933 197.93031865814933 196.25 200 196.25 L 203.75 196.25 M 153.75 196.25 L 153.75 203.75 M 171.25 196.25 L 171.25 203.75 M 146.25 228.75 L 146.25 200 C 146.25 197.93031865814933 147.93031865814933 196.25 150 196.25 L 175 196.25 C 177.06968134185067 196.25 178.75 197.93031865814933 178.75 200 L 178.75 203.75 M 103.75 196.25 L 103.75 228.75 M 121.25 196.25 L 121.25 228.75 M 78.75 196.25 L 78.75 203.75 M 96.25 196.25 L 96.25 203.75 M 28.75 196.25 L 28.75 253.75 M 46.25 196.25 L 46.25 253.75 M 453.75 171.25 L 453.75 225 C 453.75 227.06968134185067 452.06968134185064 228.75 450 228.75 L 396.25 228.75 M 471.25 171.25 L 471.25 225 C 471.25 227.06968134185067 472.93031865814936 228.75 475 228.75 C 486.7281942704871 228.75 496.25 238.2718057295129 496.25 250 C 496.25 261.7281942704871 486.7281942704871 271.25 475 271.25 L 471.25 271.25 M 428.75 171.25 L 428.75 200 C 428.75 202.06968134185067 427.06968134185064 203.75 425 203.75 L 371.25 203.75 M 446.25 171.25 L 446.25 200 C 446.25 202.06968134185067 447.93031865814936 203.75 450 203.75 L 453.75 203.75 M 403.75 171.25 L 403.75 203.75 M 421.25 171.25 L 421.25 203.75 M 378.75 171.25 L 378.75 178.75 M 396.25 171.25 L 396.25 178.75 M 371.25 171.25 L 487.5 171.25 C 492.32925646431823 171.25 496.25 167.3292564643182 496.25 162.5 C 496.25 157.6707435356818 492.32925646431823 153.75 487.5 153.75 L 371.25 153.75 M 328.75 171.25 L 328.75 178.75 M 346.25 171.25 L 346.25 178.75 M 271.25 171.25 L 275 171.25 C 277.06968134185064 171.25 278.75 172.93031865814933 278.75 175 L 278.75 300 C 278.75 302.06968134185064 277.06968134185064 303.75 275 303.75 L 271.25 303.75 M 246.25 153.75 L 253.75 153.75 M 246.25 171.25 L 253.75 171.25 M 221.25 153.75 L 228.75 153.75 M 221.25 171.25 L 228.75 171.25 M 153.75 171.25 L 153.75 178.75 M 171.25 171.25 L 171.25 178.75 M 146.25 171.25 L 146.25 175 C 146.25 177.06968134185067 147.93031865814933 178.75 150 178.75 L 203.75 178.75 M 103.75 171.25 L 103.75 178.75 M 121.25 171.25 L 121.25 178.75 M 96.25 171.25 L 203.75 171.25 M 53.75 171.25 L 53.75 175 C 53.75 177.06968134185067 52.06968134185067 178.75 50 178.75 L 12.5 178.75 C 7.670743535681782 178.75 3.75 182.6707435356818 3.7500000000000004 187.5 C 3.75 192.3292564643182 7.670743535681782 196.25 12.5 196.25 L 125 196.25 C 127.06968134185067 196.25 128.75 197.93031865814933 128.75 200 L 128.75 228.75 M 71.25 171.25 L 71.25 175 C 71.25 177.06968134185067 72.93031865814933 178.75 75 178.75 L 125 178.75 C 127.06968134185067 178.75 128.75 177.06968134185067 128.75 175 L 128.75 171.25 M 46.25 153.75 L 78.75 153.75 M 46.25 171.25 L 78.75 171.25 M 28.75 153.75 L 12.5 153.75 C 7.670743535681782 153.75 3.75 157.6707435356818 3.7500000000000004 162.5 C 3.75 167.3292564643182 7.670743535681782 171.25 12.5 171.25 L 28.75 171.25 M 453.75 146.25 L 453.75 153.75 M 471.25 146.25 L 471.25 153.75 M 428.75 146.25 L 428.75 153.75 M 446.25 146.25 L 446.25 153.75 M 403.75 146.25 L 403.75 153.75 M 421.25 146.25 L 421.25 153.75 M 378.75 146.25 L 378.75 153.75 M 396.25 146.25 L 396.25 153.75 M 353.75 146.25 L 353.75 253.75 M 371.25 146.25 L 371.25 253.75 M 346.25 146.25 L 487.5 146.25 C 492.32925646431823 146.25 496.25 142.3292564643182 496.25 137.5 C 496.25 132.6707435356818 492.32925646431823 128.75 487.5 128.75 L 346.25 128.75 M 303.75 146.25 L 303.75 150 C 303.75 161.7281942704871 313.2718057295129 171.25 325 171.25 L 353.75 171.25 M 321.25 146.25 L 321.25 150 C 321.25 152.06968134185067 322.93031865814936 153.75 325 153.75 L 353.75 153.75 M 278.75 146.25 L 278.75 150 C 278.75 152.06968134185067 277.06968134185064 153.75 275 153.75 L 271.25 153.75 M 296.25 146.25 L 296.25 225 C 296.25 227.06968134185067 297.93031865814936 228.75 300 228.75 L 303.75 228.75 M 271.25 128.75 L 328.75 128.75 M 271.25 146.25 L 328.75 146.25 M 278.75 203.75 L 250 203.75 C 247.93031865814933 203.75 246.25 202.06968134185067 246.25 200 L 246.25 150 C 246.25 147.93031865814933 247.93031865814933 146.25 250 146.25 L 253.75 146.25 M 178.75 146.25 L 178.75 150 C 178.75 152.06968134185067 177.06968134185067 153.75 175 153.75 L 96.25 153.75 M 196.25 146.25 L 196.25 150 C 196.25 152.06968134185067 197.93031865814933 153.75 200 153.75 L 203.75 153.75 M 171.25 153.75 L 171.25 150 C 171.25 147.93031865814933 172.93031865814933 146.25 175 146.25 L 200 146.25 C 202.06968134185067 146.25 203.75 147.93031865814933 203.75 150 L 203.75 203.75 M 146.25 146.25 L 150 146.25 C 152.06968134185067 146.25 153.75 147.93031865814933 153.75 150 L 153.75 153.75 M 121.25 128.75 L 128.75 128.75 M 121.25 146.25 L 128.75 146.25 M 96.25 128.75 L 103.75 128.75 M 96.25 146.25 L 103.75 146.25 M 53.75 146.25 L 53.75 153.75 M 71.25 146.25 L 71.25 153.75 M 28.75 146.25 L 28.75 178.75 M 46.25 146.25 L 46.25 178.75 M 78.75 128.75 L 12.5 128.75 C 7.670743535681782 128.75 3.75 132.6707435356818 3.7500000000000004 137.5 C 3.75 142.3292564643182 7.670743535681782 146.25 12.5 146.25 L 78.75 146.25 M 471.25 121.25 L 487.5 121.25 C 492.32925646431823 121.25 496.25 117.32925646431822 496.25 112.5 C 496.25 107.67074353568178 492.32925646431823 103.75 487.5 103.75 L 471.25 103.75 M 428.75 121.25 L 428.75 128.75 M 446.25 121.25 L 446.25 128.75 M 403.75 121.25 L 403.75 128.75 M 421.25 121.25 L 421.25 128.75 M 396.25 128.75 L 396.25 125 C 396.25 122.93031865814933 397.93031865814936 121.25 400 121.25 L 453.75 121.25 M 353.75 121.25 L 353.75 128.75 M 371.25 121.25 L 371.25 128.75 M 328.75 121.25 L 328.75 153.75 M 346.25 121.25 L 346.25 153.75 M 321.25 128.75 L 321.25 125 C 321.25 122.93031865814933 322.93031865814936 121.25 325 121.25 L 375 121.25 C 377.06968134185064 121.25 378.75 122.93031865814933 378.75 125 L 378.75 128.75 M 296.25 121.25 L 300 121.25 C 302.06968134185064 121.25 303.75 122.93031865814933 303.75 125 L 303.75 128.75 M 271.25 103.75 L 278.75 103.75 M 271.25 121.25 L 278.75 121.25 M 228.75 121.25 L 228.75 200 C 228.75 202.06968134185067 227.06968134185067 203.75 225 203.75 L 146.25 203.75 M 246.25 121.25 L 246.25 125 C 246.25 127.06968134185067 247.93031865814933 128.75 250 128.75 L 253.75 128.75 M 203.75 121.25 L 203.75 125 C 203.75 127.06968134185067 202.06968134185067 128.75 200 128.75 L 146.25 128.75 M 221.25 121.25 L 221.25 203.75 M 196.25 103.75 L 253.75 103.75 M 196.25 121.25 L 253.75 121.25 M 128.75 121.25 L 128.75 153.75 M 146.25 121.25 L 146.25 153.75 M 121.25 103.75 L 178.75 103.75 M 121.25 121.25 L 178.75 121.25 M 78.75 121.25 L 78.75 178.75 M 96.25 121.25 L 96.25 178.75 M 53.75 121.25 L 53.75 128.75 M 71.25 121.25 L 71.25 128.75 M 46.25 103.75 L 103.75 103.75 M 46.25 121.25 L 103.75 121.25 M 0 103.75 L 28.75 103.75 M 0 121.25 L 28.75 121.25 M 453.75 96.25 L 453.75 128.75 M 471.25 96.25 L 471.25 128.75 M 428.75 96.25 L 428.75 103.75 M 446.25 96.25 L 446.25 103.75 M 421.25 96.25 L 487.5 96.25 C 492.32925646431823 96.25 496.25 92.32925646431822 496.25 87.5 C 496.25 82.67074353568178 492.32925646431823 78.75 487.5 78.75 L 421.25 78.75 M 396.25 78.75 L 403.75 78.75 M 396.25 96.25 L 403.75 96.25 M 353.75 96.25 L 353.75 103.75 M 371.25 96.25 L 371.25 103.75 M 346.25 103.75 L 346.25 100 C 346.25 97.93031865814933 347.93031865814936 96.25 350 96.25 L 378.75 96.25 M 271.25 78.75 L 278.75 78.75 M 271.25 96.25 L 278.75 96.25 M 228.75 96.25 L 228.75 103.75 M 246.25 96.25 L 246.25 103.75 M 221.25 78.75 L 253.75 78.75 M 221.25 96.25 L 253.75 96.25 M 196.25 78.75 L 203.75 78.75 M 196.25 96.25 L 203.75 96.25 M 128.75 96.25 L 128.75 103.75 M 146.25 96.25 L 146.25 103.75 M 121.25 96.25 L 178.75 96.25 M 78.75 96.25 L 78.75 103.75 M 96.25 96.25 L 96.25 103.75 M 71.25 78.75 L 103.75 78.75 M 71.25 96.25 L 103.75 96.25 M 46.25 128.75 L 46.25 100 C 46.25 97.93031865814933 47.93031865814933 96.25 50 96.25 L 53.75 96.25 M 453.75 71.25 L 453.75 78.75 M 471.25 71.25 L 471.25 78.75 M 428.75 71.25 L 428.75 78.75 M 446.25 71.25 L 446.25 78.75 M 378.75 71.25 L 378.75 100 C 378.75 102.06968134185067 377.06968134185064 103.75 375 103.75 L 296.25 103.75 M 396.25 71.25 L 396.25 100 C 396.25 102.06968134185067 397.93031865814936 103.75 400 103.75 L 453.75 103.75 M 371.25 71.25 L 400 71.25 C 402.06968134185064 71.25 403.75 72.93031865814933 403.75 75 L 403.75 103.75 M 346.25 53.75 L 353.75 53.75 M 346.25 71.25 L 353.75 71.25 M 321.25 53.75 L 328.75 53.75 M 321.25 71.25 L 328.75 71.25 M 296.25 128.75 L 296.25 75 C 296.25 72.93031865814933 297.93031865814936 71.25 300 71.25 L 303.75 71.25 M 271.25 71.25 L 275 71.25 C 277.06968134185064 71.25 278.75 72.93031865814933 278.75 75 L 278.75 128.75 M 228.75 71.25 L 228.75 78.75 M 246.25 71.25 L 246.25 78.75 M 203.75 71.25 L 203.75 103.75 M 221.25 71.25 L 221.25 103.75 M 196.25 53.75 L 253.75 53.75 M 196.25 71.25 L 253.75 71.25 M 171.25 53.75 L 178.75 53.75 M 171.25 71.25 L 178.75 71.25 M 146.25 53.75 L 153.75 53.75 M 146.25 71.25 L 153.75 71.25 M 121.25 53.75 L 128.75 53.75 M 121.25 71.25 L 128.75 71.25 M 78.75 71.25 L 78.75 78.75 M 96.25 71.25 L 96.25 78.75 M 71.25 53.75 L 103.75 53.75 M 71.25 71.25 L 103.75 71.25 M 28.75 71.25 L 28.75 128.75 M 46.25 71.25 L 46.25 75 C 46.25 77.06968134185067 47.93031865814933 78.75 50 78.75 L 53.75 78.75 M 446.25 28.75 L 453.75 28.75 M 446.25 46.25 L 453.75 46.25 M 421.25 28.75 L 428.75 28.75 M 421.25 46.25 L 428.75 46.25 M 396.25 28.75 L 403.75 28.75 M 396.25 46.25 L 403.75 46.25 M 371.25 28.75 L 378.75 28.75 M 371.25 46.25 L 378.75 46.25 M 328.75 46.25 L 328.75 103.75 M 346.25 46.25 L 346.25 75 C 346.25 77.06968134185067 347.93031865814936 78.75 350 78.75 L 378.75 78.75 M 303.75 46.25 L 303.75 75 C 303.75 77.06968134185067 302.06968134185064 78.75 300 78.75 L 296.25 78.75 M 321.25 46.25 L 321.25 75 C 321.25 86.7281942704871 311.7281942704871 96.25 300 96.25 L 296.25 96.25 M 296.25 28.75 L 353.75 28.75 M 296.25 46.25 L 353.75 46.25 M 253.75 46.25 L 253.75 203.75 M 271.25 46.25 L 271.25 203.75 M 228.75 46.25 L 228.75 53.75 M 246.25 46.25 L 246.25 53.75 M 203.75 46.25 L 203.75 53.75 M 221.25 46.25 L 221.25 53.75 M 196.25 28.75 L 278.75 28.75 M 196.25 46.25 L 278.75 46.25 M 153.75 46.25 L 153.75 75 C 153.75 77.06968134185067 152.06968134185067 78.75 150 78.75 L 121.25 78.75 M 171.25 46.25 L 171.25 75 C 171.25 77.06968134185067 172.93031865814933 78.75 175 78.75 L 178.75 78.75 M 128.75 46.25 L 128.75 78.75 M 146.25 46.25 L 146.25 78.75 M 103.75 46.25 L 103.75 153.75 M 121.25 46.25 L 121.25 153.75 M 96.25 28.75 L 178.75 28.75 M 96.25 46.25 L 178.75 46.25 M 53.75 46.25 L 53.75 103.75 M 71.25 46.25 L 71.25 103.75 M 46.25 28.75 L 78.75 28.75 M 46.25 46.25 L 78.75 46.25 M 53.75 53.75 L 25 53.75 C 22.930318658149336 53.75 21.25 52.06968134185067 21.25 50 C 21.25 47.93031865814933 22.930318658149336 46.25 25 46.25 L 28.75 46.25 M 471.25 28.75 L 475 28.75 C 477.06968134185064 28.75 478.75 27.069681341850664 478.75 25 L 478.75 12.5 C 478.75 7.670743535681782 482.67074353568177 3.75 487.5 3.7500000000000004 C 492.32925646431823 3.75 496.25 7.670743535681782 496.25 12.5 L 496.25 25 C 496.25 36.7281942704871 486.7281942704871 46.25 475 46.25 L 471.25 46.25 M 453.75 53.75 L 453.75 12.5 C 453.75 7.670743535681782 457.67074353568177 3.75 462.5 3.7500000000000004 C 467.32925646431823 3.75 471.25 7.670743535681782 471.25 12.5 L 471.25 53.75 M 428.75 53.75 L 428.75 12.5 C 428.75 7.670743535681782 432.67074353568177 3.75 437.5 3.7500000000000004 C 442.32925646431823 3.75 446.25 7.670743535681782 446.25 12.5 L 446.25 53.75 M 371.25 53.75 L 400 53.75 C 402.06968134185064 53.75 403.75 52.06968134185067 403.75 50 L 403.75 12.5 C 403.75 7.670743535681782 407.67074353568177 3.75 412.5 3.7500000000000004 C 417.32925646431823 3.75 421.25 7.670743535681782 421.25 12.5 L 421.25 50 C 421.25 52.06968134185067 422.93031865814936 53.75 425 53.75 L 487.5 53.75 C 492.32925646431823 53.75 496.25 57.67074353568178 496.25 62.5 C 496.25 67.32925646431822 492.32925646431823 71.25 487.5 71.25 L 425 71.25 C 422.93031865814936 71.25 421.25 72.93031865814933 421.25 75 L 421.25 103.75 M 378.75 53.75 L 378.75 12.5 C 378.75 7.670743535681782 382.67074353568177 3.75 387.5 3.7500000000000004 C 392.32925646431823 3.75 396.25 7.670743535681782 396.25 12.5 L 396.25 53.75 M 353.75 78.75 L 353.75 12.5 C 353.75 7.670743535681782 357.67074353568177 3.75 362.5 3.7500000000000004 C 367.32925646431823 3.75 371.25 7.670743535681782 371.25 12.5 L 371.25 78.75 M 328.75 28.75 L 328.75 12.5 C 328.75 7.670743535681782 332.67074353568177 3.75 337.5 3.7500000000000004 C 342.32925646431823 3.75 346.25 7.670743535681782 346.25 12.5 L 346.25 28.75 M 303.75 28.75 L 303.75 12.5 C 303.75 7.670743535681782 307.67074353568177 3.75 312.5 3.7500000000000004 C 317.32925646431823 3.75 321.25 7.670743535681782 321.25 12.5 L 321.25 28.75 M 271.25 53.75 L 275 53.75 C 277.06968134185064 53.75 278.75 52.06968134185067 278.75 50 L 278.75 12.5 C 278.75 7.670743535681782 282.67074353568177 3.75 287.5 3.7500000000000004 C 292.32925646431823 3.75 296.25 7.670743535681782 296.25 12.5 L 296.25 50 C 296.25 52.06968134185067 297.93031865814936 53.75 300 53.75 L 303.75 53.75 M 253.75 28.75 L 253.75 12.5 C 253.75 7.670743535681782 257.67074353568177 3.75 262.5 3.7500000000000004 C 267.32925646431823 3.75 271.25 7.670743535681782 271.25 12.5 L 271.25 28.75 M 228.75 28.75 L 228.75 12.5 C 228.75 7.670743535681782 232.6707435356818 3.75 237.5 3.7500000000000004 C 242.3292564643182 3.75 246.25 7.670743535681782 246.25 12.5 L 246.25 28.75 M 203.75 28.75 L 203.75 12.5 C 203.75 7.670743535681782 207.6707435356818 3.75 212.5 3.7500000000000004 C 217.3292564643182 3.75 221.25 7.670743535681782 221.25 12.5 L 221.25 28.75 M 178.75 128.75 L 178.75 12.5 C 178.75 7.670743535681782 182.6707435356818 3.75 187.5 3.7500000000000004 C 192.3292564643182 3.75 196.25 7.670743535681782 196.25 12.5 L 196.25 128.75 M 128.75 28.75 L 128.75 25 C 128.75 13.2718057295129 138.2718057295129 3.75 150 3.7500000000000004 C 161.7281942704871 3.75 171.25 13.2718057295129 171.25 25 L 171.25 28.75 M 146.25 28.75 L 146.25 25 C 146.25 22.930318658149336 147.93031865814933 21.25 150 21.25 C 152.06968134185067 21.25 153.75 22.930318658149336 153.75 25 L 153.75 28.75 M 103.75 28.75 L 103.75 12.5 C 103.75 7.670743535681782 107.67074353568178 3.75 112.5 3.7500000000000004 C 117.32925646431822 3.75 121.25 7.670743535681782 121.25 12.5 L 121.25 28.75 M 78.75 53.75 L 78.75 12.5 C 78.75 7.670743535681782 82.67074353568178 3.75 87.5 3.7500000000000004 C 92.32925646431822 3.75 96.25 7.670743535681782 96.25 12.5 L 96.25 53.75 M 53.75 28.75 L 53.75 12.5 C 53.75 7.670743535681782 57.67074353568178 3.75 62.5 3.7500000000000004 C 67.32925646431822 3.75 71.25 7.670743535681782 71.25 12.5 L 71.25 28.75 M 28.75 53.75 L 28.75 12.5 C 28.75 7.670743535681782 32.67074353568178 3.75 37.5 3.7500000000000004 C 42.32925646431822 3.75 46.25 7.670743535681782 46.25 12.5 L 46.25 53.75 M 53.75 71.25 L 25 71.25 C 22.930318658149336 71.25 21.25 72.93031865814933 21.25 75 L 21.25 87.5 C 21.25 92.32925646431822 17.329256464318217 96.25 12.5 96.25 C 7.670743535681782 96.25 3.75 92.32925646431822 3.7500000000000004 87.5 L 3.7500000000000004 12.5 C 3.75 7.670743535681782 7.670743535681782 3.75 12.5 3.7500000000000004 C 17.329256464318217 3.75 21.25 7.670743535681782 21.25 12.5 L 21.25 25 C 21.25 27.069681341850664 22.930318658149336 28.75 25 28.75 L 28.75 28.75 "/>
</svg>
