<?xml version="1.0" encoding="UTF-8"?>
<svg xmlns="http://www.w3.org/2000/svg" xmlns:xlink="http://www.w3.org/1999/xlink" width="320" height="320" viewBox="0 0 320 320">
<rect x="-32" y="-32" width="384" height="384" fill="rgb(98.039216%, 96.470588%, 96.078431%)" fill-opacity="1"/>
<path fill="none" stroke-width="1.6" stroke-linecap="square" stroke-linejoin="miter" stroke="rgb(43.921569%, 63.921569%, 72.156863%)" stroke-opacity="1" stroke-miterlimit="10" d="M 0 256 L 320 256 M 0 192 L 320 192 M 0 128 L 320 128 M 0 64 L 320 64 M 256 0 L 256 320 M 192 0 L 192 320 M 128 0 L 128 320 M 64 0 L 64 320 M 0 320 L 320 320 L 320 0 L 0 0 L 0 320 "/>
    <path fill="none" stroke-width="3.2" stroke-linecap="round" stroke-linejoin="miter" stroke="rgb(100%, 0%, 0%)" stroke-opacity="0.8" stroke-miterlimit="10" d="M 160 224 L 96 224 L 96 288 L 32 288 M 96 224 L 32 224 L 32 160 L -32 160 M 288 288 L 288 32 M 288 96 L 224 96 L 224 224 M 224 160 L 96 160 L 96 32 M 96 96 L 32 96 L 32 32 M 32 96 L -32 96 M 224 288 L 160 288 L 160 224 L 169.601562 169.601562 L 160 96 L 224 96 L 224 32 L 160 32 "/>
<path fill-rule="nonzero" fill="rgb(100%, 0%, 0%)" fill-opacity="1" d="M 292 288 C 292 293.332031 284 293.332031 284 288 C 284 282.667969 292 282.667969 292 288 Z M 292 288 "/>
<path fill-rule="nonzero" fill="rgb(100%, 0%, 0%)" fill-opacity="1" d="M 228 288 C 228 293.332031 220 293.332031 220 288 C 220 282.667969 228 282.667969 228 288 Z M 228 288 "/>
<path fill-rule="nonzero" fill="rgb(100%, 0%, 0%)" fill-opacity="1" d="M 164 288 C 164 293.332031 156 293.332031 156 288 C 156 282.667969 164 282.667969 164 288 Z M 164 288 "/>
<path fill-rule="nonzero" fill="rgb(100%, 0%, 0%)" fill-opacity="1" d="M 100 288 C 100 293.332031 92 293.332031 92 288 C 92 282.667969 100 282.667969 100 288 Z M 100 288 "/>
<path fill-rule="nonzero" fill="rgb(100%, 0%, 0%)" fill-opacity="1" d="M 36 288 C 36 293.332031 28 293.332031 28 288 C 28 282.667969 36 282.667969 36 288 Z M 36 288 "/>
<path fill-rule="nonzero" fill="rgb(100%, 0%, 0%)" fill-opacity="1" d="M 292 224 C 292 229.332031 284 229.332031 284 224 C 284 218.667969 292 218.667969 292 224 Z M 292 224 "/>
<path fill-rule="nonzero" fill="rgb(100%, 0%, 0%)" fill-opacity="1" d="M 228 224 C 228 229.332031 220 229.332031 220 224 C 220 218.667969 228 218.667969 228 224 Z M 228 224 "/>
<path fill-rule="nonzero" fill="rgb(100%, 0%, 0%)" fill-opacity="1" d="M 164 224 C 164 229.332031 156 229.332031 156 224 C 156 218.667969 164 218.667969 164 224 Z M 164 224 "/>
<path fill-rule="nonzero" fill="rgb(100%, 0%, 0%)" fill-opacity="1" d="M 100 224 C 100 229.332031 92 229.332031 92 224 C 92 218.667969 100 218.667969 100 224 Z M 100 224 "/>
<path fill-rule="nonzero" fill="rgb(100%, 0%, 0%)" fill-opacity="1" d="M 36 224 C 36 229.332031 28 229.332031 28 224 C 28 218.667969 36 218.667969 36 224 Z M 36 224 "/>
<path fill-rule="nonzero" fill="rgb(100%, 0%, 0%)" fill-opacity="1" d="M 292 160 C 292 165.332031 284 165.332031 284 160 C 284 154.667969 292 154.667969 292 160 Z M 292 160 "/>
<path fill-rule="nonzero" fill="rgb(100%, 0%, 0%)" fill-opacity="1" d="M 228 160 C 228 165.332031 220 165.332031 220 160 C 220 154.667969 228 154.667969 228 160 Z M 228 160 "/>
<path fill-rule="nonzero" fill="rgb(100%, 0%, 0%)" fill-opacity="1" d="M 164 160 C 164 165.332031 156 165.332031 156 160 C 156 154.667969 164 154.667969 164 160 Z M 164 160 "/>
<path fill-rule="nonzero" fill="rgb(100%, 0%, 0%)" fill-opacity="1" d="M 100 160 C 100 165.332031 92 165.332031 92 160 C 92 154.667969 100 154.667969 100 160 Z M 100 160 "/>
<path fill-rule="nonzero" fill="rgb(100%, 0%, 0%)" fill-opacity="1" d="M 36 160 C 36 165.332031 28 165.332031 28 160 C 28 154.667969 36 154.667969 36 160 Z M 36 160 "/>
<path fill-rule="nonzero" fill="rgb(100%, 0%, 0%)" fill-opacity="1" d="M 292 96 C 292 101.332031 284 101.332031 284 96 C 284 90.667969 292 90.667969 292 96 Z M 292 96 "/>
<path fill-rule="nonzero" fill="rgb(100%, 0%, 0%)" fill-opacity="1" d="M 228 96 C 228 101.332031 220 101.332031 220 96 C 220 90.667969 228 90.667969 228 96 Z M 228 96 "/>
<path fill-rule="nonzero" fill="rgb(100%, 0%, 0%)" fill-opacity="1" d="M 164 96 C 164 101.332031 156 101.332031 156 96 C 156 90.667969 164 90.667969 164 96 Z M 164 96 "/>
<path fill-rule="nonzero" fill="rgb(100%, 0%, 0%)" fill-opacity="1" d="M 100 96 C 100 101.332031 92 101.332031 92 96 C 92 90.667969 100 90.667969 100 96 Z M 100 96 "/>
<path fill-rule="nonzero" fill="rgb(100%, 0%, 0%)" fill-opacity="1" d="M 36 96 C 36 101.332031 28 101.332031 28 96 C 28 90.667969 36 90.667969 36 96 Z M 36 96 "/>
<path fill-rule="nonzero" fill="rgb(100%, 0%, 0%)" fill-opacity="1" d="M 292 32 C 292 37.332031 284 37.332031 284 32 C 284 26.667969 292 26.667969 292 32 Z M 292 32 "/>
<path fill-rule="nonzero" fill="rgb(100%, 0%, 0%)" fill-opacity="1" d="M 228 32 C 228 37.332031 220 37.332031 220 32 C 220 26.667969 228 26.667969 228 32 Z M 228 32 "/>
<path fill-rule="nonzero" fill="rgb(100%, 0%, 0%)" fill-opacity="1" d="M 164 32 C 164 37.332031 156 37.332031 156 32 C 156 26.667969 164 26.667969 164 32 Z M 164 32 "/>
<path fill-rule="nonzero" fill="rgb(100%, 0%, 0%)" fill-opacity="1" d="M 100 32 C 100 37.332031 92 37.332031 92 32 C 92 26.667969 100 26.667969 100 32 Z M 100 32 "/>
<path fill-rule="nonzero" fill="rgb(100%, 0%, 0%)" fill-opacity="1" d="M 36 32 C 36 37.332031 28 37.332031 28 32 C 28 26.667969 36 26.667969 36 32 Z M 36 32 "/>
<path fill-rule="nonzero" fill="rgb(10.196078%, 73.72549%, 61.176471%)" fill-opacity="1" d="M 173.601562 169.601562 C 173.601562 174.933594 165.601562 174.933594 165.601562 169.601562 C 165.601562 164.265625 173.601562 164.265625 173.601562 169.601562 Z M 173.601562 169.601562 "/>
<path fill="none" stroke-width="9.6" stroke-linecap="square" stroke-linejoin="miter" stroke="rgb(0%, 0%, 0%)" stroke-opacity="0.4" stroke-miterlimit="10" d="M 0 182.398438 L 9.601562 182.398438 L 9.601562 246.398438 L 73.601562 246.398438 L 73.601562 265.601562 L 9.601562 265.601562 L 9.601562 310.398438 L 118.398438 310.398438 L 118.398438 246.398438 L 137.601562 246.398438 L 137.601562 310.398438 L 246.398438 310.398438 L 246.398438 265.601562 L 182.398438 265.601562 L 182.398438 118.398438 L 201.601562 118.398438 L 201.601562 137.601562 L 182.398438 137.601562 M 0 118.398438 L 73.601562 118.398438 L 73.601562 182.398438 L 137.601562 182.398438 M 182.398438 182.398438 L 201.601562 182.398438 L 201.601562 246.398438 L 246.398438 246.398438 L 246.398438 118.398438 L 265.601562 118.398438 L 265.601562 310.398438 L 310.398438 310.398438 L 310.398438 9.601562 L 265.601562 9.601562 L 265.601562 73.601562 L 246.398438 73.601562 L 246.398438 9.601562 L 137.601562 9.601562 L 137.601562 54.398438 L 201.601562 54.398438 L 201.601562 73.601562 L 137.601562 73.601562 L 137.601562 201.601562 L 54.398438 201.601562 L 54.398438 137.601562 L 0 137.601562 M 0 73.601562 L 9.601562 73.601562 L 9.601562 9.601562 L 54.398438 9.601562 L 54.398438 73.601562 L 73.601562 73.601562 L 73.601562 9.601562 L 118.398438 9.601562 L 118.398438 137.601562 L 137.601562 137.601562 "/>
<path fill="none" stroke-width="9.6" stroke-linecap="square" stroke-linejoin="miter" stroke="rgb(0%, 0%, 0%)" stroke-opacity="0.8" stroke-miterlimit="10" d="M 0 182.398438 C 5.304688 182.398438 9.601562 186.695312 9.601562 192 C 9.601562 222.042969 33.957031 246.398438 64 246.398438 C 69.304688 246.398438 73.601562 250.695312 73.601562 256 C 73.601562 258.546875 72.589844 260.988281 70.789062 262.789062 C 68.988281 264.589844 66.546875 265.601562 64 265.601562 L 32 265.601562 C 26.058594 265.601562 20.363281 267.960938 16.160156 272.160156 C 11.960938 276.363281 9.601562 282.058594 9.601562 288 C 9.601562 300.371094 19.628906 310.398438 32 310.398438 L 64 310.398438 C 78.425781 310.398438 92.265625 304.667969 102.464844 294.464844 C 112.667969 284.261719 118.398438 270.425781 118.398438 256 C 118.398438 253.453125 119.410156 251.011719 121.210938 249.210938 C 123.011719 247.410156 125.453125 246.398438 128 246.398438 C 133.304688 246.398438 137.601562 250.695312 137.601562 256 C 137.601562 286.042969 161.957031 310.398438 192 310.398438 L 224 310.398438 C 229.941406 310.398438 235.636719 308.039062 239.839844 303.839844 C 244.039062 299.636719 246.398438 293.941406 246.398438 288 C 246.398438 275.628906 236.371094 265.601562 224 265.601562 L 192 265.601562 C 186.695312 265.601562 182.398438 261.304688 182.398438 256 L 182.398438 128 C 182.398438 125.453125 183.410156 123.011719 185.210938 121.210938 C 187.011719 119.410156 189.453125 118.398438 192 118.398438 C 197.304688 118.398438 201.601562 122.695312 201.601562 128 C 201.601562 130.546875 200.589844 132.988281 198.789062 134.789062 C 196.988281 136.589844 194.546875 137.601562 192 137.601562 L 182.398438 137.601562 M 0 118.398438 L 64 118.398438 C 69.304688 118.398438 73.601562 122.695312 73.601562 128 C 73.601562 158.042969 97.957031 182.398438 128 182.398438 L 137.601562 182.398438 M 182.398438 182.398438 L 192 182.398438 C 197.304688 182.398438 201.601562 186.695312 201.601562 192 L 201.601562 224 C 201.601562 236.371094 211.628906 246.398438 224 246.398438 C 229.941406 246.398438 235.636719 244.039062 239.839844 239.839844 C 244.039062 235.636719 246.398438 229.941406 246.398438 224 L 246.398438 128 C 246.398438 125.453125 247.410156 123.011719 249.210938 121.210938 C 251.011719 119.410156 253.453125 118.398438 256 118.398438 C 261.304688 118.398438 265.601562 122.695312 265.601562 128 L 265.601562 288 C 265.601562 300.371094 275.628906 310.398438 288 310.398438 C 293.941406 310.398438 299.636719 308.039062 303.839844 303.839844 C 308.039062 299.636719 310.398438 293.941406 310.398438 288 L 310.398438 32 C 310.398438 19.628906 300.371094 9.601562 288 9.601562 C 282.058594 9.601562 276.363281 11.960938 272.160156 16.160156 C 267.960938 20.363281 265.601562 26.058594 265.601562 32 L 265.601562 64 C 265.601562 66.546875 264.589844 68.988281 262.789062 70.789062 C 260.988281 72.589844 258.546875 73.601562 256 73.601562 C 250.695312 73.601562 246.398438 69.304688 246.398438 64 C 246.398438 33.957031 222.042969 9.601562 192 9.601562 L 160 9.601562 C 154.058594 9.601562 148.363281 11.960938 144.160156 16.160156 C 139.960938 20.363281 137.601562 26.058594 137.601562 32 C 137.601562 44.371094 147.628906 54.398438 160 54.398438 L 192 54.398438 C 197.304688 54.398438 201.601562 58.695312 201.601562 64 C 201.601562 66.546875 200.589844 68.988281 198.789062 70.789062 C 196.988281 72.589844 194.546875 73.601562 192 73.601562 C 177.574219 73.601562 163.734375 79.332031 153.535156 89.535156 C 143.332031 99.738281 137.601562 113.574219 137.601562 128 L 137.601562 192 C 137.601562 194.546875 136.589844 196.988281 134.789062 198.789062 C 132.988281 200.589844 130.546875 201.601562 128 201.601562 L 64 201.601562 C 58.695312 201.601562 54.398438 197.304688 54.398438 192 C 54.398438 161.957031 30.042969 137.601562 0 137.601562 M 0 73.601562 C 5.304688 73.601562 9.601562 69.304688 9.601562 64 L 9.601562 32 C 9.601562 19.628906 19.628906 9.601562 32 9.601562 C 37.941406 9.601562 43.636719 11.960938 47.839844 16.160156 C 52.039062 20.363281 54.398438 26.058594 54.398438 32 L 54.398438 64 C 54.398438 66.546875 55.410156 68.988281 57.210938 70.789062 C 59.011719 72.589844 61.453125 73.601562 64 73.601562 C 69.304688 73.601562 73.601562 69.304688 73.601562 64 L 73.601562 32 C 73.601562 19.628906 83.628906 9.601562 96 9.601562 C 101.941406 9.601562 107.636719 11.960938 111.839844 16.160156 C 116.039062 20.363281 118.398438 26.058594 118.398438 32 L 118.398438 128 C 118.398438 130.546875 119.410156 132.988281 121.210938 134.789062 C 123.011719 136.589844 125.453125 137.601562 128 137.601562 L 137.601562 137.601562 "/>
</svg>
