<?xml version="1.0" encoding="UTF-8"?>
<svg xmlns="http://www.w3.org/2000/svg" xmlns:xlink="http://www.w3.org/1999/xlink" width="500" height="500" viewBox="0 0 500 500">
<rect x="-50" y="-50" width="600" height="600" fill="rgb(100%, 100%, 100%)" fill-opacity="1"/>
<path fill="none" stroke-width="3.75" stroke-linecap="round" stroke-linejoin="miter" stroke="rgb(0%, 0%, 0%)" stroke-opacity="1" stroke-miterlimit="10" d="M 246.25 453.75 L 275 453.75 C 286.7281942704871 453.75 296.25 463.2718057295129 296.25 475 C 296.25 477.06968134185064 297.93031865814936 478.75 300 478.75 L 337.5 478.75 C 342.32925646431823 478.75 346.25 482.67074353568177 346.25 487.5 C 346.25 492.32925646431823 342.32925646431823 496.25 337.5 496.25 L 275 496.25 C 263.2718057295129 496.25 253.75 486.7281942704871 253.75 475 L 253.75 471.25 M 246.25 471.25 L 275 471.25 C 277.06968134185064 471.25 278.75 472.93031865814936 278.75 475 C 278.75 477.06968134185064 277.06968134185064 478.75 275 478.75 C 272.93031865814936 478.75 271.25 477.06968134185064 271.25 475 L 271.25 471.25 M 221.25 500 L 221.25 475 C 221.25 472.93031865814936 222.93031865814933 471.25 225 471.25 L 228.75 471.25 M 196.25 471.25 L 200 471.25 C 202.06968134185067 471.25 203.75 472.93031865814936 203.75 475 L 203.75 500 M 103.75 453.75 L 87.5 453.75 C 82.67074353568178 453.75 78.75 457.67074353568177 78.75 462.5 C 78.75 467.32925646431823 82.67074353568178 471.25 87.5 471.25 L 103.75 471.25 M 346.25 428.75 L 350 428.75 C 361.7281942704871 428.75 371.25 438.2718057295129 371.25 450 L 371.25 475 C 371.25 477.06968134185064 372.93031865814936 478.75 375 478.75 L 400 478.75 C 402.06968134185064 478.75 403.75 477.06968134185064 403.75 475 L 403.75 446.25 M 346.25 446.25 L 350 446.25 C 352.06968134185064 446.25 353.75 447.93031865814936 353.75 450 L 353.75 475 C 353.75 486.7281942704871 363.2718057295129 496.25 375 496.25 L 475 496.25 C 486.7281942704871 496.25 496.25 486.7281942704871 496.25 475 C 496.25 463.2718057295129 486.7281942704871 453.75 475 453.75 L 462.5 453.75 C 457.67074353568177 453.75 453.75 457.67074353568177 453.75 462.5 C 453.75 467.32925646431823 457.67074353568177 471.25 462.5 471.25 L 475 471.25 C 477.06968134185064 471.25 478.75 472.93031865814936 478.75 475 C 478.75 477.06968134185064 477.06968134185064 478.75 475 478.75 L 425 478.75 C 422.93031865814936 478.75 421.25 477.06968134185064 421.25 475 C 421.25 472.93031865814936 422.93031865814936 471.25 425 471.25 L 437.5 471.25 C 442.32925646431823 471.25 446.25 467.32925646431823 446.25 462.5 C 446.25 457.67074353568177 442.32925646431823 453.75 437.5 453.75 L 425 453.75 C 422.93031865814936 453.75 421.25 452.06968134185064 421.25 450 L 421.25 446.25 M 253.75 446.25 L 253.75 453.75 M 271.25 446.25 L 271.25 453.75 M 171.25 446.25 L 175 446.25 C 177.06968134185067 446.25 178.75 447.93031865814936 178.75 450 L 178.75 475 C 178.75 477.06968134185064 177.06968134185067 478.75 175 478.75 L 162.5 478.75 C 157.6707435356818 478.75 153.75 482.67074353568177 153.75 487.5 C 153.75 492.32925646431823 157.6707435356818 496.25 162.5 496.25 L 175 496.25 C 186.7281942704871 496.25 196.25 486.7281942704871 196.25 475 L 196.25 450 C 196.25 438.2718057295129 186.7281942704871 428.75 175 428.75 L 171.25 428.75 M 121.25 471.25 L 125 471.25 C 127.06968134185067 471.25 128.75 472.93031865814936 128.75 475 L 128.75 487.5 C 128.75 492.32925646431823 132.6707435356818 496.25 137.5 496.25 C 142.3292564643182 496.25 146.25 492.32925646431823 146.25 487.5 L 146.25 450 C 146.25 447.93031865814936 147.93031865814933 446.25 150 446.25 L 153.75 446.25 M 46.25 428.75 L 53.75 428.75 M 46.25 446.25 L 53.75 446.25 M 28.75 428.75 L 12.5 428.75 C 7.670743535681782 428.75 3.75 432.67074353568177 3.7500000000000004 437.5 C 3.75 442.32925646431823 7.670743535681782 446.25 12.5 446.25 L 28.75 446.25 M 446.25 421.25 L 475 421.25 C 477.06968134185064 421.25 478.75 422.93031865814936 478.75 425 C 478.75 427.06968134185064 477.06968134185064 428.75 475 428.75 L 462.5 428.75 C 457.67074353568177 428.75 453.75 432.67074353568177 453.75 437.5 C 453.75 442.32925646431823 457.67074353568177 446.25 462.5 446.25 L 475 446.25 C 486.7281942704871 446.25 496.25 436.7281942704871 496.25 425 C 496.25 413.2718057295129 486.7281942704871 403.75 475 403.75 L 446.25 403.75 M 421.25 428.75 L 421.25 425 C 421.25 422.93031865814936 422.93031865814936 421.25 425 421.25 L 428.75 421.25 M 221.25 403.75 L 250 403.75 C 261.7281942704871 403.75 271.25 413.2718057295129 271.25 425 L 271.25 428.75 M 221.25 421.25 L 225 421.25 C 227.06968134185067 421.25 228.75 422.93031865814936 228.75 425 L 228.75 487.5 C 228.75 492.32925646431823 232.6707435356818 496.25 237.5 496.25 C 242.3292564643182 496.25 246.25 492.32925646431823 246.25 487.5 L 246.25 450 C 246.25 447.93031865814936 247.93031865814933 446.25 250 446.25 L 287.5 446.25 C 292.32925646431823 446.25 296.25 442.32925646431823 296.25 437.5 C 296.25 432.67074353568177 292.32925646431823 428.75 287.5 428.75 L 250 428.75 C 247.93031865814933 428.75 246.25 427.06968134185064 246.25 425 C 246.25 422.93031865814936 247.93031865814933 421.25 250 421.25 C 252.06968134185067 421.25 253.75 422.93031865814936 253.75 425 L 253.75 428.75 M 153.75 421.25 L 153.75 450 C 153.75 461.7281942704871 163.2718057295129 471.25 175 471.25 L 178.75 471.25 M 171.25 421.25 L 171.25 450 C 171.25 452.06968134185064 172.93031865814933 453.75 175 453.75 L 178.75 453.75 M 153.75 428.75 L 150 428.75 C 147.93031865814933 428.75 146.25 427.06968134185064 146.25 425 C 146.25 422.93031865814936 147.93031865814933 421.25 150 421.25 L 203.75 421.25 M 121.25 421.25 L 121.25 475 C 121.25 486.7281942704871 111.7281942704871 496.25 100 496.25 L 37.5 496.25 C 32.67074353568178 496.25 28.75 492.32925646431823 28.75 487.5 C 28.75 482.67074353568177 32.67074353568178 478.75 37.5 478.75 L 100 478.75 C 102.06968134185067 478.75 103.75 477.06968134185064 103.75 475 L 103.75 450 C 103.75 447.93031865814936 102.06968134185067 446.25 100 446.25 L 71.25 446.25 M 103.75 421.25 L 103.75 425 C 103.75 427.06968134185064 102.06968134185067 428.75 100 428.75 C 97.93031865814933 428.75 96.25 427.06968134185064 96.25 425 C 96.25 422.93031865814936 97.93031865814933 421.25 100 421.25 L 125 421.25 C 127.06968134185067 421.25 128.75 422.93031865814936 128.75 425 L 128.75 450 C 128.75 452.06968134185064 127.06968134185067 453.75 125 453.75 L 121.25 453.75 M 446.25 396.25 L 446.25 425 C 446.25 436.7281942704871 436.7281942704871 446.25 425 446.25 L 400 446.25 C 397.93031865814936 446.25 396.25 447.93031865814936 396.25 450 L 396.25 462.5 C 396.25 467.32925646431823 392.32925646431823 471.25 387.5 471.25 C 382.67074353568177 471.25 378.75 467.32925646431823 378.75 462.5 L 378.75 450 C 378.75 438.2718057295129 388.2718057295129 428.75 400 428.75 L 425 428.75 C 427.06968134185064 428.75 428.75 427.06968134185064 428.75 425 L 428.75 396.25 M 228.75 453.75 L 225 453.75 C 222.93031865814933 453.75 221.25 452.06968134185064 221.25 450 L 221.25 400 C 221.25 397.93031865814936 222.93031865814933 396.25 225 396.25 L 237.5 396.25 C 242.3292564643182 396.25 246.25 392.32925646431823 246.25 387.5 C 246.25 382.67074353568177 242.3292564643182 378.75 237.5 378.75 L 225 378.75 C 213.2718057295129 378.75 203.75 388.2718057295129 203.75 400 L 203.75 450 C 203.75 452.06968134185064 202.06968134185067 453.75 200 453.75 L 196.25 453.75 M 96.25 378.75 L 100 378.75 C 111.7281942704871 378.75 121.25 388.2718057295129 121.25 400 L 121.25 403.75 M 96.25 396.25 L 100 396.25 C 102.06968134185067 396.25 103.75 397.93031865814936 103.75 400 L 103.75 403.75 M 71.25 396.25 L 71.25 462.5 C 71.25 467.32925646431823 67.32925646431822 471.25 62.5 471.25 C 57.67074353568178 471.25 53.75 467.32925646431823 53.75 462.5 L 53.75 425 C 53.75 422.93031865814936 52.06968134185067 421.25 50 421.25 C 47.93031865814933 421.25 46.25 422.93031865814936 46.25 425 L 46.25 450 C 46.25 461.7281942704871 36.7281942704871 471.25 25 471.25 C 22.930318658149336 471.25 21.25 472.93031865814936 21.25 475 L 21.25 487.5 C 21.25 492.32925646431823 17.329256464318217 496.25 12.5 496.25 C 7.670743535681782 496.25 3.75 492.32925646431823 3.7500000000000004 487.5 L 3.7500000000000004 475 C 3.75 463.2718057295129 13.2718057295129 453.75 25 453.75 C 27.069681341850664 453.75 28.75 452.06968134185064 28.75 450 L 28.75 425 C 28.75 422.93031865814936 27.069681341850664 421.25 25 421.25 L 12.5 421.25 C 7.670743535681782 421.25 3.75 417.32925646431823 3.7500000000000004 412.5 C 3.75 407.67074353568177 7.670743535681782 403.75 12.5 403.75 L 50 403.75 C 52.06968134185067 403.75 53.75 402.06968134185064 53.75 400 L 53.75 396.25 M 453.75 371.25 L 453.75 375 C 453.75 377.06968134185064 452.06968134185064 378.75 450 378.75 L 421.25 378.75 M 471.25 371.25 L 471.25 375 C 471.25 377.06968134185064 472.93031865814936 378.75 475 378.75 L 487.5 378.75 C 492.32925646431823 378.75 496.25 382.67074353568177 496.25 387.5 C 496.25 392.32925646431823 492.32925646431823 396.25 487.5 396.25 L 421.25 396.25 M 428.75 403.75 L 425 403.75 C 422.93031865814936 403.75 421.25 402.06968134185064 421.25 400 L 421.25 375 C 421.25 372.93031865814936 422.93031865814936 371.25 425 371.25 C 427.06968134185064 371.25 428.75 372.93031865814936 428.75 375 L 428.75 378.75 M 403.75 378.75 L 400 378.75 C 397.93031865814936 378.75 396.25 377.06968134185064 396.25 375 C 396.25 372.93031865814936 397.93031865814936 371.25 400 371.25 C 402.06968134185064 371.25 403.75 372.93031865814936 403.75 375 L 403.75 400 C 403.75 402.06968134185064 402.06968134185064 403.75 400 403.75 L 350 403.75 C 338.2718057295129 403.75 328.75 413.2718057295129 328.75 425 L 328.75 462.5 C 328.75 467.32925646431823 332.67074353568177 471.25 337.5 471.25 C 342.32925646431823 471.25 346.25 467.32925646431823 346.25 462.5 L 346.25 425 C 346.25 422.93031865814936 347.93031865814936 421.25 350 421.25 L 400 421.25 C 402.06968134185064 421.25 403.75 422.93031865814936 403.75 425 L 403.75 428.75 M 153.75 371.25 L 153.75 403.75 M 171.25 371.25 L 171.25 375 C 171.25 377.06968134185064 172.93031865814933 378.75 175 378.75 L 187.5 378.75 C 192.3292564643182 378.75 196.25 382.67074353568177 196.25 387.5 C 196.25 392.32925646431823 192.3292564643182 396.25 187.5 396.25 L 175 396.25 C 172.93031865814933 396.25 171.25 397.93031865814936 171.25 400 L 171.25 403.75 M 71.25 378.75 L 71.25 375 C 71.25 372.93031865814936 72.93031865814933 371.25 75 371.25 C 77.06968134185067 371.25 78.75 372.93031865814936 78.75 375 L 78.75 425 C 78.75 427.06968134185064 77.06968134185067 428.75 75 428.75 L 71.25 428.75 M 371.25 346.25 L 371.25 350 C 371.25 361.7281942704871 361.7281942704871 371.25 350 371.25 C 347.93031865814936 371.25 346.25 372.93031865814936 346.25 375 C 346.25 377.06968134185064 347.93031865814936 378.75 350 378.75 L 362.5 378.75 C 367.32925646431823 378.75 371.25 382.67074353568177 371.25 387.5 C 371.25 392.32925646431823 367.32925646431823 396.25 362.5 396.25 L 350 396.25 C 338.2718057295129 396.25 328.75 386.7281942704871 328.75 375 C 328.75 363.2718057295129 338.2718057295129 353.75 350 353.75 C 352.06968134185064 353.75 353.75 352.06968134185064 353.75 350 L 353.75 346.25 M 328.75 428.75 L 325 428.75 C 322.93031865814936 428.75 321.25 427.06968134185064 321.25 425 C 321.25 413.2718057295129 311.7281942704871 403.75 300 403.75 C 297.93031865814936 403.75 296.25 402.06968134185064 296.25 400 C 296.25 397.93031865814936 297.93031865814936 396.25 300 396.25 C 311.7281942704871 396.25 321.25 386.7281942704871 321.25 375 L 321.25 350 C 321.25 338.2718057295129 311.7281942704871 328.75 300 328.75 L 287.5 328.75 C 282.67074353568177 328.75 278.75 332.67074353568177 278.75 337.5 C 278.75 342.32925646431823 282.67074353568177 346.25 287.5 346.25 L 300 346.25 C 302.06968134185064 346.25 303.75 347.93031865814936 303.75 350 L 303.75 375 C 303.75 377.06968134185064 302.06968134185064 378.75 300 378.75 C 297.93031865814936 378.75 296.25 377.06968134185064 296.25 375 C 296.25 363.2718057295129 286.7281942704871 353.75 275 353.75 C 263.2718057295129 353.75 253.75 363.2718057295129 253.75 375 L 253.75 387.5 C 253.75 392.32925646431823 257.67074353568177 396.25 262.5 396.25 C 267.32925646431823 396.25 271.25 392.32925646431823 271.25 387.5 L 271.25 375 C 271.25 372.93031865814936 272.93031865814936 371.25 275 371.25 C 277.06968134185064 371.25 278.75 372.93031865814936 278.75 375 L 278.75 400 C 278.75 411.7281942704871 288.2718057295129 421.25 300 421.25 C 302.06968134185064 421.25 303.75 422.93031865814936 303.75 425 L 303.75 462.5 C 303.75 467.32925646431823 307.67074353568177 471.25 312.5 471.25 C 317.32925646431823 471.25 321.25 467.32925646431823 321.25 462.5 L 321.25 450 C 321.25 447.93031865814936 322.93031865814936 446.25 325 446.25 L 328.75 446.25 M 246.25 346.25 L 262.5 346.25 C 267.32925646431823 346.25 271.25 342.32925646431823 271.25 337.5 C 271.25 332.67074353568177 267.32925646431823 328.75 262.5 328.75 L 246.25 328.75 M 153.75 353.75 L 153.75 337.5 C 153.75 332.67074353568177 157.6707435356818 328.75 162.5 328.75 C 167.3292564643182 328.75 171.25 332.67074353568177 171.25 337.5 L 171.25 353.75 M 121.25 346.25 L 125 346.25 C 127.06968134185067 346.25 128.75 347.93031865814936 128.75 350 L 128.75 387.5 C 128.75 392.32925646431823 132.6707435356818 396.25 137.5 396.25 C 142.3292564643182 396.25 146.25 392.32925646431823 146.25 387.5 L 146.25 375 C 146.25 372.93031865814936 147.93031865814933 371.25 150 371.25 L 175 371.25 C 186.7281942704871 371.25 196.25 361.7281942704871 196.25 350 L 196.25 337.5 C 196.25 332.67074353568177 192.3292564643182 328.75 187.5 328.75 C 182.6707435356818 328.75 178.75 332.67074353568177 178.75 337.5 L 178.75 350 C 178.75 352.06968134185064 177.06968134185067 353.75 175 353.75 L 150 353.75 C 147.93031865814933 353.75 146.25 352.06968134185064 146.25 350 C 146.25 338.2718057295129 136.7281942704871 328.75 125 328.75 L 121.25 328.75 M 78.75 346.25 L 78.75 350 C 78.75 352.06968134185064 77.06968134185067 353.75 75 353.75 C 63.2718057295129 353.75 53.75 363.2718057295129 53.75 375 L 53.75 378.75 M 78.75 396.25 L 25 396.25 C 13.2718057295129 396.25 3.75 386.7281942704871 3.7500000000000004 375 L 3.7500000000000004 337.5 C 3.75 332.67074353568177 7.670743535681782 328.75 12.5 328.75 C 17.329256464318217 328.75 21.25 332.67074353568177 21.25 337.5 L 21.25 350 C 21.25 352.06968134185064 22.930318658149336 353.75 25 353.75 L 37.5 353.75 C 42.32925646431822 353.75 46.25 357.67074353568177 46.25 362.5 C 46.25 367.32925646431823 42.32925646431822 371.25 37.5 371.25 L 25 371.25 C 22.930318658149336 371.25 21.25 372.93031865814936 21.25 375 C 21.25 377.06968134185064 22.930318658149336 378.75 25 378.75 L 78.75 378.75 M 428.75 321.25 L 428.75 350 C 428.75 352.06968134185064 427.06968134185064 353.75 425 353.75 L 400 353.75 C 388.2718057295129 353.75 378.75 363.2718057295129 378.75 375 C 378.75 386.7281942704871 388.2718057295129 396.25 400 396.25 L 403.75 396.25 M 446.25 321.25 L 446.25 350 C 446.25 352.06968134185064 447.93031865814936 353.75 450 353.75 L 487.5 353.75 C 492.32925646431823 353.75 496.25 357.67074353568177 496.25 362.5 C 496.25 367.32925646431823 492.32925646431823 371.25 487.5 371.25 L 450 371.25 C 447.93031865814936 371.25 446.25 372.93031865814936 446.25 375 L 446.25 378.75 M 371.25 328.75 L 371.25 325 C 371.25 322.93031865814936 372.93031865814936 321.25 375 321.25 L 378.75 321.25 M 328.75 321.25 L 328.75 325 C 328.75 336.7281942704871 338.2718057295129 346.25 350 346.25 L 400 346.25 C 411.7281942704871 346.25 421.25 336.7281942704871 421.25 325 C 421.25 322.93031865814936 422.93031865814936 321.25 425 321.25 L 453.75 321.25 M 203.75 321.25 L 203.75 362.5 C 203.75 367.32925646431823 207.6707435356818 371.25 212.5 371.25 C 217.3292564643182 371.25 221.25 367.32925646431823 221.25 362.5 L 221.25 350 C 221.25 347.93031865814936 222.93031865814933 346.25 225 346.25 L 228.75 346.25 M 221.25 321.25 L 221.25 325 C 221.25 327.06968134185064 222.93031865814933 328.75 225 328.75 L 228.75 328.75 M 96.25 303.75 L 100 303.75 C 111.7281942704871 303.75 121.25 313.2718057295129 121.25 325 L 121.25 350 C 121.25 361.7281942704871 111.7281942704871 371.25 100 371.25 C 97.93031865814933 371.25 96.25 372.93031865814936 96.25 375 L 96.25 400 C 96.25 402.06968134185064 97.93031865814933 403.75 100 403.75 L 203.75 403.75 M 96.25 321.25 L 100 321.25 C 102.06968134185067 321.25 103.75 322.93031865814936 103.75 325 L 103.75 350 C 103.75 352.06968134185064 102.06968134185067 353.75 100 353.75 C 97.93031865814933 353.75 96.25 352.06968134185064 96.25 350 L 96.25 346.25 M 71.25 303.75 L 78.75 303.75 M 71.25 321.25 L 78.75 321.25 M 46.25 303.75 L 53.75 303.75 M 46.25 321.25 L 53.75 321.25 M 28.75 303.75 L 12.5 303.75 C 7.670743535681782 303.75 3.75 307.67074353568177 3.7500000000000004 312.5 C 3.75 317.32925646431823 7.670743535681782 321.25 12.5 321.25 L 28.75 321.25 M 471.25 303.75 L 475 303.75 C 477.06968134185064 303.75 478.75 302.06968134185064 478.75 300 L 478.75 287.5 C 478.75 282.67074353568177 482.67074353568177 278.75 487.5 278.75 C 492.32925646431823 278.75 496.25 282.67074353568177 496.25 287.5 L 496.25 337.5 C 496.25 342.32925646431823 492.32925646431823 346.25 487.5 346.25 C 482.67074353568177 346.25 478.75 342.32925646431823 478.75 337.5 L 478.75 325 C 478.75 322.93031865814936 477.06968134185064 321.25 475 321.25 L 471.25 321.25 M 446.25 278.75 L 450 278.75 C 461.7281942704871 278.75 471.25 288.2718057295129 471.25 300 L 471.25 353.75 M 446.25 296.25 L 450 296.25 C 452.06968134185064 296.25 453.75 297.93031865814936 453.75 300 L 453.75 353.75 M 403.75 296.25 L 403.75 300 C 403.75 302.06968134185064 402.06968134185064 303.75 400 303.75 L 396.25 303.75 M 421.25 296.25 L 421.25 300 C 421.25 302.06968134185064 422.93031865814936 303.75 425 303.75 L 453.75 303.75 M 396.25 321.25 L 400 321.25 C 402.06968134185064 321.25 403.75 322.93031865814936 403.75 325 C 403.75 327.06968134185064 402.06968134185064 328.75 400 328.75 C 397.93031865814936 328.75 396.25 327.06968134185064 396.25 325 L 396.25 300 C 396.25 297.93031865814936 397.93031865814936 296.25 400 296.25 L 428.75 296.25 M 328.75 296.25 L 328.75 303.75 M 346.25 296.25 L 346.25 303.75 M 378.75 303.75 L 375 303.75 C 372.93031865814936 303.75 371.25 302.06968134185064 371.25 300 C 371.25 288.2718057295129 361.7281942704871 278.75 350 278.75 L 300 278.75 C 288.2718057295129 278.75 278.75 288.2718057295129 278.75 300 C 278.75 302.06968134185064 277.06968134185064 303.75 275 303.75 L 262.5 303.75 C 257.67074353568177 303.75 253.75 307.67074353568177 253.75 312.5 C 253.75 317.32925646431823 257.67074353568177 321.25 262.5 321.25 L 275 321.25 C 286.7281942704871 321.25 296.25 311.7281942704871 296.25 300 C 296.25 297.93031865814936 297.93031865814936 296.25 300 296.25 L 350 296.25 C 352.06968134185064 296.25 353.75 297.93031865814936 353.75 300 C 353.75 302.06968134185064 352.06968134185064 303.75 350 303.75 L 312.5 303.75 C 307.67074353568177 303.75 303.75 307.67074353568177 303.75 312.5 C 303.75 317.32925646431823 307.67074353568177 321.25 312.5 321.25 L 350 321.25 C 352.06968134185064 321.25 353.75 322.93031865814936 353.75 325 L 353.75 328.75 M 78.75 296.25 L 78.75 328.75 M 96.25 296.25 L 96.25 328.75 M 46.25 296.25 L 46.25 337.5 C 46.25 342.32925646431823 42.32925646431822 346.25 37.5 346.25 C 32.67074353568178 346.25 28.75 342.32925646431823 28.75 337.5 L 28.75 296.25 M 428.75 271.25 L 428.75 303.75 M 446.25 271.25 L 446.25 303.75 M 346.25 321.25 L 346.25 325 C 346.25 327.06968134185064 347.93031865814936 328.75 350 328.75 L 375 328.75 C 377.06968134185064 328.75 378.75 327.06968134185064 378.75 325 L 378.75 262.5 C 378.75 257.67074353568177 382.67074353568177 253.75 387.5 253.75 C 392.32925646431823 253.75 396.25 257.67074353568177 396.25 262.5 L 396.25 275 C 396.25 277.06968134185064 397.93031865814936 278.75 400 278.75 L 428.75 278.75 M 328.75 271.25 L 328.75 278.75 M 346.25 271.25 L 346.25 278.75 M 196.25 271.25 L 196.25 275 C 196.25 286.7281942704871 186.7281942704871 296.25 175 296.25 L 150 296.25 C 147.93031865814933 296.25 146.25 297.93031865814936 146.25 300 C 146.25 302.06968134185064 147.93031865814933 303.75 150 303.75 L 225 303.75 C 227.06968134185067 303.75 228.75 302.06968134185064 228.75 300 C 228.75 297.93031865814936 227.06968134185067 296.25 225 296.25 C 222.93031865814933 296.25 221.25 297.93031865814936 221.25 300 L 221.25 303.75 M 128.75 271.25 L 128.75 300 C 128.75 311.7281942704871 138.2718057295129 321.25 150 321.25 L 225 321.25 C 227.06968134185067 321.25 228.75 322.93031865814936 228.75 325 L 228.75 362.5 C 228.75 367.32925646431823 232.6707435356818 371.25 237.5 371.25 C 242.3292564643182 371.25 246.25 367.32925646431823 246.25 362.5 L 246.25 300 C 246.25 297.93031865814936 247.93031865814933 296.25 250 296.25 L 262.5 296.25 C 267.32925646431823 296.25 271.25 292.32925646431823 271.25 287.5 C 271.25 282.67074353568177 267.32925646431823 278.75 262.5 278.75 L 225 278.75 C 213.2718057295129 278.75 203.75 288.2718057295129 203.75 300 L 203.75 303.75 M 103.75 328.75 L 75 328.75 C 72.93031865814933 328.75 71.25 327.06968134185064 71.25 325 L 71.25 300 C 71.25 297.93031865814936 72.93031865814933 296.25 75 296.25 L 100 296.25 C 111.7281942704871 296.25 121.25 286.7281942704871 121.25 275 C 121.25 272.93031865814936 122.93031865814933 271.25 125 271.25 L 150 271.25 C 152.06968134185067 271.25 153.75 272.93031865814936 153.75 275 C 153.75 277.06968134185064 152.06968134185067 278.75 150 278.75 C 147.93031865814933 278.75 146.25 277.06968134185064 146.25 275 L 146.25 271.25 M 71.25 253.75 L 75 253.75 C 86.7281942704871 253.75 96.25 263.2718057295129 96.25 275 L 96.25 278.75 M 71.25 271.25 L 75 271.25 C 77.06968134185067 271.25 78.75 272.93031865814936 78.75 275 L 78.75 278.75 M 46.25 278.75 L 46.25 275 C 46.25 272.93031865814936 47.93031865814933 271.25 50 271.25 L 53.75 271.25 M 103.75 346.25 L 75 346.25 C 63.2718057295129 346.25 53.75 336.7281942704871 53.75 325 L 53.75 300 C 53.75 297.93031865814936 52.06968134185067 296.25 50 296.25 L 25 296.25 C 13.2718057295129 296.25 3.75 286.7281942704871 3.7500000000000004 275 C 3.75 263.2718057295129 13.2718057295129 253.75 25 253.75 L 53.75 253.75 M 446.25 246.25 L 462.5 246.25 C 467.32925646431823 246.25 471.25 242.3292564643182 471.25 237.5 C 471.25 232.6707435356818 467.32925646431823 228.75 462.5 228.75 L 446.25 228.75 M 403.75 278.75 L 403.75 250 C 403.75 238.2718057295129 413.2718057295129 228.75 425 228.75 L 428.75 228.75 M 421.25 278.75 L 421.25 275 C 421.25 272.93031865814936 422.93031865814936 271.25 425 271.25 L 475 271.25 C 486.7281942704871 271.25 496.25 261.7281942704871 496.25 250 L 496.25 237.5 C 496.25 232.6707435356818 492.32925646431823 228.75 487.5 228.75 C 482.67074353568177 228.75 478.75 232.6707435356818 478.75 237.5 L 478.75 250 C 478.75 252.06968134185067 477.06968134185064 253.75 475 253.75 L 425 253.75 C 422.93031865814936 253.75 421.25 252.06968134185067 421.25 250 C 421.25 247.93031865814933 422.93031865814936 246.25 425 246.25 L 428.75 246.25 M 321.25 246.25 L 325 246.25 C 327.06968134185064 246.25 328.75 247.93031865814933 328.75 250 L 328.75 253.75 M 246.25 246.25 L 246.25 262.5 C 246.25 267.32925646431823 242.3292564643182 271.25 237.5 271.25 C 232.6707435356818 271.25 228.75 267.32925646431823 228.75 262.5 L 228.75 246.25 M 178.75 253.75 L 178.75 237.5 C 178.75 232.6707435356818 182.6707435356818 228.75 187.5 228.75 C 192.3292564643182 228.75 196.25 232.6707435356818 196.25 237.5 L 196.25 253.75 M 121.25 246.25 L 121.25 250 C 121.25 252.06968134185067 122.93031865814933 253.75 125 253.75 L 212.5 253.75 C 217.3292564643182 253.75 221.25 257.67074353568177 221.25 262.5 C 221.25 267.32925646431823 217.3292564643182 271.25 212.5 271.25 L 175 271.25 C 172.93031865814933 271.25 171.25 272.93031865814936 171.25 275 C 171.25 277.06968134185064 172.93031865814933 278.75 175 278.75 C 177.06968134185067 278.75 178.75 277.06968134185064 178.75 275 L 178.75 271.25 M 28.75 278.75 L 28.75 275 C 28.75 272.93031865814936 27.069681341850664 271.25 25 271.25 C 22.930318658149336 271.25 21.25 272.93031865814936 21.25 275 C 21.25 277.06968134185064 22.930318658149336 278.75 25 278.75 L 50 278.75 C 52.06968134185067 278.75 53.75 277.06968134185064 53.75 275 L 53.75 237.5 C 53.75 232.6707435356818 57.67074353568178 228.75 62.5 228.75 C 67.32925646431822 228.75 71.25 232.6707435356818 71.25 237.5 L 71.25 275 C 71.25 277.06968134185064 72.93031865814933 278.75 75 278.75 L 100 278.75 C 102.06968134185067 278.75 103.75 277.06968134185064 103.75 275 L 103.75 246.25 M 328.75 221.25 L 328.75 225 C 328.75 227.06968134185067 327.06968134185064 228.75 325 228.75 L 321.25 228.75 M 346.25 221.25 L 346.25 225 C 346.25 227.06968134185067 347.93031865814936 228.75 350 228.75 L 362.5 228.75 C 367.32925646431823 228.75 371.25 232.6707435356818 371.25 237.5 C 371.25 242.3292564643182 367.32925646431823 246.25 362.5 246.25 L 350 246.25 C 347.93031865814936 246.25 346.25 247.93031865814933 346.25 250 L 346.25 253.75 M 228.75 228.75 L 228.75 225 C 228.75 213.2718057295129 238.2718057295129 203.75 250 203.75 L 278.75 203.75 M 246.25 228.75 L 246.25 225 C 246.25 222.93031865814933 247.93031865814933 221.25 250 221.25 C 252.06968134185067 221.25 253.75 222.93031865814933 253.75 225 C 253.75 227.06968134185067 252.06968134185067 228.75 250 228.75 L 212.5 228.75 C 207.6707435356818 228.75 203.75 232.6707435356818 203.75 237.5 C 203.75 242.3292564643182 207.6707435356818 246.25 212.5 246.25 L 250 246.25 C 252.06968134185067 246.25 253.75 247.93031865814933 253.75 250 C 253.75 261.7281942704871 263.2718057295129 271.25 275 271.25 L 287.5 271.25 C 292.32925646431823 271.25 296.25 267.32925646431823 296.25 262.5 C 296.25 257.67074353568177 292.32925646431823 253.75 287.5 253.75 L 275 253.75 C 272.93031865814936 253.75 271.25 252.06968134185067 271.25 250 C 271.25 247.93031865814933 272.93031865814936 246.25 275 246.25 L 303.75 246.25 M 103.75 228.75 L 103.75 212.5 C 103.75 207.6707435356818 107.67074353568178 203.75 112.5 203.75 C 117.32925646431822 203.75 121.25 207.6707435356818 121.25 212.5 L 121.25 228.75 M 46.25 221.25 L 46.25 237.5 C 46.25 242.3292564643182 42.32925646431822 246.25 37.5 246.25 C 32.67074353568178 246.25 28.75 242.3292564643182 28.75 237.5 L 28.75 221.25 M 428.75 196.25 L 428.75 253.75 M 446.25 196.25 L 446.25 253.75 M 396.25 196.25 L 396.25 200 C 396.25 202.06968134185067 397.93031865814936 203.75 400 203.75 L 412.5 203.75 C 417.32925646431823 203.75 421.25 207.6707435356818 421.25 212.5 C 421.25 217.3292564643182 417.32925646431823 221.25 412.5 221.25 L 400 221.25 C 397.93031865814936 221.25 396.25 222.93031865814933 396.25 225 L 396.25 237.5 C 396.25 242.3292564643182 392.32925646431823 246.25 387.5 246.25 C 382.67074353568177 246.25 378.75 242.3292564643182 378.75 237.5 L 378.75 225 C 378.75 222.93031865814933 377.06968134185064 221.25 375 221.25 L 325 221.25 C 322.93031865814936 221.25 321.25 222.93031865814933 321.25 225 L 321.25 250 C 321.25 252.06968134185067 322.93031865814936 253.75 325 253.75 L 362.5 253.75 C 367.32925646431823 253.75 371.25 257.67074353568177 371.25 262.5 C 371.25 267.32925646431823 367.32925646431823 271.25 362.5 271.25 L 325 271.25 C 313.2718057295129 271.25 303.75 261.7281942704871 303.75 250 L 303.75 225 C 303.75 222.93031865814933 302.06968134185064 221.25 300 221.25 L 296.25 221.25 M 328.75 203.75 L 328.75 187.5 C 328.75 182.6707435356818 332.67074353568177 178.75 337.5 178.75 C 342.32925646431823 178.75 346.25 182.6707435356818 346.25 187.5 L 346.25 203.75 M 296.25 203.75 L 300 203.75 C 302.06968134185064 203.75 303.75 202.06968134185067 303.75 200 L 303.75 187.5 C 303.75 182.6707435356818 307.67074353568177 178.75 312.5 178.75 C 317.32925646431823 178.75 321.25 182.6707435356818 321.25 187.5 L 321.25 200 C 321.25 202.06968134185067 322.93031865814936 203.75 325 203.75 L 350 203.75 C 352.06968134185064 203.75 353.75 202.06968134185067 353.75 200 C 353.75 188.2718057295129 363.2718057295129 178.75 375 178.75 L 475 178.75 C 486.7281942704871 178.75 496.25 188.2718057295129 496.25 200 C 496.25 211.7281942704871 486.7281942704871 221.25 475 221.25 L 462.5 221.25 C 457.67074353568177 221.25 453.75 217.3292564643182 453.75 212.5 C 453.75 207.6707435356818 457.67074353568177 203.75 462.5 203.75 L 475 203.75 C 477.06968134185064 203.75 478.75 202.06968134185067 478.75 200 C 478.75 197.93031865814933 477.06968134185064 196.25 475 196.25 L 375 196.25 C 372.93031865814936 196.25 371.25 197.93031865814933 371.25 200 C 371.25 202.06968134185067 372.93031865814936 203.75 375 203.75 C 377.06968134185064 203.75 378.75 202.06968134185067 378.75 200 L 378.75 196.25 M 278.75 221.25 L 275 221.25 C 272.93031865814936 221.25 271.25 222.93031865814933 271.25 225 C 271.25 227.06968134185067 272.93031865814936 228.75 275 228.75 C 277.06968134185064 228.75 278.75 227.06968134185067 278.75 225 L 278.75 187.5 C 278.75 182.6707435356818 282.67074353568177 178.75 287.5 178.75 C 292.32925646431823 178.75 296.25 182.6707435356818 296.25 187.5 L 296.25 225 C 296.25 227.06968134185067 297.93031865814936 228.75 300 228.75 L 303.75 228.75 M 171.25 196.25 L 171.25 237.5 C 171.25 242.3292564643182 167.3292564643182 246.25 162.5 246.25 C 157.6707435356818 246.25 153.75 242.3292564643182 153.75 237.5 L 153.75 225 C 153.75 222.93031865814933 152.06968134185067 221.25 150 221.25 C 147.93031865814933 221.25 146.25 222.93031865814933 146.25 225 L 146.25 253.75 M 96.25 196.25 L 96.25 200 C 96.25 211.7281942704871 86.7281942704871 221.25 75 221.25 L 25 221.25 C 22.930318658149336 221.25 21.25 222.93031865814933 21.25 225 L 21.25 237.5 C 21.25 242.3292564643182 17.329256464318217 246.25 12.5 246.25 C 7.670743535681782 246.25 3.75 242.3292564643182 3.7500000000000004 237.5 L 3.7500000000000004 187.5 C 3.75 182.6707435356818 7.670743535681782 178.75 12.5 178.75 C 17.329256464318217 178.75 21.25 182.6707435356818 21.25 187.5 L 21.25 200 C 21.25 202.06968134185067 22.930318658149336 203.75 25 203.75 L 50 203.75 C 52.06968134185067 203.75 53.75 202.06968134185067 53.75 200 C 53.75 197.93031865814933 52.06968134185067 196.25 50 196.25 C 47.93031865814933 196.25 46.25 197.93031865814933 46.25 200 L 46.25 203.75 M 228.75 153.75 L 187.5 153.75 C 182.6707435356818 153.75 178.75 157.6707435356818 178.75 162.5 C 178.75 167.3292564643182 182.6707435356818 171.25 187.5 171.25 L 228.75 171.25 M 146.25 153.75 L 150 153.75 C 161.7281942704871 153.75 171.25 163.2718057295129 171.25 175 L 171.25 178.75 M 146.25 171.25 L 150 171.25 C 152.06968134185067 171.25 153.75 172.93031865814933 153.75 175 L 153.75 178.75 M 121.25 153.75 L 128.75 153.75 M 121.25 171.25 L 128.75 171.25 M 96.25 178.75 L 96.25 175 C 96.25 172.93031865814933 97.93031865814933 171.25 100 171.25 L 103.75 171.25 M 71.25 153.75 L 103.75 153.75 M 71.25 171.25 L 75 171.25 C 77.06968134185067 171.25 78.75 172.93031865814933 78.75 175 L 78.75 178.75 M 46.25 153.75 L 53.75 153.75 M 46.25 171.25 L 53.75 171.25 M 28.75 153.75 L 12.5 153.75 C 7.670743535681782 153.75 3.75 157.6707435356818 3.7500000000000004 162.5 C 3.75 167.3292564643182 7.670743535681782 171.25 12.5 171.25 L 28.75 171.25 M 471.25 146.25 L 475 146.25 C 477.06968134185064 146.25 478.75 147.93031865814933 478.75 150 L 478.75 162.5 C 478.75 167.3292564643182 482.67074353568177 171.25 487.5 171.25 C 492.32925646431823 171.25 496.25 167.3292564643182 496.25 162.5 L 496.25 150 C 496.25 138.2718057295129 486.7281942704871 128.75 475 128.75 L 471.25 128.75 M 446.25 128.75 L 453.75 128.75 M 446.25 146.25 L 453.75 146.25 M 396.25 146.25 L 428.75 146.25 M 371.25 128.75 L 378.75 128.75 M 371.25 146.25 L 378.75 146.25 M 353.75 128.75 L 337.5 128.75 C 332.67074353568177 128.75 328.75 132.6707435356818 328.75 137.5 C 328.75 142.3292564643182 332.67074353568177 146.25 337.5 146.25 L 353.75 146.25 M 271.25 128.75 L 278.75 128.75 M 271.25 146.25 L 278.75 146.25 M 403.75 121.25 L 403.75 125 C 403.75 127.06968134185067 402.06968134185064 128.75 400 128.75 L 396.25 128.75 M 421.25 121.25 L 421.25 125 C 421.25 127.06968134185067 422.93031865814936 128.75 425 128.75 L 428.75 128.75 M 396.25 103.75 L 487.5 103.75 C 492.32925646431823 103.75 496.25 107.67074353568178 496.25 112.5 C 496.25 117.32925646431822 492.32925646431823 121.25 487.5 121.25 L 475 121.25 C 472.93031865814936 121.25 471.25 122.93031865814933 471.25 125 L 471.25 162.5 C 471.25 167.3292564643182 467.32925646431823 171.25 462.5 171.25 C 457.67074353568177 171.25 453.75 167.3292564643182 453.75 162.5 L 453.75 125 C 453.75 122.93031865814933 452.06968134185064 121.25 450 121.25 C 447.93031865814936 121.25 446.25 122.93031865814933 446.25 125 L 446.25 178.75 M 396.25 121.25 L 425 121.25 C 427.06968134185064 121.25 428.75 122.93031865814933 428.75 125 L 428.75 178.75 M 371.25 103.75 L 378.75 103.75 M 371.25 121.25 L 378.75 121.25 M 321.25 121.25 L 353.75 121.25 M 296.25 121.25 L 296.25 150 C 296.25 161.7281942704871 286.7281942704871 171.25 275 171.25 L 246.25 171.25 M 253.75 121.25 L 253.75 150 C 253.75 152.06968134185067 252.06968134185067 153.75 250 153.75 L 246.25 153.75 M 271.25 121.25 L 271.25 150 C 271.25 152.06968134185067 272.93031865814936 153.75 275 153.75 C 277.06968134185064 153.75 278.75 152.06968134185067 278.75 150 L 278.75 121.25 M 246.25 103.75 L 303.75 103.75 M 246.25 121.25 L 303.75 121.25 M 121.25 121.25 L 121.25 175 C 121.25 186.7281942704871 111.7281942704871 196.25 100 196.25 L 75 196.25 C 72.93031865814933 196.25 71.25 197.93031865814933 71.25 200 C 71.25 202.06968134185067 72.93031865814933 203.75 75 203.75 C 77.06968134185067 203.75 78.75 202.06968134185067 78.75 200 L 78.75 196.25 M 28.75 203.75 L 28.75 137.5 C 28.75 132.6707435356818 32.67074353568178 128.75 37.5 128.75 C 42.32925646431822 128.75 46.25 132.6707435356818 46.25 137.5 L 46.25 175 C 46.25 177.06968134185067 47.93031865814933 178.75 50 178.75 C 52.06968134185067 178.75 53.75 177.06968134185067 53.75 175 L 53.75 112.5 C 53.75 107.67074353568178 57.67074353568178 103.75 62.5 103.75 C 67.32925646431822 103.75 71.25 107.67074353568178 71.25 112.5 L 71.25 175 C 71.25 177.06968134185067 72.93031865814933 178.75 75 178.75 L 100 178.75 C 102.06968134185067 178.75 103.75 177.06968134185067 103.75 175 L 103.75 121.25 M 403.75 96.25 L 403.75 103.75 M 421.25 96.25 L 421.25 103.75 M 378.75 96.25 L 378.75 178.75 M 396.25 96.25 L 396.25 150 C 396.25 152.06968134185067 397.93031865814936 153.75 400 153.75 L 412.5 153.75 C 417.32925646431823 153.75 421.25 157.6707435356818 421.25 162.5 C 421.25 167.3292564643182 417.32925646431823 171.25 412.5 171.25 L 400 171.25 C 397.93031865814936 171.25 396.25 172.93031865814933 396.25 175 L 396.25 178.75 M 296.25 146.25 L 300 146.25 C 302.06968134185064 146.25 303.75 147.93031865814933 303.75 150 C 303.75 161.7281942704871 313.2718057295129 171.25 325 171.25 L 337.5 171.25 C 342.32925646431823 171.25 346.25 167.3292564643182 346.25 162.5 C 346.25 157.6707435356818 342.32925646431823 153.75 337.5 153.75 L 325 153.75 C 322.93031865814936 153.75 321.25 152.06968134185067 321.25 150 L 321.25 100 C 321.25 97.93031865814933 322.93031865814936 96.25 325 96.25 C 327.06968134185064 96.25 328.75 97.93031865814933 328.75 100 C 328.75 102.06968134185067 327.06968134185064 103.75 325 103.75 L 321.25 103.75 M 296.25 103.75 L 296.25 100 C 296.25 97.93031865814933 297.93031865814936 96.25 300 96.25 C 302.06968134185064 96.25 303.75 97.93031865814933 303.75 100 L 303.75 125 C 303.75 127.06968134185067 302.06968134185064 128.75 300 128.75 L 296.25 128.75 M 228.75 96.25 L 228.75 175 C 228.75 177.06968134185067 227.06968134185067 178.75 225 178.75 C 213.2718057295129 178.75 203.75 188.2718057295129 203.75 200 C 203.75 202.06968134185067 202.06968134185067 203.75 200 203.75 L 187.5 203.75 C 182.6707435356818 203.75 178.75 207.6707435356818 178.75 212.5 C 178.75 217.3292564643182 182.6707435356818 221.25 187.5 221.25 L 200 221.25 C 211.7281942704871 221.25 221.25 211.7281942704871 221.25 200 C 221.25 197.93031865814933 222.93031865814933 196.25 225 196.25 L 262.5 196.25 C 267.32925646431823 196.25 271.25 192.3292564643182 271.25 187.5 C 271.25 182.6707435356818 267.32925646431823 178.75 262.5 178.75 L 250 178.75 C 247.93031865814933 178.75 246.25 177.06968134185067 246.25 175 L 246.25 150 C 246.25 147.93031865814933 247.93031865814933 146.25 250 146.25 L 253.75 146.25 M 246.25 96.25 L 246.25 125 C 246.25 127.06968134185067 247.93031865814933 128.75 250 128.75 L 253.75 128.75 M 203.75 96.25 L 203.75 100 C 203.75 102.06968134185067 202.06968134185067 103.75 200 103.75 C 188.2718057295129 103.75 178.75 113.2718057295129 178.75 125 L 178.75 137.5 C 178.75 142.3292564643182 182.6707435356818 146.25 187.5 146.25 C 192.3292564643182 146.25 196.25 142.3292564643182 196.25 137.5 L 196.25 125 C 196.25 122.93031865814933 197.93031865814933 121.25 200 121.25 C 202.06968134185067 121.25 203.75 122.93031865814933 203.75 125 L 203.75 137.5 C 203.75 142.3292564643182 207.6707435356818 146.25 212.5 146.25 C 217.3292564643182 146.25 221.25 142.3292564643182 221.25 137.5 L 221.25 125 C 221.25 122.93031865814933 222.93031865814933 121.25 225 121.25 L 228.75 121.25 M 221.25 96.25 L 221.25 100 C 221.25 102.06968134185067 222.93031865814933 103.75 225 103.75 L 228.75 103.75 M 96.25 96.25 L 100 96.25 C 102.06968134185067 96.25 103.75 97.93031865814933 103.75 100 L 103.75 103.75 M 28.75 96.25 L 28.75 100 C 28.75 102.06968134185067 27.069681341850664 103.75 25 103.75 C 22.930318658149336 103.75 21.25 102.06968134185067 21.25 100 C 21.25 97.93031865814933 22.930318658149336 96.25 25 96.25 L 78.75 96.25 M 403.75 71.25 L 403.75 78.75 M 421.25 71.25 L 421.25 78.75 M 378.75 71.25 L 378.75 78.75 M 396.25 71.25 L 396.25 78.75 M 371.25 71.25 L 453.75 71.25 M 278.75 103.75 L 278.75 62.5 C 278.75 57.67074353568178 282.67074353568177 53.75 287.5 53.75 C 292.32925646431823 53.75 296.25 57.67074353568178 296.25 62.5 L 296.25 75 C 296.25 77.06968134185067 297.93031865814936 78.75 300 78.75 L 325 78.75 C 336.7281942704871 78.75 346.25 88.2718057295129 346.25 100 C 346.25 102.06968134185067 347.93031865814936 103.75 350 103.75 L 353.75 103.75 M 228.75 71.25 L 228.75 78.75 M 246.25 71.25 L 246.25 78.75 M 178.75 71.25 L 178.75 75 C 178.75 77.06968134185067 177.06968134185067 78.75 175 78.75 C 163.2718057295129 78.75 153.75 88.2718057295129 153.75 100 L 153.75 137.5 C 153.75 142.3292564643182 157.6707435356818 146.25 162.5 146.25 C 167.3292564643182 146.25 171.25 142.3292564643182 171.25 137.5 L 171.25 100 C 171.25 97.93031865814933 172.93031865814933 96.25 175 96.25 L 250 96.25 C 252.06968134185067 96.25 253.75 97.93031865814933 253.75 100 L 253.75 103.75 M 196.25 71.25 L 196.25 75 C 196.25 77.06968134185067 197.93031865814933 78.75 200 78.75 L 250 78.75 C 261.7281942704871 78.75 271.25 88.2718057295129 271.25 100 L 271.25 103.75 M 78.75 71.25 L 78.75 137.5 C 78.75 142.3292564643182 82.67074353568178 146.25 87.5 146.25 C 92.32925646431822 146.25 96.25 142.3292564643182 96.25 137.5 L 96.25 125 C 96.25 122.93031865814933 97.93031865814933 121.25 100 121.25 L 125 121.25 C 127.06968134185067 121.25 128.75 122.93031865814933 128.75 125 L 128.75 225 C 128.75 227.06968134185067 127.06968134185067 228.75 125 228.75 L 87.5 228.75 C 82.67074353568178 228.75 78.75 232.6707435356818 78.75 237.5 C 78.75 242.3292564643182 82.67074353568178 246.25 87.5 246.25 L 125 246.25 C 127.06968134185067 246.25 128.75 247.93031865814933 128.75 250 L 128.75 253.75 M 96.25 71.25 L 96.25 100 C 96.25 102.06968134185067 97.93031865814933 103.75 100 103.75 L 125 103.75 C 136.7281942704871 103.75 146.25 113.2718057295129 146.25 125 L 146.25 175 C 146.25 177.06968134185067 147.93031865814933 178.75 150 178.75 L 187.5 178.75 C 192.3292564643182 178.75 196.25 182.6707435356818 196.25 187.5 C 196.25 192.3292564643182 192.3292564643182 196.25 187.5 196.25 L 150 196.25 C 147.93031865814933 196.25 146.25 197.93031865814933 146.25 200 C 146.25 202.06968134185067 147.93031865814933 203.75 150 203.75 C 152.06968134185067 203.75 153.75 202.06968134185067 153.75 200 L 153.75 196.25 M 78.75 78.75 L 75 78.75 C 72.93031865814933 78.75 71.25 77.06968134185067 71.25 75 C 71.25 72.93031865814933 72.93031865814933 71.25 75 71.25 L 103.75 71.25 M 28.75 71.25 L 28.75 78.75 M 46.25 71.25 L 46.25 78.75 M 103.75 53.75 L 12.5 53.75 C 7.670743535681782 53.75 3.75 57.67074353568178 3.7500000000000004 62.5 C 3.75 67.32925646431822 7.670743535681782 71.25 12.5 71.25 L 50 71.25 C 52.06968134185067 71.25 53.75 72.93031865814933 53.75 75 C 53.75 77.06968134185067 52.06968134185067 78.75 50 78.75 L 25 78.75 C 13.2718057295129 78.75 3.75 88.2718057295129 3.7500000000000004 100 L 3.7500000000000004 137.5 C 3.75 142.3292564643182 7.670743535681782 146.25 12.5 146.25 C 17.329256464318217 146.25 21.25 142.3292564643182 21.25 137.5 L 21.25 125 C 21.25 122.93031865814933 22.930318658149336 121.25 25 121.25 C 36.7281942704871 121.25 46.25 111.7281942704871 46.25 100 L 46.25 96.25 M 428.75 46.25 L 428.75 50 C 428.75 52.06968134185067 427.06968134185064 53.75 425 53.75 L 371.25 53.75 M 446.25 46.25 L 446.25 50 C 446.25 52.06968134185067 447.93031865814936 53.75 450 53.75 L 453.75 53.75 M 378.75 46.25 L 378.75 53.75 M 396.25 46.25 L 396.25 53.75 M 303.75 46.25 L 303.75 50 C 303.75 61.7281942704871 313.2718057295129 71.25 325 71.25 L 353.75 71.25 M 321.25 46.25 L 321.25 50 C 321.25 52.06968134185067 322.93031865814936 53.75 325 53.75 L 353.75 53.75 M 271.25 46.25 L 271.25 50 C 271.25 61.7281942704871 261.7281942704871 71.25 250 71.25 L 225 71.25 C 222.93031865814933 71.25 221.25 72.93031865814933 221.25 75 L 221.25 78.75 M 178.75 53.75 L 178.75 37.5 C 178.75 32.67074353568178 182.6707435356818 28.75 187.5 28.75 C 192.3292564643182 28.75 196.25 32.67074353568178 196.25 37.5 L 196.25 53.75 M 146.25 28.75 L 150 28.75 C 161.7281942704871 28.75 171.25 38.2718057295129 171.25 50 C 171.25 52.06968134185067 172.93031865814933 53.75 175 53.75 L 250 53.75 C 252.06968134185067 53.75 253.75 52.06968134185067 253.75 50 L 253.75 46.25 M 146.25 46.25 L 150 46.25 C 152.06968134185067 46.25 153.75 47.93031865814933 153.75 50 C 153.75 61.7281942704871 163.2718057295129 71.25 175 71.25 L 200 71.25 C 202.06968134185067 71.25 203.75 72.93031865814933 203.75 75 L 203.75 78.75 M 96.25 78.75 L 100 78.75 C 102.06968134185067 78.75 103.75 77.06968134185067 103.75 75 L 103.75 50 C 103.75 38.2718057295129 113.2718057295129 28.75 125 28.75 L 128.75 28.75 M 121.25 103.75 L 121.25 50 C 121.25 47.93031865814933 122.93031865814933 46.25 125 46.25 L 128.75 46.25 M 46.25 28.75 L 75 28.75 C 86.7281942704871 28.75 96.25 38.2718057295129 96.25 50 L 96.25 53.75 M 46.25 46.25 L 75 46.25 C 77.06968134185067 46.25 78.75 47.93031865814933 78.75 50 L 78.75 53.75 M 28.75 28.75 L 12.5 28.75 C 7.670743535681782 28.75 3.75 32.67074353568178 3.7500000000000004 37.5 C 3.75 42.32925646431822 7.670743535681782 46.25 12.5 46.25 L 28.75 46.25 M 421.25 53.75 L 421.25 50 C 421.25 47.93031865814933 422.93031865814936 46.25 425 46.25 L 450 46.25 C 452.06968134185064 46.25 453.75 47.93031865814933 453.75 50 L 453.75 87.5 C 453.75 92.32925646431822 457.67074353568177 96.25 462.5 96.25 C 467.32925646431823 96.25 471.25 92.32925646431822 471.25 87.5 L 471.25 25 C 471.25 22.930318658149336 472.93031865814936 21.25 475 21.25 C 477.06968134185064 21.25 478.75 22.930318658149336 478.75 25 L 478.75 50 C 478.75 52.06968134185067 477.06968134185064 53.75 475 53.75 L 471.25 53.75 M 428.75 28.75 L 428.75 12.5 C 428.75 7.670743535681782 432.67074353568177 3.75 437.5 3.7500000000000004 C 442.32925646431823 3.75 446.25 7.670743535681782 446.25 12.5 L 446.25 28.75 M 403.75 53.75 L 403.75 50 C 403.75 47.93031865814933 402.06968134185064 46.25 400 46.25 L 375 46.25 C 372.93031865814936 46.25 371.25 47.93031865814933 371.25 50 L 371.25 75 C 371.25 77.06968134185067 372.93031865814936 78.75 375 78.75 L 437.5 78.75 C 442.32925646431823 78.75 446.25 82.67074353568178 446.25 87.5 C 446.25 92.32925646431822 442.32925646431823 96.25 437.5 96.25 L 375 96.25 C 372.93031865814936 96.25 371.25 97.93031865814933 371.25 100 L 371.25 162.5 C 371.25 167.3292564643182 367.32925646431823 171.25 362.5 171.25 C 357.67074353568177 171.25 353.75 167.3292564643182 353.75 162.5 L 353.75 25 C 353.75 13.2718057295129 363.2718057295129 3.75 375 3.7500000000000004 C 386.7281942704871 3.75 396.25 13.2718057295129 396.25 25 L 396.25 28.75 M 471.25 71.25 L 475 71.25 C 477.06968134185064 71.25 478.75 72.93031865814933 478.75 75 L 478.75 87.5 C 478.75 92.32925646431822 482.67074353568177 96.25 487.5 96.25 C 492.32925646431823 96.25 496.25 92.32925646431822 496.25 87.5 L 496.25 25 C 496.25 13.2718057295129 486.7281942704871 3.75 475 3.7500000000000004 C 463.2718057295129 3.75 453.75 13.2718057295129 453.75 25 C 453.75 27.069681341850664 452.06968134185064 28.75 450 28.75 L 425 28.75 C 422.93031865814936 28.75 421.25 27.069681341850664 421.25 25 L 421.25 12.5 C 421.25 7.670743535681782 417.32925646431823 3.75 412.5 3.7500000000000004 C 407.67074353568177 3.75 403.75 7.670743535681782 403.75 12.5 L 403.75 25 C 403.75 27.069681341850664 402.06968134185064 28.75 400 28.75 L 375 28.75 C 372.93031865814936 28.75 371.25 27.069681341850664 371.25 25 C 371.25 22.930318658149336 372.93031865814936 21.25 375 21.25 C 377.06968134185064 21.25 378.75 22.930318658149336 378.75 25 L 378.75 28.75 M 303.75 0 L 303.75 28.75 M 321.25 0 L 321.25 28.75 M 271.25 28.75 L 271.25 25 C 271.25 22.930318658149336 272.93031865814936 21.25 275 21.25 L 287.5 21.25 C 292.32925646431823 21.25 296.25 17.329256464318217 296.25 12.5 C 296.25 7.670743535681782 292.32925646431823 3.75 287.5 3.7500000000000004 L 275 3.7500000000000004 C 263.2718057295129 3.75 253.75 13.2718057295129 253.75 25 L 253.75 28.75 M 246.25 53.75 L 246.25 50 C 246.25 47.93031865814933 247.93031865814933 46.25 250 46.25 L 325 46.25 C 336.7281942704871 46.25 346.25 36.7281942704871 346.25 25 L 346.25 12.5 C 346.25 7.670743535681782 342.32925646431823 3.75 337.5 3.7500000000000004 C 332.67074353568177 3.75 328.75 7.670743535681782 328.75 12.5 L 328.75 25 C 328.75 27.069681341850664 327.06968134185064 28.75 325 28.75 L 250 28.75 C 247.93031865814933 28.75 246.25 27.069681341850664 246.25 25 L 246.25 12.5 C 246.25 7.670743535681782 242.3292564643182 3.75 237.5 3.7500000000000004 C 232.6707435356818 3.75 228.75 7.670743535681782 228.75 12.5 L 228.75 25 C 228.75 27.069681341850664 227.06968134185067 28.75 225 28.75 C 222.93031865814933 28.75 221.25 27.069681341850664 221.25 25 C 221.25 13.2718057295129 211.7281942704871 3.75 200 3.7500000000000004 L 162.5 3.7500000000000004 C 157.6707435356818 3.75 153.75 7.670743535681782 153.75 12.5 C 153.75 17.329256464318217 157.6707435356818 21.25 162.5 21.25 L 200 21.25 C 202.06968134185067 21.25 203.75 22.930318658149336 203.75 25 C 203.75 36.7281942704871 213.2718057295129 46.25 225 46.25 C 227.06968134185067 46.25 228.75 47.93031865814933 228.75 50 L 228.75 53.75 M 121.25 71.25 L 125 71.25 C 127.06968134185067 71.25 128.75 72.93031865814933 128.75 75 L 128.75 87.5 C 128.75 92.32925646431822 132.6707435356818 96.25 137.5 96.25 C 142.3292564643182 96.25 146.25 92.32925646431822 146.25 87.5 L 146.25 25 C 146.25 13.2718057295129 136.7281942704871 3.75 125 3.7500000000000004 L 62.5 3.7500000000000004 C 57.67074353568178 3.75 53.75 7.670743535681782 53.75 12.5 C 53.75 17.329256464318217 57.67074353568178 21.25 62.5 21.25 L 125 21.25 C 127.06968134185067 21.25 128.75 22.930318658149336 128.75 25 L 128.75 50 C 128.75 52.06968134185067 127.06968134185067 53.75 125 53.75 L 121.25 53.75 M 46.25 53.75 L 46.25 25 C 46.25 13.2718057295129 36.7281942704871 3.75 25 3.7500000000000004 L 12.5 3.7500000000000004 C 7.670743535681782 3.75 3.75 7.670743535681782 3.7500000000000004 12.5 C 3.75 17.329256464318217 7.670743535681782 21.25 12.5 21.25 L 25 21.25 C 27.069681341850664 21.25 28.75 22.930318658149336 28.75 25 L 28.75 53.75 "/>
</svg>
