<?xml version="1.0" encoding="UTF-8"?>
<svg xmlns="http://www.w3.org/2000/svg" xmlns:xlink="http://www.w3.org/1999/xlink" width="1088" height="320" viewBox="0 0 1088 320">
<rect x="-108.8" y="-32" width="1305.6" height="384" fill="rgb(98.039216%, 96.470588%, 96.078431%)" fill-opacity="1"/>
<path fill="none" stroke-width="1.6" stroke-linecap="square" stroke-linejoin="miter" stroke="rgb(43.921569%, 63.921569%, 72.156863%)" stroke-opacity="1" stroke-miterlimit="10" d="M 0 256 L 1088 256 M 0 192 L 1088 192 M 0 128 L 1088 128 M 0 64 L 1088 64 M 1024 0 L 1024 320 M 960 0 L 960 320 M 896 0 L 896 320 M 832 0 L 832 320 M 768 0 L 768 320 M 704 0 L 704 320 M 640 0 L 640 320 M 576 0 L 576 320 M 512 0 L 512 320 M 448 0 L 448 320 M 384 0 L 384 320 M 320 0 L 320 320 M 256 0 L 256 320 M 192 0 L 192 320 M 128 0 L 128 320 M 64 0 L 64 320 M 0 320 L 1088 320 L 1088 0 L 0 0 L 0 320 "/>
<path fill-rule="nonzero" fill="rgb(100%, 0%, 0%)" fill-opacity="1" d="M 1060 288 C 1060 293.332031 1052 293.332031 1052 288 C 1052 282.667969 1060 282.667969 1060 288 Z M 1060 288 "/>
<path fill-rule="nonzero" fill="rgb(100%, 0%, 0%)" fill-opacity="1" d="M 996 288 C 996 293.332031 988 293.332031 988 288 C 988 282.667969 996 282.667969 996 288 Z M 996 288 "/>
<path fill-rule="nonzero" fill="rgb(100%, 0%, 0%)" fill-opacity="1" d="M 932 288 C 932 293.332031 924 293.332031 924 288 C 924 282.667969 932 282.667969 932 288 Z M 932 288 "/>
<path fill-rule="nonzero" fill="rgb(100%, 0%, 0%)" fill-opacity="1" d="M 868 288 C 868 293.332031 860 293.332031 860 288 C 860 282.667969 868 282.667969 868 288 Z M 868 288 "/>
<path fill-rule="nonzero" fill="rgb(100%, 0%, 0%)" fill-opacity="1" d="M 804 288 C 804 293.332031 796 293.332031 796 288 C 796 282.667969 804 282.667969 804 288 Z M 804 288 "/>
<path fill-rule="nonzero" fill="rgb(100%, 0%, 0%)" fill-opacity="1" d="M 740 288 C 740 293.332031 732 293.332031 732 288 C 732 282.667969 740 282.667969 740 288 Z M 740 288 "/>
<path fill-rule="nonzero" fill="rgb(100%, 0%, 0%)" fill-opacity="1" d="M 676 288 C 676 293.332031 668 293.332031 668 288 C 668 282.667969 676 282.667969 676 288 Z M 676 288 "/>
<path fill-rule="nonzero" fill="rgb(100%, 0%, 0%)" fill-opacity="1" d="M 612 288 C 612 293.332031 604 293.332031 604 288 C 604 282.667969 612 282.667969 612 288 Z M 612 288 "/>
<path fill-rule="nonzero" fill="rgb(100%, 0%, 0%)" fill-opacity="1" d="M 548 288 C 548 293.332031 540 293.332031 540 288 C 540 282.667969 548 282.667969 548 288 Z M 548 288 "/>
<path fill-rule="nonzero" fill="rgb(100%, 0%, 0%)" fill-opacity="1" d="M 420 288 C 420 293.332031 412 293.332031 412 288 C 412 282.667969 420 282.667969 420 288 Z M 420 288 "/>
<path fill-rule="nonzero" fill="rgb(100%, 0%, 0%)" fill-opacity="1" d="M 356 288 C 356 293.332031 348 293.332031 348 288 C 348 282.667969 356 282.667969 356 288 Z M 356 288 "/>
<path fill-rule="nonzero" fill="rgb(100%, 0%, 0%)" fill-opacity="1" d="M 292 288 C 292 293.332031 284 293.332031 284 288 C 284 282.667969 292 282.667969 292 288 Z M 292 288 "/>
<path fill-rule="nonzero" fill="rgb(100%, 0%, 0%)" fill-opacity="1" d="M 36 288 C 36 293.332031 28 293.332031 28 288 C 28 282.667969 36 282.667969 36 288 Z M 36 288 "/>
<path fill-rule="nonzero" fill="rgb(100%, 0%, 0%)" fill-opacity="1" d="M 932 224 C 932 229.332031 924 229.332031 924 224 C 924 218.667969 932 218.667969 932 224 Z M 932 224 "/>
<path fill-rule="nonzero" fill="rgb(100%, 0%, 0%)" fill-opacity="1" d="M 676 224 C 676 229.332031 668 229.332031 668 224 C 668 218.667969 676 218.667969 676 224 Z M 676 224 "/>
<path fill-rule="nonzero" fill="rgb(100%, 0%, 0%)" fill-opacity="1" d="M 548 224 C 548 229.332031 540 229.332031 540 224 C 540 218.667969 548 218.667969 548 224 Z M 548 224 "/>
<path fill-rule="nonzero" fill="rgb(100%, 0%, 0%)" fill-opacity="1" d="M 420 224 C 420 229.332031 412 229.332031 412 224 C 412 218.667969 420 218.667969 420 224 Z M 420 224 "/>
<path fill-rule="nonzero" fill="rgb(100%, 0%, 0%)" fill-opacity="1" d="M 292 224 C 292 229.332031 284 229.332031 284 224 C 284 218.667969 292 218.667969 292 224 Z M 292 224 "/>
<path fill-rule="nonzero" fill="rgb(100%, 0%, 0%)" fill-opacity="1" d="M 164 224 C 164 229.332031 156 229.332031 156 224 C 156 218.667969 164 218.667969 164 224 Z M 164 224 "/>
<path fill-rule="nonzero" fill="rgb(100%, 0%, 0%)" fill-opacity="1" d="M 36 224 C 36 229.332031 28 229.332031 28 224 C 28 218.667969 36 218.667969 36 224 Z M 36 224 "/>
<path fill-rule="nonzero" fill="rgb(100%, 0%, 0%)" fill-opacity="1" d="M 996 160 C 996 165.332031 988 165.332031 988 160 C 988 154.667969 996 154.667969 996 160 Z M 996 160 "/>
<path fill-rule="nonzero" fill="rgb(100%, 0%, 0%)" fill-opacity="1" d="M 932 160 C 932 165.332031 924 165.332031 924 160 C 924 154.667969 932 154.667969 932 160 Z M 932 160 "/>
<path fill-rule="nonzero" fill="rgb(100%, 0%, 0%)" fill-opacity="1" d="M 804 160 C 804 165.332031 796 165.332031 796 160 C 796 154.667969 804 154.667969 804 160 Z M 804 160 "/>
<path fill-rule="nonzero" fill="rgb(100%, 0%, 0%)" fill-opacity="1" d="M 740 160 C 740 165.332031 732 165.332031 732 160 C 732 154.667969 740 154.667969 740 160 Z M 740 160 "/>
<path fill-rule="nonzero" fill="rgb(100%, 0%, 0%)" fill-opacity="1" d="M 676 160 C 676 165.332031 668 165.332031 668 160 C 668 154.667969 676 154.667969 676 160 Z M 676 160 "/>
<path fill-rule="nonzero" fill="rgb(100%, 0%, 0%)" fill-opacity="1" d="M 548 160 C 548 165.332031 540 165.332031 540 160 C 540 154.667969 548 154.667969 548 160 Z M 548 160 "/>
<path fill-rule="nonzero" fill="rgb(100%, 0%, 0%)" fill-opacity="1" d="M 484 160 C 484 165.332031 476 165.332031 476 160 C 476 154.667969 484 154.667969 484 160 Z M 484 160 "/>
<path fill-rule="nonzero" fill="rgb(100%, 0%, 0%)" fill-opacity="1" d="M 420 160 C 420 165.332031 412 165.332031 412 160 C 412 154.667969 420 154.667969 420 160 Z M 420 160 "/>
<path fill-rule="nonzero" fill="rgb(100%, 0%, 0%)" fill-opacity="1" d="M 292 160 C 292 165.332031 284 165.332031 284 160 C 284 154.667969 292 154.667969 292 160 Z M 292 160 "/>
<path fill-rule="nonzero" fill="rgb(100%, 0%, 0%)" fill-opacity="1" d="M 228 160 C 228 165.332031 220 165.332031 220 160 C 220 154.667969 228 154.667969 228 160 Z M 228 160 "/>
<path fill-rule="nonzero" fill="rgb(100%, 0%, 0%)" fill-opacity="1" d="M 164 160 C 164 165.332031 156 165.332031 156 160 C 156 154.667969 164 154.667969 164 160 Z M 164 160 "/>
<path fill-rule="nonzero" fill="rgb(100%, 0%, 0%)" fill-opacity="1" d="M 100 160 C 100 165.332031 92 165.332031 92 160 C 92 154.667969 100 154.667969 100 160 Z M 100 160 "/>
<path fill-rule="nonzero" fill="rgb(100%, 0%, 0%)" fill-opacity="1" d="M 36 160 C 36 165.332031 28 165.332031 28 160 C 28 154.667969 36 154.667969 36 160 Z M 36 160 "/>
<path fill-rule="nonzero" fill="rgb(100%, 0%, 0%)" fill-opacity="1" d="M 932 96 C 932 101.332031 924 101.332031 924 96 C 924 90.667969 932 90.667969 932 96 Z M 932 96 "/>
<path fill-rule="nonzero" fill="rgb(100%, 0%, 0%)" fill-opacity="1" d="M 804 96 C 804 101.332031 796 101.332031 796 96 C 796 90.667969 804 90.667969 804 96 Z M 804 96 "/>
<path fill-rule="nonzero" fill="rgb(100%, 0%, 0%)" fill-opacity="1" d="M 548 96 C 548 101.332031 540 101.332031 540 96 C 540 90.667969 548 90.667969 548 96 Z M 548 96 "/>
<path fill-rule="nonzero" fill="rgb(100%, 0%, 0%)" fill-opacity="1" d="M 420 96 C 420 101.332031 412 101.332031 412 96 C 412 90.667969 420 90.667969 420 96 Z M 420 96 "/>
<path fill-rule="nonzero" fill="rgb(100%, 0%, 0%)" fill-opacity="1" d="M 292 96 C 292 101.332031 284 101.332031 284 96 C 284 90.667969 292 90.667969 292 96 Z M 292 96 "/>
<path fill-rule="nonzero" fill="rgb(100%, 0%, 0%)" fill-opacity="1" d="M 228 96 C 228 101.332031 220 101.332031 220 96 C 220 90.667969 228 90.667969 228 96 Z M 228 96 "/>
<path fill-rule="nonzero" fill="rgb(100%, 0%, 0%)" fill-opacity="1" d="M 100 96 C 100 101.332031 92 101.332031 92 96 C 92 90.667969 100 90.667969 100 96 Z M 100 96 "/>
<path fill-rule="nonzero" fill="rgb(100%, 0%, 0%)" fill-opacity="1" d="M 36 96 C 36 101.332031 28 101.332031 28 96 C 28 90.667969 36 90.667969 36 96 Z M 36 96 "/>
<path fill-rule="nonzero" fill="rgb(100%, 0%, 0%)" fill-opacity="1" d="M 1060 32 C 1060 37.332031 1052 37.332031 1052 32 C 1052 26.667969 1060 26.667969 1060 32 Z M 1060 32 "/>
<path fill-rule="nonzero" fill="rgb(100%, 0%, 0%)" fill-opacity="1" d="M 996 32 C 996 37.332031 988 37.332031 988 32 C 988 26.667969 996 26.667969 996 32 Z M 996 32 "/>
<path fill-rule="nonzero" fill="rgb(100%, 0%, 0%)" fill-opacity="1" d="M 932 32 C 932 37.332031 924 37.332031 924 32 C 924 26.667969 932 26.667969 932 32 Z M 932 32 "/>
<path fill-rule="nonzero" fill="rgb(100%, 0%, 0%)" fill-opacity="1" d="M 804 32 C 804 37.332031 796 37.332031 796 32 C 796 26.667969 804 26.667969 804 32 Z M 804 32 "/>
<path fill-rule="nonzero" fill="rgb(100%, 0%, 0%)" fill-opacity="1" d="M 740 32 C 740 37.332031 732 37.332031 732 32 C 732 26.667969 740 26.667969 740 32 Z M 740 32 "/>
<path fill-rule="nonzero" fill="rgb(100%, 0%, 0%)" fill-opacity="1" d="M 676 32 C 676 37.332031 668 37.332031 668 32 C 668 26.667969 676 26.667969 676 32 Z M 676 32 "/>
<path fill-rule="nonzero" fill="rgb(100%, 0%, 0%)" fill-opacity="1" d="M 548 32 C 548 37.332031 540 37.332031 540 32 C 540 26.667969 548 26.667969 548 32 Z M 548 32 "/>
<path fill-rule="nonzero" fill="rgb(100%, 0%, 0%)" fill-opacity="1" d="M 484 32 C 484 37.332031 476 37.332031 476 32 C 476 26.667969 484 26.667969 484 32 Z M 484 32 "/>
<path fill-rule="nonzero" fill="rgb(100%, 0%, 0%)" fill-opacity="1" d="M 420 32 C 420 37.332031 412 37.332031 412 32 C 412 26.667969 420 26.667969 420 32 Z M 420 32 "/>
<path fill-rule="nonzero" fill="rgb(100%, 0%, 0%)" fill-opacity="1" d="M 292 32 C 292 37.332031 284 37.332031 284 32 C 284 26.667969 292 26.667969 292 32 Z M 292 32 "/>
<path fill-rule="nonzero" fill="rgb(100%, 0%, 0%)" fill-opacity="1" d="M 36 32 C 36 37.332031 28 37.332031 28 32 C 28 26.667969 36 26.667969 36 32 Z M 36 32 "/>
</svg>
