<?xml version="1.0" encoding="UTF-8"?>
<svg xmlns="http://www.w3.org/2000/svg" xmlns:xlink="http://www.w3.org/1999/xlink" width="500" height="500" viewBox="0 0 500 500">
<rect x="-50" y="-50" width="600" height="600" fill="rgb(100%, 100%, 100%)" fill-opacity="1"/>
<path fill="none" stroke-width="3.75" stroke-linecap="square" stroke-linejoin="miter" stroke="rgb(100%, 0%, 0%)" stroke-opacity="1" stroke-miterlimit="10" d="M 137.5 0 L 137.5 12.5 L 150 12.5 L 162.5 12.5 L 162.5 25 L 162.5 37.5 L 175 37.5 L 187.5 37.5 L 187.5 50 L 187.5 62.5 L 200 62.5 L 212.5 62.5 L 212.5 50 L 212.5 25 L 212.5 12.5 L 225 12.5 L 250 12.5 L 262.5 12.5 L 262.5 25 L 262.5 50 L 262.5 62.5 L 275 62.5 L 325 62.5 L 337.5 62.5 L 337.5 75 L 337.5 87.5 L 350 87.5 L 362.5 87.5 L 362.5 100 L 362.5 125 L 362.5 137.5 L 350 137.5 L 337.5 137.5 L 337.5 125 L 337.5 112.5 L 325 112.5 L 275 112.5 L 262.5 112.5 L 262.5 125 L 262.5 175 L 262.5 187.5 L 250 187.5 L 237.5 187.5 L 237.5 175 L 237.5 162.5 L 225 162.5 L 212.5 162.5 L 212.5 175 L 212.5 200 L 212.5 212.5 L 200 212.5 L 175 212.5 L 162.5 212.5 L 162.5 200 L 162.5 175 L 162.5 162.5 L 150 162.5 L 75 162.5 L 62.5 162.5 L 62.5 175 L 62.5 187.5 L 50 187.5 L 37.5 187.5 L 37.5 200 L 37.5 225 L 37.5 237.5 L 25 237.5 L 12.5 237.5 L 12.5 250 L 12.5 375 L 12.5 387.5 L 25 387.5 L 37.5 387.5 L 37.5 375 L 37.5 300 L 37.5 287.5 L 50 287.5 L 62.5 287.5 L 62.5 275 L 62.5 262.5 L 75 262.5 L 87.5 262.5 L 87.5 250 L 87.5 237.5 L 75 237.5 L 62.5 237.5 L 62.5 225 L 62.5 212.5 L 75 212.5 L 87.5 212.5 L 87.5 200 L 87.5 187.5 L 100 187.5 L 112.5 187.5 L 112.5 200 L 112.5 250 L 112.5 262.5 L 125 262.5 L 137.5 262.5 L 137.5 275 L 137.5 287.5 L 125 287.5 L 100 287.5 L 87.5 287.5 L 87.5 300 L 87.5 312.5 L 100 312.5 L 150 312.5 L 162.5 312.5 L 162.5 300 L 162.5 250 L 162.5 237.5 L 175 237.5 L 225 237.5 L 237.5 237.5 L 237.5 225 L 237.5 212.5 L 250 212.5 L 262.5 212.5 L 262.5 225 L 262.5 237.5 L 275 237.5 L 287.5 237.5 L 287.5 250 L 287.5 275 L 287.5 287.5 L 275 287.5 L 250 287.5 L 237.5 287.5 L 237.5 300 L 237.5 312.5 L 225 312.5 L 212.5 312.5 L 212.5 300 L 212.5 287.5 L 200 287.5 L 187.5 287.5 L 187.5 300 L 187.5 325 L 187.5 337.5 L 175 337.5 L 125 337.5 L 112.5 337.5 L 112.5 350 L 112.5 362.5 L 125 362.5 L 150 362.5 L 162.5 362.5 L 162.5 375 L 162.5 387.5 L 175 387.5 L 200 387.5 L 212.5 387.5 L 212.5 400 L 212.5 412.5 L 200 412.5 L 175 412.5 L 162.5 412.5 L 162.5 425 L 162.5 437.5 L 150 437.5 L 125 437.5 L 112.5 437.5 L 112.5 450 L 112.5 462.5 L 100 462.5 L 75 462.5 L 62.5 462.5 L 62.5 450 L 62.5 425 L 62.5 412.5 L 50 412.5 L 37.5 412.5 L 37.5 425 L 37.5 437.5 L 25 437.5 L 12.5 437.5 L 12.5 450 L 12.5 462.5 L 25 462.5 L 37.5 462.5 L 37.5 475 L 37.5 487.5 L 50 487.5 L 125 487.5 L 137.5 487.5 L 137.5 475 L 137.5 462.5 L 150 462.5 L 162.5 462.5 L 162.5 475 L 162.5 487.5 L 175 487.5 L 225 487.5 L 237.5 487.5 L 237.5 475 L 237.5 462.5 L 225 462.5 L 200 462.5 L 187.5 462.5 L 187.5 450 L 187.5 437.5 L 200 437.5 L 275 437.5 L 287.5 437.5 L 287.5 450 L 287.5 462.5 L 300 462.5 L 312.5 462.5 L 312.5 475 L 312.5 487.5 L 325 487.5 L 337.5 487.5 L 337.5 475 L 337.5 462.5 L 350 462.5 L 362.5 462.5 L 362.5 450 L 362.5 437.5 L 350 437.5 L 325 437.5 L 312.5 437.5 L 312.5 425 L 312.5 412.5 L 300 412.5 L 250 412.5 L 237.5 412.5 L 237.5 400 L 237.5 387.5 L 250 387.5 L 300 387.5 L 312.5 387.5 L 312.5 375 L 312.5 362.5 L 325 362.5 L 375 362.5 L 387.5 362.5 L 387.5 375 L 387.5 387.5 L 400 387.5 L 412.5 387.5 L 412.5 400 L 412.5 412.5 L 425 412.5 L 437.5 412.5 L 437.5 425 L 437.5 437.5 L 450 437.5 L 462.5 437.5 L 462.5 425 L 462.5 412.5 L 475 412.5 L 487.5 412.5 L 487.5 400 L 487.5 375 L 487.5 362.5 L 475 362.5 L 450 362.5 L 437.5 362.5 L 437.5 350 L 437.5 337.5 L 425 337.5 L 412.5 337.5 L 412.5 325 L 412.5 312.5 L 400 312.5 L 375 312.5 L 362.5 312.5 L 362.5 325 L 362.5 337.5 L 350 337.5 L 325 337.5 L 312.5 337.5 L 312.5 325 L 312.5 275 L 312.5 262.5 L 325 262.5 L 337.5 262.5 L 337.5 250 L 337.5 225 L 337.5 212.5 L 350 212.5 L 362.5 212.5 L 362.5 200 L 362.5 187.5 L 375 187.5 L 387.5 187.5 L 387.5 200 L 387.5 212.5 L 400 212.5 L 412.5 212.5 L 412.5 225 L 412.5 237.5 L 425 237.5 L 437.5 237.5 L 437.5 250 L 437.5 262.5 L 425 262.5 L 412.5 262.5 L 412.5 275 L 412.5 287.5 L 425 287.5 L 475 287.5 L 487.5 287.5 L 487.5 275 L 487.5 262.5 L 475 262.5 L 462.5 262.5 L 462.5 250 L 462.5 237.5 L 475 237.5 L 487.5 237.5 L 487.5 225 L 487.5 212.5 L 475 212.5 L 450 212.5 L 437.5 212.5 L 437.5 200 L 437.5 187.5 L 450 187.5 L 462.5 187.5 L 462.5 175 L 462.5 162.5 L 450 162.5 L 437.5 162.5 L 437.5 150 L 437.5 137.5 L 425 137.5 L 412.5 137.5 L 412.5 150 L 412.5 162.5 L 400 162.5 L 387.5 162.5 L 387.5 150 L 387.5 125 L 387.5 112.5 L 400 112.5 L 450 112.5 L 462.5 112.5 L 462.5 100 L 462.5 87.5 L 450 87.5 L 437.5 87.5 L 437.5 75 L 437.5 62.5 L 450 62.5 L 462.5 62.5 L 462.5 50 L 462.5 37.5 L 450 37.5 L 400 37.5 L 387.5 37.5 L 387.5 25 L 387.5 12.5 L 400 12.5 L 475 12.5 L 487.5 12.5 L 487.5 25 L 487.5 175 L 487.5 187.5 L 500 187.5 "/>
<path fill="none" stroke-width="3.75" stroke-linecap="square" stroke-linejoin="miter" stroke="rgb(0%, 0%, 0%)" stroke-opacity="1" stroke-miterlimit="10" d="M 146.25 0 L 146.25 3.7500000000000004 L 150 3.7500000000000004 L 171.25 3.7500000000000004 L 171.25 25 L 171.25 28.75 L 175 28.75 L 196.25 28.75 L 196.25 50 L 196.25 53.75 L 200 53.75 L 203.75 53.75 L 203.75 50 L 203.75 25 L 203.75 21.25 L 200 21.25 L 187.5 21.25 L 178.75 21.25 L 178.75 12.5 L 178.75 3.7500000000000004 L 187.5 3.7500000000000004 L 250 3.7500000000000004 L 271.25 3.7500000000000004 L 271.25 25 L 271.25 50 L 271.25 53.75 L 275 53.75 L 325 53.75 L 346.25 53.75 L 346.25 75 L 346.25 78.75 L 350 78.75 L 371.25 78.75 L 371.25 100 L 371.25 125 L 371.25 146.25 L 350 146.25 L 328.75 146.25 L 328.75 125 L 328.75 121.25 L 325 121.25 L 275 121.25 L 271.25 121.25 L 271.25 125 L 271.25 175 L 271.25 196.25 L 250 196.25 L 228.75 196.25 L 228.75 175 L 228.75 171.25 L 225 171.25 L 221.25 171.25 L 221.25 175 L 221.25 200 L 221.25 221.25 L 200 221.25 L 175 221.25 L 153.75 221.25 L 153.75 200 L 153.75 175 L 153.75 171.25 L 150 171.25 L 75 171.25 L 71.25 171.25 L 71.25 175 L 71.25 196.25 L 50 196.25 L 46.25 196.25 L 46.25 200 L 46.25 225 L 46.25 246.25 L 25 246.25 L 21.25 246.25 L 21.25 250 L 21.25 375 L 21.25 378.75 L 25 378.75 L 28.75 378.75 L 28.75 375 L 28.75 300 L 28.75 278.75 L 50 278.75 L 53.75 278.75 L 53.75 275 L 53.75 271.25 L 50 271.25 L 37.5 271.25 L 28.75 271.25 L 28.75 262.5 L 28.75 253.75 L 37.5 253.75 L 75 253.75 L 78.75 253.75 L 78.75 250 L 78.75 246.25 L 75 246.25 L 53.75 246.25 L 53.75 225 L 53.75 203.75 L 75 203.75 L 78.75 203.75 L 78.75 200 L 78.75 178.75 L 100 178.75 L 121.25 178.75 L 121.25 200 L 121.25 250 L 121.25 253.75 L 125 253.75 L 146.25 253.75 L 146.25 275 L 146.25 296.25 L 125 296.25 L 100 296.25 L 96.25 296.25 L 96.25 300 L 96.25 303.75 L 100 303.75 L 150 303.75 L 153.75 303.75 L 153.75 300 L 153.75 250 L 153.75 246.25 L 150 246.25 L 128.75 246.25 L 128.75 225 L 128.75 187.5 L 128.75 178.75 L 137.5 178.75 L 146.25 178.75 L 146.25 187.5 L 146.25 225 L 146.25 228.75 L 150 228.75 L 225 228.75 L 228.75 228.75 L 228.75 225 L 228.75 203.75 L 250 203.75 L 271.25 203.75 L 271.25 225 L 271.25 228.75 L 275 228.75 L 296.25 228.75 L 296.25 250 L 296.25 275 L 296.25 296.25 L 275 296.25 L 250 296.25 L 246.25 296.25 L 246.25 300 L 246.25 321.25 L 225 321.25 L 203.75 321.25 L 203.75 300 L 203.75 296.25 L 200 296.25 L 196.25 296.25 L 196.25 300 L 196.25 325 L 196.25 346.25 L 175 346.25 L 125 346.25 L 121.25 346.25 L 121.25 350 L 121.25 353.75 L 125 353.75 L 150 353.75 L 171.25 353.75 L 171.25 375 L 171.25 378.75 L 175 378.75 L 200 378.75 L 221.25 378.75 L 221.25 400 L 221.25 421.25 L 200 421.25 L 175 421.25 L 171.25 421.25 L 171.25 425 L 171.25 446.25 L 150 446.25 L 125 446.25 L 121.25 446.25 L 121.25 450 L 121.25 471.25 L 100 471.25 L 75 471.25 L 53.75 471.25 L 53.75 450 L 53.75 425 L 53.75 421.25 L 50 421.25 L 46.25 421.25 L 46.25 425 L 46.25 446.25 L 25 446.25 L 21.25 446.25 L 21.25 450 L 21.25 453.75 L 25 453.75 L 46.25 453.75 L 46.25 475 L 46.25 478.75 L 50 478.75 L 125 478.75 L 128.75 478.75 L 128.75 475 L 128.75 453.75 L 150 453.75 L 171.25 453.75 L 171.25 475 L 171.25 478.75 L 175 478.75 L 225 478.75 L 228.75 478.75 L 228.75 475 L 228.75 471.25 L 225 471.25 L 200 471.25 L 178.75 471.25 L 178.75 450 L 178.75 428.75 L 200 428.75 L 275 428.75 L 296.25 428.75 L 296.25 450 L 296.25 453.75 L 300 453.75 L 321.25 453.75 L 321.25 475 L 321.25 478.75 L 325 478.75 L 328.75 478.75 L 328.75 475 L 328.75 453.75 L 350 453.75 L 353.75 453.75 L 353.75 450 L 353.75 446.25 L 350 446.25 L 325 446.25 L 303.75 446.25 L 303.75 425 L 303.75 421.25 L 300 421.25 L 250 421.25 L 228.75 421.25 L 228.75 400 L 228.75 378.75 L 250 378.75 L 300 378.75 L 303.75 378.75 L 303.75 375 L 303.75 353.75 L 325 353.75 L 375 353.75 L 396.25 353.75 L 396.25 375 L 396.25 378.75 L 400 378.75 L 421.25 378.75 L 421.25 400 L 421.25 403.75 L 425 403.75 L 446.25 403.75 L 446.25 425 L 446.25 428.75 L 450 428.75 L 453.75 428.75 L 453.75 425 L 453.75 403.75 L 475 403.75 L 478.75 403.75 L 478.75 400 L 478.75 375 L 478.75 371.25 L 475 371.25 L 450 371.25 L 446.25 371.25 L 446.25 375 L 446.25 378.75 L 450 378.75 L 462.5 378.75 L 471.25 378.75 L 471.25 387.5 L 471.25 396.25 L 462.5 396.25 L 450 396.25 L 428.75 396.25 L 428.75 375 L 428.75 350 L 428.75 346.25 L 425 346.25 L 421.25 346.25 L 421.25 350 L 421.25 362.5 L 421.25 371.25 L 412.5 371.25 L 403.75 371.25 L 403.75 362.5 L 403.75 325 L 403.75 321.25 L 400 321.25 L 375 321.25 L 371.25 321.25 L 371.25 325 L 371.25 328.75 L 375 328.75 L 387.5 328.75 L 396.25 328.75 L 396.25 337.5 L 396.25 346.25 L 387.5 346.25 L 325 346.25 L 303.75 346.25 L 303.75 325 L 303.75 321.25 L 300 321.25 L 296.25 321.25 L 296.25 325 L 296.25 350 L 296.25 371.25 L 275 371.25 L 250 371.25 L 228.75 371.25 L 228.75 350 L 228.75 346.25 L 225 346.25 L 221.25 346.25 L 221.25 350 L 221.25 371.25 L 200 371.25 L 187.5 371.25 L 178.75 371.25 L 178.75 362.5 L 178.75 353.75 L 187.5 353.75 L 200 353.75 L 203.75 353.75 L 203.75 350 L 203.75 328.75 L 225 328.75 L 250 328.75 L 253.75 328.75 L 253.75 325 L 253.75 312.5 L 253.75 303.75 L 262.5 303.75 L 271.25 303.75 L 271.25 312.5 L 271.25 325 L 271.25 346.25 L 250 346.25 L 246.25 346.25 L 246.25 350 L 246.25 353.75 L 250 353.75 L 275 353.75 L 278.75 353.75 L 278.75 350 L 278.75 325 L 278.75 303.75 L 300 303.75 L 303.75 303.75 L 303.75 300 L 303.75 275 L 303.75 253.75 L 325 253.75 L 328.75 253.75 L 328.75 250 L 328.75 225 L 328.75 203.75 L 350 203.75 L 353.75 203.75 L 353.75 200 L 353.75 178.75 L 375 178.75 L 396.25 178.75 L 396.25 200 L 396.25 203.75 L 400 203.75 L 421.25 203.75 L 421.25 225 L 421.25 228.75 L 425 228.75 L 446.25 228.75 L 446.25 250 L 446.25 271.25 L 425 271.25 L 421.25 271.25 L 421.25 275 L 421.25 278.75 L 425 278.75 L 475 278.75 L 478.75 278.75 L 478.75 275 L 478.75 271.25 L 475 271.25 L 453.75 271.25 L 453.75 250 L 453.75 228.75 L 475 228.75 L 478.75 228.75 L 478.75 225 L 478.75 221.25 L 475 221.25 L 450 221.25 L 428.75 221.25 L 428.75 200 L 428.75 178.75 L 450 178.75 L 453.75 178.75 L 453.75 175 L 453.75 171.25 L 450 171.25 L 428.75 171.25 L 428.75 150 L 428.75 146.25 L 425 146.25 L 421.25 146.25 L 421.25 150 L 421.25 187.5 L 421.25 196.25 L 412.5 196.25 L 403.75 196.25 L 403.75 187.5 L 403.75 175 L 403.75 171.25 L 400 171.25 L 350 171.25 L 346.25 171.25 L 346.25 175 L 346.25 196.25 L 325 196.25 L 321.25 196.25 L 321.25 200 L 321.25 237.5 L 321.25 246.25 L 312.5 246.25 L 303.75 246.25 L 303.75 237.5 L 303.75 225 L 303.75 221.25 L 300 221.25 L 278.75 221.25 L 278.75 200 L 278.75 175 L 278.75 153.75 L 300 153.75 L 303.75 153.75 L 303.75 150 L 303.75 146.25 L 300 146.25 L 287.5 146.25 L 278.75 146.25 L 278.75 137.5 L 278.75 128.75 L 287.5 128.75 L 300 128.75 L 321.25 128.75 L 321.25 150 L 321.25 171.25 L 300 171.25 L 296.25 171.25 L 296.25 175 L 296.25 200 L 296.25 203.75 L 300 203.75 L 303.75 203.75 L 303.75 200 L 303.75 178.75 L 325 178.75 L 328.75 178.75 L 328.75 175 L 328.75 153.75 L 350 153.75 L 375 153.75 L 378.75 153.75 L 378.75 150 L 378.75 125 L 378.75 103.75 L 400 103.75 L 450 103.75 L 453.75 103.75 L 453.75 100 L 453.75 96.25 L 450 96.25 L 428.75 96.25 L 428.75 75 L 428.75 53.75 L 450 53.75 L 453.75 53.75 L 453.75 50 L 453.75 46.25 L 450 46.25 L 400 46.25 L 378.75 46.25 L 378.75 25 L 378.75 21.25 L 375 21.25 L 371.25 21.25 L 371.25 25 L 371.25 50 L 371.25 53.75 L 375 53.75 L 396.25 53.75 L 396.25 75 L 396.25 78.75 L 400 78.75 L 403.75 78.75 L 403.75 75 L 403.75 62.5 L 403.75 53.75 L 412.5 53.75 L 421.25 53.75 L 421.25 62.5 L 421.25 75 L 421.25 96.25 L 400 96.25 L 378.75 96.25 L 378.75 75 L 378.75 71.25 L 375 71.25 L 353.75 71.25 L 353.75 50 L 353.75 46.25 L 350 46.25 L 328.75 46.25 L 328.75 25 L 328.75 21.25 L 325 21.25 L 321.25 21.25 L 321.25 25 L 321.25 46.25 L 300 46.25 L 278.75 46.25 L 278.75 25 L 278.75 12.5 L 278.75 3.7500000000000004 L 287.5 3.7500000000000004 L 296.25 3.7500000000000004 L 296.25 12.5 L 296.25 25 L 296.25 28.75 L 300 28.75 L 303.75 28.75 L 303.75 25 L 303.75 3.7500000000000004 L 325 3.7500000000000004 L 346.25 3.7500000000000004 L 346.25 25 L 346.25 28.75 L 350 28.75 L 353.75 28.75 L 353.75 25 L 353.75 3.7500000000000004 L 375 3.7500000000000004 L 475 3.7500000000000004 L 496.25 3.7500000000000004 L 496.25 25 L 496.25 175 L 496.25 178.75 L 500 178.75 M 128.75 0 L 128.75 25 L 128.75 28.75 L 125 28.75 L 103.75 28.75 L 103.75 50 L 103.75 71.25 L 125 71.25 L 150 71.25 L 153.75 71.25 L 153.75 75 L 153.75 100 L 153.75 121.25 L 175 121.25 L 178.75 121.25 L 178.75 125 L 178.75 137.5 L 178.75 146.25 L 187.5 146.25 L 196.25 146.25 L 196.25 137.5 L 196.25 125 L 196.25 103.75 L 175 103.75 L 171.25 103.75 L 171.25 100 L 171.25 75 L 171.25 53.75 L 150 53.75 L 125 53.75 L 121.25 53.75 L 121.25 50 L 121.25 46.25 L 125 46.25 L 146.25 46.25 L 146.25 25 L 146.25 21.25 L 150 21.25 L 153.75 21.25 L 153.75 25 L 153.75 46.25 L 175 46.25 L 178.75 46.25 L 178.75 50 L 178.75 71.25 L 200 71.25 L 221.25 71.25 L 221.25 50 L 221.25 25 L 221.25 21.25 L 225 21.25 L 250 21.25 L 253.75 21.25 L 253.75 25 L 253.75 50 L 253.75 71.25 L 275 71.25 L 325 71.25 L 328.75 71.25 L 328.75 75 L 328.75 96.25 L 350 96.25 L 353.75 96.25 L 353.75 100 L 353.75 125 L 353.75 128.75 L 350 128.75 L 346.25 128.75 L 346.25 125 L 346.25 103.75 L 325 103.75 L 275 103.75 L 253.75 103.75 L 253.75 125 L 253.75 175 L 253.75 178.75 L 250 178.75 L 246.25 178.75 L 246.25 175 L 246.25 153.75 L 225 153.75 L 221.25 153.75 L 221.25 150 L 221.25 146.25 L 225 146.25 L 246.25 146.25 L 246.25 125 L 246.25 103.75 L 225 103.75 L 221.25 103.75 L 221.25 100 L 221.25 96.25 L 225 96.25 L 312.5 96.25 L 321.25 96.25 L 321.25 87.5 L 321.25 78.75 L 312.5 78.75 L 250 78.75 L 246.25 78.75 L 246.25 75 L 246.25 37.5 L 246.25 28.75 L 237.5 28.75 L 228.75 28.75 L 228.75 37.5 L 228.75 75 L 228.75 78.75 L 225 78.75 L 187.5 78.75 L 178.75 78.75 L 178.75 87.5 L 178.75 96.25 L 187.5 96.25 L 200 96.25 L 203.75 96.25 L 203.75 100 L 203.75 121.25 L 225 121.25 L 228.75 121.25 L 228.75 125 L 228.75 128.75 L 225 128.75 L 203.75 128.75 L 203.75 150 L 203.75 200 L 203.75 203.75 L 200 203.75 L 175 203.75 L 171.25 203.75 L 171.25 200 L 171.25 175 L 171.25 171.25 L 175 171.25 L 178.75 171.25 L 178.75 175 L 178.75 187.5 L 178.75 196.25 L 187.5 196.25 L 196.25 196.25 L 196.25 187.5 L 196.25 175 L 196.25 153.75 L 175 153.75 L 75 153.75 L 53.75 153.75 L 53.75 175 L 53.75 178.75 L 50 178.75 L 28.75 178.75 L 28.75 200 L 28.75 225 L 28.75 228.75 L 25 228.75 L 21.25 228.75 L 21.25 225 L 21.25 150 L 21.25 146.25 L 25 146.25 L 28.75 146.25 L 28.75 150 L 28.75 162.5 L 28.75 171.25 L 37.5 171.25 L 46.25 171.25 L 46.25 162.5 L 46.25 150 L 46.25 146.25 L 50 146.25 L 71.25 146.25 L 71.25 125 L 71.25 100 L 71.25 96.25 L 75 96.25 L 78.75 96.25 L 78.75 100 L 78.75 121.25 L 100 121.25 L 125 121.25 L 128.75 121.25 L 128.75 125 L 128.75 128.75 L 125 128.75 L 87.5 128.75 L 78.75 128.75 L 78.75 137.5 L 78.75 146.25 L 87.5 146.25 L 162.5 146.25 L 171.25 146.25 L 171.25 137.5 L 171.25 128.75 L 162.5 128.75 L 150 128.75 L 146.25 128.75 L 146.25 125 L 146.25 100 L 146.25 78.75 L 125 78.75 L 112.5 78.75 L 103.75 78.75 L 103.75 87.5 L 103.75 96.25 L 112.5 96.25 L 125 96.25 L 128.75 96.25 L 128.75 100 L 128.75 103.75 L 125 103.75 L 100 103.75 L 96.25 103.75 L 96.25 100 L 96.25 50 L 96.25 28.75 L 75 28.75 L 25 28.75 L 21.25 28.75 L 21.25 25 L 21.25 21.25 L 25 21.25 L 112.5 21.25 L 121.25 21.25 L 121.25 12.5 L 121.25 3.7500000000000004 L 112.5 3.7500000000000004 L 25 3.7500000000000004 L 3.7500000000000004 3.7500000000000004 L 3.7500000000000004 25 L 3.7500000000000004 50 L 3.7500000000000004 71.25 L 25 71.25 L 28.75 71.25 L 28.75 75 L 28.75 78.75 L 25 78.75 L 3.7500000000000004 78.75 L 3.7500000000000004 100 L 3.7500000000000004 121.25 L 25 121.25 L 37.5 121.25 L 46.25 121.25 L 46.25 112.5 L 46.25 103.75 L 37.5 103.75 L 25 103.75 L 21.25 103.75 L 21.25 100 L 21.25 96.25 L 25 96.25 L 46.25 96.25 L 46.25 75 L 46.25 71.25 L 50 71.25 L 62.5 71.25 L 71.25 71.25 L 71.25 62.5 L 71.25 53.75 L 62.5 53.75 L 25 53.75 L 21.25 53.75 L 21.25 50 L 21.25 46.25 L 25 46.25 L 75 46.25 L 78.75 46.25 L 78.75 50 L 78.75 75 L 78.75 78.75 L 75 78.75 L 53.75 78.75 L 53.75 100 L 53.75 125 L 53.75 128.75 L 50 128.75 L 25 128.75 L 3.7500000000000004 128.75 L 3.7500000000000004 150 L 3.7500000000000004 375 L 3.7500000000000004 396.25 L 25 396.25 L 46.25 396.25 L 46.25 375 L 46.25 300 L 46.25 296.25 L 50 296.25 L 71.25 296.25 L 71.25 275 L 71.25 271.25 L 75 271.25 L 96.25 271.25 L 96.25 250 L 96.25 228.75 L 75 228.75 L 71.25 228.75 L 71.25 225 L 71.25 221.25 L 75 221.25 L 96.25 221.25 L 96.25 200 L 96.25 196.25 L 100 196.25 L 103.75 196.25 L 103.75 200 L 103.75 250 L 103.75 271.25 L 125 271.25 L 128.75 271.25 L 128.75 275 L 128.75 278.75 L 125 278.75 L 100 278.75 L 78.75 278.75 L 78.75 300 L 78.75 321.25 L 100 321.25 L 150 321.25 L 171.25 321.25 L 171.25 300 L 171.25 250 L 171.25 246.25 L 175 246.25 L 225 246.25 L 246.25 246.25 L 246.25 225 L 246.25 221.25 L 250 221.25 L 253.75 221.25 L 253.75 225 L 253.75 246.25 L 275 246.25 L 278.75 246.25 L 278.75 250 L 278.75 275 L 278.75 278.75 L 275 278.75 L 250 278.75 L 228.75 278.75 L 228.75 300 L 228.75 303.75 L 225 303.75 L 221.25 303.75 L 221.25 300 L 221.25 278.75 L 200 278.75 L 196.25 278.75 L 196.25 275 L 196.25 271.25 L 200 271.25 L 262.5 271.25 L 271.25 271.25 L 271.25 262.5 L 271.25 253.75 L 262.5 253.75 L 200 253.75 L 178.75 253.75 L 178.75 275 L 178.75 325 L 178.75 328.75 L 175 328.75 L 125 328.75 L 103.75 328.75 L 103.75 350 L 103.75 371.25 L 125 371.25 L 150 371.25 L 153.75 371.25 L 153.75 375 L 153.75 396.25 L 175 396.25 L 200 396.25 L 203.75 396.25 L 203.75 400 L 203.75 403.75 L 200 403.75 L 175 403.75 L 153.75 403.75 L 153.75 425 L 153.75 428.75 L 150 428.75 L 125 428.75 L 103.75 428.75 L 103.75 450 L 103.75 453.75 L 100 453.75 L 75 453.75 L 71.25 453.75 L 71.25 450 L 71.25 400 L 71.25 396.25 L 75 396.25 L 125 396.25 L 128.75 396.25 L 128.75 400 L 128.75 403.75 L 125 403.75 L 100 403.75 L 78.75 403.75 L 78.75 425 L 78.75 437.5 L 78.75 446.25 L 87.5 446.25 L 96.25 446.25 L 96.25 437.5 L 96.25 425 L 96.25 421.25 L 100 421.25 L 125 421.25 L 146.25 421.25 L 146.25 400 L 146.25 378.75 L 125 378.75 L 100 378.75 L 96.25 378.75 L 96.25 375 L 96.25 353.75 L 75 353.75 L 71.25 353.75 L 71.25 350 L 71.25 346.25 L 75 346.25 L 87.5 346.25 L 96.25 346.25 L 96.25 337.5 L 96.25 328.75 L 87.5 328.75 L 75 328.75 L 71.25 328.75 L 71.25 325 L 71.25 312.5 L 71.25 303.75 L 62.5 303.75 L 53.75 303.75 L 53.75 312.5 L 53.75 350 L 53.75 371.25 L 75 371.25 L 78.75 371.25 L 78.75 375 L 78.75 378.75 L 75 378.75 L 53.75 378.75 L 53.75 400 L 53.75 403.75 L 50 403.75 L 28.75 403.75 L 28.75 425 L 28.75 428.75 L 25 428.75 L 21.25 428.75 L 21.25 425 L 21.25 412.5 L 21.25 403.75 L 12.5 403.75 L 3.7500000000000004 403.75 L 3.7500000000000004 412.5 L 3.7500000000000004 450 L 3.7500000000000004 471.25 L 25 471.25 L 28.75 471.25 L 28.75 475 L 28.75 478.75 L 25 478.75 L 12.5 478.75 L 3.7500000000000004 478.75 L 3.7500000000000004 487.5 L 3.7500000000000004 496.25 L 12.5 496.25 L 125 496.25 L 146.25 496.25 L 146.25 475 L 146.25 471.25 L 150 471.25 L 153.75 471.25 L 153.75 475 L 153.75 496.25 L 175 496.25 L 225 496.25 L 246.25 496.25 L 246.25 475 L 246.25 453.75 L 225 453.75 L 200 453.75 L 196.25 453.75 L 196.25 450 L 196.25 446.25 L 200 446.25 L 275 446.25 L 278.75 446.25 L 278.75 450 L 278.75 471.25 L 300 471.25 L 303.75 471.25 L 303.75 475 L 303.75 478.75 L 300 478.75 L 275 478.75 L 271.25 478.75 L 271.25 475 L 271.25 462.5 L 271.25 453.75 L 262.5 453.75 L 253.75 453.75 L 253.75 462.5 L 253.75 475 L 253.75 496.25 L 275 496.25 L 325 496.25 L 346.25 496.25 L 346.25 475 L 346.25 471.25 L 350 471.25 L 371.25 471.25 L 371.25 450 L 371.25 428.75 L 350 428.75 L 325 428.75 L 321.25 428.75 L 321.25 425 L 321.25 403.75 L 300 403.75 L 250 403.75 L 246.25 403.75 L 246.25 400 L 246.25 396.25 L 250 396.25 L 300 396.25 L 321.25 396.25 L 321.25 375 L 321.25 371.25 L 325 371.25 L 375 371.25 L 378.75 371.25 L 378.75 375 L 378.75 396.25 L 400 396.25 L 403.75 396.25 L 403.75 400 L 403.75 421.25 L 425 421.25 L 428.75 421.25 L 428.75 425 L 428.75 446.25 L 450 446.25 L 471.25 446.25 L 471.25 425 L 471.25 421.25 L 475 421.25 L 478.75 421.25 L 478.75 425 L 478.75 475 L 478.75 478.75 L 475 478.75 L 450 478.75 L 446.25 478.75 L 446.25 475 L 446.25 471.25 L 450 471.25 L 462.5 471.25 L 471.25 471.25 L 471.25 462.5 L 471.25 453.75 L 462.5 453.75 L 400 453.75 L 396.25 453.75 L 396.25 450 L 396.25 446.25 L 400 446.25 L 412.5 446.25 L 421.25 446.25 L 421.25 437.5 L 421.25 428.75 L 412.5 428.75 L 400 428.75 L 396.25 428.75 L 396.25 425 L 396.25 403.75 L 375 403.75 L 350 403.75 L 346.25 403.75 L 346.25 400 L 346.25 396.25 L 350 396.25 L 362.5 396.25 L 371.25 396.25 L 371.25 387.5 L 371.25 378.75 L 362.5 378.75 L 350 378.75 L 328.75 378.75 L 328.75 400 L 328.75 421.25 L 350 421.25 L 375 421.25 L 378.75 421.25 L 378.75 425 L 378.75 475 L 378.75 478.75 L 375 478.75 L 362.5 478.75 L 353.75 478.75 L 353.75 487.5 L 353.75 496.25 L 362.5 496.25 L 412.5 496.25 L 421.25 496.25 L 421.25 487.5 L 421.25 478.75 L 412.5 478.75 L 400 478.75 L 396.25 478.75 L 396.25 475 L 396.25 471.25 L 400 471.25 L 425 471.25 L 428.75 471.25 L 428.75 475 L 428.75 496.25 L 450 496.25 L 475 496.25 L 496.25 496.25 L 496.25 475 L 496.25 375 L 496.25 353.75 L 475 353.75 L 450 353.75 L 446.25 353.75 L 446.25 350 L 446.25 328.75 L 425 328.75 L 421.25 328.75 L 421.25 325 L 421.25 303.75 L 400 303.75 L 375 303.75 L 353.75 303.75 L 353.75 325 L 353.75 328.75 L 350 328.75 L 325 328.75 L 321.25 328.75 L 321.25 325 L 321.25 275 L 321.25 271.25 L 325 271.25 L 346.25 271.25 L 346.25 250 L 346.25 225 L 346.25 221.25 L 350 221.25 L 371.25 221.25 L 371.25 200 L 371.25 196.25 L 375 196.25 L 378.75 196.25 L 378.75 200 L 378.75 221.25 L 400 221.25 L 403.75 221.25 L 403.75 225 L 403.75 246.25 L 425 246.25 L 428.75 246.25 L 428.75 250 L 428.75 253.75 L 425 253.75 L 403.75 253.75 L 403.75 275 L 403.75 278.75 L 400 278.75 L 375 278.75 L 371.25 278.75 L 371.25 275 L 371.25 271.25 L 375 271.25 L 396.25 271.25 L 396.25 250 L 396.25 228.75 L 375 228.75 L 362.5 228.75 L 353.75 228.75 L 353.75 237.5 L 353.75 246.25 L 362.5 246.25 L 375 246.25 L 378.75 246.25 L 378.75 250 L 378.75 253.75 L 375 253.75 L 353.75 253.75 L 353.75 275 L 353.75 278.75 L 350 278.75 L 328.75 278.75 L 328.75 300 L 328.75 312.5 L 328.75 321.25 L 337.5 321.25 L 346.25 321.25 L 346.25 312.5 L 346.25 300 L 346.25 296.25 L 350 296.25 L 475 296.25 L 478.75 296.25 L 478.75 300 L 478.75 303.75 L 475 303.75 L 437.5 303.75 L 428.75 303.75 L 428.75 312.5 L 428.75 321.25 L 437.5 321.25 L 450 321.25 L 453.75 321.25 L 453.75 325 L 453.75 346.25 L 475 346.25 L 487.5 346.25 L 496.25 346.25 L 496.25 337.5 L 496.25 328.75 L 487.5 328.75 L 475 328.75 L 471.25 328.75 L 471.25 325 L 471.25 321.25 L 475 321.25 L 496.25 321.25 L 496.25 300 L 496.25 275 L 496.25 253.75 L 475 253.75 L 471.25 253.75 L 471.25 250 L 471.25 246.25 L 475 246.25 L 496.25 246.25 L 496.25 225 L 496.25 203.75 L 475 203.75 L 450 203.75 L 446.25 203.75 L 446.25 200 L 446.25 196.25 L 450 196.25 L 471.25 196.25 L 471.25 175 L 471.25 153.75 L 450 153.75 L 446.25 153.75 L 446.25 150 L 446.25 128.75 L 425 128.75 L 403.75 128.75 L 403.75 150 L 403.75 153.75 L 400 153.75 L 396.25 153.75 L 396.25 150 L 396.25 125 L 396.25 121.25 L 400 121.25 L 450 121.25 L 471.25 121.25 L 471.25 100 L 471.25 78.75 L 450 78.75 L 446.25 78.75 L 446.25 75 L 446.25 71.25 L 450 71.25 L 471.25 71.25 L 471.25 50 L 471.25 28.75 L 450 28.75 L 400 28.75 L 396.25 28.75 L 396.25 25 L 396.25 21.25 L 400 21.25 L 475 21.25 L 478.75 21.25 L 478.75 25 L 478.75 125 L 478.75 128.75 L 475 128.75 L 462.5 128.75 L 453.75 128.75 L 453.75 137.5 L 453.75 146.25 L 462.5 146.25 L 475 146.25 L 478.75 146.25 L 478.75 150 L 478.75 175 L 478.75 196.25 L 500 196.25 "/>
</svg>
