<?xml version="1.0" encoding="UTF-8"?>
<svg xmlns="http://www.w3.org/2000/svg" xmlns:xlink="http://www.w3.org/1999/xlink" width="500" height="500" viewBox="0 0 500 500">
<rect x="-50" y="-50" width="600" height="600" fill="rgb(100%, 100%, 100%)" fill-opacity="1"/>
<path fill="none" stroke-width="3.75" stroke-linecap="round" stroke-linejoin="miter" stroke="rgb(100%, 0%, 0%)" stroke-opacity="1" stroke-miterlimit="10" d="M 121.25 437.5 L 153.75 437.5 M 103.75 437.5 L 100 437.5 C 93.10106219383111 437.5 87.5 443.1010621938311 87.5 450 L 87.5 453.75 M 212.5 421.25 L 212.5 425 C 212.5 431.8989378061689 206.89893780616887 437.5 200 437.5 L 171.25 437.5 M 62.5 421.25 L 62.5 475 C 62.5 481.8989378061689 68.10106219383111 487.5 75 487.5 C 81.89893780616889 487.5 87.5 481.8989378061689 87.5 475 L 87.5 471.25 M 228.75 387.5 L 225 387.5 C 218.10106219383113 387.5 212.5 393.1010621938311 212.5 400 L 212.5 403.75 M 62.5 371.25 L 62.5 403.75 M 287.5 346.25 L 287.5 375 C 287.5 381.8989378061689 281.8989378061689 387.5 275 387.5 L 246.25 387.5 M 453.75 287.5 L 450 287.5 C 443.1010621938311 287.5 437.5 293.1010621938311 437.5 300 L 437.5 325 C 437.5 331.8989378061689 431.8989378061689 337.5 425 337.5 L 421.25 337.5 M 287.5 296.25 L 287.5 328.75 M 471.25 262.5 L 475 262.5 C 481.8989378061689 262.5 487.5 268.1010621938311 487.5 275 C 487.5 281.8989378061689 481.8989378061689 287.5 475 287.5 L 471.25 287.5 M 421.25 262.5 L 453.75 262.5 M 371.25 262.5 L 403.75 262.5 M 287.5 271.25 L 287.5 278.75 M 362.5 246.25 L 362.5 325 C 362.5 331.8989378061689 368.1010621938311 337.5 375 337.5 L 403.75 337.5 M 287.5 246.25 L 287.5 253.75 M 262.5 246.25 L 262.5 250 C 262.5 256.8989378061689 268.1010621938311 262.5 275 262.5 L 353.75 262.5 M 112.5 246.25 L 112.5 250 C 112.5 256.8989378061689 106.89893780616889 262.5 100 262.5 C 93.10106219383111 262.5 87.5 268.1010621938311 87.5 275 L 87.5 350 C 87.5 356.8989378061689 81.89893780616889 362.5 75 362.5 L 50 362.5 C 43.10106219383112 362.5 37.5 356.8989378061689 37.5 350 C 37.5 343.1010621938311 43.10106219383112 337.5 50 337.5 C 56.89893780616888 337.5 62.5 343.1010621938311 62.5 350 L 62.5 353.75 M 287.5 221.25 L 287.5 228.75 M 371.25 187.5 L 375 187.5 C 381.8989378061689 187.5 387.5 193.10106219383113 387.5 200 C 387.5 206.89893780616887 381.8989378061689 212.5 375 212.5 C 368.1010621938311 212.5 362.5 218.10106219383113 362.5 225 L 362.5 228.75 M 296.25 187.5 L 353.75 187.5 M 212.5 196.25 L 212.5 200 C 212.5 206.89893780616887 218.10106219383113 212.5 225 212.5 L 250 212.5 C 256.8989378061689 212.5 262.5 218.10106219383113 262.5 225 L 262.5 228.75 M 287.5 146.25 L 287.5 203.75 M 312.5 121.25 L 312.5 125 C 312.5 131.89893780616887 306.8989378061689 137.5 300 137.5 L 271.25 137.5 M 287.5 121.25 L 287.5 128.75 M 237.5 121.25 L 237.5 125 C 237.5 131.89893780616887 243.10106219383113 137.5 250 137.5 L 253.75 137.5 M 221.25 112.5 L 250 112.5 C 256.8989378061689 112.5 262.5 118.10106219383111 262.5 125 L 262.5 175 C 262.5 181.89893780616887 268.1010621938311 187.5 275 187.5 L 278.75 187.5 M 196.25 112.5 L 203.75 112.5 M 162.5 121.25 L 162.5 125 C 162.5 131.89893780616887 156.89893780616887 137.5 150 137.5 C 143.10106219383113 137.5 137.5 143.10106219383113 137.5 150 C 137.5 156.89893780616887 143.10106219383113 162.5 150 162.5 L 200 162.5 C 206.89893780616887 162.5 212.5 168.10106219383113 212.5 175 L 212.5 178.75 M 96.25 112.5 L 178.75 112.5 M 46.25 112.5 L 78.75 112.5 M 28.75 112.5 L 25 112.5 C 18.10106219383112 112.5 12.5 118.10106219383111 12.5 125 C 12.5 131.89893780616887 18.10106219383112 137.5 25 137.5 L 75 137.5 C 81.89893780616889 137.5 87.5 143.10106219383113 87.5 150 C 87.5 156.89893780616887 93.10106219383111 162.5 100 162.5 C 106.89893780616889 162.5 112.5 168.10106219383113 112.5 175 L 112.5 228.75 M 312.5 103.75 L 312.5 100 C 312.5 93.10106219383111 306.8989378061689 87.5 300 87.5 C 293.1010621938311 87.5 287.5 93.10106219383111 287.5 100 L 287.5 103.75 M 296.25 37.5 L 303.75 37.5 M 271.25 37.5 L 278.75 37.5 M 246.25 37.5 L 253.75 37.5 M 221.25 37.5 L 228.75 37.5 M 162.5 46.25 L 162.5 103.75 M 321.25 37.5 L 325 37.5 C 331.8989378061689 37.5 337.5 31.89893780616888 337.5 25 C 337.5 18.10106219383112 331.8989378061689 12.5 325 12.5 C 318.1010621938311 12.5 312.5 18.10106219383112 312.5 25 L 312.5 50 C 312.5 56.89893780616888 306.8989378061689 62.5 300 62.5 L 246.25 62.5 M 237.5 0 L 237.5 103.75 M 212.5 0 L 212.5 50 C 212.5 56.89893780616888 218.10106219383113 62.5 225 62.5 L 228.75 62.5 M 162.5 28.75 L 162.5 25 C 162.5 18.10106219383112 156.89893780616887 12.5 150 12.5 C 143.10106219383113 12.5 137.5 18.10106219383112 137.5 25 C 137.5 31.89893780616888 143.10106219383113 37.5 150 37.5 L 203.75 37.5 "/>
<path fill="none" stroke-width="3.75" stroke-linecap="round" stroke-linejoin="miter" stroke="rgb(0%, 0%, 0%)" stroke-opacity="1" stroke-miterlimit="10" d="M 453.75 471.25 L 453.75 475 C 453.75 477.06968134185064 452.06968134185064 478.75 450 478.75 C 447.93031865814936 478.75 446.25 477.06968134185064 446.25 475 C 446.25 472.93031865814936 447.93031865814936 471.25 450 471.25 L 475 471.25 C 477.06968134185064 471.25 478.75 472.93031865814936 478.75 475 L 478.75 487.5 C 478.75 492.32925646431823 482.67074353568177 496.25 487.5 496.25 C 492.32925646431823 496.25 496.25 492.32925646431823 496.25 487.5 L 496.25 475 C 496.25 463.2718057295129 486.7281942704871 453.75 475 453.75 L 450 453.75 C 438.2718057295129 453.75 428.75 463.2718057295129 428.75 475 C 428.75 477.06968134185064 427.06968134185064 478.75 425 478.75 L 387.5 478.75 C 382.67074353568177 478.75 378.75 482.67074353568177 378.75 487.5 C 378.75 492.32925646431823 382.67074353568177 496.25 387.5 496.25 L 450 496.25 C 461.7281942704871 496.25 471.25 486.7281942704871 471.25 475 L 471.25 471.25 M 371.25 471.25 L 371.25 487.5 C 371.25 492.32925646431823 367.32925646431823 496.25 362.5 496.25 C 357.67074353568177 496.25 353.75 492.32925646431823 353.75 487.5 L 353.75 471.25 M 346.25 471.25 L 412.5 471.25 C 417.32925646431823 471.25 421.25 467.32925646431823 421.25 462.5 C 421.25 457.67074353568177 417.32925646431823 453.75 412.5 453.75 L 346.25 453.75 M 253.75 471.25 L 253.75 475 C 253.75 486.7281942704871 263.2718057295129 496.25 275 496.25 C 286.7281942704871 496.25 296.25 486.7281942704871 296.25 475 C 296.25 472.93031865814936 297.93031865814936 471.25 300 471.25 L 328.75 471.25 M 246.25 471.25 L 246.25 487.5 C 246.25 492.32925646431823 242.3292564643182 496.25 237.5 496.25 C 232.6707435356818 496.25 228.75 492.32925646431823 228.75 487.5 L 228.75 471.25 M 221.25 471.25 L 275 471.25 C 277.06968134185064 471.25 278.75 472.93031865814936 278.75 475 C 278.75 477.06968134185064 277.06968134185064 478.75 275 478.75 C 272.93031865814936 478.75 271.25 477.06968134185064 271.25 475 L 271.25 471.25 M 196.25 471.25 L 196.25 475 C 196.25 486.7281942704871 186.7281942704871 496.25 175 496.25 L 162.5 496.25 C 157.6707435356818 496.25 153.75 492.32925646431823 153.75 487.5 C 153.75 482.67074353568177 157.6707435356818 478.75 162.5 478.75 L 175 478.75 C 177.06968134185067 478.75 178.75 477.06968134185064 178.75 475 L 178.75 471.25 M 71.25 453.75 L 103.75 453.75 M 71.25 471.25 L 103.75 471.25 M 53.75 453.75 L 25 453.75 C 13.2718057295129 453.75 3.75 463.2718057295129 3.7500000000000004 475 L 3.7500000000000004 487.5 C 3.75 492.32925646431823 7.670743535681782 496.25 12.5 496.25 C 17.329256464318217 496.25 21.25 492.32925646431823 21.25 487.5 L 21.25 475 C 21.25 472.93031865814936 22.930318658149336 471.25 25 471.25 L 53.75 471.25 M 453.75 446.25 L 453.75 453.75 M 471.25 446.25 L 471.25 453.75 M 328.75 446.25 L 328.75 475 C 328.75 477.06968134185064 327.06968134185064 478.75 325 478.75 C 322.93031865814936 478.75 321.25 477.06968134185064 321.25 475 L 321.25 471.25 M 346.25 446.25 L 346.25 475 C 346.25 486.7281942704871 336.7281942704871 496.25 325 496.25 C 313.2718057295129 496.25 303.75 486.7281942704871 303.75 475 L 303.75 471.25 M 321.25 428.75 L 353.75 428.75 M 321.25 446.25 L 353.75 446.25 M 296.25 428.75 L 303.75 428.75 M 296.25 446.25 L 303.75 446.25 M 253.75 446.25 L 253.75 453.75 M 271.25 446.25 L 271.25 453.75 M 246.25 453.75 L 246.25 450 C 246.25 447.93031865814936 247.93031865814933 446.25 250 446.25 L 278.75 446.25 M 178.75 446.25 L 178.75 453.75 M 196.25 446.25 L 196.25 453.75 M 121.25 428.75 L 153.75 428.75 M 121.25 446.25 L 153.75 446.25 M 78.75 453.75 L 78.75 450 C 78.75 438.2718057295129 88.2718057295129 428.75 100 428.75 L 103.75 428.75 M 96.25 453.75 L 96.25 450 C 96.25 447.93031865814936 97.93031865814933 446.25 100 446.25 L 103.75 446.25 M 453.75 421.25 L 453.75 428.75 M 471.25 421.25 L 471.25 428.75 M 421.25 403.75 L 475 403.75 C 486.7281942704871 403.75 496.25 413.2718057295129 496.25 425 C 496.25 436.7281942704871 486.7281942704871 446.25 475 446.25 L 450 446.25 C 438.2718057295129 446.25 428.75 436.7281942704871 428.75 425 L 428.75 421.25 M 421.25 421.25 L 475 421.25 C 477.06968134185064 421.25 478.75 422.93031865814936 478.75 425 C 478.75 427.06968134185064 477.06968134185064 428.75 475 428.75 L 450 428.75 C 447.93031865814936 428.75 446.25 427.06968134185064 446.25 425 L 446.25 421.25 M 353.75 421.25 L 353.75 453.75 M 371.25 421.25 L 371.25 453.75 M 346.25 428.75 L 346.25 425 C 346.25 422.93031865814936 347.93031865814936 421.25 350 421.25 L 375 421.25 C 377.06968134185064 421.25 378.75 422.93031865814936 378.75 425 C 378.75 427.06968134185064 377.06968134185064 428.75 375 428.75 L 371.25 428.75 M 303.75 453.75 L 303.75 412.5 C 303.75 407.67074353568177 307.67074353568177 403.75 312.5 403.75 C 317.32925646431823 403.75 321.25 407.67074353568177 321.25 412.5 L 321.25 453.75 M 253.75 421.25 L 253.75 428.75 M 271.25 421.25 L 271.25 428.75 M 228.75 421.25 L 228.75 453.75 M 246.25 421.25 L 246.25 425 C 246.25 427.06968134185064 247.93031865814933 428.75 250 428.75 L 278.75 428.75 M 203.75 421.25 L 203.75 425 C 203.75 427.06968134185064 202.06968134185067 428.75 200 428.75 L 171.25 428.75 M 221.25 421.25 L 221.25 487.5 C 221.25 492.32925646431823 217.3292564643182 496.25 212.5 496.25 C 207.6707435356818 496.25 203.75 492.32925646431823 203.75 487.5 L 203.75 450 C 203.75 447.93031865814936 202.06968134185067 446.25 200 446.25 L 171.25 446.25 M 178.75 428.75 L 178.75 425 C 178.75 413.2718057295129 188.2718057295129 403.75 200 403.75 L 275 403.75 C 286.7281942704871 403.75 296.25 413.2718057295129 296.25 425 L 296.25 450 C 296.25 452.06968134185064 297.93031865814936 453.75 300 453.75 L 328.75 453.75 M 196.25 428.75 L 196.25 425 C 196.25 422.93031865814936 197.93031865814933 421.25 200 421.25 L 275 421.25 C 277.06968134185064 421.25 278.75 422.93031865814936 278.75 425 L 278.75 450 C 278.75 452.06968134185064 277.06968134185064 453.75 275 453.75 L 221.25 453.75 M 203.75 471.25 L 175 471.25 C 163.2718057295129 471.25 153.75 461.7281942704871 153.75 450 L 153.75 412.5 C 153.75 407.67074353568177 157.6707435356818 403.75 162.5 403.75 C 167.3292564643182 403.75 171.25 407.67074353568177 171.25 412.5 L 171.25 450 C 171.25 452.06968134185064 172.93031865814933 453.75 175 453.75 L 203.75 453.75 M 121.25 421.25 L 137.5 421.25 C 142.3292564643182 421.25 146.25 417.32925646431823 146.25 412.5 C 146.25 407.67074353568177 142.3292564643182 403.75 137.5 403.75 L 121.25 403.75 M 53.75 421.25 L 53.75 475 C 53.75 477.06968134185064 52.06968134185067 478.75 50 478.75 L 37.5 478.75 C 32.67074353568178 478.75 28.75 482.67074353568177 28.75 487.5 C 28.75 492.32925646431823 32.67074353568178 496.25 37.5 496.25 L 75 496.25 C 86.7281942704871 496.25 96.25 486.7281942704871 96.25 475 L 96.25 471.25 M 71.25 421.25 L 71.25 475 C 71.25 477.06968134185064 72.93031865814933 478.75 75 478.75 C 77.06968134185067 478.75 78.75 477.06968134185064 78.75 475 L 78.75 471.25 M 46.25 421.25 L 46.25 425 C 46.25 436.7281942704871 36.7281942704871 446.25 25 446.25 L 12.5 446.25 C 7.670743535681782 446.25 3.75 442.32925646431823 3.7500000000000004 437.5 C 3.75 432.67074353568177 7.670743535681782 428.75 12.5 428.75 L 25 428.75 C 27.069681341850664 428.75 28.75 427.06968134185064 28.75 425 L 28.75 421.25 M 471.25 396.25 L 487.5 396.25 C 492.32925646431823 396.25 496.25 392.32925646431823 496.25 387.5 C 496.25 382.67074353568177 492.32925646431823 378.75 487.5 378.75 L 471.25 378.75 M 446.25 403.75 L 446.25 400 C 446.25 397.93031865814936 447.93031865814936 396.25 450 396.25 L 453.75 396.25 M 403.75 421.25 L 400 421.25 C 397.93031865814936 421.25 396.25 422.93031865814936 396.25 425 C 396.25 427.06968134185064 397.93031865814936 428.75 400 428.75 C 402.06968134185064 428.75 403.75 427.06968134185064 403.75 425 L 403.75 387.5 C 403.75 382.67074353568177 407.67074353568177 378.75 412.5 378.75 C 417.32925646431823 378.75 421.25 382.67074353568177 421.25 387.5 L 421.25 425 C 421.25 436.7281942704871 411.7281942704871 446.25 400 446.25 L 371.25 446.25 M 353.75 396.25 L 353.75 403.75 M 371.25 396.25 L 371.25 403.75 M 328.75 396.25 L 328.75 428.75 M 253.75 396.25 L 253.75 403.75 M 271.25 396.25 L 271.25 403.75 M 221.25 403.75 L 221.25 400 C 221.25 397.93031865814936 222.93031865814933 396.25 225 396.25 L 228.75 396.25 M 96.25 396.25 L 96.25 400 C 96.25 402.06968134185064 97.93031865814933 403.75 100 403.75 L 103.75 403.75 M 71.25 403.75 L 71.25 400 C 71.25 397.93031865814936 72.93031865814933 396.25 75 396.25 L 100 396.25 C 102.06968134185067 396.25 103.75 397.93031865814936 103.75 400 L 103.75 475 C 103.75 486.7281942704871 113.2718057295129 496.25 125 496.25 C 136.7281942704871 496.25 146.25 486.7281942704871 146.25 475 C 146.25 463.2718057295129 136.7281942704871 453.75 125 453.75 L 121.25 453.75 M 103.75 421.25 L 25 421.25 C 13.2718057295129 421.25 3.75 411.7281942704871 3.7500000000000004 400 C 3.75 388.2718057295129 13.2718057295129 378.75 25 378.75 C 36.7281942704871 378.75 46.25 388.2718057295129 46.25 400 L 46.25 403.75 M 78.75 396.25 L 78.75 400 C 78.75 402.06968134185064 77.06968134185067 403.75 75 403.75 L 25 403.75 C 22.930318658149336 403.75 21.25 402.06968134185064 21.25 400 C 21.25 397.93031865814936 22.930318658149336 396.25 25 396.25 C 27.069681341850664 396.25 28.75 397.93031865814936 28.75 400 L 28.75 403.75 M 471.25 371.25 L 487.5 371.25 C 492.32925646431823 371.25 496.25 367.32925646431823 496.25 362.5 C 496.25 357.67074353568177 492.32925646431823 353.75 487.5 353.75 L 471.25 353.75 M 428.75 403.75 L 428.75 375 C 428.75 363.2718057295129 438.2718057295129 353.75 450 353.75 L 453.75 353.75 M 453.75 378.75 L 450 378.75 C 447.93031865814936 378.75 446.25 377.06968134185064 446.25 375 C 446.25 372.93031865814936 447.93031865814936 371.25 450 371.25 L 453.75 371.25 M 328.75 371.25 L 328.75 378.75 M 346.25 371.25 L 346.25 378.75 M 321.25 353.75 L 350 353.75 C 361.7281942704871 353.75 371.25 363.2718057295129 371.25 375 L 371.25 378.75 M 321.25 371.25 L 350 371.25 C 352.06968134185064 371.25 353.75 372.93031865814936 353.75 375 L 353.75 378.75 M 296.25 353.75 L 303.75 353.75 M 296.25 371.25 L 303.75 371.25 M 253.75 371.25 L 253.75 378.75 M 271.25 371.25 L 271.25 378.75 M 246.25 353.75 L 278.75 353.75 M 246.25 371.25 L 278.75 371.25 M 203.75 371.25 L 203.75 403.75 M 221.25 371.25 L 221.25 375 C 221.25 377.06968134185064 222.93031865814933 378.75 225 378.75 L 228.75 378.75 M 196.25 353.75 L 228.75 353.75 M 196.25 371.25 L 228.75 371.25 M 171.25 353.75 L 178.75 353.75 M 171.25 371.25 L 178.75 371.25 M 146.25 371.25 L 146.25 387.5 C 146.25 392.32925646431823 142.3292564643182 396.25 137.5 396.25 C 132.6707435356818 396.25 128.75 392.32925646431823 128.75 387.5 L 128.75 371.25 M 53.75 371.25 L 53.75 403.75 M 71.25 371.25 L 71.25 375 C 71.25 377.06968134185064 72.93031865814933 378.75 75 378.75 L 100 378.75 C 111.7281942704871 378.75 121.25 388.2718057295129 121.25 400 L 121.25 475 C 121.25 477.06968134185064 122.93031865814933 478.75 125 478.75 C 127.06968134185067 478.75 128.75 477.06968134185064 128.75 475 C 128.75 472.93031865814936 127.06968134185067 471.25 125 471.25 L 121.25 471.25 M 421.25 346.25 L 453.75 346.25 M 396.25 346.25 L 396.25 362.5 C 396.25 367.32925646431823 392.32925646431823 371.25 387.5 371.25 C 382.67074353568177 371.25 378.75 367.32925646431823 378.75 362.5 L 378.75 346.25 M 328.75 353.75 L 328.75 337.5 C 328.75 332.67074353568177 332.67074353568177 328.75 337.5 328.75 C 342.32925646431823 328.75 346.25 332.67074353568177 346.25 337.5 L 346.25 353.75 M 278.75 346.25 L 278.75 375 C 278.75 377.06968134185064 277.06968134185064 378.75 275 378.75 L 246.25 378.75 M 296.25 346.25 L 296.25 375 C 296.25 386.7281942704871 286.7281942704871 396.25 275 396.25 L 246.25 396.25 M 271.25 353.75 L 271.25 350 C 271.25 347.93031865814936 272.93031865814936 346.25 275 346.25 L 300 346.25 C 302.06968134185064 346.25 303.75 347.93031865814936 303.75 350 L 303.75 375 C 303.75 386.7281942704871 313.2718057295129 396.25 325 396.25 L 375 396.25 C 377.06968134185064 396.25 378.75 397.93031865814936 378.75 400 C 378.75 402.06968134185064 377.06968134185064 403.75 375 403.75 L 350 403.75 C 347.93031865814936 403.75 346.25 402.06968134185064 346.25 400 L 346.25 396.25 M 246.25 328.75 L 300 328.75 C 311.7281942704871 328.75 321.25 338.2718057295129 321.25 350 L 321.25 375 C 321.25 377.06968134185064 322.93031865814936 378.75 325 378.75 L 375 378.75 C 386.7281942704871 378.75 396.25 388.2718057295129 396.25 400 C 396.25 402.06968134185064 397.93031865814936 403.75 400 403.75 L 403.75 403.75 M 246.25 346.25 L 250 346.25 C 252.06968134185067 346.25 253.75 347.93031865814936 253.75 350 L 253.75 353.75 M 221.25 353.75 L 221.25 350 C 221.25 347.93031865814936 222.93031865814933 346.25 225 346.25 L 228.75 346.25 M 196.25 346.25 L 196.25 387.5 C 196.25 392.32925646431823 192.3292564643182 396.25 187.5 396.25 C 182.6707435356818 396.25 178.75 392.32925646431823 178.75 387.5 L 178.75 346.25 M 171.25 328.75 L 228.75 328.75 M 171.25 346.25 L 200 346.25 C 202.06968134185067 346.25 203.75 347.93031865814936 203.75 350 L 203.75 353.75 M 146.25 353.75 L 146.25 350 C 146.25 347.93031865814936 147.93031865814933 346.25 150 346.25 L 153.75 346.25 M 96.25 328.75 L 100 328.75 C 111.7281942704871 328.75 121.25 338.2718057295129 121.25 350 C 121.25 352.06968134185064 122.93031865814933 353.75 125 353.75 L 153.75 353.75 M 96.25 346.25 L 100 346.25 C 102.06968134185067 346.25 103.75 347.93031865814936 103.75 350 C 103.75 361.7281942704871 113.2718057295129 371.25 125 371.25 L 153.75 371.25 M 71.25 353.75 L 71.25 350 C 71.25 347.93031865814936 72.93031865814933 346.25 75 346.25 L 78.75 346.25 M 78.75 328.75 L 12.5 328.75 C 7.670743535681782 328.75 3.75 332.67074353568177 3.7500000000000004 337.5 C 3.75 342.32925646431823 7.670743535681782 346.25 12.5 346.25 L 25 346.25 C 27.069681341850664 346.25 28.75 347.93031865814936 28.75 350 C 28.75 352.06968134185064 27.069681341850664 353.75 25 353.75 L 12.5 353.75 C 7.670743535681782 353.75 3.75 357.67074353568177 3.7500000000000004 362.5 C 3.75 367.32925646431823 7.670743535681782 371.25 12.5 371.25 L 75 371.25 C 77.06968134185067 371.25 78.75 372.93031865814936 78.75 375 L 78.75 378.75 M 471.25 403.75 L 471.25 325 C 471.25 322.93031865814936 472.93031865814936 321.25 475 321.25 C 477.06968134185064 321.25 478.75 322.93031865814936 478.75 325 C 478.75 327.06968134185064 477.06968134185064 328.75 475 328.75 L 471.25 328.75 M 446.25 321.25 L 450 321.25 C 452.06968134185064 321.25 453.75 322.93031865814936 453.75 325 L 453.75 403.75 M 428.75 303.75 L 425 303.75 C 413.2718057295129 303.75 403.75 313.2718057295129 403.75 325 L 403.75 362.5 C 403.75 367.32925646431823 407.67074353568177 371.25 412.5 371.25 C 417.32925646431823 371.25 421.25 367.32925646431823 421.25 362.5 L 421.25 325 C 421.25 322.93031865814936 422.93031865814936 321.25 425 321.25 L 428.75 321.25 M 371.25 303.75 L 375 303.75 C 386.7281942704871 303.75 396.25 313.2718057295129 396.25 325 L 396.25 328.75 M 371.25 321.25 L 375 321.25 C 377.06968134185064 321.25 378.75 322.93031865814936 378.75 325 L 378.75 328.75 M 228.75 321.25 L 228.75 403.75 M 246.25 321.25 L 246.25 403.75 M 178.75 321.25 L 178.75 328.75 M 196.25 321.25 L 196.25 328.75 M 453.75 328.75 L 450 328.75 C 447.93031865814936 328.75 446.25 327.06968134185064 446.25 325 L 446.25 300 C 446.25 297.93031865814936 447.93031865814936 296.25 450 296.25 L 453.75 296.25 M 346.25 278.75 L 353.75 278.75 M 346.25 296.25 L 353.75 296.25 M 321.25 278.75 L 328.75 278.75 M 321.25 296.25 L 328.75 296.25 M 278.75 296.25 L 278.75 328.75 M 296.25 296.25 L 296.25 328.75 M 303.75 278.75 L 262.5 278.75 C 257.67074353568177 278.75 253.75 282.67074353568177 253.75 287.5 C 253.75 292.32925646431823 257.67074353568177 296.25 262.5 296.25 L 303.75 296.25 M 221.25 278.75 L 225 278.75 C 236.7281942704871 278.75 246.25 288.2718057295129 246.25 300 L 246.25 303.75 M 221.25 296.25 L 225 296.25 C 227.06968134185067 296.25 228.75 297.93031865814936 228.75 300 L 228.75 303.75 M 178.75 296.25 L 178.75 303.75 M 196.25 296.25 L 196.25 303.75 M 121.25 296.25 L 121.25 312.5 C 121.25 317.32925646431823 117.32925646431822 321.25 112.5 321.25 C 107.67074353568178 321.25 103.75 317.32925646431823 103.75 312.5 L 103.75 296.25 M 28.75 296.25 L 28.75 300 C 28.75 302.06968134185064 27.069681341850664 303.75 25 303.75 L 12.5 303.75 C 7.670743535681782 303.75 3.75 307.67074353568177 3.7500000000000004 312.5 C 3.75 317.32925646431823 7.670743535681782 321.25 12.5 321.25 L 50 321.25 C 61.7281942704871 321.25 71.25 311.7281942704871 71.25 300 C 71.25 297.93031865814936 72.93031865814933 296.25 75 296.25 L 78.75 296.25 M 471.25 253.75 L 475 253.75 C 486.7281942704871 253.75 496.25 263.2718057295129 496.25 275 C 496.25 286.7281942704871 486.7281942704871 296.25 475 296.25 L 471.25 296.25 M 471.25 271.25 L 475 271.25 C 477.06968134185064 271.25 478.75 272.93031865814936 478.75 275 C 478.75 277.06968134185064 477.06968134185064 278.75 475 278.75 L 471.25 278.75 M 428.75 271.25 L 428.75 325 C 428.75 327.06968134185064 427.06968134185064 328.75 425 328.75 L 421.25 328.75 M 446.25 271.25 L 446.25 275 C 446.25 277.06968134185064 447.93031865814936 278.75 450 278.75 L 453.75 278.75 M 421.25 253.75 L 453.75 253.75 M 421.25 271.25 L 453.75 271.25 M 378.75 271.25 L 378.75 275 C 378.75 277.06968134185064 377.06968134185064 278.75 375 278.75 L 371.25 278.75 M 371.25 253.75 L 403.75 253.75 M 371.25 271.25 L 403.75 271.25 M 353.75 303.75 L 350 303.75 C 347.93031865814936 303.75 346.25 302.06968134185064 346.25 300 L 346.25 275 C 346.25 272.93031865814936 347.93031865814936 271.25 350 271.25 L 353.75 271.25 M 321.25 271.25 L 321.25 312.5 C 321.25 317.32925646431823 317.32925646431823 321.25 312.5 321.25 C 307.67074353568177 321.25 303.75 317.32925646431823 303.75 312.5 L 303.75 271.25 M 278.75 271.25 L 278.75 278.75 M 296.25 271.25 L 296.25 278.75 M 221.25 271.25 L 237.5 271.25 C 242.3292564643182 271.25 246.25 267.32925646431823 246.25 262.5 C 246.25 257.67074353568177 242.3292564643182 253.75 237.5 253.75 L 221.25 253.75 M 196.25 253.75 L 203.75 253.75 M 196.25 271.25 L 203.75 271.25 M 153.75 271.25 L 153.75 275 C 153.75 286.7281942704871 163.2718057295129 296.25 175 296.25 L 203.75 296.25 M 171.25 271.25 L 171.25 275 C 171.25 277.06968134185064 172.93031865814933 278.75 175 278.75 L 203.75 278.75 M 128.75 271.25 L 128.75 275 C 128.75 277.06968134185064 127.06968134185067 278.75 125 278.75 L 96.25 278.75 M 146.25 271.25 L 146.25 275 C 146.25 286.7281942704871 136.7281942704871 296.25 125 296.25 L 96.25 296.25 M 121.25 278.75 L 121.25 275 C 121.25 272.93031865814936 122.93031865814933 271.25 125 271.25 L 178.75 271.25 M 96.25 378.75 L 96.25 275 C 96.25 272.93031865814936 97.93031865814933 271.25 100 271.25 C 102.06968134185067 271.25 103.75 272.93031865814936 103.75 275 L 103.75 278.75 M 28.75 271.25 L 28.75 278.75 M 46.25 271.25 L 46.25 278.75 M 78.75 278.75 L 25 278.75 C 22.930318658149336 278.75 21.25 277.06968134185064 21.25 275 C 21.25 272.93031865814936 22.930318658149336 271.25 25 271.25 L 62.5 271.25 C 67.32925646431822 271.25 71.25 267.32925646431823 71.25 262.5 C 71.25 257.67074353568177 67.32925646431822 253.75 62.5 253.75 L 25 253.75 C 13.2718057295129 253.75 3.75 263.2718057295129 3.7500000000000004 275 C 3.75 286.7281942704871 13.2718057295129 296.25 25 296.25 L 50 296.25 C 52.06968134185067 296.25 53.75 297.93031865814936 53.75 300 C 53.75 302.06968134185064 52.06968134185067 303.75 50 303.75 C 47.93031865814933 303.75 46.25 302.06968134185064 46.25 300 L 46.25 296.25 M 446.25 228.75 L 453.75 228.75 M 446.25 246.25 L 453.75 246.25 M 403.75 246.25 L 403.75 275 C 403.75 277.06968134185064 402.06968134185064 278.75 400 278.75 C 397.93031865814936 278.75 396.25 277.06968134185064 396.25 275 L 396.25 271.25 M 421.25 246.25 L 421.25 275 C 421.25 286.7281942704871 411.7281942704871 296.25 400 296.25 L 371.25 296.25 M 396.25 253.75 L 396.25 250 C 396.25 247.93031865814933 397.93031865814936 246.25 400 246.25 L 428.75 246.25 M 353.75 246.25 L 353.75 325 C 353.75 336.7281942704871 363.2718057295129 346.25 375 346.25 L 403.75 346.25 M 371.25 246.25 L 371.25 325 C 371.25 327.06968134185064 372.93031865814936 328.75 375 328.75 L 403.75 328.75 M 428.75 228.75 L 337.5 228.75 C 332.67074353568177 228.75 328.75 232.6707435356818 328.75 237.5 C 328.75 242.3292564643182 332.67074353568177 246.25 337.5 246.25 L 375 246.25 C 377.06968134185064 246.25 378.75 247.93031865814933 378.75 250 L 378.75 253.75 M 278.75 246.25 L 278.75 253.75 M 296.25 246.25 L 296.25 253.75 M 253.75 246.25 L 253.75 250 C 253.75 261.7281942704871 263.2718057295129 271.25 275 271.25 L 325 271.25 C 327.06968134185064 271.25 328.75 272.93031865814936 328.75 275 L 328.75 300 C 328.75 311.7281942704871 338.2718057295129 321.25 350 321.25 L 353.75 321.25 M 271.25 246.25 L 271.25 250 C 271.25 252.06968134185067 272.93031865814936 253.75 275 253.75 L 353.75 253.75 M 128.75 353.75 L 128.75 325 C 128.75 313.2718057295129 138.2718057295129 303.75 150 303.75 L 200 303.75 C 202.06968134185067 303.75 203.75 302.06968134185064 203.75 300 L 203.75 237.5 C 203.75 232.6707435356818 207.6707435356818 228.75 212.5 228.75 C 217.3292564643182 228.75 221.25 232.6707435356818 221.25 237.5 L 221.25 300 C 221.25 302.06968134185064 222.93031865814933 303.75 225 303.75 L 262.5 303.75 C 267.32925646431823 303.75 271.25 307.67074353568177 271.25 312.5 C 271.25 317.32925646431823 267.32925646431823 321.25 262.5 321.25 L 175 321.25 C 172.93031865814933 321.25 171.25 322.93031865814936 171.25 325 L 171.25 387.5 C 171.25 392.32925646431823 167.3292564643182 396.25 162.5 396.25 C 157.6707435356818 396.25 153.75 392.32925646431823 153.75 387.5 L 153.75 325 C 153.75 322.93031865814936 152.06968134185067 321.25 150 321.25 C 147.93031865814933 321.25 146.25 322.93031865814936 146.25 325 C 146.25 327.06968134185064 147.93031865814933 328.75 150 328.75 L 153.75 328.75 M 153.75 246.25 L 153.75 253.75 M 171.25 246.25 L 171.25 253.75 M 128.75 246.25 L 128.75 253.75 M 146.25 246.25 L 146.25 253.75 M 103.75 246.25 L 103.75 250 C 103.75 252.06968134185067 102.06968134185067 253.75 100 253.75 C 88.2718057295129 253.75 78.75 263.2718057295129 78.75 275 L 78.75 350 C 78.75 352.06968134185064 77.06968134185067 353.75 75 353.75 L 50 353.75 C 47.93031865814933 353.75 46.25 352.06968134185064 46.25 350 C 46.25 347.93031865814936 47.93031865814933 346.25 50 346.25 C 52.06968134185067 346.25 53.75 347.93031865814936 53.75 350 L 53.75 353.75 M 121.25 246.25 L 121.25 250 C 121.25 252.06968134185067 122.93031865814933 253.75 125 253.75 L 178.75 253.75 M 28.75 246.25 L 28.75 253.75 M 46.25 246.25 L 46.25 253.75 M 453.75 221.25 L 453.75 300 C 453.75 302.06968134185064 452.06968134185064 303.75 450 303.75 L 446.25 303.75 M 471.25 221.25 L 471.25 300 C 471.25 302.06968134185064 472.93031865814936 303.75 475 303.75 C 486.7281942704871 303.75 496.25 313.2718057295129 496.25 325 C 496.25 336.7281942704871 486.7281942704871 346.25 475 346.25 L 471.25 346.25 M 446.25 203.75 L 475 203.75 C 486.7281942704871 203.75 496.25 213.2718057295129 496.25 225 C 496.25 236.7281942704871 486.7281942704871 246.25 475 246.25 L 471.25 246.25 M 446.25 221.25 L 475 221.25 C 477.06968134185064 221.25 478.75 222.93031865814933 478.75 225 C 478.75 227.06968134185067 477.06968134185064 228.75 475 228.75 L 471.25 228.75 M 421.25 203.75 L 428.75 203.75 M 421.25 221.25 L 428.75 221.25 M 371.25 228.75 L 371.25 225 C 371.25 222.93031865814933 372.93031865814936 221.25 375 221.25 L 403.75 221.25 M 278.75 221.25 L 278.75 228.75 M 296.25 221.25 L 296.25 228.75 M 228.75 221.25 L 228.75 225 C 228.75 236.7281942704871 238.2718057295129 246.25 250 246.25 L 300 246.25 C 302.06968134185064 246.25 303.75 247.93031865814933 303.75 250 L 303.75 253.75 M 246.25 221.25 L 246.25 225 C 246.25 227.06968134185067 247.93031865814933 228.75 250 228.75 L 300 228.75 C 311.7281942704871 228.75 321.25 238.2718057295129 321.25 250 L 321.25 253.75 M 153.75 228.75 L 153.75 225 C 153.75 213.2718057295129 163.2718057295129 203.75 175 203.75 C 186.7281942704871 203.75 196.25 213.2718057295129 196.25 225 L 196.25 278.75 M 171.25 228.75 L 171.25 225 C 171.25 222.93031865814933 172.93031865814933 221.25 175 221.25 C 177.06968134185067 221.25 178.75 222.93031865814933 178.75 225 C 178.75 227.06968134185067 177.06968134185067 228.75 175 228.75 L 87.5 228.75 C 82.67074353568178 228.75 78.75 232.6707435356818 78.75 237.5 C 78.75 242.3292564643182 82.67074353568178 246.25 87.5 246.25 L 175 246.25 C 177.06968134185067 246.25 178.75 247.93031865814933 178.75 250 L 178.75 278.75 M 121.25 203.75 L 125 203.75 C 136.7281942704871 203.75 146.25 213.2718057295129 146.25 225 L 146.25 228.75 M 121.25 221.25 L 125 221.25 C 127.06968134185067 221.25 128.75 222.93031865814933 128.75 225 L 128.75 228.75 M 46.25 221.25 L 103.75 221.25 M 28.75 203.75 L 25 203.75 C 13.2718057295129 203.75 3.75 213.2718057295129 3.7500000000000004 225 C 3.75 236.7281942704871 13.2718057295129 246.25 25 246.25 L 62.5 246.25 C 67.32925646431822 246.25 71.25 242.3292564643182 71.25 237.5 C 71.25 232.6707435356818 67.32925646431822 228.75 62.5 228.75 L 25 228.75 C 22.930318658149336 228.75 21.25 227.06968134185067 21.25 225 C 21.25 222.93031865814933 22.930318658149336 221.25 25 221.25 L 28.75 221.25 M 471.25 196.25 L 487.5 196.25 C 492.32925646431823 196.25 496.25 192.3292564643182 496.25 187.5 C 496.25 182.6707435356818 492.32925646431823 178.75 487.5 178.75 L 471.25 178.75 M 428.75 253.75 L 428.75 200 C 428.75 188.2718057295129 438.2718057295129 178.75 450 178.75 L 453.75 178.75 M 446.25 253.75 L 446.25 200 C 446.25 197.93031865814933 447.93031865814936 196.25 450 196.25 L 453.75 196.25 M 403.75 228.75 L 403.75 187.5 C 403.75 182.6707435356818 407.67074353568177 178.75 412.5 178.75 C 417.32925646431823 178.75 421.25 182.6707435356818 421.25 187.5 L 421.25 228.75 M 371.25 178.75 L 375 178.75 C 386.7281942704871 178.75 396.25 188.2718057295129 396.25 200 C 396.25 202.06968134185067 397.93031865814936 203.75 400 203.75 L 403.75 203.75 M 346.25 196.25 L 346.25 212.5 C 346.25 217.3292564643182 342.32925646431823 221.25 337.5 221.25 C 332.67074353568177 221.25 328.75 217.3292564643182 328.75 212.5 L 328.75 196.25 M 296.25 196.25 L 353.75 196.25 M 203.75 196.25 L 203.75 200 C 203.75 211.7281942704871 213.2718057295129 221.25 225 221.25 L 250 221.25 C 252.06968134185067 221.25 253.75 222.93031865814933 253.75 225 L 253.75 228.75 M 221.25 196.25 L 221.25 200 C 221.25 202.06968134185067 222.93031865814933 203.75 225 203.75 L 312.5 203.75 C 317.32925646431823 203.75 321.25 207.6707435356818 321.25 212.5 C 321.25 217.3292564643182 317.32925646431823 221.25 312.5 221.25 L 275 221.25 C 272.93031865814936 221.25 271.25 222.93031865814933 271.25 225 L 271.25 228.75 M 121.25 196.25 L 137.5 196.25 C 142.3292564643182 196.25 146.25 192.3292564643182 146.25 187.5 C 146.25 182.6707435356818 142.3292564643182 178.75 137.5 178.75 L 121.25 178.75 M 71.25 196.25 L 103.75 196.25 M 46.25 178.75 L 53.75 178.75 M 46.25 196.25 L 53.75 196.25 M 453.75 153.75 L 437.5 153.75 C 432.67074353568177 153.75 428.75 157.6707435356818 428.75 162.5 C 428.75 167.3292564643182 432.67074353568177 171.25 437.5 171.25 L 453.75 171.25 M 371.25 196.25 L 375 196.25 C 377.06968134185064 196.25 378.75 197.93031865814933 378.75 200 C 378.75 202.06968134185067 377.06968134185064 203.75 375 203.75 C 372.93031865814936 203.75 371.25 202.06968134185067 371.25 200 L 371.25 175 C 371.25 172.93031865814933 372.93031865814936 171.25 375 171.25 L 387.5 171.25 C 392.32925646431823 171.25 396.25 167.3292564643182 396.25 162.5 C 396.25 157.6707435356818 392.32925646431823 153.75 387.5 153.75 L 375 153.75 C 363.2718057295129 153.75 353.75 163.2718057295129 353.75 175 L 353.75 228.75 M 353.75 178.75 L 325 178.75 C 322.93031865814936 178.75 321.25 177.06968134185067 321.25 175 C 321.25 172.93031865814933 322.93031865814936 171.25 325 171.25 C 327.06968134185064 171.25 328.75 172.93031865814933 328.75 175 L 328.75 178.75 M 296.25 153.75 L 325 153.75 C 336.7281942704871 153.75 346.25 163.2718057295129 346.25 175 L 346.25 178.75 M 296.25 171.25 L 300 171.25 C 302.06968134185064 171.25 303.75 172.93031865814933 303.75 175 C 303.75 177.06968134185067 302.06968134185064 178.75 300 178.75 L 296.25 178.75 M 271.25 153.75 L 278.75 153.75 M 271.25 171.25 L 278.75 171.25 M 253.75 153.75 L 237.5 153.75 C 232.6707435356818 153.75 228.75 157.6707435356818 228.75 162.5 C 228.75 167.3292564643182 232.6707435356818 171.25 237.5 171.25 L 253.75 171.25 M 246.25 203.75 L 246.25 200 C 246.25 188.2718057295129 236.7281942704871 178.75 225 178.75 L 200 178.75 C 197.93031865814933 178.75 196.25 177.06968134185067 196.25 175 C 196.25 172.93031865814933 197.93031865814933 171.25 200 171.25 C 202.06968134185067 171.25 203.75 172.93031865814933 203.75 175 L 203.75 178.75 M 171.25 171.25 L 171.25 187.5 C 171.25 192.3292564643182 167.3292564643182 196.25 162.5 196.25 C 157.6707435356818 196.25 153.75 192.3292564643182 153.75 187.5 L 153.75 171.25 M 103.75 178.75 L 100 178.75 C 97.93031865814933 178.75 96.25 177.06968134185067 96.25 175 C 96.25 172.93031865814933 97.93031865814933 171.25 100 171.25 C 102.06968134185067 171.25 103.75 172.93031865814933 103.75 175 L 103.75 228.75 M 71.25 171.25 L 75 171.25 C 77.06968134185067 171.25 78.75 172.93031865814933 78.75 175 C 78.75 177.06968134185067 77.06968134185067 178.75 75 178.75 L 71.25 178.75 M 46.25 228.75 L 46.25 175 C 46.25 172.93031865814933 47.93031865814933 171.25 50 171.25 L 53.75 171.25 M 28.75 196.25 L 25 196.25 C 13.2718057295129 196.25 3.75 186.7281942704871 3.7500000000000004 175 L 3.7500000000000004 162.5 C 3.75 157.6707435356818 7.670743535681782 153.75 12.5 153.75 C 17.329256464318217 153.75 21.25 157.6707435356818 21.25 162.5 L 21.25 175 C 21.25 177.06968134185067 22.930318658149336 178.75 25 178.75 L 28.75 178.75 M 453.75 203.75 L 453.75 150 C 453.75 138.2718057295129 463.2718057295129 128.75 475 128.75 C 486.7281942704871 128.75 496.25 138.2718057295129 496.25 150 C 496.25 161.7281942704871 486.7281942704871 171.25 475 171.25 L 471.25 171.25 M 471.25 203.75 L 471.25 150 C 471.25 147.93031865814933 472.93031865814936 146.25 475 146.25 C 477.06968134185064 146.25 478.75 147.93031865814933 478.75 150 C 478.75 152.06968134185067 477.06968134185064 153.75 475 153.75 L 471.25 153.75 M 421.25 146.25 L 421.25 162.5 C 421.25 167.3292564643182 417.32925646431823 171.25 412.5 171.25 C 407.67074353568177 171.25 403.75 167.3292564643182 403.75 162.5 L 403.75 146.25 M 278.75 146.25 L 278.75 203.75 M 296.25 146.25 L 296.25 203.75 M 221.25 178.75 L 221.25 175 C 221.25 163.2718057295129 211.7281942704871 153.75 200 153.75 L 150 153.75 C 147.93031865814933 153.75 146.25 152.06968134185067 146.25 150 C 146.25 147.93031865814933 147.93031865814933 146.25 150 146.25 C 152.06968134185067 146.25 153.75 147.93031865814933 153.75 150 L 153.75 153.75 M 53.75 146.25 L 53.75 200 C 53.75 202.06968134185067 52.06968134185067 203.75 50 203.75 L 46.25 203.75 M 71.25 146.25 L 71.25 200 C 71.25 202.06968134185067 72.93031865814933 203.75 75 203.75 L 103.75 203.75 M 28.75 146.25 L 28.75 228.75 M 46.25 146.25 L 46.25 150 C 46.25 152.06968134185067 47.93031865814933 153.75 50 153.75 L 53.75 153.75 M 403.75 121.25 L 403.75 128.75 M 421.25 121.25 L 421.25 128.75 M 303.75 121.25 L 303.75 125 C 303.75 127.06968134185067 302.06968134185064 128.75 300 128.75 L 271.25 128.75 M 321.25 121.25 L 321.25 125 C 321.25 136.7281942704871 311.7281942704871 146.25 300 146.25 L 271.25 146.25 M 278.75 121.25 L 278.75 128.75 M 296.25 121.25 L 296.25 128.75 M 278.75 178.75 L 275 178.75 C 272.93031865814936 178.75 271.25 177.06968134185067 271.25 175 L 271.25 125 C 271.25 122.93031865814933 272.93031865814936 121.25 275 121.25 L 325 121.25 C 327.06968134185064 121.25 328.75 122.93031865814933 328.75 125 C 328.75 136.7281942704871 338.2718057295129 146.25 350 146.25 C 361.7281942704871 146.25 371.25 136.7281942704871 371.25 125 L 371.25 121.25 M 228.75 121.25 L 228.75 125 C 228.75 136.7281942704871 238.2718057295129 146.25 250 146.25 L 253.75 146.25 M 246.25 121.25 L 246.25 125 C 246.25 127.06968134185067 247.93031865814933 128.75 250 128.75 L 253.75 128.75 M 221.25 121.25 L 250 121.25 C 252.06968134185067 121.25 253.75 122.93031865814933 253.75 125 L 253.75 175 C 253.75 186.7281942704871 263.2718057295129 196.25 275 196.25 L 278.75 196.25 M 196.25 103.75 L 203.75 103.75 M 196.25 121.25 L 203.75 121.25 M 153.75 121.25 L 153.75 125 C 153.75 127.06968134185067 152.06968134185067 128.75 150 128.75 C 138.2718057295129 128.75 128.75 138.2718057295129 128.75 150 C 128.75 161.7281942704871 138.2718057295129 171.25 150 171.25 L 175 171.25 C 177.06968134185067 171.25 178.75 172.93031865814933 178.75 175 C 178.75 186.7281942704871 188.2718057295129 196.25 200 196.25 L 225 196.25 C 227.06968134185067 196.25 228.75 197.93031865814933 228.75 200 L 228.75 203.75 M 171.25 121.25 L 171.25 153.75 M 121.25 121.25 L 121.25 137.5 C 121.25 142.3292564643182 117.32925646431822 146.25 112.5 146.25 C 107.67074353568178 146.25 103.75 142.3292564643182 103.75 137.5 L 103.75 121.25 M 96.25 121.25 L 178.75 121.25 M 53.75 121.25 L 53.75 128.75 M 71.25 121.25 L 71.25 128.75 M 46.25 103.75 L 78.75 103.75 M 46.25 121.25 L 78.75 121.25 M 71.25 153.75 L 75 153.75 C 77.06968134185067 153.75 78.75 152.06968134185067 78.75 150 C 78.75 147.93031865814933 77.06968134185067 146.25 75 146.25 L 25 146.25 C 13.2718057295129 146.25 3.75 136.7281942704871 3.7500000000000004 125 C 3.75 113.2718057295129 13.2718057295129 103.75 25 103.75 L 28.75 103.75 M 446.25 78.75 L 453.75 78.75 M 446.25 96.25 L 453.75 96.25 M 403.75 96.25 L 403.75 103.75 M 421.25 96.25 L 421.25 103.75 M 378.75 96.25 L 378.75 100 C 378.75 102.06968134185067 377.06968134185064 103.75 375 103.75 L 221.25 103.75 M 371.25 103.75 L 371.25 100 C 371.25 97.93031865814933 372.93031865814936 96.25 375 96.25 L 428.75 96.25 M 296.25 103.75 L 296.25 100 C 296.25 97.93031865814933 297.93031865814936 96.25 300 96.25 C 302.06968134185064 96.25 303.75 97.93031865814933 303.75 100 L 303.75 103.75 M 228.75 78.75 L 225 78.75 C 213.2718057295129 78.75 203.75 88.2718057295129 203.75 100 L 203.75 137.5 C 203.75 142.3292564643182 207.6707435356818 146.25 212.5 146.25 C 217.3292564643182 146.25 221.25 142.3292564643182 221.25 137.5 L 221.25 100 C 221.25 97.93031865814933 222.93031865814933 96.25 225 96.25 L 228.75 96.25 M 96.25 103.75 L 125 103.75 C 127.06968134185067 103.75 128.75 102.06968134185067 128.75 100 C 128.75 88.2718057295129 138.2718057295129 78.75 150 78.75 L 153.75 78.75 M 178.75 103.75 L 150 103.75 C 147.93031865814933 103.75 146.25 102.06968134185067 146.25 100 C 146.25 97.93031865814933 147.93031865814933 96.25 150 96.25 L 153.75 96.25 M 78.75 96.25 L 78.75 125 C 78.75 127.06968134185067 77.06968134185067 128.75 75 128.75 L 25 128.75 C 22.930318658149336 128.75 21.25 127.06968134185067 21.25 125 C 21.25 122.93031865814933 22.930318658149336 121.25 25 121.25 L 28.75 121.25 M 96.25 96.25 L 96.25 150 C 96.25 152.06968134185067 97.93031865814933 153.75 100 153.75 C 111.7281942704871 153.75 121.25 163.2718057295129 121.25 175 L 121.25 228.75 M 71.25 103.75 L 71.25 100 C 71.25 97.93031865814933 72.93031865814933 96.25 75 96.25 L 100 96.25 C 102.06968134185067 96.25 103.75 97.93031865814933 103.75 100 L 103.75 103.75 M 28.75 96.25 L 28.75 128.75 M 46.25 96.25 L 46.25 128.75 M 121.25 103.75 L 121.25 100 C 121.25 88.2718057295129 111.7281942704871 78.75 100 78.75 L 12.5 78.75 C 7.670743535681782 78.75 3.75 82.67074353568178 3.7500000000000004 87.5 C 3.75 92.32925646431822 7.670743535681782 96.25 12.5 96.25 L 50 96.25 C 52.06968134185067 96.25 53.75 97.93031865814933 53.75 100 L 53.75 103.75 M 471.25 96.25 L 475 96.25 C 486.7281942704871 96.25 496.25 86.7281942704871 496.25 75 C 496.25 63.2718057295129 486.7281942704871 53.75 475 53.75 C 463.2718057295129 53.75 453.75 63.2718057295129 453.75 75 L 453.75 100 C 453.75 111.7281942704871 463.2718057295129 121.25 475 121.25 L 487.5 121.25 C 492.32925646431823 121.25 496.25 117.32925646431822 496.25 112.5 C 496.25 107.67074353568178 492.32925646431823 103.75 487.5 103.75 L 475 103.75 C 472.93031865814936 103.75 471.25 102.06968134185067 471.25 100 L 471.25 75 C 471.25 72.93031865814933 472.93031865814936 71.25 475 71.25 C 477.06968134185064 71.25 478.75 72.93031865814933 478.75 75 C 478.75 77.06968134185067 477.06968134185064 78.75 475 78.75 L 471.25 78.75 M 396.25 53.75 L 400 53.75 C 411.7281942704871 53.75 421.25 63.2718057295129 421.25 75 L 421.25 78.75 M 396.25 71.25 L 400 71.25 C 402.06968134185064 71.25 403.75 72.93031865814933 403.75 75 L 403.75 78.75 M 371.25 53.75 L 378.75 53.75 M 371.25 71.25 L 378.75 71.25 M 353.75 103.75 L 353.75 100 C 353.75 97.93031865814933 352.06968134185064 96.25 350 96.25 C 338.2718057295129 96.25 328.75 86.7281942704871 328.75 75 C 328.75 63.2718057295129 338.2718057295129 53.75 350 53.75 L 353.75 53.75 M 278.75 71.25 L 278.75 103.75 M 296.25 71.25 L 296.25 75 C 296.25 77.06968134185067 297.93031865814936 78.75 300 78.75 C 311.7281942704871 78.75 321.25 88.2718057295129 321.25 100 L 321.25 103.75 M 253.75 71.25 L 253.75 75 C 253.75 77.06968134185067 252.06968134185067 78.75 250 78.75 L 246.25 78.75 M 271.25 71.25 L 271.25 75 C 271.25 86.7281942704871 261.7281942704871 96.25 250 96.25 L 246.25 96.25 M 171.25 53.75 L 175 53.75 C 186.7281942704871 53.75 196.25 63.2718057295129 196.25 75 L 196.25 137.5 C 196.25 142.3292564643182 192.3292564643182 146.25 187.5 146.25 C 182.6707435356818 146.25 178.75 142.3292564643182 178.75 137.5 L 178.75 100 C 178.75 97.93031865814933 177.06968134185067 96.25 175 96.25 L 171.25 96.25 M 171.25 71.25 L 175 71.25 C 177.06968134185067 71.25 178.75 72.93031865814933 178.75 75 C 178.75 77.06968134185067 177.06968134185067 78.75 175 78.75 L 171.25 78.75 M 153.75 53.75 L 137.5 53.75 C 132.6707435356818 53.75 128.75 57.67074353568178 128.75 62.5 C 128.75 67.32925646431822 132.6707435356818 71.25 137.5 71.25 L 153.75 71.25 M 78.75 71.25 L 78.75 78.75 M 96.25 71.25 L 96.25 78.75 M 46.25 78.75 L 46.25 75 C 46.25 63.2718057295129 36.7281942704871 53.75 25 53.75 L 12.5 53.75 C 7.670743535681782 53.75 3.75 57.67074353568178 3.7500000000000004 62.5 C 3.75 67.32925646431822 7.670743535681782 71.25 12.5 71.25 L 25 71.25 C 27.069681341850664 71.25 28.75 72.93031865814933 28.75 75 L 28.75 78.75 M 296.25 28.75 L 303.75 28.75 M 296.25 46.25 L 303.75 46.25 M 271.25 28.75 L 278.75 28.75 M 271.25 46.25 L 278.75 46.25 M 246.25 28.75 L 253.75 28.75 M 246.25 46.25 L 253.75 46.25 M 221.25 28.75 L 228.75 28.75 M 221.25 46.25 L 228.75 46.25 M 153.75 46.25 L 153.75 103.75 M 171.25 46.25 L 171.25 103.75 M 78.75 46.25 L 78.75 53.75 M 96.25 46.25 L 96.25 53.75 M 71.25 46.25 L 71.25 50 C 71.25 52.06968134185067 72.93031865814933 53.75 75 53.75 L 112.5 53.75 C 117.32925646431822 53.75 121.25 57.67074353568178 121.25 62.5 C 121.25 67.32925646431822 117.32925646431822 71.25 112.5 71.25 L 75 71.25 C 63.2718057295129 71.25 53.75 61.7281942704871 53.75 50 L 53.75 46.25 M 396.25 96.25 L 396.25 100 C 396.25 102.06968134185067 397.93031865814936 103.75 400 103.75 L 425 103.75 C 427.06968134185064 103.75 428.75 102.06968134185067 428.75 100 L 428.75 25 C 428.75 13.2718057295129 438.2718057295129 3.75 450 3.7500000000000004 L 487.5 3.7500000000000004 C 492.32925646431823 3.75 496.25 7.670743535681782 496.25 12.5 C 496.25 17.329256464318217 492.32925646431823 21.25 487.5 21.25 L 475 21.25 C 472.93031865814936 21.25 471.25 22.930318658149336 471.25 25 C 471.25 27.069681341850664 472.93031865814936 28.75 475 28.75 L 487.5 28.75 C 492.32925646431823 28.75 496.25 32.67074353568178 496.25 37.5 C 496.25 42.32925646431822 492.32925646431823 46.25 487.5 46.25 L 446.25 46.25 M 353.75 121.25 L 353.75 125 C 353.75 127.06968134185067 352.06968134185064 128.75 350 128.75 C 347.93031865814936 128.75 346.25 127.06968134185067 346.25 125 C 346.25 122.93031865814933 347.93031865814936 121.25 350 121.25 L 425 121.25 C 427.06968134185064 121.25 428.75 122.93031865814933 428.75 125 C 428.75 127.06968134185067 427.06968134185064 128.75 425 128.75 L 387.5 128.75 C 382.67074353568177 128.75 378.75 132.6707435356818 378.75 137.5 C 378.75 142.3292564643182 382.67074353568177 146.25 387.5 146.25 L 425 146.25 C 436.7281942704871 146.25 446.25 136.7281942704871 446.25 125 L 446.25 25 C 446.25 22.930318658149336 447.93031865814936 21.25 450 21.25 C 452.06968134185064 21.25 453.75 22.930318658149336 453.75 25 C 453.75 27.069681341850664 452.06968134185064 28.75 450 28.75 L 446.25 28.75 M 428.75 46.25 L 425 46.25 C 413.2718057295129 46.25 403.75 36.7281942704871 403.75 25 L 403.75 12.5 C 403.75 7.670743535681782 407.67074353568177 3.75 412.5 3.7500000000000004 C 417.32925646431823 3.75 421.25 7.670743535681782 421.25 12.5 L 421.25 25 C 421.25 27.069681341850664 422.93031865814936 28.75 425 28.75 L 428.75 28.75 M 378.75 78.75 L 378.75 12.5 C 378.75 7.670743535681782 382.67074353568177 3.75 387.5 3.7500000000000004 C 392.32925646431823 3.75 396.25 7.670743535681782 396.25 12.5 L 396.25 78.75 M 353.75 71.25 L 350 71.25 C 347.93031865814936 71.25 346.25 72.93031865814933 346.25 75 C 346.25 77.06968134185067 347.93031865814936 78.75 350 78.75 C 352.06968134185064 78.75 353.75 77.06968134185067 353.75 75 L 353.75 12.5 C 353.75 7.670743535681782 357.67074353568177 3.75 362.5 3.7500000000000004 C 367.32925646431823 3.75 371.25 7.670743535681782 371.25 12.5 L 371.25 75 C 371.25 77.06968134185067 372.93031865814936 78.75 375 78.75 L 428.75 78.75 M 246.25 53.75 L 300 53.75 C 302.06968134185064 53.75 303.75 52.06968134185067 303.75 50 L 303.75 25 C 303.75 13.2718057295129 313.2718057295129 3.75 325 3.7500000000000004 C 336.7281942704871 3.75 346.25 13.2718057295129 346.25 25 C 346.25 36.7281942704871 336.7281942704871 46.25 325 46.25 L 321.25 46.25 M 246.25 71.25 L 300 71.25 C 311.7281942704871 71.25 321.25 61.7281942704871 321.25 50 L 321.25 25 C 321.25 22.930318658149336 322.93031865814936 21.25 325 21.25 C 327.06968134185064 21.25 328.75 22.930318658149336 328.75 25 C 328.75 27.069681341850664 327.06968134185064 28.75 325 28.75 L 321.25 28.75 M 278.75 53.75 L 278.75 12.5 C 278.75 7.670743535681782 282.67074353568177 3.75 287.5 3.7500000000000004 C 292.32925646431823 3.75 296.25 7.670743535681782 296.25 12.5 L 296.25 53.75 M 228.75 0 L 228.75 103.75 M 246.25 0 C 246.25 2.0696813418506648 247.93031865814933 3.7500000000000004 250 3.7500000000000004 C 261.7281942704871 3.75 271.25 13.2718057295129 271.25 25 L 271.25 53.75 M 246.25 103.75 L 246.25 25 C 246.25 22.930318658149336 247.93031865814933 21.25 250 21.25 C 252.06968134185067 21.25 253.75 22.930318658149336 253.75 25 L 253.75 53.75 M 203.75 0 L 203.75 50 C 203.75 61.7281942704871 213.2718057295129 71.25 225 71.25 L 228.75 71.25 M 221.25 0 L 221.25 50 C 221.25 52.06968134185067 222.93031865814933 53.75 225 53.75 L 228.75 53.75 M 203.75 46.25 L 150 46.25 C 138.2718057295129 46.25 128.75 36.7281942704871 128.75 25 C 128.75 13.2718057295129 138.2718057295129 3.75 150 3.7500000000000004 C 161.7281942704871 3.75 171.25 13.2718057295129 171.25 25 L 171.25 28.75 M 203.75 28.75 L 200 28.75 C 197.93031865814933 28.75 196.25 27.069681341850664 196.25 25 L 196.25 12.5 C 196.25 7.670743535681782 192.3292564643182 3.75 187.5 3.7500000000000004 C 182.6707435356818 3.75 178.75 7.670743535681782 178.75 12.5 L 178.75 25 C 178.75 27.069681341850664 177.06968134185067 28.75 175 28.75 L 150 28.75 C 147.93031865814933 28.75 146.25 27.069681341850664 146.25 25 C 146.25 22.930318658149336 147.93031865814933 21.25 150 21.25 C 152.06968134185067 21.25 153.75 22.930318658149336 153.75 25 L 153.75 28.75 M 71.25 28.75 L 71.25 25 C 71.25 22.930318658149336 72.93031865814933 21.25 75 21.25 C 77.06968134185067 21.25 78.75 22.930318658149336 78.75 25 L 78.75 28.75 M 96.25 28.75 L 96.25 25 C 96.25 22.930318658149336 97.93031865814933 21.25 100 21.25 L 112.5 21.25 C 117.32925646431822 21.25 121.25 17.329256464318217 121.25 12.5 C 121.25 7.670743535681782 117.32925646431822 3.75 112.5 3.7500000000000004 L 12.5 3.7500000000000004 C 7.670743535681782 3.75 3.75 7.670743535681782 3.7500000000000004 12.5 C 3.75 17.329256464318217 7.670743535681782 21.25 12.5 21.25 L 25 21.25 C 27.069681341850664 21.25 28.75 22.930318658149336 28.75 25 C 28.75 27.069681341850664 27.069681341850664 28.75 25 28.75 L 12.5 28.75 C 7.670743535681782 28.75 3.75 32.67074353568178 3.7500000000000004 37.5 C 3.75 42.32925646431822 7.670743535681782 46.25 12.5 46.25 L 112.5 46.25 C 117.32925646431822 46.25 121.25 42.32925646431822 121.25 37.5 C 121.25 32.67074353568178 117.32925646431822 28.75 112.5 28.75 L 50 28.75 C 47.93031865814933 28.75 46.25 27.069681341850664 46.25 25 C 46.25 22.930318658149336 47.93031865814933 21.25 50 21.25 C 52.06968134185067 21.25 53.75 22.930318658149336 53.75 25 L 53.75 28.75 "/>
</svg>
