<?xml version="1.0" encoding="UTF-8"?>
<svg xmlns="http://www.w3.org/2000/svg" xmlns:xlink="http://www.w3.org/1999/xlink" width="500" height="500" viewBox="0 0 500 500">
<rect x="-50" y="-50" width="600" height="600" fill="rgb(100%, 100%, 100%)" fill-opacity="1"/>
<path fill="none" stroke-width="3.75" stroke-linecap="round" stroke-linejoin="miter" stroke="rgb(100%, 0%, 0%)" stroke-opacity="1" stroke-miterlimit="10" d="M 146.25 462.5 L 175 462.5 C 181.89893780616887 462.5 187.5 468.1010621938311 187.5 475 C 187.5 481.8989378061689 181.89893780616887 487.5 175 487.5 C 168.10106219383113 487.5 162.5 481.8989378061689 162.5 475 L 162.5 471.25 M 121.25 462.5 L 128.75 462.5 M 262.5 446.25 L 262.5 453.75 M 212.5 446.25 L 212.5 475 C 212.5 481.8989378061689 218.10106219383113 487.5 225 487.5 L 250 487.5 C 256.8989378061689 487.5 262.5 481.8989378061689 262.5 475 L 262.5 471.25 M 178.75 437.5 L 175 437.5 C 168.10106219383113 437.5 162.5 443.1010621938311 162.5 450 L 162.5 453.75 M 87.5 446.25 L 87.5 453.75 M 62.5 446.25 L 62.5 450 C 62.5 456.8989378061689 68.10106219383111 462.5 75 462.5 L 103.75 462.5 M 0 437.5 L 100 437.5 C 106.89893780616889 437.5 112.5 443.1010621938311 112.5 450 L 112.5 475 C 112.5 481.8989378061689 106.89893780616889 487.5 100 487.5 C 93.10106219383111 487.5 87.5 481.8989378061689 87.5 475 L 87.5 471.25 M 287.5 421.25 L 287.5 425 C 287.5 431.8989378061689 281.8989378061689 437.5 275 437.5 L 196.25 437.5 M 196.25 412.5 L 200 412.5 C 206.89893780616887 412.5 212.5 418.1010621938311 212.5 425 L 212.5 428.75 M 62.5 421.25 L 62.5 428.75 M 46.25 412.5 L 75 412.5 C 81.89893780616889 412.5 87.5 418.1010621938311 87.5 425 L 87.5 428.75 M 62.5 403.75 L 62.5 400 C 62.5 393.1010621938311 56.89893780616888 387.5 50 387.5 L 25 387.5 C 18.10106219383112 387.5 12.5 393.1010621938311 12.5 400 C 12.5 406.8989378061689 18.10106219383112 412.5 25 412.5 L 28.75 412.5 M 371.25 362.5 L 375 362.5 C 381.8989378061689 362.5 387.5 368.1010621938311 387.5 375 C 387.5 381.8989378061689 393.1010621938311 387.5 400 387.5 C 406.8989378061689 387.5 412.5 381.8989378061689 412.5 375 L 412.5 371.25 M 353.75 362.5 L 350 362.5 C 343.1010621938311 362.5 337.5 368.1010621938311 337.5 375 L 337.5 400 C 337.5 406.8989378061689 331.8989378061689 412.5 325 412.5 L 275 412.5 C 268.1010621938311 412.5 262.5 418.1010621938311 262.5 425 L 262.5 428.75 M 212.5 371.25 L 212.5 375 C 212.5 381.8989378061689 218.10106219383113 387.5 225 387.5 L 275 387.5 C 281.8989378061689 387.5 287.5 393.1010621938311 287.5 400 L 287.5 403.75 M 412.5 346.25 L 412.5 353.75 M 196.25 337.5 L 200 337.5 C 206.89893780616887 337.5 212.5 343.1010621938311 212.5 350 L 212.5 353.75 M 162.5 346.25 L 162.5 400 C 162.5 406.8989378061689 168.10106219383113 412.5 175 412.5 L 178.75 412.5 M 412.5 321.25 L 412.5 328.75 M 203.75 312.5 L 200 312.5 C 193.10106219383113 312.5 187.5 318.1010621938311 187.5 325 L 187.5 350 C 187.5 356.8989378061689 193.10106219383113 362.5 200 362.5 L 253.75 362.5 M 162.5 328.75 L 162.5 325 C 162.5 318.1010621938311 156.89893780616887 312.5 150 312.5 C 143.10106219383113 312.5 137.5 318.1010621938311 137.5 325 C 137.5 331.8989378061689 143.10106219383113 337.5 150 337.5 L 178.75 337.5 M 446.25 287.5 L 475 287.5 C 481.8989378061689 287.5 487.5 293.1010621938311 487.5 300 C 487.5 306.8989378061689 481.8989378061689 312.5 475 312.5 C 468.1010621938311 312.5 462.5 306.8989378061689 462.5 300 L 462.5 296.25 M 428.75 287.5 L 425 287.5 C 418.1010621938311 287.5 412.5 293.1010621938311 412.5 300 L 412.5 303.75 M 312.5 296.25 L 312.5 350 C 312.5 356.8989378061689 306.8989378061689 362.5 300 362.5 L 271.25 362.5 M 462.5 271.25 L 462.5 278.75 M 337.5 221.25 L 337.5 225 C 337.5 231.89893780616887 331.8989378061689 237.5 325 237.5 L 321.25 237.5 M 287.5 221.25 L 287.5 225 C 287.5 231.89893780616887 293.1010621938311 237.5 300 237.5 L 303.75 237.5 M 246.25 212.5 L 300 212.5 C 306.8989378061689 212.5 312.5 218.10106219383113 312.5 225 L 312.5 278.75 M 221.25 212.5 L 228.75 212.5 M 196.25 212.5 L 203.75 212.5 M 237.5 196.25 L 237.5 300 C 237.5 306.8989378061689 231.89893780616887 312.5 225 312.5 L 221.25 312.5 M 346.25 162.5 L 375 162.5 C 381.8989378061689 162.5 387.5 168.10106219383113 387.5 175 C 387.5 181.89893780616887 381.8989378061689 187.5 375 187.5 C 368.1010621938311 187.5 362.5 181.89893780616887 362.5 175 L 362.5 171.25 M 328.75 162.5 L 300 162.5 C 293.1010621938311 162.5 287.5 168.10106219383113 287.5 175 L 287.5 203.75 M 471.25 137.5 L 475 137.5 C 481.8989378061689 137.5 487.5 143.10106219383113 487.5 150 C 487.5 156.89893780616887 481.8989378061689 162.5 475 162.5 C 468.1010621938311 162.5 462.5 168.10106219383113 462.5 175 L 462.5 253.75 M 421.25 137.5 L 453.75 137.5 M 396.25 137.5 L 403.75 137.5 M 362.5 146.25 L 362.5 153.75 M 378.75 137.5 L 350 137.5 C 343.1010621938311 137.5 337.5 143.10106219383113 337.5 150 L 337.5 203.75 M 237.5 146.25 L 237.5 178.75 M 362.5 121.25 L 362.5 128.75 M 146.25 112.5 L 153.75 112.5 M 128.75 112.5 L 125 112.5 C 118.10106219383111 112.5 112.5 118.10106219383111 112.5 125 L 112.5 200 C 112.5 206.89893780616887 118.10106219383111 212.5 125 212.5 L 178.75 212.5 M 312.5 96.25 L 312.5 100 C 312.5 106.89893780616889 306.8989378061689 112.5 300 112.5 L 250 112.5 C 243.10106219383113 112.5 237.5 118.10106219383111 237.5 125 L 237.5 128.75 M 296.25 87.5 L 353.75 87.5 M 278.75 87.5 L 200 87.5 C 193.10106219383113 87.5 187.5 93.10106219383111 187.5 100 C 187.5 106.89893780616889 181.89893780616887 112.5 175 112.5 L 171.25 112.5 M 387.5 71.25 L 387.5 75 C 387.5 81.89893780616889 381.8989378061689 87.5 375 87.5 L 371.25 87.5 M 387.5 46.25 L 387.5 53.75 M 371.25 37.5 L 400 37.5 C 406.8989378061689 37.5 412.5 43.10106219383112 412.5 50 C 412.5 56.89893780616888 406.8989378061689 62.5 400 62.5 L 375 62.5 C 368.1010621938311 62.5 362.5 68.10106219383111 362.5 75 L 362.5 103.75 M 387.5 0 L 387.5 28.75 M 353.75 37.5 L 350 37.5 C 343.1010621938311 37.5 337.5 31.89893780616888 337.5 25 C 337.5 18.10106219383112 331.8989378061689 12.5 325 12.5 C 318.1010621938311 12.5 312.5 18.10106219383112 312.5 25 L 312.5 78.75 "/>
<path fill="none" stroke-width="3.75" stroke-linecap="round" stroke-linejoin="miter" stroke="rgb(0%, 0%, 0%)" stroke-opacity="1" stroke-miterlimit="10" d="M 471.25 471.25 L 471.25 487.5 C 471.25 492.32925646431823 467.32925646431823 496.25 462.5 496.25 C 457.67074353568177 496.25 453.75 492.32925646431823 453.75 487.5 L 453.75 471.25 M 446.25 471.25 L 475 471.25 C 477.06968134185064 471.25 478.75 472.93031865814936 478.75 475 L 478.75 487.5 C 478.75 492.32925646431823 482.67074353568177 496.25 487.5 496.25 C 492.32925646431823 496.25 496.25 492.32925646431823 496.25 487.5 L 496.25 475 C 496.25 463.2718057295129 486.7281942704871 453.75 475 453.75 L 446.25 453.75 M 378.75 471.25 L 378.75 475 C 378.75 477.06968134185064 377.06968134185064 478.75 375 478.75 C 372.93031865814936 478.75 371.25 477.06968134185064 371.25 475 C 371.25 472.93031865814936 372.93031865814936 471.25 375 471.25 L 428.75 471.25 M 346.25 471.25 L 346.25 487.5 C 346.25 492.32925646431823 342.32925646431823 496.25 337.5 496.25 C 332.67074353568177 496.25 328.75 492.32925646431823 328.75 487.5 L 328.75 471.25 M 321.25 453.75 L 428.75 453.75 M 321.25 471.25 L 350 471.25 C 352.06968134185064 471.25 353.75 472.93031865814936 353.75 475 C 353.75 486.7281942704871 363.2718057295129 496.25 375 496.25 C 386.7281942704871 496.25 396.25 486.7281942704871 396.25 475 L 396.25 471.25 M 296.25 453.75 L 303.75 453.75 M 296.25 471.25 L 303.75 471.25 M 246.25 471.25 L 246.25 475 C 246.25 477.06968134185064 247.93031865814933 478.75 250 478.75 C 252.06968134185067 478.75 253.75 477.06968134185064 253.75 475 L 253.75 471.25 M 228.75 471.25 L 228.75 475 C 228.75 477.06968134185064 227.06968134185067 478.75 225 478.75 C 222.93031865814933 478.75 221.25 477.06968134185064 221.25 475 C 221.25 472.93031865814936 222.93031865814933 471.25 225 471.25 L 278.75 471.25 M 146.25 471.25 L 175 471.25 C 177.06968134185067 471.25 178.75 472.93031865814936 178.75 475 C 178.75 477.06968134185064 177.06968134185067 478.75 175 478.75 C 172.93031865814933 478.75 171.25 477.06968134185064 171.25 475 L 171.25 471.25 M 121.25 453.75 L 128.75 453.75 M 121.25 471.25 L 128.75 471.25 M 46.25 471.25 L 103.75 471.25 M 28.75 453.75 L 25 453.75 C 13.2718057295129 453.75 3.75 463.2718057295129 3.7500000000000004 475 L 3.7500000000000004 487.5 C 3.75 492.32925646431823 7.670743535681782 496.25 12.5 496.25 C 17.329256464318217 496.25 21.25 492.32925646431823 21.25 487.5 L 21.25 475 C 21.25 472.93031865814936 22.930318658149336 471.25 25 471.25 L 28.75 471.25 M 471.25 446.25 L 487.5 446.25 C 492.32925646431823 446.25 496.25 442.32925646431823 496.25 437.5 C 496.25 432.67074353568177 492.32925646431823 428.75 487.5 428.75 L 471.25 428.75 M 403.75 471.25 L 403.75 475 C 403.75 486.7281942704871 413.2718057295129 496.25 425 496.25 C 436.7281942704871 496.25 446.25 486.7281942704871 446.25 475 L 446.25 450 C 446.25 447.93031865814936 447.93031865814936 446.25 450 446.25 L 453.75 446.25 M 421.25 446.25 L 425 446.25 C 427.06968134185064 446.25 428.75 447.93031865814936 428.75 450 L 428.75 475 C 428.75 477.06968134185064 427.06968134185064 478.75 425 478.75 C 422.93031865814936 478.75 421.25 477.06968134185064 421.25 475 L 421.25 471.25 M 378.75 446.25 L 378.75 453.75 M 396.25 446.25 L 396.25 453.75 M 321.25 428.75 L 325 428.75 C 336.7281942704871 428.75 346.25 438.2718057295129 346.25 450 L 346.25 453.75 M 321.25 446.25 L 325 446.25 C 327.06968134185064 446.25 328.75 447.93031865814936 328.75 450 L 328.75 453.75 M 253.75 446.25 L 253.75 453.75 M 271.25 446.25 L 271.25 453.75 M 228.75 446.25 L 228.75 453.75 M 246.25 446.25 L 246.25 453.75 M 203.75 446.25 L 203.75 475 C 203.75 486.7281942704871 213.2718057295129 496.25 225 496.25 L 250 496.25 C 261.7281942704871 496.25 271.25 486.7281942704871 271.25 475 L 271.25 471.25 M 221.25 446.25 L 221.25 450 C 221.25 452.06968134185064 222.93031865814933 453.75 225 453.75 L 278.75 453.75 M 196.25 446.25 L 275 446.25 C 277.06968134185064 446.25 278.75 447.93031865814936 278.75 450 L 278.75 487.5 C 278.75 492.32925646431823 282.67074353568177 496.25 287.5 496.25 C 292.32925646431823 496.25 296.25 492.32925646431823 296.25 487.5 L 296.25 450 C 296.25 447.93031865814936 297.93031865814936 446.25 300 446.25 L 303.75 446.25 M 153.75 453.75 L 153.75 450 C 153.75 438.2718057295129 163.2718057295129 428.75 175 428.75 L 178.75 428.75 M 171.25 453.75 L 171.25 450 C 171.25 447.93031865814936 172.93031865814933 446.25 175 446.25 L 178.75 446.25 M 78.75 446.25 L 78.75 453.75 M 96.25 446.25 L 96.25 453.75 M 53.75 446.25 L 53.75 450 C 53.75 452.06968134185064 52.06968134185067 453.75 50 453.75 L 46.25 453.75 M 71.25 446.25 L 71.25 450 C 71.25 452.06968134185064 72.93031865814933 453.75 75 453.75 L 103.75 453.75 M 46.25 446.25 L 46.25 487.5 C 46.25 492.32925646431823 42.32925646431822 496.25 37.5 496.25 C 32.67074353568178 496.25 28.75 492.32925646431823 28.75 487.5 L 28.75 446.25 M 0 428.75 L 100 428.75 C 111.7281942704871 428.75 121.25 438.2718057295129 121.25 450 L 121.25 475 C 121.25 486.7281942704871 111.7281942704871 496.25 100 496.25 L 62.5 496.25 C 57.67074353568178 496.25 53.75 492.32925646431823 53.75 487.5 C 53.75 482.67074353568177 57.67074353568178 478.75 62.5 478.75 L 75 478.75 C 77.06968134185067 478.75 78.75 477.06968134185064 78.75 475 L 78.75 471.25 M 0 446.25 L 100 446.25 C 102.06968134185067 446.25 103.75 447.93031865814936 103.75 450 L 103.75 475 C 103.75 477.06968134185064 102.06968134185067 478.75 100 478.75 C 97.93031865814933 478.75 96.25 477.06968134185064 96.25 475 L 96.25 471.25 M 453.75 421.25 L 453.75 453.75 M 471.25 421.25 L 471.25 453.75 M 446.25 421.25 L 487.5 421.25 C 492.32925646431823 421.25 496.25 417.32925646431823 496.25 412.5 C 496.25 407.67074353568177 492.32925646431823 403.75 487.5 403.75 L 446.25 403.75 M 403.75 453.75 L 403.75 425 C 403.75 413.2718057295129 413.2718057295129 403.75 425 403.75 L 428.75 403.75 M 421.25 453.75 L 421.25 425 C 421.25 422.93031865814936 422.93031865814936 421.25 425 421.25 L 428.75 421.25 M 403.75 446.25 L 375 446.25 C 363.2718057295129 446.25 353.75 436.7281942704871 353.75 425 C 353.75 413.2718057295129 363.2718057295129 403.75 375 403.75 C 386.7281942704871 403.75 396.25 413.2718057295129 396.25 425 L 396.25 428.75 M 403.75 428.75 L 375 428.75 C 372.93031865814936 428.75 371.25 427.06968134185064 371.25 425 C 371.25 422.93031865814936 372.93031865814936 421.25 375 421.25 C 377.06968134185064 421.25 378.75 422.93031865814936 378.75 425 L 378.75 428.75 M 321.25 421.25 L 321.25 487.5 C 321.25 492.32925646431823 317.32925646431823 496.25 312.5 496.25 C 307.67074353568177 496.25 303.75 492.32925646431823 303.75 487.5 L 303.75 421.25 M 278.75 421.25 L 278.75 425 C 278.75 427.06968134185064 277.06968134185064 428.75 275 428.75 L 196.25 428.75 M 296.25 421.25 L 296.25 425 C 296.25 427.06968134185064 297.93031865814936 428.75 300 428.75 L 303.75 428.75 M 228.75 428.75 L 228.75 412.5 C 228.75 407.67074353568177 232.6707435356818 403.75 237.5 403.75 C 242.3292564643182 403.75 246.25 407.67074353568177 246.25 412.5 L 246.25 428.75 M 196.25 403.75 L 200 403.75 C 211.7281942704871 403.75 221.25 413.2718057295129 221.25 425 L 221.25 428.75 M 196.25 421.25 L 200 421.25 C 202.06968134185067 421.25 203.75 422.93031865814936 203.75 425 L 203.75 428.75 M 53.75 421.25 L 53.75 428.75 M 71.25 421.25 L 71.25 428.75 M 46.25 403.75 L 75 403.75 C 86.7281942704871 403.75 96.25 413.2718057295129 96.25 425 L 96.25 428.75 M 46.25 421.25 L 75 421.25 C 77.06968134185067 421.25 78.75 422.93031865814936 78.75 425 L 78.75 428.75 M 471.25 396.25 L 487.5 396.25 C 492.32925646431823 396.25 496.25 392.32925646431823 496.25 387.5 C 496.25 382.67074353568177 492.32925646431823 378.75 487.5 378.75 L 471.25 378.75 M 446.25 378.75 L 453.75 378.75 M 446.25 396.25 L 453.75 396.25 M 303.75 403.75 L 303.75 400 C 303.75 388.2718057295129 313.2718057295129 378.75 325 378.75 L 328.75 378.75 M 321.25 403.75 L 321.25 400 C 321.25 397.93031865814936 322.93031865814936 396.25 325 396.25 L 328.75 396.25 M 253.75 396.25 L 253.75 428.75 M 171.25 378.75 L 175 378.75 C 186.7281942704871 378.75 196.25 388.2718057295129 196.25 400 L 196.25 475 C 196.25 486.7281942704871 186.7281942704871 496.25 175 496.25 L 150 496.25 C 138.2718057295129 496.25 128.75 486.7281942704871 128.75 475 L 128.75 437.5 C 128.75 432.67074353568177 132.6707435356818 428.75 137.5 428.75 C 142.3292564643182 428.75 146.25 432.67074353568177 146.25 437.5 L 146.25 475 C 146.25 477.06968134185064 147.93031865814933 478.75 150 478.75 C 152.06968134185067 478.75 153.75 477.06968134185064 153.75 475 L 153.75 471.25 M 171.25 396.25 L 175 396.25 C 177.06968134185067 396.25 178.75 397.93031865814936 178.75 400 L 178.75 450 C 178.75 452.06968134185064 177.06968134185067 453.75 175 453.75 L 146.25 453.75 M 146.25 378.75 L 153.75 378.75 M 146.25 396.25 L 153.75 396.25 M 28.75 396.25 L 28.75 428.75 M 46.25 396.25 L 46.25 428.75 M 28.75 421.25 L 25 421.25 C 13.2718057295129 421.25 3.75 411.7281942704871 3.7500000000000004 400 C 3.75 388.2718057295129 13.2718057295129 378.75 25 378.75 L 50 378.75 C 61.7281942704871 378.75 71.25 388.2718057295129 71.25 400 L 71.25 403.75 M 28.75 403.75 L 25 403.75 C 22.930318658149336 403.75 21.25 402.06968134185064 21.25 400 C 21.25 397.93031865814936 22.930318658149336 396.25 25 396.25 L 50 396.25 C 52.06968134185067 396.25 53.75 397.93031865814936 53.75 400 L 53.75 403.75 M 471.25 371.25 L 487.5 371.25 C 492.32925646431823 371.25 496.25 367.32925646431823 496.25 362.5 C 496.25 357.67074353568177 492.32925646431823 353.75 487.5 353.75 L 471.25 353.75 M 428.75 371.25 L 428.75 425 C 428.75 427.06968134185064 427.06968134185064 428.75 425 428.75 L 421.25 428.75 M 446.25 371.25 L 446.25 425 C 446.25 427.06968134185064 447.93031865814936 428.75 450 428.75 L 453.75 428.75 M 421.25 371.25 L 421.25 375 C 421.25 377.06968134185064 422.93031865814936 378.75 425 378.75 L 428.75 378.75 M 403.75 371.25 L 403.75 375 C 403.75 377.06968134185064 402.06968134185064 378.75 400 378.75 C 397.93031865814936 378.75 396.25 377.06968134185064 396.25 375 C 396.25 372.93031865814936 397.93031865814936 371.25 400 371.25 L 453.75 371.25 M 371.25 353.75 L 453.75 353.75 M 371.25 371.25 L 375 371.25 C 377.06968134185064 371.25 378.75 372.93031865814936 378.75 375 C 378.75 386.7281942704871 388.2718057295129 396.25 400 396.25 L 428.75 396.25 M 271.25 396.25 L 271.25 400 C 271.25 402.06968134185064 272.93031865814936 403.75 275 403.75 L 325 403.75 C 327.06968134185064 403.75 328.75 402.06968134185064 328.75 400 L 328.75 375 C 328.75 363.2718057295129 338.2718057295129 353.75 350 353.75 L 353.75 353.75 M 271.25 428.75 L 271.25 425 C 271.25 422.93031865814936 272.93031865814936 421.25 275 421.25 L 325 421.25 C 336.7281942704871 421.25 346.25 411.7281942704871 346.25 400 L 346.25 375 C 346.25 372.93031865814936 347.93031865814936 371.25 350 371.25 L 353.75 371.25 M 296.25 371.25 L 296.25 403.75 M 246.25 371.25 L 246.25 375 C 246.25 377.06968134185064 247.93031865814933 378.75 250 378.75 L 275 378.75 C 277.06968134185064 378.75 278.75 377.06968134185064 278.75 375 L 278.75 371.25 M 203.75 371.25 L 203.75 375 C 203.75 386.7281942704871 213.2718057295129 396.25 225 396.25 L 275 396.25 C 277.06968134185064 396.25 278.75 397.93031865814936 278.75 400 L 278.75 403.75 M 221.25 371.25 L 221.25 375 C 221.25 377.06968134185064 222.93031865814933 378.75 225 378.75 C 227.06968134185067 378.75 228.75 377.06968134185064 228.75 375 L 228.75 371.25 M 121.25 396.25 L 121.25 400 C 121.25 402.06968134185064 122.93031865814933 403.75 125 403.75 C 127.06968134185067 403.75 128.75 402.06968134185064 128.75 400 L 128.75 362.5 C 128.75 357.67074353568177 132.6707435356818 353.75 137.5 353.75 C 142.3292564643182 353.75 146.25 357.67074353568177 146.25 362.5 L 146.25 400 C 146.25 411.7281942704871 136.7281942704871 421.25 125 421.25 C 113.2718057295129 421.25 103.75 411.7281942704871 103.75 400 L 103.75 396.25 M 128.75 396.25 L 100 396.25 C 88.2718057295129 396.25 78.75 386.7281942704871 78.75 375 C 78.75 363.2718057295129 88.2718057295129 353.75 100 353.75 C 111.7281942704871 353.75 121.25 363.2718057295129 121.25 375 L 121.25 378.75 M 128.75 378.75 L 100 378.75 C 97.93031865814933 378.75 96.25 377.06968134185064 96.25 375 C 96.25 372.93031865814936 97.93031865814933 371.25 100 371.25 C 102.06968134185067 371.25 103.75 372.93031865814936 103.75 375 L 103.75 378.75 M 28.75 353.75 L 12.5 353.75 C 7.670743535681782 353.75 3.75 357.67074353568177 3.7500000000000004 362.5 C 3.75 367.32925646431823 7.670743535681782 371.25 12.5 371.25 L 28.75 371.25 M 446.25 328.75 L 450 328.75 C 461.7281942704871 328.75 471.25 338.2718057295129 471.25 350 L 471.25 403.75 M 446.25 346.25 L 450 346.25 C 452.06968134185064 346.25 453.75 347.93031865814936 453.75 350 L 453.75 403.75 M 403.75 346.25 L 403.75 353.75 M 421.25 346.25 L 421.25 353.75 M 346.25 396.25 L 350 396.25 C 361.7281942704871 396.25 371.25 386.7281942704871 371.25 375 L 371.25 350 C 371.25 347.93031865814936 372.93031865814936 346.25 375 346.25 L 428.75 346.25 M 321.25 346.25 L 337.5 346.25 C 342.32925646431823 346.25 346.25 342.32925646431823 346.25 337.5 C 346.25 332.67074353568177 342.32925646431823 328.75 337.5 328.75 L 321.25 328.75 M 296.25 328.75 L 303.75 328.75 M 296.25 346.25 L 303.75 346.25 M 253.75 378.75 L 253.75 350 C 253.75 338.2718057295129 263.2718057295129 328.75 275 328.75 L 278.75 328.75 M 271.25 378.75 L 271.25 350 C 271.25 347.93031865814936 272.93031865814936 346.25 275 346.25 L 278.75 346.25 M 228.75 353.75 L 228.75 337.5 C 228.75 332.67074353568177 232.6707435356818 328.75 237.5 328.75 C 242.3292564643182 328.75 246.25 332.67074353568177 246.25 337.5 L 246.25 353.75 M 196.25 346.25 L 200 346.25 C 202.06968134185067 346.25 203.75 347.93031865814936 203.75 350 L 203.75 353.75 M 153.75 346.25 L 153.75 400 C 153.75 411.7281942704871 163.2718057295129 421.25 175 421.25 L 178.75 421.25 M 171.25 346.25 L 171.25 400 C 171.25 402.06968134185064 172.93031865814933 403.75 175 403.75 L 178.75 403.75 M 53.75 346.25 L 53.75 350 C 53.75 352.06968134185064 52.06968134185067 353.75 50 353.75 L 46.25 353.75 M 71.25 346.25 L 71.25 350 C 71.25 361.7281942704871 61.7281942704871 371.25 50 371.25 L 46.25 371.25 M 28.75 346.25 L 28.75 378.75 M 46.25 346.25 L 46.25 378.75 M 403.75 321.25 L 403.75 328.75 M 421.25 321.25 L 421.25 328.75 M 378.75 321.25 L 378.75 325 C 378.75 327.06968134185064 377.06968134185064 328.75 375 328.75 C 363.2718057295129 328.75 353.75 338.2718057295129 353.75 350 L 353.75 375 C 353.75 377.06968134185064 352.06968134185064 378.75 350 378.75 L 346.25 378.75 M 396.25 321.25 L 396.25 325 C 396.25 327.06968134185064 397.93031865814936 328.75 400 328.75 L 428.75 328.75 M 278.75 321.25 L 278.75 353.75 M 296.25 321.25 L 296.25 353.75 M 303.75 303.75 L 262.5 303.75 C 257.67074353568177 303.75 253.75 307.67074353568177 253.75 312.5 C 253.75 317.32925646431823 257.67074353568177 321.25 262.5 321.25 L 303.75 321.25 M 253.75 371.25 L 200 371.25 C 188.2718057295129 371.25 178.75 361.7281942704871 178.75 350 L 178.75 325 C 178.75 313.2718057295129 188.2718057295129 303.75 200 303.75 L 203.75 303.75 M 253.75 353.75 L 200 353.75 C 197.93031865814933 353.75 196.25 352.06968134185064 196.25 350 L 196.25 325 C 196.25 322.93031865814936 197.93031865814933 321.25 200 321.25 L 203.75 321.25 M 178.75 328.75 L 150 328.75 C 147.93031865814933 328.75 146.25 327.06968134185064 146.25 325 C 146.25 322.93031865814936 147.93031865814933 321.25 150 321.25 C 152.06968134185067 321.25 153.75 322.93031865814936 153.75 325 L 153.75 328.75 M 121.25 321.25 L 125 321.25 C 127.06968134185067 321.25 128.75 322.93031865814936 128.75 325 C 128.75 336.7281942704871 138.2718057295129 346.25 150 346.25 L 178.75 346.25 M 46.25 328.75 L 46.25 325 C 46.25 322.93031865814936 47.93031865814933 321.25 50 321.25 C 52.06968134185067 321.25 53.75 322.93031865814936 53.75 325 L 53.75 328.75 M 446.25 278.75 L 475 278.75 C 486.7281942704871 278.75 496.25 288.2718057295129 496.25 300 L 496.25 337.5 C 496.25 342.32925646431823 492.32925646431823 346.25 487.5 346.25 C 482.67074353568177 346.25 478.75 342.32925646431823 478.75 337.5 L 478.75 325 C 478.75 322.93031865814936 477.06968134185064 321.25 475 321.25 C 463.2718057295129 321.25 453.75 311.7281942704871 453.75 300 L 453.75 296.25 M 446.25 296.25 L 475 296.25 C 477.06968134185064 296.25 478.75 297.93031865814936 478.75 300 C 478.75 302.06968134185064 477.06968134185064 303.75 475 303.75 C 472.93031865814936 303.75 471.25 302.06968134185064 471.25 300 L 471.25 296.25 M 421.25 303.75 L 421.25 300 C 421.25 297.93031865814936 422.93031865814936 296.25 425 296.25 L 428.75 296.25 M 378.75 303.75 L 378.75 300 C 378.75 288.2718057295129 388.2718057295129 278.75 400 278.75 L 428.75 278.75 M 396.25 303.75 L 396.25 300 C 396.25 297.93031865814936 397.93031865814936 296.25 400 296.25 C 402.06968134185064 296.25 403.75 297.93031865814936 403.75 300 L 403.75 303.75 M 328.75 296.25 L 328.75 300 C 328.75 302.06968134185064 327.06968134185064 303.75 325 303.75 L 321.25 303.75 M 346.25 296.25 L 346.25 300 C 346.25 311.7281942704871 336.7281942704871 321.25 325 321.25 L 321.25 321.25 M 303.75 296.25 L 303.75 350 C 303.75 352.06968134185064 302.06968134185064 353.75 300 353.75 L 271.25 353.75 M 321.25 296.25 L 321.25 350 C 321.25 361.7281942704871 311.7281942704871 371.25 300 371.25 L 271.25 371.25 M 296.25 296.25 L 362.5 296.25 C 367.32925646431823 296.25 371.25 292.32925646431823 371.25 287.5 C 371.25 282.67074353568177 367.32925646431823 278.75 362.5 278.75 L 296.25 278.75 M 246.25 278.75 L 278.75 278.75 M 246.25 296.25 L 278.75 296.25 M 221.25 278.75 L 228.75 278.75 M 221.25 296.25 L 228.75 296.25 M 171.25 296.25 L 171.25 328.75 M 128.75 296.25 L 128.75 300 C 128.75 302.06968134185064 127.06968134185067 303.75 125 303.75 L 121.25 303.75 M 146.25 296.25 L 146.25 300 C 146.25 302.06968134185064 147.93031865814933 303.75 150 303.75 C 152.06968134185067 303.75 153.75 302.06968134185064 153.75 300 L 153.75 296.25 M 121.25 278.75 L 203.75 278.75 M 121.25 296.25 L 203.75 296.25 M 453.75 271.25 L 453.75 278.75 M 471.25 271.25 L 471.25 278.75 M 321.25 278.75 L 321.25 275 C 321.25 272.93031865814936 322.93031865814936 271.25 325 271.25 C 327.06968134185064 271.25 328.75 272.93031865814936 328.75 275 L 328.75 278.75 M 278.75 303.75 L 278.75 262.5 C 278.75 257.67074353568177 282.67074353568177 253.75 287.5 253.75 C 292.32925646431823 253.75 296.25 257.67074353568177 296.25 262.5 L 296.25 303.75 M 246.25 271.25 L 262.5 271.25 C 267.32925646431823 271.25 271.25 267.32925646431823 271.25 262.5 C 271.25 257.67074353568177 267.32925646431823 253.75 262.5 253.75 L 246.25 253.75 M 203.75 271.25 L 203.75 325 C 203.75 327.06968134185064 202.06968134185067 328.75 200 328.75 L 196.25 328.75 M 221.25 271.25 L 221.25 353.75 M 171.25 253.75 L 228.75 253.75 M 171.25 271.25 L 228.75 271.25 M 146.25 253.75 L 153.75 253.75 M 146.25 271.25 L 153.75 271.25 M 103.75 271.25 L 103.75 325 C 103.75 327.06968134185064 102.06968134185067 328.75 100 328.75 C 97.93031865814933 328.75 96.25 327.06968134185064 96.25 325 C 96.25 322.93031865814936 97.93031865814933 321.25 100 321.25 L 103.75 321.25 M 121.25 271.25 L 121.25 325 C 121.25 336.7281942704871 111.7281942704871 346.25 100 346.25 L 12.5 346.25 C 7.670743535681782 346.25 3.75 342.32925646431823 3.7500000000000004 337.5 C 3.75 332.67074353568177 7.670743535681782 328.75 12.5 328.75 L 75 328.75 C 77.06968134185067 328.75 78.75 327.06968134185064 78.75 325 C 78.75 313.2718057295129 88.2718057295129 303.75 100 303.75 L 103.75 303.75 M 96.25 253.75 L 128.75 253.75 M 96.25 271.25 L 128.75 271.25 M 46.25 271.25 L 46.25 300 C 46.25 302.06968134185064 47.93031865814933 303.75 50 303.75 C 61.7281942704871 303.75 71.25 313.2718057295129 71.25 325 L 71.25 328.75 M 28.75 271.25 L 28.75 275 C 28.75 277.06968134185064 27.069681341850664 278.75 25 278.75 C 22.930318658149336 278.75 21.25 277.06968134185064 21.25 275 C 21.25 272.93031865814936 22.930318658149336 271.25 25 271.25 L 50 271.25 C 52.06968134185067 271.25 53.75 272.93031865814936 53.75 275 C 53.75 286.7281942704871 63.2718057295129 296.25 75 296.25 L 103.75 296.25 M 446.25 246.25 L 450 246.25 C 452.06968134185064 246.25 453.75 247.93031865814933 453.75 250 L 453.75 253.75 M 421.25 228.75 L 428.75 228.75 M 421.25 246.25 L 428.75 246.25 M 396.25 228.75 L 403.75 228.75 M 396.25 246.25 L 403.75 246.25 M 246.25 246.25 L 262.5 246.25 C 267.32925646431823 246.25 271.25 242.3292564643182 271.25 237.5 C 271.25 232.6707435356818 267.32925646431823 228.75 262.5 228.75 L 246.25 228.75 M 221.25 253.75 L 221.25 250 C 221.25 247.93031865814933 222.93031865814933 246.25 225 246.25 L 228.75 246.25 M 78.75 246.25 L 78.75 275 C 78.75 277.06968134185064 77.06968134185067 278.75 75 278.75 C 72.93031865814933 278.75 71.25 277.06968134185064 71.25 275 C 71.25 272.93031865814936 72.93031865814933 271.25 75 271.25 L 78.75 271.25 M 96.25 246.25 L 96.25 275 C 96.25 277.06968134185064 97.93031865814933 278.75 100 278.75 L 103.75 278.75 M 28.75 253.75 L 28.75 237.5 C 28.75 232.6707435356818 32.67074353568178 228.75 37.5 228.75 C 42.32925646431822 228.75 46.25 232.6707435356818 46.25 237.5 L 46.25 253.75 M 28.75 328.75 L 28.75 300 C 28.75 297.93031865814936 27.069681341850664 296.25 25 296.25 C 22.930318658149336 296.25 21.25 297.93031865814936 21.25 300 L 21.25 312.5 C 21.25 317.32925646431823 17.329256464318217 321.25 12.5 321.25 C 7.670743535681782 321.25 3.75 317.32925646431823 3.7500000000000004 312.5 L 3.7500000000000004 237.5 C 3.75 232.6707435356818 7.670743535681782 228.75 12.5 228.75 C 17.329256464318217 228.75 21.25 232.6707435356818 21.25 237.5 L 21.25 250 C 21.25 252.06968134185067 22.930318658149336 253.75 25 253.75 L 78.75 253.75 M 446.25 353.75 L 446.25 275 C 446.25 272.93031865814936 447.93031865814936 271.25 450 271.25 L 475 271.25 C 486.7281942704871 271.25 496.25 261.7281942704871 496.25 250 L 496.25 237.5 C 496.25 232.6707435356818 492.32925646431823 228.75 487.5 228.75 C 482.67074353568177 228.75 478.75 232.6707435356818 478.75 237.5 L 478.75 250 C 478.75 252.06968134185067 477.06968134185064 253.75 475 253.75 L 450 253.75 C 447.93031865814936 253.75 446.25 252.06968134185067 446.25 250 L 446.25 225 C 446.25 222.93031865814933 447.93031865814936 221.25 450 221.25 L 453.75 221.25 M 378.75 228.75 L 375 228.75 C 363.2718057295129 228.75 353.75 238.2718057295129 353.75 250 C 353.75 261.7281942704871 363.2718057295129 271.25 375 271.25 C 386.7281942704871 271.25 396.25 261.7281942704871 396.25 250 L 396.25 225 C 396.25 222.93031865814933 397.93031865814936 221.25 400 221.25 C 402.06968134185064 221.25 403.75 222.93031865814933 403.75 225 L 403.75 262.5 C 403.75 267.32925646431823 407.67074353568177 271.25 412.5 271.25 C 417.32925646431823 271.25 421.25 267.32925646431823 421.25 262.5 L 421.25 225 C 421.25 213.2718057295129 411.7281942704871 203.75 400 203.75 C 388.2718057295129 203.75 378.75 213.2718057295129 378.75 225 L 378.75 250 C 378.75 252.06968134185067 377.06968134185064 253.75 375 253.75 C 372.93031865814936 253.75 371.25 252.06968134185067 371.25 250 C 371.25 247.93031865814933 372.93031865814936 246.25 375 246.25 L 378.75 246.25 M 328.75 221.25 L 328.75 225 C 328.75 227.06968134185067 327.06968134185064 228.75 325 228.75 L 321.25 228.75 M 346.25 221.25 L 346.25 225 C 346.25 236.7281942704871 336.7281942704871 246.25 325 246.25 L 321.25 246.25 M 278.75 221.25 L 278.75 225 C 278.75 236.7281942704871 288.2718057295129 246.25 300 246.25 L 303.75 246.25 M 296.25 221.25 L 296.25 225 C 296.25 227.06968134185067 297.93031865814936 228.75 300 228.75 L 303.75 228.75 M 246.25 203.75 L 362.5 203.75 C 367.32925646431823 203.75 371.25 207.6707435356818 371.25 212.5 C 371.25 217.3292564643182 367.32925646431823 221.25 362.5 221.25 L 325 221.25 C 322.93031865814936 221.25 321.25 222.93031865814933 321.25 225 L 321.25 250 C 321.25 252.06968134185067 322.93031865814936 253.75 325 253.75 C 336.7281942704871 253.75 346.25 263.2718057295129 346.25 275 L 346.25 278.75 M 246.25 221.25 L 300 221.25 C 302.06968134185064 221.25 303.75 222.93031865814933 303.75 225 L 303.75 278.75 M 221.25 203.75 L 228.75 203.75 M 221.25 221.25 L 228.75 221.25 M 196.25 203.75 L 203.75 203.75 M 196.25 221.25 L 203.75 221.25 M 153.75 221.25 L 153.75 278.75 M 171.25 221.25 L 171.25 278.75 M 128.75 221.25 L 128.75 278.75 M 146.25 221.25 L 146.25 278.75 M 103.75 253.75 L 103.75 250 C 103.75 247.93031865814933 102.06968134185067 246.25 100 246.25 L 75 246.25 C 63.2718057295129 246.25 53.75 236.7281942704871 53.75 225 C 53.75 213.2718057295129 63.2718057295129 203.75 75 203.75 C 86.7281942704871 203.75 96.25 213.2718057295129 96.25 225 L 96.25 228.75 M 121.25 253.75 L 121.25 250 C 121.25 238.2718057295129 111.7281942704871 228.75 100 228.75 L 75 228.75 C 72.93031865814933 228.75 71.25 227.06968134185067 71.25 225 C 71.25 222.93031865814933 72.93031865814933 221.25 75 221.25 C 77.06968134185067 221.25 78.75 222.93031865814933 78.75 225 L 78.75 228.75 M 471.25 178.75 L 475 178.75 C 486.7281942704871 178.75 496.25 188.2718057295129 496.25 200 C 496.25 211.7281942704871 486.7281942704871 221.25 475 221.25 L 471.25 221.25 M 471.25 196.25 L 475 196.25 C 477.06968134185064 196.25 478.75 197.93031865814933 478.75 200 C 478.75 202.06968134185067 477.06968134185064 203.75 475 203.75 L 471.25 203.75 M 428.75 196.25 L 428.75 300 C 428.75 302.06968134185064 427.06968134185064 303.75 425 303.75 L 362.5 303.75 C 357.67074353568177 303.75 353.75 307.67074353568177 353.75 312.5 C 353.75 317.32925646431823 357.67074353568177 321.25 362.5 321.25 L 425 321.25 C 427.06968134185064 321.25 428.75 322.93031865814936 428.75 325 L 428.75 353.75 M 446.25 196.25 L 446.25 200 C 446.25 202.06968134185067 447.93031865814936 203.75 450 203.75 L 453.75 203.75 M 453.75 178.75 L 412.5 178.75 C 407.67074353568177 178.75 403.75 182.6707435356818 403.75 187.5 C 403.75 192.3292564643182 407.67074353568177 196.25 412.5 196.25 L 453.75 196.25 M 228.75 196.25 L 228.75 300 C 228.75 302.06968134185064 227.06968134185067 303.75 225 303.75 L 221.25 303.75 M 246.25 196.25 L 246.25 300 C 246.25 311.7281942704871 236.7281942704871 321.25 225 321.25 L 221.25 321.25 M 203.75 253.75 L 203.75 200 C 203.75 188.2718057295129 213.2718057295129 178.75 225 178.75 L 278.75 178.75 M 228.75 228.75 L 225 228.75 C 222.93031865814933 228.75 221.25 227.06968134185067 221.25 225 L 221.25 200 C 221.25 197.93031865814933 222.93031865814933 196.25 225 196.25 L 278.75 196.25 M 146.25 203.75 L 146.25 200 C 146.25 197.93031865814933 147.93031865814933 196.25 150 196.25 L 153.75 196.25 M 121.25 178.75 L 153.75 178.75 M 121.25 196.25 L 125 196.25 C 127.06968134185067 196.25 128.75 197.93031865814933 128.75 200 L 128.75 203.75 M 103.75 178.75 L 87.5 178.75 C 82.67074353568178 178.75 78.75 182.6707435356818 78.75 187.5 C 78.75 192.3292564643182 82.67074353568178 196.25 87.5 196.25 L 103.75 196.25 M 428.75 178.75 L 428.75 162.5 C 428.75 157.6707435356818 432.67074353568177 153.75 437.5 153.75 C 442.32925646431823 153.75 446.25 157.6707435356818 446.25 162.5 L 446.25 178.75 M 346.25 171.25 L 375 171.25 C 377.06968134185064 171.25 378.75 172.93031865814933 378.75 175 C 378.75 177.06968134185067 377.06968134185064 178.75 375 178.75 C 372.93031865814936 178.75 371.25 177.06968134185067 371.25 175 L 371.25 171.25 M 303.75 171.25 L 303.75 175 C 303.75 177.06968134185067 302.06968134185064 178.75 300 178.75 L 296.25 178.75 M 321.25 171.25 L 321.25 175 C 321.25 186.7281942704871 311.7281942704871 196.25 300 196.25 L 296.25 196.25 M 278.75 203.75 L 278.75 175 C 278.75 163.2718057295129 288.2718057295129 153.75 300 153.75 L 328.75 153.75 M 296.25 203.75 L 296.25 175 C 296.25 172.93031865814933 297.93031865814936 171.25 300 171.25 L 328.75 171.25 M 178.75 171.25 L 178.75 175 C 178.75 177.06968134185067 177.06968134185067 178.75 175 178.75 L 171.25 178.75 M 196.25 171.25 L 196.25 237.5 C 196.25 242.3292564643182 192.3292564643182 246.25 187.5 246.25 C 182.6707435356818 246.25 178.75 242.3292564643182 178.75 237.5 L 178.75 200 C 178.75 197.93031865814933 177.06968134185067 196.25 175 196.25 L 171.25 196.25 M 171.25 171.25 L 212.5 171.25 C 217.3292564643182 171.25 221.25 167.3292564643182 221.25 162.5 C 221.25 157.6707435356818 217.3292564643182 153.75 212.5 153.75 L 171.25 153.75 M 121.25 171.25 L 153.75 171.25 M 28.75 171.25 L 28.75 178.75 M 46.25 171.25 L 46.25 178.75 M 28.75 196.25 L 28.75 200 C 28.75 202.06968134185067 27.069681341850664 203.75 25 203.75 C 22.930318658149336 203.75 21.25 202.06968134185067 21.25 200 C 21.25 197.93031865814933 22.930318658149336 196.25 25 196.25 L 50 196.25 C 61.7281942704871 196.25 71.25 186.7281942704871 71.25 175 C 71.25 163.2718057295129 61.7281942704871 153.75 50 153.75 L 12.5 153.75 C 7.670743535681782 153.75 3.75 157.6707435356818 3.7500000000000004 162.5 C 3.75 167.3292564643182 7.670743535681782 171.25 12.5 171.25 L 50 171.25 C 52.06968134185067 171.25 53.75 172.93031865814933 53.75 175 C 53.75 177.06968134185067 52.06968134185067 178.75 50 178.75 L 25 178.75 C 13.2718057295129 178.75 3.75 188.2718057295129 3.7500000000000004 200 C 3.75 211.7281942704871 13.2718057295129 221.25 25 221.25 C 36.7281942704871 221.25 46.25 211.7281942704871 46.25 200 L 46.25 196.25 M 471.25 128.75 L 475 128.75 C 486.7281942704871 128.75 496.25 138.2718057295129 496.25 150 C 496.25 161.7281942704871 486.7281942704871 171.25 475 171.25 C 472.93031865814936 171.25 471.25 172.93031865814933 471.25 175 L 471.25 253.75 M 421.25 146.25 L 453.75 146.25 M 396.25 128.75 L 403.75 128.75 M 396.25 146.25 L 403.75 146.25 M 353.75 146.25 L 353.75 153.75 M 371.25 146.25 L 371.25 153.75 M 328.75 203.75 L 328.75 150 C 328.75 138.2718057295129 338.2718057295129 128.75 350 128.75 L 378.75 128.75 M 346.25 203.75 L 346.25 150 C 346.25 147.93031865814933 347.93031865814936 146.25 350 146.25 L 378.75 146.25 M 303.75 153.75 L 303.75 137.5 C 303.75 132.6707435356818 307.67074353568177 128.75 312.5 128.75 C 317.32925646431823 128.75 321.25 132.6707435356818 321.25 137.5 L 321.25 153.75 M 228.75 146.25 L 228.75 178.75 M 253.75 128.75 L 212.5 128.75 C 207.6707435356818 128.75 203.75 132.6707435356818 203.75 137.5 C 203.75 142.3292564643182 207.6707435356818 146.25 212.5 146.25 L 253.75 146.25 M 153.75 146.25 L 153.75 203.75 M 171.25 146.25 L 171.25 203.75 M 146.25 128.75 L 175 128.75 C 186.7281942704871 128.75 196.25 138.2718057295129 196.25 150 L 196.25 153.75 M 146.25 146.25 L 175 146.25 C 177.06968134185067 146.25 178.75 147.93031865814933 178.75 150 L 178.75 153.75 M 121.25 128.75 L 128.75 128.75 M 121.25 146.25 L 128.75 146.25 M 96.25 128.75 L 103.75 128.75 M 96.25 146.25 L 103.75 146.25 M 46.25 153.75 L 46.25 150 C 46.25 147.93031865814933 47.93031865814933 146.25 50 146.25 L 78.75 146.25 M 353.75 121.25 L 353.75 128.75 M 371.25 121.25 L 371.25 128.75 M 353.75 171.25 L 353.75 175 C 353.75 186.7281942704871 363.2718057295129 196.25 375 196.25 C 386.7281942704871 196.25 396.25 186.7281942704871 396.25 175 L 396.25 125 C 396.25 113.2718057295129 386.7281942704871 103.75 375 103.75 L 337.5 103.75 C 332.67074353568177 103.75 328.75 107.67074353568178 328.75 112.5 C 328.75 117.32925646431822 332.67074353568177 121.25 337.5 121.25 L 375 121.25 C 377.06968134185064 121.25 378.75 122.93031865814933 378.75 125 L 378.75 150 C 378.75 152.06968134185067 377.06968134185064 153.75 375 153.75 L 346.25 153.75 M 278.75 121.25 L 278.75 125 C 278.75 127.06968134185067 277.06968134185064 128.75 275 128.75 L 271.25 128.75 M 296.25 121.25 L 296.25 125 C 296.25 136.7281942704871 286.7281942704871 146.25 275 146.25 L 271.25 146.25 M 253.75 121.25 L 253.75 150 C 253.75 152.06968134185067 252.06968134185067 153.75 250 153.75 C 247.93031865814933 153.75 246.25 152.06968134185067 246.25 150 L 246.25 146.25 M 271.25 121.25 L 271.25 150 C 271.25 161.7281942704871 261.7281942704871 171.25 250 171.25 C 247.93031865814933 171.25 246.25 172.93031865814933 246.25 175 L 246.25 178.75 M 146.25 103.75 L 153.75 103.75 M 146.25 121.25 L 153.75 121.25 M 178.75 221.25 L 125 221.25 C 113.2718057295129 221.25 103.75 211.7281942704871 103.75 200 L 103.75 125 C 103.75 113.2718057295129 113.2718057295129 103.75 125 103.75 L 128.75 103.75 M 178.75 203.75 L 125 203.75 C 122.93031865814933 203.75 121.25 202.06968134185067 121.25 200 L 121.25 125 C 121.25 122.93031865814933 122.93031865814933 121.25 125 121.25 L 128.75 121.25 M 103.75 171.25 L 100 171.25 C 88.2718057295129 171.25 78.75 161.7281942704871 78.75 150 L 78.75 112.5 C 78.75 107.67074353568178 82.67074353568178 103.75 87.5 103.75 C 92.32925646431822 103.75 96.25 107.67074353568178 96.25 112.5 L 96.25 150 C 96.25 152.06968134185067 97.93031865814933 153.75 100 153.75 L 103.75 153.75 M 28.75 103.75 L 12.5 103.75 C 7.670743535681782 103.75 3.75 107.67074353568178 3.7500000000000004 112.5 C 3.75 117.32925646431822 7.670743535681782 121.25 12.5 121.25 L 28.75 121.25 M 453.75 96.25 L 453.75 225 C 453.75 227.06968134185067 452.06968134185064 228.75 450 228.75 L 446.25 228.75 M 471.25 96.25 L 471.25 100 C 471.25 102.06968134185067 472.93031865814936 103.75 475 103.75 L 487.5 103.75 C 492.32925646431823 103.75 496.25 107.67074353568178 496.25 112.5 C 496.25 117.32925646431822 492.32925646431823 121.25 487.5 121.25 L 475 121.25 C 472.93031865814936 121.25 471.25 122.93031865814933 471.25 125 L 471.25 150 C 471.25 152.06968134185067 472.93031865814936 153.75 475 153.75 C 477.06968134185064 153.75 478.75 152.06968134185067 478.75 150 C 478.75 147.93031865814933 477.06968134185064 146.25 475 146.25 L 471.25 146.25 M 446.25 96.25 L 446.25 125 C 446.25 127.06968134185067 447.93031865814936 128.75 450 128.75 L 453.75 128.75 M 428.75 96.25 L 428.75 100 C 428.75 102.06968134185067 427.06968134185064 103.75 425 103.75 C 422.93031865814936 103.75 421.25 102.06968134185067 421.25 100 C 421.25 97.93031865814933 422.93031865814936 96.25 425 96.25 L 487.5 96.25 C 492.32925646431823 96.25 496.25 92.32925646431822 496.25 87.5 C 496.25 82.67074353568178 492.32925646431823 78.75 487.5 78.75 L 425 78.75 C 413.2718057295129 78.75 403.75 88.2718057295129 403.75 100 L 403.75 162.5 C 403.75 167.3292564643182 407.67074353568177 171.25 412.5 171.25 C 417.32925646431823 171.25 421.25 167.3292564643182 421.25 162.5 L 421.25 125 C 421.25 122.93031865814933 422.93031865814936 121.25 425 121.25 C 427.06968134185064 121.25 428.75 122.93031865814933 428.75 125 C 428.75 127.06968134185067 427.06968134185064 128.75 425 128.75 L 421.25 128.75 M 303.75 96.25 L 303.75 100 C 303.75 102.06968134185067 302.06968134185064 103.75 300 103.75 L 250 103.75 C 238.2718057295129 103.75 228.75 113.2718057295129 228.75 125 L 228.75 128.75 M 321.25 96.25 L 321.25 100 C 321.25 111.7281942704871 311.7281942704871 121.25 300 121.25 L 250 121.25 C 247.93031865814933 121.25 246.25 122.93031865814933 246.25 125 L 246.25 128.75 M 296.25 78.75 L 353.75 78.75 M 296.25 96.25 L 353.75 96.25 M 253.75 96.25 L 253.75 103.75 M 271.25 96.25 L 271.25 103.75 M 221.25 96.25 L 221.25 112.5 C 221.25 117.32925646431822 217.3292564643182 121.25 212.5 121.25 C 207.6707435356818 121.25 203.75 117.32925646431822 203.75 112.5 L 203.75 96.25 M 171.25 121.25 L 175 121.25 C 186.7281942704871 121.25 196.25 111.7281942704871 196.25 100 C 196.25 97.93031865814933 197.93031865814933 96.25 200 96.25 L 278.75 96.25 M 171.25 96.25 L 175 96.25 C 177.06968134185067 96.25 178.75 97.93031865814933 178.75 100 C 178.75 102.06968134185067 177.06968134185067 103.75 175 103.75 L 171.25 103.75 M 146.25 78.75 L 153.75 78.75 M 146.25 96.25 L 153.75 96.25 M 128.75 78.75 L 112.5 78.75 C 107.67074353568178 78.75 103.75 82.67074353568178 103.75 87.5 C 103.75 92.32925646431822 107.67074353568178 96.25 112.5 96.25 L 128.75 96.25 M 46.25 103.75 L 50 103.75 C 52.06968134185067 103.75 53.75 102.06968134185067 53.75 100 L 53.75 87.5 C 53.75 82.67074353568178 57.67074353568178 78.75 62.5 78.75 C 67.32925646431822 78.75 71.25 82.67074353568178 71.25 87.5 L 71.25 125 C 71.25 127.06968134185067 72.93031865814933 128.75 75 128.75 L 78.75 128.75 M 28.75 153.75 L 28.75 150 C 28.75 147.93031865814933 27.069681341850664 146.25 25 146.25 L 12.5 146.25 C 7.670743535681782 146.25 3.75 142.3292564643182 3.7500000000000004 137.5 C 3.75 132.6707435356818 7.670743535681782 128.75 12.5 128.75 L 25 128.75 C 27.069681341850664 128.75 28.75 127.06968134185067 28.75 125 L 28.75 87.5 C 28.75 82.67074353568178 32.67074353568178 78.75 37.5 78.75 C 42.32925646431822 78.75 46.25 82.67074353568178 46.25 87.5 L 46.25 125 C 46.25 127.06968134185067 47.93031865814933 128.75 50 128.75 C 52.06968134185067 128.75 53.75 127.06968134185067 53.75 125 C 53.75 122.93031865814933 52.06968134185067 121.25 50 121.25 L 46.25 121.25 M 471.25 71.25 L 487.5 71.25 C 492.32925646431823 71.25 496.25 67.32925646431822 496.25 62.5 C 496.25 57.67074353568178 492.32925646431823 53.75 487.5 53.75 L 471.25 53.75 M 428.75 78.75 L 428.75 75 C 428.75 63.2718057295129 438.2718057295129 53.75 450 53.75 L 453.75 53.75 M 446.25 78.75 L 446.25 75 C 446.25 72.93031865814933 447.93031865814936 71.25 450 71.25 L 453.75 71.25 M 378.75 71.25 L 378.75 75 C 378.75 77.06968134185067 377.06968134185064 78.75 375 78.75 L 371.25 78.75 M 396.25 71.25 L 396.25 75 C 396.25 86.7281942704871 386.7281942704871 96.25 375 96.25 L 371.25 96.25 M 246.25 71.25 L 250 71.25 C 252.06968134185067 71.25 253.75 72.93031865814933 253.75 75 L 253.75 78.75 M 203.75 71.25 L 203.75 78.75 M 221.25 71.25 L 221.25 78.75 M 153.75 71.25 L 153.75 128.75 M 171.25 71.25 L 171.25 128.75 M 128.75 71.25 L 128.75 150 C 128.75 152.06968134185067 127.06968134185067 153.75 125 153.75 L 121.25 153.75 M 146.25 71.25 L 146.25 150 C 146.25 152.06968134185067 147.93031865814933 153.75 150 153.75 L 153.75 153.75 M 96.25 71.25 L 228.75 71.25 M 78.75 53.75 L 62.5 53.75 C 57.67074353568178 53.75 53.75 57.67074353568178 53.75 62.5 C 53.75 67.32925646431822 57.67074353568178 71.25 62.5 71.25 L 78.75 71.25 M 453.75 46.25 L 453.75 78.75 M 471.25 46.25 L 471.25 78.75 M 378.75 46.25 L 378.75 53.75 M 396.25 46.25 L 396.25 53.75 M 371.25 28.75 L 400 28.75 C 411.7281942704871 28.75 421.25 38.2718057295129 421.25 50 C 421.25 61.7281942704871 411.7281942704871 71.25 400 71.25 L 375 71.25 C 372.93031865814936 71.25 371.25 72.93031865814933 371.25 75 L 371.25 103.75 M 321.25 46.25 L 353.75 46.25 M 296.25 28.75 L 303.75 28.75 M 296.25 46.25 L 303.75 46.25 M 271.25 28.75 L 278.75 28.75 M 271.25 46.25 L 278.75 46.25 M 246.25 28.75 L 253.75 28.75 M 246.25 46.25 L 253.75 46.25 M 221.25 53.75 L 221.25 50 C 221.25 47.93031865814933 222.93031865814933 46.25 225 46.25 L 228.75 46.25 M 153.75 46.25 L 153.75 53.75 M 171.25 46.25 L 171.25 53.75 M 96.25 46.25 L 100 46.25 C 102.06968134185067 46.25 103.75 47.93031865814933 103.75 50 C 103.75 52.06968134185067 102.06968134185067 53.75 100 53.75 L 96.25 53.75 M 28.75 46.25 L 28.75 50 C 28.75 52.06968134185067 27.069681341850664 53.75 25 53.75 C 22.930318658149336 53.75 21.25 52.06968134185067 21.25 50 C 21.25 47.93031865814933 22.930318658149336 46.25 25 46.25 L 78.75 46.25 M 471.25 28.75 L 471.25 25 C 471.25 13.2718057295129 461.7281942704871 3.75 450 3.7500000000000004 C 438.2718057295129 3.75 428.75 13.2718057295129 428.75 25 C 428.75 36.7281942704871 438.2718057295129 46.25 450 46.25 L 475 46.25 C 486.7281942704871 46.25 496.25 36.7281942704871 496.25 25 L 496.25 12.5 C 496.25 7.670743535681782 492.32925646431823 3.75 487.5 3.7500000000000004 C 482.67074353568177 3.75 478.75 7.670743535681782 478.75 12.5 L 478.75 25 C 478.75 27.069681341850664 477.06968134185064 28.75 475 28.75 L 450 28.75 C 447.93031865814936 28.75 446.25 27.069681341850664 446.25 25 C 446.25 22.930318658149336 447.93031865814936 21.25 450 21.25 C 452.06968134185064 21.25 453.75 22.930318658149336 453.75 25 L 453.75 28.75 M 378.75 0 L 378.75 28.75 M 396.25 28.75 L 396.25 25 C 396.25 22.930318658149336 397.93031865814936 21.25 400 21.25 L 412.5 21.25 C 417.32925646431823 21.25 421.25 17.329256464318217 421.25 12.5 C 421.25 7.670743535681782 417.32925646431823 3.75 412.5 3.7500000000000004 L 400 3.7500000000000004 C 397.93031865814936 3.7500000000000004 396.25 2.0696813418506648 396.25 0 M 353.75 103.75 L 353.75 12.5 C 353.75 7.670743535681782 357.67074353568177 3.75 362.5 3.7500000000000004 C 367.32925646431823 3.75 371.25 7.670743535681782 371.25 12.5 L 371.25 50 C 371.25 52.06968134185067 372.93031865814936 53.75 375 53.75 L 400 53.75 C 402.06968134185064 53.75 403.75 52.06968134185067 403.75 50 C 403.75 47.93031865814933 402.06968134185064 46.25 400 46.25 L 371.25 46.25 M 321.25 78.75 L 321.25 75 C 321.25 72.93031865814933 322.93031865814936 71.25 325 71.25 L 337.5 71.25 C 342.32925646431823 71.25 346.25 67.32925646431822 346.25 62.5 C 346.25 57.67074353568178 342.32925646431823 53.75 337.5 53.75 L 325 53.75 C 322.93031865814936 53.75 321.25 52.06968134185067 321.25 50 L 321.25 25 C 321.25 22.930318658149336 322.93031865814936 21.25 325 21.25 C 327.06968134185064 21.25 328.75 22.930318658149336 328.75 25 C 328.75 27.069681341850664 327.06968134185064 28.75 325 28.75 L 321.25 28.75 M 278.75 103.75 L 278.75 25 C 278.75 13.2718057295129 288.2718057295129 3.75 300 3.7500000000000004 L 325 3.7500000000000004 C 336.7281942704871 3.75 346.25 13.2718057295129 346.25 25 C 346.25 27.069681341850664 347.93031865814936 28.75 350 28.75 L 353.75 28.75 M 296.25 103.75 L 296.25 25 C 296.25 22.930318658149336 297.93031865814936 21.25 300 21.25 C 302.06968134185064 21.25 303.75 22.930318658149336 303.75 25 L 303.75 78.75 M 246.25 53.75 L 250 53.75 C 252.06968134185067 53.75 253.75 52.06968134185067 253.75 50 L 253.75 12.5 C 253.75 7.670743535681782 257.67074353568177 3.75 262.5 3.7500000000000004 C 267.32925646431823 3.75 271.25 7.670743535681782 271.25 12.5 L 271.25 78.75 M 171.25 78.75 L 225 78.75 C 227.06968134185067 78.75 228.75 77.06968134185067 228.75 75 L 228.75 12.5 C 228.75 7.670743535681782 232.6707435356818 3.75 237.5 3.7500000000000004 C 242.3292564643182 3.75 246.25 7.670743535681782 246.25 12.5 L 246.25 75 C 246.25 77.06968134185067 247.93031865814933 78.75 250 78.75 L 278.75 78.75 M 203.75 53.75 L 203.75 12.5 C 203.75 7.670743535681782 207.6707435356818 3.75 212.5 3.7500000000000004 C 217.3292564643182 3.75 221.25 7.670743535681782 221.25 12.5 L 221.25 25 C 221.25 27.069681341850664 222.93031865814933 28.75 225 28.75 L 228.75 28.75 M 153.75 28.75 L 153.75 12.5 C 153.75 7.670743535681782 157.6707435356818 3.75 162.5 3.7500000000000004 C 167.3292564643182 3.75 171.25 7.670743535681782 171.25 12.5 L 171.25 28.75 M 128.75 53.75 L 128.75 12.5 C 128.75 7.670743535681782 132.6707435356818 3.75 137.5 3.7500000000000004 C 142.3292564643182 3.75 146.25 7.670743535681782 146.25 12.5 L 146.25 25 C 146.25 27.069681341850664 147.93031865814933 28.75 150 28.75 L 175 28.75 C 177.06968134185067 28.75 178.75 27.069681341850664 178.75 25 L 178.75 12.5 C 178.75 7.670743535681782 182.6707435356818 3.75 187.5 3.7500000000000004 C 192.3292564643182 3.75 196.25 7.670743535681782 196.25 12.5 L 196.25 50 C 196.25 52.06968134185067 197.93031865814933 53.75 200 53.75 L 228.75 53.75 M 96.25 28.75 L 100 28.75 C 102.06968134185067 28.75 103.75 27.069681341850664 103.75 25 L 103.75 12.5 C 103.75 7.670743535681782 107.67074353568178 3.75 112.5 3.7500000000000004 C 117.32925646431822 3.75 121.25 7.670743535681782 121.25 12.5 L 121.25 50 C 121.25 52.06968134185067 122.93031865814933 53.75 125 53.75 L 175 53.75 C 177.06968134185067 53.75 178.75 52.06968134185067 178.75 50 C 178.75 47.93031865814933 177.06968134185067 46.25 175 46.25 L 150 46.25 C 147.93031865814933 46.25 146.25 47.93031865814933 146.25 50 L 146.25 53.75 M 28.75 28.75 L 28.75 12.5 C 28.75 7.670743535681782 32.67074353568178 3.75 37.5 3.7500000000000004 C 42.32925646431822 3.75 46.25 7.670743535681782 46.25 12.5 L 46.25 28.75 M 46.25 46.25 L 46.25 50 C 46.25 61.7281942704871 36.7281942704871 71.25 25 71.25 C 22.930318658149336 71.25 21.25 72.93031865814933 21.25 75 L 21.25 87.5 C 21.25 92.32925646431822 17.329256464318217 96.25 12.5 96.25 C 7.670743535681782 96.25 3.75 92.32925646431822 3.7500000000000004 87.5 L 3.7500000000000004 12.5 C 3.75 7.670743535681782 7.670743535681782 3.75 12.5 3.7500000000000004 C 17.329256464318217 3.75 21.25 7.670743535681782 21.25 12.5 L 21.25 25 C 21.25 27.069681341850664 22.930318658149336 28.75 25 28.75 L 50 28.75 C 52.06968134185067 28.75 53.75 27.069681341850664 53.75 25 C 53.75 13.2718057295129 63.2718057295129 3.75 75 3.7500000000000004 C 86.7281942704871 3.75 96.25 13.2718057295129 96.25 25 L 96.25 87.5 C 96.25 92.32925646431822 92.32925646431822 96.25 87.5 96.25 C 82.67074353568178 96.25 78.75 92.32925646431822 78.75 87.5 L 78.75 25 C 78.75 22.930318658149336 77.06968134185067 21.25 75 21.25 C 72.93031865814933 21.25 71.25 22.930318658149336 71.25 25 C 71.25 27.069681341850664 72.93031865814933 28.75 75 28.75 L 78.75 28.75 "/>
</svg>
