<?xml version="1.0" encoding="UTF-8"?>
<svg xmlns="http://www.w3.org/2000/svg" xmlns:xlink="http://www.w3.org/1999/xlink" width="500" height="500" viewBox="0 0 500 500">
<rect x="-50" y="-50" width="600" height="600" fill="rgb(100%, 100%, 100%)" fill-opacity="1"/>
<path fill="none" stroke-width="3.75" stroke-linecap="square" stroke-linejoin="miter" stroke="rgb(100%, 0%, 0%)" stroke-opacity="1" stroke-miterlimit="10" d="M 137.5 0 L 137.5 12.5 L 150 12.5 L 162.5 12.5 L 162.5 25 L 162.5 37.5 L 175 37.5 L 187.5 37.5 L 187.5 50 L 187.5 62.5 L 200 62.5 L 212.5 62.5 L 212.5 50 L 212.5 25 L 212.5 12.5 L 225 12.5 L 250 12.5 L 262.5 12.5 L 262.5 25 L 262.5 50 L 262.5 62.5 L 275 62.5 L 325 62.5 L 337.5 62.5 L 337.5 75 L 337.5 87.5 L 350 87.5 L 362.5 87.5 L 362.5 100 L 362.5 125 L 362.5 137.5 L 350 137.5 L 337.5 137.5 L 337.5 125 L 337.5 112.5 L 325 112.5 L 275 112.5 L 262.5 112.5 L 262.5 125 L 262.5 175 L 262.5 187.5 L 250 187.5 L 237.5 187.5 L 237.5 175 L 237.5 162.5 L 225 162.5 L 212.5 162.5 L 212.5 175 L 212.5 200 L 212.5 212.5 L 200 212.5 L 175 212.5 L 162.5 212.5 L 162.5 200 L 162.5 175 L 162.5 162.5 L 150 162.5 L 75 162.5 L 62.5 162.5 L 62.5 175 L 62.5 187.5 L 50 187.5 L 37.5 187.5 L 37.5 200 L 37.5 225 L 37.5 237.5 L 25 237.5 L 12.5 237.5 L 12.5 250 L 12.5 375 L 12.5 387.5 L 25 387.5 L 37.5 387.5 L 37.5 375 L 37.5 300 L 37.5 287.5 L 50 287.5 L 62.5 287.5 L 62.5 275 L 62.5 262.5 L 75 262.5 L 87.5 262.5 L 87.5 250 L 87.5 237.5 L 75 237.5 L 62.5 237.5 L 62.5 225 L 62.5 212.5 L 75 212.5 L 87.5 212.5 L 87.5 200 L 87.5 187.5 L 100 187.5 L 112.5 187.5 L 112.5 200 L 112.5 250 L 112.5 262.5 L 125 262.5 L 137.5 262.5 L 137.5 275 L 137.5 287.5 L 125 287.5 L 100 287.5 L 87.5 287.5 L 87.5 300 L 87.5 312.5 L 100 312.5 L 150 312.5 L 162.5 312.5 L 162.5 300 L 162.5 250 L 162.5 237.5 L 175 237.5 L 225 237.5 L 237.5 237.5 L 237.5 225 L 237.5 212.5 L 250 212.5 L 262.5 212.5 L 262.5 225 L 262.5 237.5 L 275 237.5 L 287.5 237.5 L 287.5 250 L 287.5 275 L 287.5 287.5 L 275 287.5 L 250 287.5 L 237.5 287.5 L 237.5 300 L 237.5 312.5 L 225 312.5 L 212.5 312.5 L 212.5 300 L 212.5 287.5 L 200 287.5 L 187.5 287.5 L 187.5 300 L 187.5 325 L 187.5 337.5 L 175 337.5 L 125 337.5 L 112.5 337.5 L 112.5 350 L 112.5 362.5 L 125 362.5 L 150 362.5 L 162.5 362.5 L 162.5 375 L 162.5 387.5 L 175 387.5 L 200 387.5 L 212.5 387.5 L 212.5 400 L 212.5 412.5 L 200 412.5 L 175 412.5 L 162.5 412.5 L 162.5 425 L 162.5 437.5 L 150 437.5 L 125 437.5 L 112.5 437.5 L 112.5 450 L 112.5 462.5 L 100 462.5 L 75 462.5 L 62.5 462.5 L 62.5 450 L 62.5 425 L 62.5 412.5 L 50 412.5 L 37.5 412.5 L 37.5 425 L 37.5 437.5 L 25 437.5 L 12.5 437.5 L 12.5 450 L 12.5 462.5 L 25 462.5 L 37.5 462.5 L 37.5 475 L 37.5 487.5 L 50 487.5 L 125 487.5 L 137.5 487.5 L 137.5 475 L 137.5 462.5 L 150 462.5 L 162.5 462.5 L 162.5 475 L 162.5 487.5 L 175 487.5 L 225 487.5 L 237.5 487.5 L 237.5 475 L 237.5 462.5 L 225 462.5 L 200 462.5 L 187.5 462.5 L 187.5 450 L 187.5 437.5 L 200 437.5 L 275 437.5 L 287.5 437.5 L 287.5 450 L 287.5 462.5 L 300 462.5 L 312.5 462.5 L 312.5 475 L 312.5 487.5 L 325 487.5 L 337.5 487.5 L 337.5 475 L 337.5 462.5 L 350 462.5 L 362.5 462.5 L 362.5 450 L 362.5 437.5 L 350 437.5 L 325 437.5 L 312.5 437.5 L 312.5 425 L 312.5 412.5 L 300 412.5 L 250 412.5 L 237.5 412.5 L 237.5 400 L 237.5 387.5 L 250 387.5 L 300 387.5 L 312.5 387.5 L 312.5 375 L 312.5 362.5 L 325 362.5 L 375 362.5 L 387.5 362.5 L 387.5 375 L 387.5 387.5 L 400 387.5 L 412.5 387.5 L 412.5 400 L 412.5 412.5 L 425 412.5 L 437.5 412.5 L 437.5 425 L 437.5 437.5 L 450 437.5 L 462.5 437.5 L 462.5 425 L 462.5 412.5 L 475 412.5 L 487.5 412.5 L 487.5 400 L 487.5 375 L 487.5 362.5 L 475 362.5 L 450 362.5 L 437.5 362.5 L 437.5 350 L 437.5 337.5 L 425 337.5 L 412.5 337.5 L 412.5 325 L 412.5 312.5 L 400 312.5 L 375 312.5 L 362.5 312.5 L 362.5 325 L 362.5 337.5 L 350 337.5 L 325 337.5 L 312.5 337.5 L 312.5 325 L 312.5 275 L 312.5 262.5 L 325 262.5 L 337.5 262.5 L 337.5 250 L 337.5 225 L 337.5 212.5 L 350 212.5 L 362.5 212.5 L 362.5 200 L 362.5 187.5 L 375 187.5 L 387.5 187.5 L 387.5 200 L 387.5 212.5 L 400 212.5 L 412.5 212.5 L 412.5 225 L 412.5 237.5 L 425 237.5 L 437.5 237.5 L 437.5 250 L 437.5 262.5 L 425 262.5 L 412.5 262.5 L 412.5 275 L 412.5 287.5 L 425 287.5 L 475 287.5 L 487.5 287.5 L 487.5 275 L 487.5 262.5 L 475 262.5 L 462.5 262.5 L 462.5 250 L 462.5 237.5 L 475 237.5 L 487.5 237.5 L 487.5 225 L 487.5 212.5 L 475 212.5 L 450 212.5 L 437.5 212.5 L 437.5 200 L 437.5 187.5 L 450 187.5 L 462.5 187.5 L 462.5 175 L 462.5 162.5 L 450 162.5 L 437.5 162.5 L 437.5 150 L 437.5 137.5 L 425 137.5 L 412.5 137.5 L 412.5 150 L 412.5 162.5 L 400 162.5 L 387.5 162.5 L 387.5 150 L 387.5 125 L 387.5 112.5 L 400 112.5 L 450 112.5 L 462.5 112.5 L 462.5 100 L 462.5 87.5 L 450 87.5 L 437.5 87.5 L 437.5 75 L 437.5 62.5 L 450 62.5 L 462.5 62.5 L 462.5 50 L 462.5 37.5 L 450 37.5 L 400 37.5 L 387.5 37.5 L 387.5 25 L 387.5 12.5 L 400 12.5 L 475 12.5 L 487.5 12.5 L 487.5 25 L 487.5 175 L 487.5 187.5 L 500 187.5 "/>
<path fill="none" stroke-width="3.75" stroke-linecap="square" stroke-linejoin="miter" stroke="rgb(0%, 0%, 0%)" stroke-opacity="1" stroke-miterlimit="10" d="M 141.25 0 L 141.25 8.75 L 150 8.75 L 166.25 8.75 L 166.25 25 L 166.25 33.75 L 175 33.75 L 191.25 33.75 L 191.25 50 L 191.25 58.75 L 200 58.75 L 208.75 58.75 L 208.75 50 L 208.75 25 L 208.75 16.25 L 200 16.25 L 187.5 16.25 L 183.75 16.25 L 183.75 12.5 L 183.75 8.75 L 187.5 8.75 L 250 8.75 L 266.25 8.75 L 266.25 25 L 266.25 50 L 266.25 58.75 L 275 58.75 L 325 58.75 L 341.25 58.75 L 341.25 75 L 341.25 83.75 L 350 83.75 L 366.25 83.75 L 366.25 100 L 366.25 125 L 366.25 141.25 L 350 141.25 L 333.75 141.25 L 333.75 125 L 333.75 116.25 L 325 116.25 L 275 116.25 L 266.25 116.25 L 266.25 125 L 266.25 175 L 266.25 191.25 L 250 191.25 L 233.75 191.25 L 233.75 175 L 233.75 166.25 L 225 166.25 L 216.25 166.25 L 216.25 175 L 216.25 200 L 216.25 216.25 L 200 216.25 L 175 216.25 L 158.75 216.25 L 158.75 200 L 158.75 175 L 158.75 166.25 L 150 166.25 L 75 166.25 L 66.25 166.25 L 66.25 175 L 66.25 191.25 L 50 191.25 L 41.25 191.25 L 41.25 200 L 41.25 225 L 41.25 241.25 L 25 241.25 L 16.25 241.25 L 16.25 250 L 16.25 375 L 16.25 383.75 L 25 383.75 L 33.75 383.75 L 33.75 375 L 33.75 300 L 33.75 283.75 L 50 283.75 L 58.75 283.75 L 58.75 275 L 58.75 266.25 L 50 266.25 L 37.5 266.25 L 33.75 266.25 L 33.75 262.5 L 33.75 258.75 L 37.5 258.75 L 75 258.75 L 83.75 258.75 L 83.75 250 L 83.75 241.25 L 75 241.25 L 58.75 241.25 L 58.75 225 L 58.75 208.75 L 75 208.75 L 83.75 208.75 L 83.75 200 L 83.75 183.75 L 100 183.75 L 116.25 183.75 L 116.25 200 L 116.25 250 L 116.25 258.75 L 125 258.75 L 141.25 258.75 L 141.25 275 L 141.25 291.25 L 125 291.25 L 100 291.25 L 91.25 291.25 L 91.25 300 L 91.25 308.75 L 100 308.75 L 150 308.75 L 158.75 308.75 L 158.75 300 L 158.75 250 L 158.75 241.25 L 150 241.25 L 133.75 241.25 L 133.75 225 L 133.75 187.5 L 133.75 183.75 L 137.5 183.75 L 141.25 183.75 L 141.25 187.5 L 141.25 225 L 141.25 233.75 L 150 233.75 L 225 233.75 L 233.75 233.75 L 233.75 225 L 233.75 208.75 L 250 208.75 L 266.25 208.75 L 266.25 225 L 266.25 233.75 L 275 233.75 L 291.25 233.75 L 291.25 250 L 291.25 275 L 291.25 291.25 L 275 291.25 L 250 291.25 L 241.25 291.25 L 241.25 300 L 241.25 316.25 L 225 316.25 L 208.75 316.25 L 208.75 300 L 208.75 291.25 L 200 291.25 L 191.25 291.25 L 191.25 300 L 191.25 325 L 191.25 341.25 L 175 341.25 L 125 341.25 L 116.25 341.25 L 116.25 350 L 116.25 358.75 L 125 358.75 L 150 358.75 L 166.25 358.75 L 166.25 375 L 166.25 383.75 L 175 383.75 L 200 383.75 L 216.25 383.75 L 216.25 400 L 216.25 416.25 L 200 416.25 L 175 416.25 L 166.25 416.25 L 166.25 425 L 166.25 441.25 L 150 441.25 L 125 441.25 L 116.25 441.25 L 116.25 450 L 116.25 466.25 L 100 466.25 L 75 466.25 L 58.75 466.25 L 58.75 450 L 58.75 425 L 58.75 416.25 L 50 416.25 L 41.25 416.25 L 41.25 425 L 41.25 441.25 L 25 441.25 L 16.25 441.25 L 16.25 450 L 16.25 458.75 L 25 458.75 L 41.25 458.75 L 41.25 475 L 41.25 483.75 L 50 483.75 L 125 483.75 L 133.75 483.75 L 133.75 475 L 133.75 458.75 L 150 458.75 L 166.25 458.75 L 166.25 475 L 166.25 483.75 L 175 483.75 L 225 483.75 L 233.75 483.75 L 233.75 475 L 233.75 466.25 L 225 466.25 L 200 466.25 L 183.75 466.25 L 183.75 450 L 183.75 433.75 L 200 433.75 L 275 433.75 L 291.25 433.75 L 291.25 450 L 291.25 458.75 L 300 458.75 L 316.25 458.75 L 316.25 475 L 316.25 483.75 L 325 483.75 L 333.75 483.75 L 333.75 475 L 333.75 458.75 L 350 458.75 L 358.75 458.75 L 358.75 450 L 358.75 441.25 L 350 441.25 L 325 441.25 L 308.75 441.25 L 308.75 425 L 308.75 416.25 L 300 416.25 L 250 416.25 L 233.75 416.25 L 233.75 400 L 233.75 383.75 L 250 383.75 L 300 383.75 L 308.75 383.75 L 308.75 375 L 308.75 358.75 L 325 358.75 L 375 358.75 L 391.25 358.75 L 391.25 375 L 391.25 383.75 L 400 383.75 L 416.25 383.75 L 416.25 400 L 416.25 408.75 L 425 408.75 L 441.25 408.75 L 441.25 425 L 441.25 433.75 L 450 433.75 L 458.75 433.75 L 458.75 425 L 458.75 408.75 L 475 408.75 L 483.75 408.75 L 483.75 400 L 483.75 375 L 483.75 366.25 L 475 366.25 L 450 366.25 L 441.25 366.25 L 441.25 375 L 441.25 383.75 L 450 383.75 L 462.5 383.75 L 466.25 383.75 L 466.25 387.5 L 466.25 391.25 L 462.5 391.25 L 450 391.25 L 433.75 391.25 L 433.75 375 L 433.75 350 L 433.75 341.25 L 425 341.25 L 416.25 341.25 L 416.25 350 L 416.25 362.5 L 416.25 366.25 L 412.5 366.25 L 408.75 366.25 L 408.75 362.5 L 408.75 325 L 408.75 316.25 L 400 316.25 L 375 316.25 L 366.25 316.25 L 366.25 325 L 366.25 333.75 L 375 333.75 L 387.5 333.75 L 391.25 333.75 L 391.25 337.5 L 391.25 341.25 L 387.5 341.25 L 325 341.25 L 308.75 341.25 L 308.75 325 L 308.75 316.25 L 300 316.25 L 291.25 316.25 L 291.25 325 L 291.25 350 L 291.25 366.25 L 275 366.25 L 250 366.25 L 233.75 366.25 L 233.75 350 L 233.75 341.25 L 225 341.25 L 216.25 341.25 L 216.25 350 L 216.25 366.25 L 200 366.25 L 187.5 366.25 L 183.75 366.25 L 183.75 362.5 L 183.75 358.75 L 187.5 358.75 L 200 358.75 L 208.75 358.75 L 208.75 350 L 208.75 333.75 L 225 333.75 L 250 333.75 L 258.75 333.75 L 258.75 325 L 258.75 312.5 L 258.75 308.75 L 262.5 308.75 L 266.25 308.75 L 266.25 312.5 L 266.25 325 L 266.25 341.25 L 250 341.25 L 241.25 341.25 L 241.25 350 L 241.25 358.75 L 250 358.75 L 275 358.75 L 283.75 358.75 L 283.75 350 L 283.75 325 L 283.75 308.75 L 300 308.75 L 308.75 308.75 L 308.75 300 L 308.75 275 L 308.75 258.75 L 325 258.75 L 333.75 258.75 L 333.75 250 L 333.75 225 L 333.75 208.75 L 350 208.75 L 358.75 208.75 L 358.75 200 L 358.75 183.75 L 375 183.75 L 391.25 183.75 L 391.25 200 L 391.25 208.75 L 400 208.75 L 416.25 208.75 L 416.25 225 L 416.25 233.75 L 425 233.75 L 441.25 233.75 L 441.25 250 L 441.25 266.25 L 425 266.25 L 416.25 266.25 L 416.25 275 L 416.25 283.75 L 425 283.75 L 475 283.75 L 483.75 283.75 L 483.75 275 L 483.75 266.25 L 475 266.25 L 458.75 266.25 L 458.75 250 L 458.75 233.75 L 475 233.75 L 483.75 233.75 L 483.75 225 L 483.75 216.25 L 475 216.25 L 450 216.25 L 433.75 216.25 L 433.75 200 L 433.75 183.75 L 450 183.75 L 458.75 183.75 L 458.75 175 L 458.75 166.25 L 450 166.25 L 433.75 166.25 L 433.75 150 L 433.75 141.25 L 425 141.25 L 416.25 141.25 L 416.25 150 L 416.25 187.5 L 416.25 191.25 L 412.5 191.25 L 408.75 191.25 L 408.75 187.5 L 408.75 175 L 408.75 166.25 L 400 166.25 L 350 166.25 L 341.25 166.25 L 341.25 175 L 341.25 191.25 L 325 191.25 L 316.25 191.25 L 316.25 200 L 316.25 237.5 L 316.25 241.25 L 312.5 241.25 L 308.75 241.25 L 308.75 237.5 L 308.75 225 L 308.75 216.25 L 300 216.25 L 283.75 216.25 L 283.75 200 L 283.75 175 L 283.75 158.75 L 300 158.75 L 308.75 158.75 L 308.75 150 L 308.75 141.25 L 300 141.25 L 287.5 141.25 L 283.75 141.25 L 283.75 137.5 L 283.75 133.75 L 287.5 133.75 L 300 133.75 L 316.25 133.75 L 316.25 150 L 316.25 166.25 L 300 166.25 L 291.25 166.25 L 291.25 175 L 291.25 200 L 291.25 208.75 L 300 208.75 L 308.75 208.75 L 308.75 200 L 308.75 183.75 L 325 183.75 L 333.75 183.75 L 333.75 175 L 333.75 158.75 L 350 158.75 L 375 158.75 L 383.75 158.75 L 383.75 150 L 383.75 125 L 383.75 108.75 L 400 108.75 L 450 108.75 L 458.75 108.75 L 458.75 100 L 458.75 91.25 L 450 91.25 L 433.75 91.25 L 433.75 75 L 433.75 58.75 L 450 58.75 L 458.75 58.75 L 458.75 50 L 458.75 41.25 L 450 41.25 L 400 41.25 L 383.75 41.25 L 383.75 25 L 383.75 16.25 L 375 16.25 L 366.25 16.25 L 366.25 25 L 366.25 50 L 366.25 58.75 L 375 58.75 L 391.25 58.75 L 391.25 75 L 391.25 83.75 L 400 83.75 L 408.75 83.75 L 408.75 75 L 408.75 62.5 L 408.75 58.75 L 412.5 58.75 L 416.25 58.75 L 416.25 62.5 L 416.25 75 L 416.25 91.25 L 400 91.25 L 383.75 91.25 L 383.75 75 L 383.75 66.25 L 375 66.25 L 358.75 66.25 L 358.75 50 L 358.75 41.25 L 350 41.25 L 333.75 41.25 L 333.75 25 L 333.75 16.25 L 325 16.25 L 316.25 16.25 L 316.25 25 L 316.25 41.25 L 300 41.25 L 283.75 41.25 L 283.75 25 L 283.75 12.5 L 283.75 8.75 L 287.5 8.75 L 291.25 8.75 L 291.25 12.5 L 291.25 25 L 291.25 33.75 L 300 33.75 L 308.75 33.75 L 308.75 25 L 308.75 8.75 L 325 8.75 L 341.25 8.75 L 341.25 25 L 341.25 33.75 L 350 33.75 L 358.75 33.75 L 358.75 25 L 358.75 8.75 L 375 8.75 L 475 8.75 L 491.25 8.75 L 491.25 25 L 491.25 175 L 491.25 183.75 L 500 183.75 M 133.75 0 L 133.75 25 L 133.75 33.75 L 125 33.75 L 108.75 33.75 L 108.75 50 L 108.75 66.25 L 125 66.25 L 150 66.25 L 158.75 66.25 L 158.75 75 L 158.75 100 L 158.75 116.25 L 175 116.25 L 183.75 116.25 L 183.75 125 L 183.75 137.5 L 183.75 141.25 L 187.5 141.25 L 191.25 141.25 L 191.25 137.5 L 191.25 125 L 191.25 108.75 L 175 108.75 L 166.25 108.75 L 166.25 100 L 166.25 75 L 166.25 58.75 L 150 58.75 L 125 58.75 L 116.25 58.75 L 116.25 50 L 116.25 41.25 L 125 41.25 L 141.25 41.25 L 141.25 25 L 141.25 16.25 L 150 16.25 L 158.75 16.25 L 158.75 25 L 158.75 41.25 L 175 41.25 L 183.75 41.25 L 183.75 50 L 183.75 66.25 L 200 66.25 L 216.25 66.25 L 216.25 50 L 216.25 25 L 216.25 16.25 L 225 16.25 L 250 16.25 L 258.75 16.25 L 258.75 25 L 258.75 50 L 258.75 66.25 L 275 66.25 L 325 66.25 L 333.75 66.25 L 333.75 75 L 333.75 91.25 L 350 91.25 L 358.75 91.25 L 358.75 100 L 358.75 125 L 358.75 133.75 L 350 133.75 L 341.25 133.75 L 341.25 125 L 341.25 108.75 L 325 108.75 L 275 108.75 L 258.75 108.75 L 258.75 125 L 258.75 175 L 258.75 183.75 L 250 183.75 L 241.25 183.75 L 241.25 175 L 241.25 158.75 L 225 158.75 L 216.25 158.75 L 216.25 150 L 216.25 141.25 L 225 141.25 L 241.25 141.25 L 241.25 125 L 241.25 108.75 L 225 108.75 L 216.25 108.75 L 216.25 100 L 216.25 91.25 L 225 91.25 L 312.5 91.25 L 316.25 91.25 L 316.25 87.5 L 316.25 83.75 L 312.5 83.75 L 250 83.75 L 241.25 83.75 L 241.25 75 L 241.25 37.5 L 241.25 33.75 L 237.5 33.75 L 233.75 33.75 L 233.75 37.5 L 233.75 75 L 233.75 83.75 L 225 83.75 L 187.5 83.75 L 183.75 83.75 L 183.75 87.5 L 183.75 91.25 L 187.5 91.25 L 200 91.25 L 208.75 91.25 L 208.75 100 L 208.75 116.25 L 225 116.25 L 233.75 116.25 L 233.75 125 L 233.75 133.75 L 225 133.75 L 208.75 133.75 L 208.75 150 L 208.75 200 L 208.75 208.75 L 200 208.75 L 175 208.75 L 166.25 208.75 L 166.25 200 L 166.25 175 L 166.25 166.25 L 175 166.25 L 183.75 166.25 L 183.75 175 L 183.75 187.5 L 183.75 191.25 L 187.5 191.25 L 191.25 191.25 L 191.25 187.5 L 191.25 175 L 191.25 158.75 L 175 158.75 L 75 158.75 L 58.75 158.75 L 58.75 175 L 58.75 183.75 L 50 183.75 L 33.75 183.75 L 33.75 200 L 33.75 225 L 33.75 233.75 L 25 233.75 L 16.25 233.75 L 16.25 225 L 16.25 150 L 16.25 141.25 L 25 141.25 L 33.75 141.25 L 33.75 150 L 33.75 162.5 L 33.75 166.25 L 37.5 166.25 L 41.25 166.25 L 41.25 162.5 L 41.25 150 L 41.25 141.25 L 50 141.25 L 66.25 141.25 L 66.25 125 L 66.25 100 L 66.25 91.25 L 75 91.25 L 83.75 91.25 L 83.75 100 L 83.75 116.25 L 100 116.25 L 125 116.25 L 133.75 116.25 L 133.75 125 L 133.75 133.75 L 125 133.75 L 87.5 133.75 L 83.75 133.75 L 83.75 137.5 L 83.75 141.25 L 87.5 141.25 L 162.5 141.25 L 166.25 141.25 L 166.25 137.5 L 166.25 133.75 L 162.5 133.75 L 150 133.75 L 141.25 133.75 L 141.25 125 L 141.25 100 L 141.25 83.75 L 125 83.75 L 112.5 83.75 L 108.75 83.75 L 108.75 87.5 L 108.75 91.25 L 112.5 91.25 L 125 91.25 L 133.75 91.25 L 133.75 100 L 133.75 108.75 L 125 108.75 L 100 108.75 L 91.25 108.75 L 91.25 100 L 91.25 50 L 91.25 33.75 L 75 33.75 L 25 33.75 L 16.25 33.75 L 16.25 25 L 16.25 16.25 L 25 16.25 L 112.5 16.25 L 116.25 16.25 L 116.25 12.5 L 116.25 8.75 L 112.5 8.75 L 25 8.75 L 8.75 8.75 L 8.75 25 L 8.75 50 L 8.75 66.25 L 25 66.25 L 33.75 66.25 L 33.75 75 L 33.75 83.75 L 25 83.75 L 8.75 83.75 L 8.75 100 L 8.75 116.25 L 25 116.25 L 37.5 116.25 L 41.25 116.25 L 41.25 112.5 L 41.25 108.75 L 37.5 108.75 L 25 108.75 L 16.25 108.75 L 16.25 100 L 16.25 91.25 L 25 91.25 L 41.25 91.25 L 41.25 75 L 41.25 66.25 L 50 66.25 L 62.5 66.25 L 66.25 66.25 L 66.25 62.5 L 66.25 58.75 L 62.5 58.75 L 25 58.75 L 16.25 58.75 L 16.25 50 L 16.25 41.25 L 25 41.25 L 75 41.25 L 83.75 41.25 L 83.75 50 L 83.75 75 L 83.75 83.75 L 75 83.75 L 58.75 83.75 L 58.75 100 L 58.75 125 L 58.75 133.75 L 50 133.75 L 25 133.75 L 8.75 133.75 L 8.75 150 L 8.75 375 L 8.75 391.25 L 25 391.25 L 41.25 391.25 L 41.25 375 L 41.25 300 L 41.25 291.25 L 50 291.25 L 66.25 291.25 L 66.25 275 L 66.25 266.25 L 75 266.25 L 91.25 266.25 L 91.25 250 L 91.25 233.75 L 75 233.75 L 66.25 233.75 L 66.25 225 L 66.25 216.25 L 75 216.25 L 91.25 216.25 L 91.25 200 L 91.25 191.25 L 100 191.25 L 108.75 191.25 L 108.75 200 L 108.75 250 L 108.75 266.25 L 125 266.25 L 133.75 266.25 L 133.75 275 L 133.75 283.75 L 125 283.75 L 100 283.75 L 83.75 283.75 L 83.75 300 L 83.75 316.25 L 100 316.25 L 150 316.25 L 166.25 316.25 L 166.25 300 L 166.25 250 L 166.25 241.25 L 175 241.25 L 225 241.25 L 241.25 241.25 L 241.25 225 L 241.25 216.25 L 250 216.25 L 258.75 216.25 L 258.75 225 L 258.75 241.25 L 275 241.25 L 283.75 241.25 L 283.75 250 L 283.75 275 L 283.75 283.75 L 275 283.75 L 250 283.75 L 233.75 283.75 L 233.75 300 L 233.75 308.75 L 225 308.75 L 216.25 308.75 L 216.25 300 L 216.25 283.75 L 200 283.75 L 191.25 283.75 L 191.25 275 L 191.25 266.25 L 200 266.25 L 262.5 266.25 L 266.25 266.25 L 266.25 262.5 L 266.25 258.75 L 262.5 258.75 L 200 258.75 L 183.75 258.75 L 183.75 275 L 183.75 325 L 183.75 333.75 L 175 333.75 L 125 333.75 L 108.75 333.75 L 108.75 350 L 108.75 366.25 L 125 366.25 L 150 366.25 L 158.75 366.25 L 158.75 375 L 158.75 391.25 L 175 391.25 L 200 391.25 L 208.75 391.25 L 208.75 400 L 208.75 408.75 L 200 408.75 L 175 408.75 L 158.75 408.75 L 158.75 425 L 158.75 433.75 L 150 433.75 L 125 433.75 L 108.75 433.75 L 108.75 450 L 108.75 458.75 L 100 458.75 L 75 458.75 L 66.25 458.75 L 66.25 450 L 66.25 400 L 66.25 391.25 L 75 391.25 L 125 391.25 L 133.75 391.25 L 133.75 400 L 133.75 408.75 L 125 408.75 L 100 408.75 L 83.75 408.75 L 83.75 425 L 83.75 437.5 L 83.75 441.25 L 87.5 441.25 L 91.25 441.25 L 91.25 437.5 L 91.25 425 L 91.25 416.25 L 100 416.25 L 125 416.25 L 141.25 416.25 L 141.25 400 L 141.25 383.75 L 125 383.75 L 100 383.75 L 91.25 383.75 L 91.25 375 L 91.25 358.75 L 75 358.75 L 66.25 358.75 L 66.25 350 L 66.25 341.25 L 75 341.25 L 87.5 341.25 L 91.25 341.25 L 91.25 337.5 L 91.25 333.75 L 87.5 333.75 L 75 333.75 L 66.25 333.75 L 66.25 325 L 66.25 312.5 L 66.25 308.75 L 62.5 308.75 L 58.75 308.75 L 58.75 312.5 L 58.75 350 L 58.75 366.25 L 75 366.25 L 83.75 366.25 L 83.75 375 L 83.75 383.75 L 75 383.75 L 58.75 383.75 L 58.75 400 L 58.75 408.75 L 50 408.75 L 33.75 408.75 L 33.75 425 L 33.75 433.75 L 25 433.75 L 16.25 433.75 L 16.25 425 L 16.25 412.5 L 16.25 408.75 L 12.5 408.75 L 8.75 408.75 L 8.75 412.5 L 8.75 450 L 8.75 466.25 L 25 466.25 L 33.75 466.25 L 33.75 475 L 33.75 483.75 L 25 483.75 L 12.5 483.75 L 8.75 483.75 L 8.75 487.5 L 8.75 491.25 L 12.5 491.25 L 125 491.25 L 141.25 491.25 L 141.25 475 L 141.25 466.25 L 150 466.25 L 158.75 466.25 L 158.75 475 L 158.75 491.25 L 175 491.25 L 225 491.25 L 241.25 491.25 L 241.25 475 L 241.25 458.75 L 225 458.75 L 200 458.75 L 191.25 458.75 L 191.25 450 L 191.25 441.25 L 200 441.25 L 275 441.25 L 283.75 441.25 L 283.75 450 L 283.75 466.25 L 300 466.25 L 308.75 466.25 L 308.75 475 L 308.75 483.75 L 300 483.75 L 275 483.75 L 266.25 483.75 L 266.25 475 L 266.25 462.5 L 266.25 458.75 L 262.5 458.75 L 258.75 458.75 L 258.75 462.5 L 258.75 475 L 258.75 491.25 L 275 491.25 L 325 491.25 L 341.25 491.25 L 341.25 475 L 341.25 466.25 L 350 466.25 L 366.25 466.25 L 366.25 450 L 366.25 433.75 L 350 433.75 L 325 433.75 L 316.25 433.75 L 316.25 425 L 316.25 408.75 L 300 408.75 L 250 408.75 L 241.25 408.75 L 241.25 400 L 241.25 391.25 L 250 391.25 L 300 391.25 L 316.25 391.25 L 316.25 375 L 316.25 366.25 L 325 366.25 L 375 366.25 L 383.75 366.25 L 383.75 375 L 383.75 391.25 L 400 391.25 L 408.75 391.25 L 408.75 400 L 408.75 416.25 L 425 416.25 L 433.75 416.25 L 433.75 425 L 433.75 441.25 L 450 441.25 L 466.25 441.25 L 466.25 425 L 466.25 416.25 L 475 416.25 L 483.75 416.25 L 483.75 425 L 483.75 475 L 483.75 483.75 L 475 483.75 L 450 483.75 L 441.25 483.75 L 441.25 475 L 441.25 466.25 L 450 466.25 L 462.5 466.25 L 466.25 466.25 L 466.25 462.5 L 466.25 458.75 L 462.5 458.75 L 400 458.75 L 391.25 458.75 L 391.25 450 L 391.25 441.25 L 400 441.25 L 412.5 441.25 L 416.25 441.25 L 416.25 437.5 L 416.25 433.75 L 412.5 433.75 L 400 433.75 L 391.25 433.75 L 391.25 425 L 391.25 408.75 L 375 408.75 L 350 408.75 L 341.25 408.75 L 341.25 400 L 341.25 391.25 L 350 391.25 L 362.5 391.25 L 366.25 391.25 L 366.25 387.5 L 366.25 383.75 L 362.5 383.75 L 350 383.75 L 333.75 383.75 L 333.75 400 L 333.75 416.25 L 350 416.25 L 375 416.25 L 383.75 416.25 L 383.75 425 L 383.75 475 L 383.75 483.75 L 375 483.75 L 362.5 483.75 L 358.75 483.75 L 358.75 487.5 L 358.75 491.25 L 362.5 491.25 L 412.5 491.25 L 416.25 491.25 L 416.25 487.5 L 416.25 483.75 L 412.5 483.75 L 400 483.75 L 391.25 483.75 L 391.25 475 L 391.25 466.25 L 400 466.25 L 425 466.25 L 433.75 466.25 L 433.75 475 L 433.75 491.25 L 450 491.25 L 475 491.25 L 491.25 491.25 L 491.25 475 L 491.25 375 L 491.25 358.75 L 475 358.75 L 450 358.75 L 441.25 358.75 L 441.25 350 L 441.25 333.75 L 425 333.75 L 416.25 333.75 L 416.25 325 L 416.25 308.75 L 400 308.75 L 375 308.75 L 358.75 308.75 L 358.75 325 L 358.75 333.75 L 350 333.75 L 325 333.75 L 316.25 333.75 L 316.25 325 L 316.25 275 L 316.25 266.25 L 325 266.25 L 341.25 266.25 L 341.25 250 L 341.25 225 L 341.25 216.25 L 350 216.25 L 366.25 216.25 L 366.25 200 L 366.25 191.25 L 375 191.25 L 383.75 191.25 L 383.75 200 L 383.75 216.25 L 400 216.25 L 408.75 216.25 L 408.75 225 L 408.75 241.25 L 425 241.25 L 433.75 241.25 L 433.75 250 L 433.75 258.75 L 425 258.75 L 408.75 258.75 L 408.75 275 L 408.75 283.75 L 400 283.75 L 375 283.75 L 366.25 283.75 L 366.25 275 L 366.25 266.25 L 375 266.25 L 391.25 266.25 L 391.25 250 L 391.25 233.75 L 375 233.75 L 362.5 233.75 L 358.75 233.75 L 358.75 237.5 L 358.75 241.25 L 362.5 241.25 L 375 241.25 L 383.75 241.25 L 383.75 250 L 383.75 258.75 L 375 258.75 L 358.75 258.75 L 358.75 275 L 358.75 283.75 L 350 283.75 L 333.75 283.75 L 333.75 300 L 333.75 312.5 L 333.75 316.25 L 337.5 316.25 L 341.25 316.25 L 341.25 312.5 L 341.25 300 L 341.25 291.25 L 350 291.25 L 475 291.25 L 483.75 291.25 L 483.75 300 L 483.75 308.75 L 475 308.75 L 437.5 308.75 L 433.75 308.75 L 433.75 312.5 L 433.75 316.25 L 437.5 316.25 L 450 316.25 L 458.75 316.25 L 458.75 325 L 458.75 341.25 L 475 341.25 L 487.5 341.25 L 491.25 341.25 L 491.25 337.5 L 491.25 333.75 L 487.5 333.75 L 475 333.75 L 466.25 333.75 L 466.25 325 L 466.25 316.25 L 475 316.25 L 491.25 316.25 L 491.25 300 L 491.25 275 L 491.25 258.75 L 475 258.75 L 466.25 258.75 L 466.25 250 L 466.25 241.25 L 475 241.25 L 491.25 241.25 L 491.25 225 L 491.25 208.75 L 475 208.75 L 450 208.75 L 441.25 208.75 L 441.25 200 L 441.25 191.25 L 450 191.25 L 466.25 191.25 L 466.25 175 L 466.25 158.75 L 450 158.75 L 441.25 158.75 L 441.25 150 L 441.25 133.75 L 425 133.75 L 408.75 133.75 L 408.75 150 L 408.75 158.75 L 400 158.75 L 391.25 158.75 L 391.25 150 L 391.25 125 L 391.25 116.25 L 400 116.25 L 450 116.25 L 466.25 116.25 L 466.25 100 L 466.25 83.75 L 450 83.75 L 441.25 83.75 L 441.25 75 L 441.25 66.25 L 450 66.25 L 466.25 66.25 L 466.25 50 L 466.25 33.75 L 450 33.75 L 400 33.75 L 391.25 33.75 L 391.25 25 L 391.25 16.25 L 400 16.25 L 475 16.25 L 483.75 16.25 L 483.75 25 L 483.75 125 L 483.75 133.75 L 475 133.75 L 462.5 133.75 L 458.75 133.75 L 458.75 137.5 L 458.75 141.25 L 462.5 141.25 L 475 141.25 L 483.75 141.25 L 483.75 150 L 483.75 175 L 483.75 191.25 L 500 191.25 "/>
</svg>
