<?xml version="1.0" encoding="UTF-8"?>
<svg xmlns="http://www.w3.org/2000/svg" xmlns:xlink="http://www.w3.org/1999/xlink" width="320" height="320" viewBox="0 0 320 320">
<rect x="-32" y="-32" width="384" height="384" fill="rgb(98.039216%, 96.470588%, 96.078431%)" fill-opacity="1"/>
<path fill="none" stroke-width="1.6" stroke-linecap="square" stroke-linejoin="miter" stroke="rgb(43.921569%, 63.921569%, 72.156863%)" stroke-opacity="1" stroke-miterlimit="10" d="M 0 256 L 320 256 M 0 192 L 320 192 M 0 128 L 320 128 M 0 64 L 320 64 M 256 0 L 256 320 M 192 0 L 192 320 M 128 0 L 128 320 M 64 0 L 64 320 M 0 320 L 320 320 L 320 0 L 0 0 L 0 320 "/>
<path fill="none" stroke-width="9.6" stroke-linecap="square" stroke-linejoin="miter" stroke="rgb(100%, 0%, 0%)" stroke-opacity="0.8" stroke-miterlimit="10" d="M 182.398438 160 L 192 160 C 200.488281 160 208.625 156.628906 214.628906 150.628906 C 220.628906 144.625 224 136.488281 224 128 C 224 110.328125 209.671875 96 192 96 C 174.328125 96 160 110.328125 160 128 L 160 192 C 160 200.488281 156.628906 208.625 150.628906 214.628906 C 144.625 220.628906 136.488281 224 128 224 L 64 224 C 55.511719 224 47.375 220.628906 41.371094 214.628906 C 35.371094 208.625 32 200.488281 32 192 C 32 174.328125 17.671875 160 0 160 M 0 96 L 64 96 C 81.671875 96 96 110.328125 96 128 C 96 136.488281 99.371094 144.625 105.371094 150.628906 C 111.375 156.628906 119.511719 160 128 160 L 137.601562 160 "/>
<path fill="none" stroke-width="9.6" stroke-linecap="square" stroke-linejoin="miter" stroke="rgb(0%, 0%, 0%)" stroke-opacity="0.4" stroke-miterlimit="10" d="M 0 182.398438 L 9.601562 182.398438 L 9.601562 246.398438 L 73.601562 246.398438 L 73.601562 265.601562 L 9.601562 265.601562 L 9.601562 310.398438 L 118.398438 310.398438 L 118.398438 246.398438 L 137.601562 246.398438 L 137.601562 310.398438 L 246.398438 310.398438 L 246.398438 265.601562 L 182.398438 265.601562 L 182.398438 118.398438 L 201.601562 118.398438 L 201.601562 137.601562 L 182.398438 137.601562 M 0 118.398438 L 73.601562 118.398438 L 73.601562 182.398438 L 137.601562 182.398438 M 182.398438 182.398438 L 201.601562 182.398438 L 201.601562 246.398438 L 246.398438 246.398438 L 246.398438 118.398438 L 265.601562 118.398438 L 265.601562 310.398438 L 310.398438 310.398438 L 310.398438 9.601562 L 265.601562 9.601562 L 265.601562 73.601562 L 246.398438 73.601562 L 246.398438 9.601562 L 137.601562 9.601562 L 137.601562 54.398438 L 201.601562 54.398438 L 201.601562 73.601562 L 137.601562 73.601562 L 137.601562 201.601562 L 54.398438 201.601562 L 54.398438 137.601562 L 0 137.601562 M 0 73.601562 L 9.601562 73.601562 L 9.601562 9.601562 L 54.398438 9.601562 L 54.398438 73.601562 L 73.601562 73.601562 L 73.601562 9.601562 L 118.398438 9.601562 L 118.398438 137.601562 L 137.601562 137.601562 "/>
<path fill="none" stroke-width="9.6" stroke-linecap="square" stroke-linejoin="miter" stroke="rgb(0%, 0%, 0%)" stroke-opacity="0.8" stroke-miterlimit="10" d="M 0 182.398438 C 5.304688 182.398438 9.601562 186.695312 9.601562 192 C 9.601562 222.042969 33.957031 246.398438 64 246.398438 C 69.304688 246.398438 73.601562 250.695312 73.601562 256 C 73.601562 258.546875 72.589844 260.988281 70.789062 262.789062 C 68.988281 264.589844 66.546875 265.601562 64 265.601562 L 32 265.601562 C 26.058594 265.601562 20.363281 267.960938 16.160156 272.160156 C 11.960938 276.363281 9.601562 282.058594 9.601562 288 C 9.601562 300.371094 19.628906 310.398438 32 310.398438 L 64 310.398438 C 78.425781 310.398438 92.265625 304.667969 102.464844 294.464844 C 112.667969 284.261719 118.398438 270.425781 118.398438 256 C 118.398438 253.453125 119.410156 251.011719 121.210938 249.210938 C 123.011719 247.410156 125.453125 246.398438 128 246.398438 C 133.304688 246.398438 137.601562 250.695312 137.601562 256 C 137.601562 286.042969 161.957031 310.398438 192 310.398438 L 224 310.398438 C 229.941406 310.398438 235.636719 308.039062 239.839844 303.839844 C 244.039062 299.636719 246.398438 293.941406 246.398438 288 C 246.398438 275.628906 236.371094 265.601562 224 265.601562 L 192 265.601562 C 186.695312 265.601562 182.398438 261.304688 182.398438 256 L 182.398438 128 C 182.398438 125.453125 183.410156 123.011719 185.210938 121.210938 C 187.011719 119.410156 189.453125 118.398438 192 118.398438 C 197.304688 118.398438 201.601562 122.695312 201.601562 128 C 201.601562 130.546875 200.589844 132.988281 198.789062 134.789062 C 196.988281 136.589844 194.546875 137.601562 192 137.601562 L 182.398438 137.601562 M 0 118.398438 L 64 118.398438 C 69.304688 118.398438 73.601562 122.695312 73.601562 128 C 73.601562 158.042969 97.957031 182.398438 128 182.398438 L 137.601562 182.398438 M 182.398438 182.398438 L 192 182.398438 C 197.304688 182.398438 201.601562 186.695312 201.601562 192 L 201.601562 224 C 201.601562 236.371094 211.628906 246.398438 224 246.398438 C 229.941406 246.398438 235.636719 244.039062 239.839844 239.839844 C 244.039062 235.636719 246.398438 229.941406 246.398438 224 L 246.398438 128 C 246.398438 125.453125 247.410156 123.011719 249.210938 121.210938 C 251.011719 119.410156 253.453125 118.398438 256 118.398438 C 261.304688 118.398438 265.601562 122.695312 265.601562 128 L 265.601562 288 C 265.601562 300.371094 275.628906 310.398438 288 310.398438 C 293.941406 310.398438 299.636719 308.039062 303.839844 303.839844 C 308.039062 299.636719 310.398438 293.941406 310.398438 288 L 310.398438 32 C 310.398438 19.628906 300.371094 9.601562 288 9.601562 C 282.058594 9.601562 276.363281 11.960938 272.160156 16.160156 C 267.960938 20.363281 265.601562 26.058594 265.601562 32 L 265.601562 64 C 265.601562 66.546875 264.589844 68.988281 262.789062 70.789062 C 260.988281 72.589844 258.546875 73.601562 256 73.601562 C 250.695312 73.601562 246.398438 69.304688 246.398438 64 C 246.398438 33.957031 222.042969 9.601562 192 9.601562 L 160 9.601562 C 154.058594 9.601562 148.363281 11.960938 144.160156 16.160156 C 139.960938 20.363281 137.601562 26.058594 137.601562 32 C 137.601562 44.371094 147.628906 54.398438 160 54.398438 L 192 54.398438 C 197.304688 54.398438 201.601562 58.695312 201.601562 64 C 201.601562 66.546875 200.589844 68.988281 198.789062 70.789062 C 196.988281 72.589844 194.546875 73.601562 192 73.601562 C 177.574219 73.601562 163.734375 79.332031 153.535156 89.535156 C 143.332031 99.738281 137.601562 113.574219 137.601562 128 L 137.601562 192 C 137.601562 194.546875 136.589844 196.988281 134.789062 198.789062 C 132.988281 200.589844 130.546875 201.601562 128 201.601562 L 64 201.601562 C 58.695312 201.601562 54.398438 197.304688 54.398438 192 C 54.398438 161.957031 30.042969 137.601562 0 137.601562 M 0 73.601562 C 5.304688 73.601562 9.601562 69.304688 9.601562 64 L 9.601562 32 C 9.601562 19.628906 19.628906 9.601562 32 9.601562 C 37.941406 9.601562 43.636719 11.960938 47.839844 16.160156 C 52.039062 20.363281 54.398438 26.058594 54.398438 32 L 54.398438 64 C 54.398438 66.546875 55.410156 68.988281 57.210938 70.789062 C 59.011719 72.589844 61.453125 73.601562 64 73.601562 C 69.304688 73.601562 73.601562 69.304688 73.601562 64 L 73.601562 32 C 73.601562 19.628906 83.628906 9.601562 96 9.601562 C 101.941406 9.601562 107.636719 11.960938 111.839844 16.160156 C 116.039062 20.363281 118.398438 26.058594 118.398438 32 L 118.398438 128 C 118.398438 130.546875 119.410156 132.988281 121.210938 134.789062 C 123.011719 136.589844 125.453125 137.601562 128 137.601562 L 137.601562 137.601562 "/>
</svg>
