<?xml version="1.0" encoding="UTF-8"?>
<svg xmlns="http://www.w3.org/2000/svg" xmlns:xlink="http://www.w3.org/1999/xlink" width="320" height="320" viewBox="0 0 320 320">
<rect x="-32" y="-32" width="384" height="384" fill="rgb(98.039216%, 96.470588%, 96.078431%)" fill-opacity="1"/>
<path fill="none" stroke-width="1.6" stroke-linecap="square" stroke-linejoin="miter" stroke="rgb(43.921569%, 63.921569%, 72.156863%)" stroke-opacity="1" stroke-miterlimit="10" d="M 0 256 L 320 256 M 0 192 L 320 192 M 0 128 L 320 128 M 0 64 L 320 64 M 256 0 L 256 320 M 192 0 L 192 320 M 128 0 L 128 320 M 64 0 L 64 320 M 0 320 L 320 320 L 320 0 L 0 0 L 0 320 "/>
<path fill="none" stroke-width="3.2" stroke-linecap="round" stroke-linejoin="miter" stroke="rgb(100%, 0%, 0%)" stroke-opacity="0.8" stroke-miterlimit="10" d="M 96 160 L 224 160 L 224 96 L 160 96 L 169.601562 169.601562 L 160 224 L 160 288 M 288 288 L 224 288 L 224 224 L 288 224 L 288 32 L 96 32 L 96 96 L 32 96 L 32 288 L 96 288 L 96 224 L 160 224 M 96 32 L 32 32 "/>
<path fill-rule="nonzero" fill="rgb(100%, 0%, 0%)" fill-opacity="1" d="M 292 288 C 292 293.332031 284 293.332031 284 288 C 284 282.667969 292 282.667969 292 288 Z M 292 288 "/>
<path fill-rule="nonzero" fill="rgb(100%, 0%, 0%)" fill-opacity="1" d="M 228 288 C 228 293.332031 220 293.332031 220 288 C 220 282.667969 228 282.667969 228 288 Z M 228 288 "/>
<path fill-rule="nonzero" fill="rgb(100%, 0%, 0%)" fill-opacity="1" d="M 164 288 C 164 293.332031 156 293.332031 156 288 C 156 282.667969 164 282.667969 164 288 Z M 164 288 "/>
<path fill-rule="nonzero" fill="rgb(100%, 0%, 0%)" fill-opacity="1" d="M 100 288 C 100 293.332031 92 293.332031 92 288 C 92 282.667969 100 282.667969 100 288 Z M 100 288 "/>
<path fill-rule="nonzero" fill="rgb(100%, 0%, 0%)" fill-opacity="1" d="M 36 288 C 36 293.332031 28 293.332031 28 288 C 28 282.667969 36 282.667969 36 288 Z M 36 288 "/>
<path fill-rule="nonzero" fill="rgb(100%, 0%, 0%)" fill-opacity="1" d="M 292 224 C 292 229.332031 284 229.332031 284 224 C 284 218.667969 292 218.667969 292 224 Z M 292 224 "/>
<path fill-rule="nonzero" fill="rgb(100%, 0%, 0%)" fill-opacity="1" d="M 228 224 C 228 229.332031 220 229.332031 220 224 C 220 218.667969 228 218.667969 228 224 Z M 228 224 "/>
<path fill-rule="nonzero" fill="rgb(100%, 0%, 0%)" fill-opacity="1" d="M 164 224 C 164 229.332031 156 229.332031 156 224 C 156 218.667969 164 218.667969 164 224 Z M 164 224 "/>
<path fill-rule="nonzero" fill="rgb(100%, 0%, 0%)" fill-opacity="1" d="M 100 224 C 100 229.332031 92 229.332031 92 224 C 92 218.667969 100 218.667969 100 224 Z M 100 224 "/>
<path fill-rule="nonzero" fill="rgb(100%, 0%, 0%)" fill-opacity="1" d="M 36 224 C 36 229.332031 28 229.332031 28 224 C 28 218.667969 36 218.667969 36 224 Z M 36 224 "/>
<path fill-rule="nonzero" fill="rgb(100%, 0%, 0%)" fill-opacity="1" d="M 292 160 C 292 165.332031 284 165.332031 284 160 C 284 154.667969 292 154.667969 292 160 Z M 292 160 "/>
<path fill-rule="nonzero" fill="rgb(100%, 0%, 0%)" fill-opacity="1" d="M 228 160 C 228 165.332031 220 165.332031 220 160 C 220 154.667969 228 154.667969 228 160 Z M 228 160 "/>
<path fill-rule="nonzero" fill="rgb(100%, 0%, 0%)" fill-opacity="1" d="M 164 160 C 164 165.332031 156 165.332031 156 160 C 156 154.667969 164 154.667969 164 160 Z M 164 160 "/>
<path fill-rule="nonzero" fill="rgb(100%, 0%, 0%)" fill-opacity="1" d="M 100 160 C 100 165.332031 92 165.332031 92 160 C 92 154.667969 100 154.667969 100 160 Z M 100 160 "/>
<path fill-rule="nonzero" fill="rgb(100%, 0%, 0%)" fill-opacity="1" d="M 36 160 C 36 165.332031 28 165.332031 28 160 C 28 154.667969 36 154.667969 36 160 Z M 36 160 "/>
<path fill-rule="nonzero" fill="rgb(100%, 0%, 0%)" fill-opacity="1" d="M 292 96 C 292 101.332031 284 101.332031 284 96 C 284 90.667969 292 90.667969 292 96 Z M 292 96 "/>
<path fill-rule="nonzero" fill="rgb(100%, 0%, 0%)" fill-opacity="1" d="M 228 96 C 228 101.332031 220 101.332031 220 96 C 220 90.667969 228 90.667969 228 96 Z M 228 96 "/>
<path fill-rule="nonzero" fill="rgb(100%, 0%, 0%)" fill-opacity="1" d="M 164 96 C 164 101.332031 156 101.332031 156 96 C 156 90.667969 164 90.667969 164 96 Z M 164 96 "/>
<path fill-rule="nonzero" fill="rgb(100%, 0%, 0%)" fill-opacity="1" d="M 100 96 C 100 101.332031 92 101.332031 92 96 C 92 90.667969 100 90.667969 100 96 Z M 100 96 "/>
<path fill-rule="nonzero" fill="rgb(100%, 0%, 0%)" fill-opacity="1" d="M 36 96 C 36 101.332031 28 101.332031 28 96 C 28 90.667969 36 90.667969 36 96 Z M 36 96 "/>
<path fill-rule="nonzero" fill="rgb(100%, 0%, 0%)" fill-opacity="1" d="M 292 32 C 292 37.332031 284 37.332031 284 32 C 284 26.667969 292 26.667969 292 32 Z M 292 32 "/>
<path fill-rule="nonzero" fill="rgb(100%, 0%, 0%)" fill-opacity="1" d="M 228 32 C 228 37.332031 220 37.332031 220 32 C 220 26.667969 228 26.667969 228 32 Z M 228 32 "/>
<path fill-rule="nonzero" fill="rgb(100%, 0%, 0%)" fill-opacity="1" d="M 164 32 C 164 37.332031 156 37.332031 156 32 C 156 26.667969 164 26.667969 164 32 Z M 164 32 "/>
<path fill-rule="nonzero" fill="rgb(100%, 0%, 0%)" fill-opacity="1" d="M 100 32 C 100 37.332031 92 37.332031 92 32 C 92 26.667969 100 26.667969 100 32 Z M 100 32 "/>
<path fill-rule="nonzero" fill="rgb(100%, 0%, 0%)" fill-opacity="1" d="M 36 32 C 36 37.332031 28 37.332031 28 32 C 28 26.667969 36 26.667969 36 32 Z M 36 32 "/>
<path fill-rule="nonzero" fill="rgb(10.196078%, 73.72549%, 61.176471%)" fill-opacity="1" d="M 173.601562 169.601562 C 173.601562 174.933594 165.601562 174.933594 165.601562 169.601562 C 165.601562 164.265625 173.601562 164.265625 173.601562 169.601562 Z M 173.601562 169.601562 "/>
</svg>
