<?xml version="1.0" encoding="UTF-8"?>
<svg xmlns="http://www.w3.org/2000/svg" xmlns:xlink="http://www.w3.org/1999/xlink" width="500" height="500" viewBox="0 0 500 500">
<rect x="-50" y="-50" width="600" height="600" fill="rgb(100%, 100%, 100%)" fill-opacity="1"/>
<path fill="none" stroke-width="3.75" stroke-linecap="square" stroke-linejoin="miter" stroke="rgb(100%, 0%, 0%)" stroke-opacity="1" stroke-miterlimit="10" d="M 321.25 462.5 L 328.75 462.5 M 421.25 437.5 L 425 437.5 L 437.5 437.5 L 437.5 450 L 437.5 453.75 M 387.5 446.25 L 387.5 475 L 387.5 487.5 L 375 487.5 L 362.5 487.5 L 362.5 475 L 362.5 462.5 L 350 462.5 L 346.25 462.5 M 262.5 446.25 L 262.5 450 L 262.5 462.5 L 275 462.5 L 303.75 462.5 M 428.75 412.5 L 425 412.5 L 412.5 412.5 L 412.5 425 L 412.5 475 L 412.5 487.5 L 425 487.5 L 437.5 487.5 L 437.5 475 L 437.5 471.25 M 387.5 428.75 L 387.5 425 L 387.5 412.5 L 375 412.5 L 362.5 412.5 L 362.5 425 L 362.5 437.5 L 375 437.5 L 403.75 437.5 M 221.25 437.5 L 275 437.5 L 287.5 437.5 L 287.5 425 L 287.5 412.5 L 275 412.5 L 262.5 412.5 L 262.5 425 L 262.5 428.75 M 212.5 421.25 L 212.5 450 L 212.5 462.5 L 200 462.5 L 187.5 462.5 L 187.5 450 L 187.5 437.5 L 200 437.5 L 203.75 437.5 M 500 287.5 L 487.5 287.5 L 487.5 300 L 487.5 375 L 487.5 387.5 L 475 387.5 L 462.5 387.5 L 462.5 400 L 462.5 412.5 L 450 412.5 L 446.25 412.5 M 278.75 287.5 L 225 287.5 L 212.5 287.5 L 212.5 300 L 212.5 403.75 M 271.25 237.5 L 325 237.5 L 337.5 237.5 L 337.5 250 L 337.5 300 L 337.5 312.5 L 325 312.5 L 312.5 312.5 L 312.5 300 L 312.5 287.5 L 300 287.5 L 296.25 287.5 M 253.75 237.5 L 175 237.5 L 162.5 237.5 L 162.5 250 L 162.5 262.5 L 175 262.5 L 187.5 262.5 L 187.5 250 L 187.5 246.25 M 187.5 221.25 L 187.5 228.75 M 187.5 146.25 L 187.5 203.75 M 137.5 96.25 L 137.5 100 L 137.5 112.5 L 150 112.5 L 175 112.5 L 187.5 112.5 L 187.5 125 L 187.5 128.75 M 96.25 87.5 L 150 87.5 L 162.5 87.5 L 162.5 75 L 162.5 62.5 L 150 62.5 L 137.5 62.5 L 137.5 75 L 137.5 78.75 M 71.25 62.5 L 75 62.5 L 87.5 62.5 L 87.5 75 L 87.5 100 L 87.5 112.5 L 75 112.5 L 62.5 112.5 L 62.5 100 L 62.5 87.5 L 75 87.5 L 78.75 87.5 M 46.25 62.5 L 53.75 62.5 M 28.75 62.5 L 25 62.5 L 12.5 62.5 L 12.5 75 L 12.5 100 L 12.5 112.5 L 0 112.5 "/>
<path fill="none" stroke-width="3.75" stroke-linecap="square" stroke-linejoin="miter" stroke="rgb(0%, 0%, 0%)" stroke-opacity="1" stroke-miterlimit="10" d="M 421.25 471.25 L 450 471.25 L 453.75 471.25 L 453.75 475 L 453.75 496.25 L 475 496.25 L 487.5 496.25 L 496.25 496.25 L 496.25 487.5 L 496.25 478.75 L 487.5 478.75 L 475 478.75 L 471.25 478.75 L 471.25 475 L 471.25 453.75 L 450 453.75 L 421.25 453.75 M 396.25 453.75 L 403.75 453.75 M 396.25 471.25 L 403.75 471.25 M 346.25 453.75 L 378.75 453.75 M 321.25 453.75 L 328.75 453.75 M 321.25 471.25 L 328.75 471.25 M 421.25 446.25 L 425 446.25 L 428.75 446.25 L 428.75 450 L 428.75 453.75 M 378.75 446.25 L 378.75 475 L 378.75 478.75 L 375 478.75 L 371.25 478.75 L 371.25 475 L 371.25 471.25 L 375 471.25 L 378.75 471.25 M 396.25 446.25 L 396.25 475 L 396.25 496.25 L 375 496.25 L 353.75 496.25 L 353.75 475 L 353.75 471.25 L 350 471.25 L 346.25 471.25 M 253.75 446.25 L 253.75 487.5 L 253.75 496.25 L 262.5 496.25 L 271.25 496.25 L 271.25 487.5 L 271.25 475 L 271.25 471.25 L 275 471.25 L 303.75 471.25 M 271.25 446.25 L 271.25 450 L 271.25 453.75 L 275 453.75 L 303.75 453.75 M 121.25 446.25 L 137.5 446.25 L 146.25 446.25 L 146.25 437.5 L 146.25 428.75 L 137.5 428.75 L 121.25 428.75 M 96.25 428.75 L 103.75 428.75 M 96.25 446.25 L 103.75 446.25 M 71.25 428.75 L 78.75 428.75 M 71.25 446.25 L 78.75 446.25 M 46.25 446.25 L 46.25 462.5 L 46.25 471.25 L 37.5 471.25 L 28.75 471.25 L 28.75 462.5 L 28.75 446.25 M 446.25 471.25 L 446.25 475 L 446.25 496.25 L 425 496.25 L 403.75 496.25 L 403.75 475 L 403.75 425 L 403.75 403.75 L 425 403.75 L 428.75 403.75 M 428.75 471.25 L 428.75 475 L 428.75 478.75 L 425 478.75 L 421.25 478.75 L 421.25 475 L 421.25 425 L 421.25 421.25 L 425 421.25 L 428.75 421.25 M 403.75 428.75 L 375 428.75 L 371.25 428.75 L 371.25 425 L 371.25 421.25 L 375 421.25 L 378.75 421.25 L 378.75 425 L 378.75 428.75 M 253.75 428.75 L 253.75 425 L 253.75 403.75 L 275 403.75 L 296.25 403.75 L 296.25 425 L 296.25 446.25 L 275 446.25 L 221.25 446.25 M 271.25 428.75 L 271.25 425 L 271.25 421.25 L 275 421.25 L 278.75 421.25 L 278.75 425 L 278.75 428.75 L 275 428.75 L 221.25 428.75 M 203.75 421.25 L 203.75 450 L 203.75 453.75 L 200 453.75 L 196.25 453.75 L 196.25 450 L 196.25 446.25 L 200 446.25 L 203.75 446.25 M 178.75 421.25 L 178.75 425 L 178.75 428.75 L 175 428.75 L 162.5 428.75 L 153.75 428.75 L 153.75 437.5 L 153.75 446.25 L 162.5 446.25 L 175 446.25 L 178.75 446.25 L 178.75 450 L 178.75 453.75 L 175 453.75 L 137.5 453.75 L 128.75 453.75 L 128.75 462.5 L 128.75 471.25 L 137.5 471.25 L 175 471.25 L 178.75 471.25 L 178.75 475 L 178.75 478.75 L 175 478.75 L 137.5 478.75 L 128.75 478.75 L 128.75 487.5 L 128.75 496.25 L 137.5 496.25 L 237.5 496.25 L 246.25 496.25 L 246.25 487.5 L 246.25 478.75 L 237.5 478.75 L 200 478.75 L 196.25 478.75 L 196.25 475 L 196.25 471.25 L 200 471.25 L 237.5 471.25 L 246.25 471.25 L 246.25 462.5 L 246.25 453.75 L 237.5 453.75 L 225 453.75 L 221.25 453.75 L 221.25 450 L 221.25 421.25 M 196.25 421.25 L 196.25 425 L 196.25 428.75 L 200 428.75 L 203.75 428.75 M 71.25 403.75 L 75 403.75 L 96.25 403.75 L 96.25 425 L 96.25 475 L 96.25 496.25 L 75 496.25 L 25 496.25 L 3.7500000000000004 496.25 L 3.7500000000000004 475 L 3.7500000000000004 450 L 3.7500000000000004 428.75 L 25 428.75 L 53.75 428.75 M 28.75 428.75 L 28.75 425 L 28.75 403.75 L 50 403.75 L 53.75 403.75 M 46.25 428.75 L 46.25 425 L 46.25 421.25 L 50 421.25 L 53.75 421.25 M 346.25 396.25 L 346.25 412.5 L 346.25 421.25 L 337.5 421.25 L 328.75 421.25 L 328.75 412.5 L 328.75 396.25 M 146.25 396.25 L 150 396.25 L 153.75 396.25 L 153.75 400 L 153.75 421.25 L 175 421.25 L 225 421.25 L 246.25 421.25 L 246.25 400 L 246.25 387.5 L 246.25 378.75 L 237.5 378.75 L 228.75 378.75 L 228.75 387.5 L 228.75 400 L 228.75 403.75 L 225 403.75 L 175 403.75 L 171.25 403.75 L 171.25 400 L 171.25 378.75 L 150 378.75 L 146.25 378.75 M 53.75 396.25 L 53.75 450 L 53.75 471.25 L 75 471.25 L 78.75 471.25 L 78.75 475 L 78.75 478.75 L 75 478.75 L 25 478.75 L 21.25 478.75 L 21.25 475 L 21.25 450 L 21.25 446.25 L 25 446.25 L 53.75 446.25 M 71.25 396.25 L 71.25 450 L 71.25 453.75 L 75 453.75 L 78.75 453.75 L 78.75 450 L 78.75 425 L 78.75 421.25 L 75 421.25 L 71.25 421.25 M 446.25 453.75 L 446.25 450 L 446.25 446.25 L 450 446.25 L 462.5 446.25 L 471.25 446.25 L 471.25 437.5 L 471.25 428.75 L 462.5 428.75 L 450 428.75 L 446.25 428.75 L 446.25 425 L 446.25 375 L 446.25 371.25 L 450 371.25 L 462.5 371.25 L 471.25 371.25 L 471.25 362.5 L 471.25 353.75 L 462.5 353.75 L 450 353.75 L 428.75 353.75 L 428.75 375 L 428.75 425 L 428.75 428.75 L 425 428.75 L 421.25 428.75 M 321.25 396.25 L 412.5 396.25 L 421.25 396.25 L 421.25 387.5 L 421.25 378.75 L 412.5 378.75 L 400 378.75 L 396.25 378.75 L 396.25 375 L 396.25 371.25 L 400 371.25 L 412.5 371.25 L 421.25 371.25 L 421.25 362.5 L 421.25 353.75 L 412.5 353.75 L 400 353.75 L 378.75 353.75 L 378.75 375 L 378.75 378.75 L 375 378.75 L 321.25 378.75 M 278.75 371.25 L 278.75 375 L 278.75 396.25 L 300 396.25 L 303.75 396.25 M 296.25 371.25 L 296.25 375 L 296.25 378.75 L 300 378.75 L 303.75 378.75 M 221.25 371.25 L 237.5 371.25 L 246.25 371.25 L 246.25 362.5 L 246.25 353.75 L 237.5 353.75 L 221.25 353.75 M 178.75 403.75 L 178.75 375 L 178.75 353.75 L 200 353.75 L 203.75 353.75 M 196.25 403.75 L 196.25 375 L 196.25 371.25 L 200 371.25 L 203.75 371.25 M 103.75 371.25 L 103.75 375 L 103.75 396.25 L 125 396.25 L 128.75 396.25 M 121.25 371.25 L 121.25 375 L 121.25 378.75 L 125 378.75 L 128.75 378.75 M 71.25 353.75 L 128.75 353.75 M 53.75 353.75 L 37.5 353.75 L 28.75 353.75 L 28.75 362.5 L 28.75 371.25 L 37.5 371.25 L 53.75 371.25 M 128.75 371.25 L 100 371.25 L 96.25 371.25 L 96.25 375 L 96.25 396.25 L 75 396.25 L 25 396.25 L 21.25 396.25 L 21.25 400 L 21.25 412.5 L 21.25 421.25 L 12.5 421.25 L 3.7500000000000004 421.25 L 3.7500000000000004 412.5 L 3.7500000000000004 362.5 L 3.7500000000000004 353.75 L 12.5 353.75 L 21.25 353.75 L 21.25 362.5 L 21.25 375 L 21.25 378.75 L 25 378.75 L 75 378.75 L 78.75 378.75 L 78.75 375 L 78.75 371.25 L 75 371.25 L 71.25 371.25 M 328.75 346.25 L 328.75 378.75 M 346.25 346.25 L 346.25 378.75 M 121.25 346.25 L 125 346.25 L 128.75 346.25 L 128.75 350 L 128.75 400 L 128.75 403.75 L 125 403.75 L 103.75 403.75 L 103.75 425 L 103.75 487.5 L 103.75 496.25 L 112.5 496.25 L 121.25 496.25 L 121.25 487.5 L 121.25 425 L 121.25 421.25 L 125 421.25 L 146.25 421.25 L 146.25 400 L 146.25 350 L 146.25 346.25 L 150 346.25 L 153.75 346.25 L 153.75 350 L 153.75 353.75 L 150 353.75 L 146.25 353.75 M 71.25 378.75 L 71.25 350 L 71.25 346.25 L 75 346.25 L 103.75 346.25 M 346.25 328.75 L 346.25 325 L 346.25 321.25 L 350 321.25 L 353.75 321.25 M 296.25 321.25 L 325 321.25 L 328.75 321.25 L 328.75 325 L 328.75 328.75 M 253.75 321.25 L 253.75 387.5 L 253.75 396.25 L 262.5 396.25 L 271.25 396.25 L 271.25 387.5 L 271.25 375 L 271.25 371.25 L 275 371.25 L 300 371.25 L 303.75 371.25 L 303.75 375 L 303.75 475 L 303.75 478.75 L 300 478.75 L 287.5 478.75 L 278.75 478.75 L 278.75 487.5 L 278.75 496.25 L 287.5 496.25 L 300 496.25 L 321.25 496.25 L 321.25 475 L 321.25 450 L 321.25 446.25 L 325 446.25 L 328.75 446.25 L 328.75 450 L 328.75 487.5 L 328.75 496.25 L 337.5 496.25 L 346.25 496.25 L 346.25 487.5 L 346.25 450 L 346.25 446.25 L 350 446.25 L 403.75 446.25 M 271.25 321.25 L 271.25 350 L 271.25 353.75 L 275 353.75 L 300 353.75 L 321.25 353.75 L 321.25 375 L 321.25 425 L 321.25 428.75 L 325 428.75 L 350 428.75 L 353.75 428.75 L 353.75 425 L 353.75 403.75 L 375 403.75 L 396.25 403.75 L 396.25 425 L 396.25 428.75 M 221.25 321.25 L 278.75 321.25 M 146.25 371.25 L 150 371.25 L 171.25 371.25 L 171.25 350 L 171.25 346.25 L 175 346.25 L 196.25 346.25 L 196.25 325 L 196.25 321.25 L 200 321.25 L 203.75 321.25 M 146.25 321.25 L 175 321.25 L 178.75 321.25 L 178.75 325 L 178.75 328.75 L 175 328.75 L 171.25 328.75 L 171.25 325 L 171.25 321.25 M 121.25 303.75 L 128.75 303.75 M 121.25 321.25 L 128.75 321.25 M 71.25 321.25 L 103.75 321.25 M 46.25 321.25 L 46.25 337.5 L 46.25 346.25 L 37.5 346.25 L 28.75 346.25 L 28.75 337.5 L 28.75 321.25 M 53.75 303.75 L 25 303.75 L 3.7500000000000004 303.75 L 3.7500000000000004 325 L 3.7500000000000004 337.5 L 3.7500000000000004 346.25 L 12.5 346.25 L 21.25 346.25 L 21.25 337.5 L 21.25 325 L 21.25 321.25 L 25 321.25 L 53.75 321.25 M 446.25 403.75 L 450 403.75 L 453.75 403.75 L 453.75 400 L 453.75 378.75 L 475 378.75 L 478.75 378.75 L 478.75 375 L 478.75 350 L 478.75 346.25 L 475 346.25 L 462.5 346.25 L 453.75 346.25 L 453.75 337.5 L 453.75 328.75 L 462.5 328.75 L 475 328.75 L 478.75 328.75 L 478.75 325 L 478.75 321.25 L 475 321.25 L 437.5 321.25 L 428.75 321.25 L 428.75 312.5 L 428.75 303.75 L 437.5 303.75 L 475 303.75 L 478.75 303.75 L 478.75 300 L 478.75 278.75 L 500 278.75 M 446.25 421.25 L 450 421.25 L 471.25 421.25 L 471.25 400 L 471.25 396.25 L 475 396.25 L 478.75 396.25 L 478.75 400 L 478.75 462.5 L 478.75 471.25 L 487.5 471.25 L 496.25 471.25 L 496.25 462.5 L 496.25 300 L 496.25 296.25 L 500 296.25 M 396.25 278.75 L 462.5 278.75 L 471.25 278.75 L 471.25 287.5 L 471.25 296.25 L 462.5 296.25 L 425 296.25 L 421.25 296.25 L 421.25 300 L 421.25 325 L 421.25 328.75 L 425 328.75 L 437.5 328.75 L 446.25 328.75 L 446.25 337.5 L 446.25 346.25 L 437.5 346.25 L 425 346.25 L 403.75 346.25 L 403.75 325 L 403.75 321.25 L 400 321.25 L 396.25 321.25 L 396.25 325 L 396.25 337.5 L 396.25 346.25 L 387.5 346.25 L 378.75 346.25 L 378.75 337.5 L 378.75 325 L 378.75 321.25 L 375 321.25 L 371.25 321.25 M 378.75 278.75 L 375 278.75 L 353.75 278.75 L 353.75 300 L 353.75 325 L 353.75 328.75 L 350 328.75 L 312.5 328.75 L 303.75 328.75 L 303.75 337.5 L 303.75 346.25 L 312.5 346.25 L 350 346.25 L 353.75 346.25 L 353.75 350 L 353.75 362.5 L 353.75 371.25 L 362.5 371.25 L 371.25 371.25 L 371.25 362.5 L 371.25 300 L 371.25 296.25 L 375 296.25 L 378.75 296.25 M 296.25 296.25 L 300 296.25 L 303.75 296.25 L 303.75 300 L 303.75 303.75 L 300 303.75 L 296.25 303.75 M 253.75 296.25 L 253.75 303.75 M 271.25 296.25 L 271.25 303.75 M 228.75 296.25 L 228.75 300 L 228.75 303.75 L 225 303.75 L 221.25 303.75 M 246.25 296.25 L 246.25 300 L 246.25 303.75 L 250 303.75 L 278.75 303.75 M 203.75 403.75 L 203.75 300 L 203.75 278.75 L 225 278.75 L 278.75 278.75 M 221.25 403.75 L 221.25 350 L 221.25 346.25 L 225 346.25 L 237.5 346.25 L 246.25 346.25 L 246.25 337.5 L 246.25 328.75 L 237.5 328.75 L 225 328.75 L 221.25 328.75 L 221.25 325 L 221.25 300 L 221.25 296.25 L 225 296.25 L 278.75 296.25 M 146.25 303.75 L 175 303.75 L 178.75 303.75 L 178.75 300 L 178.75 287.5 L 178.75 278.75 L 187.5 278.75 L 196.25 278.75 L 196.25 287.5 L 196.25 300 L 196.25 303.75 L 200 303.75 L 203.75 303.75 M 153.75 303.75 L 153.75 287.5 L 153.75 278.75 L 162.5 278.75 L 171.25 278.75 L 171.25 287.5 L 171.25 303.75 M 121.25 328.75 L 125 328.75 L 128.75 328.75 L 128.75 325 L 128.75 287.5 L 128.75 278.75 L 137.5 278.75 L 146.25 278.75 L 146.25 287.5 L 146.25 325 L 146.25 328.75 L 150 328.75 L 153.75 328.75 L 153.75 325 L 153.75 321.25 M 46.25 303.75 L 46.25 300 L 46.25 296.25 L 50 296.25 L 53.75 296.25 L 53.75 300 L 53.75 378.75 M 378.75 271.25 L 378.75 300 L 378.75 303.75 L 375 303.75 L 371.25 303.75 M 396.25 271.25 L 396.25 300 L 396.25 303.75 L 400 303.75 L 403.75 303.75 L 403.75 300 L 403.75 296.25 L 400 296.25 L 396.25 296.25 M 296.25 353.75 L 296.25 275 L 296.25 271.25 L 300 271.25 L 328.75 271.25 M 228.75 278.75 L 228.75 262.5 L 228.75 253.75 L 237.5 253.75 L 246.25 253.75 L 246.25 262.5 L 246.25 278.75 M 103.75 303.75 L 100 303.75 L 96.25 303.75 L 96.25 300 L 96.25 275 L 96.25 271.25 L 100 271.25 L 103.75 271.25 M 378.75 253.75 L 378.75 237.5 L 378.75 228.75 L 387.5 228.75 L 396.25 228.75 L 396.25 237.5 L 396.25 253.75 M 303.75 246.25 L 303.75 250 L 303.75 253.75 L 300 253.75 L 278.75 253.75 L 278.75 275 L 278.75 353.75 M 321.25 246.25 L 321.25 250 L 321.25 253.75 L 325 253.75 L 328.75 253.75 M 271.25 246.25 L 325 246.25 L 328.75 246.25 L 328.75 250 L 328.75 300 L 328.75 303.75 L 325 303.75 L 321.25 303.75 L 321.25 300 L 321.25 278.75 L 300 278.75 L 296.25 278.75 M 221.25 246.25 L 221.25 262.5 L 221.25 271.25 L 212.5 271.25 L 203.75 271.25 L 203.75 262.5 L 203.75 246.25 M 178.75 246.25 L 178.75 250 L 178.75 253.75 L 175 253.75 L 171.25 253.75 L 171.25 250 L 171.25 246.25 L 175 246.25 L 253.75 246.25 M 128.75 246.25 L 128.75 250 L 128.75 253.75 L 125 253.75 L 121.25 253.75 M 146.25 246.25 L 146.25 250 L 146.25 271.25 L 125 271.25 L 121.25 271.25 M 121.25 353.75 L 121.25 250 L 121.25 246.25 L 125 246.25 L 150 246.25 L 153.75 246.25 L 153.75 250 L 153.75 271.25 L 175 271.25 L 196.25 271.25 L 196.25 250 L 196.25 246.25 M 71.25 228.75 L 75 228.75 L 96.25 228.75 L 96.25 250 L 96.25 253.75 L 100 253.75 L 103.75 253.75 M 71.25 246.25 L 75 246.25 L 78.75 246.25 L 78.75 250 L 78.75 300 L 78.75 303.75 L 75 303.75 L 71.25 303.75 M 28.75 246.25 L 28.75 250 L 28.75 253.75 L 25 253.75 L 3.7500000000000004 253.75 L 3.7500000000000004 275 L 3.7500000000000004 287.5 L 3.7500000000000004 296.25 L 12.5 296.25 L 21.25 296.25 L 21.25 287.5 L 21.25 275 L 21.25 271.25 L 25 271.25 L 28.75 271.25 L 28.75 275 L 28.75 303.75 M 53.75 228.75 L 12.5 228.75 L 3.7500000000000004 228.75 L 3.7500000000000004 237.5 L 3.7500000000000004 246.25 L 12.5 246.25 L 53.75 246.25 M 403.75 221.25 L 403.75 250 L 403.75 253.75 L 400 253.75 L 346.25 253.75 M 353.75 221.25 L 353.75 225 L 353.75 228.75 L 350 228.75 L 271.25 228.75 M 371.25 221.25 L 371.25 225 L 371.25 246.25 L 350 246.25 L 346.25 246.25 L 346.25 250 L 346.25 300 L 346.25 303.75 L 350 303.75 L 353.75 303.75 M 221.25 221.25 L 237.5 221.25 L 246.25 221.25 L 246.25 212.5 L 246.25 203.75 L 237.5 203.75 L 221.25 203.75 M 178.75 221.25 L 178.75 228.75 M 196.25 221.25 L 196.25 228.75 M 171.25 203.75 L 203.75 203.75 M 171.25 221.25 L 203.75 221.25 M 146.25 228.75 L 146.25 225 L 146.25 221.25 L 150 221.25 L 153.75 221.25 M 103.75 221.25 L 103.75 353.75 M 153.75 203.75 L 87.5 203.75 L 78.75 203.75 L 78.75 212.5 L 78.75 221.25 L 87.5 221.25 L 125 221.25 L 128.75 221.25 L 128.75 225 L 128.75 228.75 M 46.25 246.25 L 46.25 250 L 46.25 253.75 L 50 253.75 L 53.75 253.75 L 53.75 250 L 53.75 212.5 L 53.75 203.75 L 62.5 203.75 L 71.25 203.75 L 71.25 212.5 L 71.25 250 L 71.25 271.25 L 50 271.25 L 46.25 271.25 L 46.25 275 L 46.25 278.75 L 50 278.75 L 71.25 278.75 L 71.25 300 L 71.25 325 L 71.25 328.75 L 75 328.75 L 103.75 328.75 M 446.25 196.25 L 446.25 225 L 446.25 228.75 L 450 228.75 L 471.25 228.75 L 471.25 250 L 471.25 262.5 L 471.25 271.25 L 462.5 271.25 L 453.75 271.25 L 453.75 262.5 L 453.75 250 L 453.75 246.25 L 450 246.25 L 446.25 246.25 L 446.25 250 L 446.25 271.25 L 425 271.25 L 346.25 271.25 M 396.25 196.25 L 396.25 200 L 396.25 203.75 L 400 203.75 L 425 203.75 L 428.75 203.75 L 428.75 200 L 428.75 196.25 M 371.25 203.75 L 371.25 200 L 371.25 196.25 L 375 196.25 L 400 196.25 L 403.75 196.25 L 403.75 200 L 403.75 203.75 M 346.25 196.25 L 350 196.25 L 353.75 196.25 L 353.75 200 L 353.75 203.75 M 321.25 178.75 L 328.75 178.75 M 321.25 196.25 L 328.75 196.25 M 278.75 196.25 L 278.75 200 L 278.75 203.75 L 275 203.75 L 253.75 203.75 L 253.75 225 L 253.75 278.75 M 296.25 196.25 L 296.25 200 L 296.25 221.25 L 275 221.25 L 271.25 221.25 L 271.25 225 L 271.25 278.75 M 303.75 178.75 L 262.5 178.75 L 253.75 178.75 L 253.75 187.5 L 253.75 196.25 L 262.5 196.25 L 303.75 196.25 M 196.25 203.75 L 196.25 200 L 196.25 196.25 L 200 196.25 L 203.75 196.25 M 103.75 203.75 L 103.75 187.5 L 103.75 178.75 L 112.5 178.75 L 121.25 178.75 L 121.25 187.5 L 121.25 203.75 M 28.75 228.75 L 28.75 225 L 28.75 221.25 L 25 221.25 L 3.7500000000000004 221.25 L 3.7500000000000004 200 L 3.7500000000000004 187.5 L 3.7500000000000004 178.75 L 12.5 178.75 L 21.25 178.75 L 21.25 187.5 L 21.25 200 L 21.25 203.75 L 25 203.75 L 28.75 203.75 L 28.75 200 L 28.75 187.5 L 28.75 178.75 L 37.5 178.75 L 46.25 178.75 L 46.25 187.5 L 46.25 228.75 M 378.75 178.75 L 378.75 162.5 L 378.75 153.75 L 387.5 153.75 L 396.25 153.75 L 396.25 162.5 L 396.25 178.75 M 303.75 228.75 L 303.75 162.5 L 303.75 153.75 L 312.5 153.75 L 321.25 153.75 L 321.25 162.5 L 321.25 228.75 M 278.75 178.75 L 278.75 162.5 L 278.75 153.75 L 287.5 153.75 L 296.25 153.75 L 296.25 162.5 L 296.25 178.75 M 203.75 171.25 L 203.75 228.75 M 221.25 171.25 L 221.25 228.75 M 203.75 178.75 L 200 178.75 L 196.25 178.75 L 196.25 175 L 196.25 171.25 L 200 171.25 L 228.75 171.25 M 153.75 171.25 L 153.75 175 L 153.75 178.75 L 150 178.75 L 137.5 178.75 L 128.75 178.75 L 128.75 187.5 L 128.75 196.25 L 137.5 196.25 L 150 196.25 L 153.75 196.25 L 153.75 200 L 153.75 225 L 153.75 228.75 L 150 228.75 L 125 228.75 L 121.25 228.75 L 121.25 225 L 121.25 221.25 M 171.25 171.25 L 171.25 225 L 171.25 228.75 L 175 228.75 L 253.75 228.75 M 71.25 171.25 L 71.25 175 L 71.25 178.75 L 75 178.75 L 87.5 178.75 L 96.25 178.75 L 96.25 187.5 L 96.25 196.25 L 87.5 196.25 L 75 196.25 L 53.75 196.25 L 53.75 175 L 53.75 171.25 M 428.75 178.75 L 428.75 175 L 428.75 171.25 L 425 171.25 L 403.75 171.25 L 403.75 150 L 403.75 128.75 L 425 128.75 L 428.75 128.75 M 371.25 146.25 L 387.5 146.25 L 396.25 146.25 L 396.25 137.5 L 396.25 128.75 L 387.5 128.75 L 371.25 128.75 M 378.75 196.25 L 378.75 200 L 378.75 203.75 L 375 203.75 L 350 203.75 L 346.25 203.75 L 346.25 200 L 346.25 150 L 346.25 146.25 L 350 146.25 L 353.75 146.25 M 353.75 128.75 L 312.5 128.75 L 303.75 128.75 L 303.75 137.5 L 303.75 146.25 L 312.5 146.25 L 325 146.25 L 328.75 146.25 L 328.75 150 L 328.75 200 L 328.75 221.25 L 350 221.25 L 425 221.25 L 428.75 221.25 L 428.75 225 L 428.75 250 L 428.75 253.75 L 425 253.75 L 421.25 253.75 L 421.25 250 L 421.25 221.25 M 253.75 146.25 L 253.75 150 L 253.75 153.75 L 250 153.75 L 246.25 153.75 M 271.25 146.25 L 271.25 150 L 271.25 171.25 L 250 171.25 L 246.25 171.25 M 221.25 196.25 L 225 196.25 L 246.25 196.25 L 246.25 175 L 246.25 150 L 246.25 146.25 L 250 146.25 L 287.5 146.25 L 296.25 146.25 L 296.25 137.5 L 296.25 128.75 L 287.5 128.75 L 250 128.75 L 228.75 128.75 L 228.75 150 L 228.75 175 L 228.75 178.75 L 225 178.75 L 221.25 178.75 M 178.75 146.25 L 178.75 150 L 178.75 153.75 L 175 153.75 L 137.5 153.75 L 128.75 153.75 L 128.75 162.5 L 128.75 171.25 L 137.5 171.25 L 175 171.25 L 178.75 171.25 L 178.75 175 L 178.75 203.75 M 196.25 146.25 L 196.25 150 L 196.25 153.75 L 200 153.75 L 228.75 153.75 M 171.25 153.75 L 171.25 150 L 171.25 146.25 L 175 146.25 L 200 146.25 L 203.75 146.25 L 203.75 150 L 203.75 153.75 M 46.25 146.25 L 46.25 150 L 46.25 153.75 L 50 153.75 L 100 153.75 L 103.75 153.75 L 103.75 150 L 103.75 146.25 M 121.25 146.25 L 121.25 150 L 121.25 171.25 L 100 171.25 L 25 171.25 L 3.7500000000000004 171.25 L 3.7500000000000004 150 L 3.7500000000000004 128.75 L 25 128.75 L 53.75 128.75 M 28.75 146.25 L 28.75 150 L 28.75 153.75 L 25 153.75 L 21.25 153.75 L 21.25 150 L 21.25 146.25 L 25 146.25 L 53.75 146.25 M 253.75 121.25 L 253.75 128.75 M 271.25 121.25 L 271.25 128.75 M 71.25 146.25 L 125 146.25 L 146.25 146.25 L 146.25 125 L 146.25 121.25 L 150 121.25 L 175 121.25 L 178.75 121.25 L 178.75 125 L 178.75 128.75 M 28.75 128.75 L 28.75 112.5 L 28.75 103.75 L 37.5 103.75 L 46.25 103.75 L 46.25 112.5 L 46.25 128.75 M 453.75 96.25 L 453.75 125 L 453.75 128.75 L 450 128.75 L 446.25 128.75 M 446.25 78.75 L 475 78.75 L 496.25 78.75 L 496.25 100 L 496.25 121.25 L 475 121.25 L 471.25 121.25 L 471.25 125 L 471.25 146.25 L 450 146.25 L 446.25 146.25 M 446.25 96.25 L 475 96.25 L 478.75 96.25 L 478.75 100 L 478.75 103.75 L 475 103.75 L 471.25 103.75 L 471.25 100 L 471.25 96.25 M 421.25 78.75 L 428.75 78.75 M 421.25 96.25 L 428.75 96.25 M 371.25 121.25 L 375 121.25 L 396.25 121.25 L 396.25 100 L 396.25 96.25 L 400 96.25 L 403.75 96.25 M 346.25 178.75 L 350 178.75 L 353.75 178.75 L 353.75 175 L 353.75 87.5 L 353.75 78.75 L 362.5 78.75 L 371.25 78.75 L 371.25 87.5 L 371.25 175 L 371.25 178.75 L 375 178.75 L 450 178.75 L 453.75 178.75 L 453.75 175 L 453.75 153.75 L 475 153.75 L 478.75 153.75 L 478.75 150 L 478.75 137.5 L 478.75 128.75 L 487.5 128.75 L 496.25 128.75 L 496.25 137.5 L 496.25 150 L 496.25 171.25 L 475 171.25 L 471.25 171.25 L 471.25 175 L 471.25 178.75 L 475 178.75 L 496.25 178.75 L 496.25 200 L 496.25 262.5 L 496.25 271.25 L 487.5 271.25 L 478.75 271.25 L 478.75 262.5 L 478.75 200 L 478.75 196.25 L 475 196.25 L 471.25 196.25 L 471.25 200 L 471.25 212.5 L 471.25 221.25 L 462.5 221.25 L 453.75 221.25 L 453.75 212.5 L 453.75 200 L 453.75 196.25 L 450 196.25 L 425 196.25 L 421.25 196.25 L 421.25 200 L 421.25 203.75 M 353.75 121.25 L 325 121.25 L 303.75 121.25 L 303.75 100 L 303.75 87.5 L 303.75 78.75 L 312.5 78.75 L 321.25 78.75 L 321.25 87.5 L 321.25 100 L 321.25 103.75 L 325 103.75 L 328.75 103.75 L 328.75 100 L 328.75 87.5 L 328.75 78.75 L 337.5 78.75 L 346.25 78.75 L 346.25 87.5 L 346.25 100 L 346.25 103.75 L 350 103.75 L 353.75 103.75 M 271.25 103.75 L 271.25 100 L 271.25 96.25 L 275 96.25 L 287.5 96.25 L 296.25 96.25 L 296.25 87.5 L 296.25 78.75 L 287.5 78.75 L 275 78.75 L 253.75 78.75 L 253.75 100 L 253.75 103.75 M 153.75 153.75 L 153.75 150 L 153.75 128.75 L 175 128.75 L 200 128.75 L 203.75 128.75 L 203.75 125 L 203.75 103.75 L 225 103.75 L 228.75 103.75 L 228.75 100 L 228.75 87.5 L 228.75 78.75 L 237.5 78.75 L 246.25 78.75 L 246.25 87.5 L 246.25 100 L 246.25 103.75 L 250 103.75 L 287.5 103.75 L 296.25 103.75 L 296.25 112.5 L 296.25 121.25 L 287.5 121.25 L 225 121.25 L 221.25 121.25 L 221.25 125 L 221.25 153.75 M 196.25 96.25 L 212.5 96.25 L 221.25 96.25 L 221.25 87.5 L 221.25 78.75 L 212.5 78.75 L 196.25 78.75 M 128.75 96.25 L 128.75 125 L 128.75 128.75 L 125 128.75 L 71.25 128.75 M 103.75 96.25 L 103.75 128.75 M 121.25 96.25 L 121.25 128.75 M 96.25 96.25 L 178.75 96.25 M 453.75 71.25 L 453.75 78.75 M 471.25 71.25 L 471.25 78.75 M 396.25 71.25 L 400 71.25 L 403.75 71.25 L 403.75 75 L 403.75 100 L 403.75 121.25 L 425 121.25 L 428.75 121.25 L 428.75 125 L 428.75 150 L 428.75 153.75 L 425 153.75 L 421.25 153.75 L 421.25 150 L 421.25 146.25 L 425 146.25 L 428.75 146.25 M 146.25 78.75 L 146.25 75 L 146.25 71.25 L 150 71.25 L 153.75 71.25 L 153.75 75 L 153.75 78.75 L 150 78.75 L 96.25 78.75 M 103.75 78.75 L 103.75 62.5 L 103.75 53.75 L 112.5 53.75 L 121.25 53.75 L 121.25 62.5 L 121.25 78.75 M 71.25 71.25 L 75 71.25 L 78.75 71.25 L 78.75 75 L 78.75 100 L 78.75 103.75 L 75 103.75 L 71.25 103.75 L 71.25 100 L 71.25 96.25 L 75 96.25 L 78.75 96.25 M 46.25 53.75 L 53.75 53.75 M 46.25 71.25 L 53.75 71.25 M 0 103.75 L 3.7500000000000004 103.75 L 3.7500000000000004 100 L 3.7500000000000004 75 L 3.7500000000000004 53.75 L 25 53.75 L 28.75 53.75 M 0 121.25 L 21.25 121.25 L 21.25 100 L 21.25 75 L 21.25 71.25 L 25 71.25 L 28.75 71.25 M 403.75 46.25 L 403.75 50 L 403.75 53.75 L 400 53.75 L 396.25 53.75 M 421.25 46.25 L 421.25 100 L 421.25 103.75 L 425 103.75 L 428.75 103.75 L 428.75 100 L 428.75 75 L 428.75 53.75 L 450 53.75 L 487.5 53.75 L 496.25 53.75 L 496.25 62.5 L 496.25 71.25 L 487.5 71.25 L 450 71.25 L 446.25 71.25 L 446.25 75 L 446.25 178.75 M 378.75 46.25 L 378.75 100 L 378.75 103.75 L 375 103.75 L 371.25 103.75 M 396.25 46.25 L 396.25 75 L 396.25 78.75 L 400 78.75 L 403.75 78.75 M 353.75 46.25 L 353.75 50 L 353.75 71.25 L 375 71.25 L 378.75 71.25 M 371.25 46.25 L 371.25 50 L 371.25 53.75 L 375 53.75 L 378.75 53.75 M 246.25 46.25 L 246.25 62.5 L 246.25 71.25 L 237.5 71.25 L 228.75 71.25 L 228.75 62.5 L 228.75 46.25 M 78.75 78.75 L 75 78.75 L 71.25 78.75 L 71.25 75 L 71.25 50 L 71.25 46.25 L 75 46.25 L 78.75 46.25 M 453.75 53.75 L 453.75 12.5 L 453.75 3.7500000000000004 L 462.5 3.7500000000000004 L 471.25 3.7500000000000004 L 471.25 12.5 L 471.25 25 L 471.25 28.75 L 475 28.75 L 478.75 28.75 L 478.75 25 L 478.75 12.5 L 478.75 3.7500000000000004 L 487.5 3.7500000000000004 L 496.25 3.7500000000000004 L 496.25 12.5 L 496.25 25 L 496.25 46.25 L 475 46.25 L 471.25 46.25 L 471.25 50 L 471.25 53.75 M 403.75 28.75 L 403.75 12.5 L 403.75 3.7500000000000004 L 412.5 3.7500000000000004 L 421.25 3.7500000000000004 L 421.25 12.5 L 421.25 28.75 M 378.75 28.75 L 378.75 12.5 L 378.75 3.7500000000000004 L 387.5 3.7500000000000004 L 396.25 3.7500000000000004 L 396.25 12.5 L 396.25 28.75 M 321.25 46.25 L 425 46.25 L 446.25 46.25 L 446.25 25 L 446.25 12.5 L 446.25 3.7500000000000004 L 437.5 3.7500000000000004 L 428.75 3.7500000000000004 L 428.75 12.5 L 428.75 25 L 428.75 28.75 L 425 28.75 L 350 28.75 L 346.25 28.75 L 346.25 25 L 346.25 21.25 L 350 21.25 L 353.75 21.25 L 353.75 25 L 353.75 28.75 M 371.25 28.75 L 371.25 25 L 371.25 3.7500000000000004 L 350 3.7500000000000004 L 325 3.7500000000000004 L 303.75 3.7500000000000004 L 303.75 25 L 303.75 50 L 303.75 71.25 L 325 71.25 L 337.5 71.25 L 346.25 71.25 L 346.25 62.5 L 346.25 53.75 L 337.5 53.75 L 325 53.75 L 321.25 53.75 L 321.25 50 L 321.25 25 L 321.25 21.25 L 325 21.25 L 328.75 21.25 L 328.75 25 L 328.75 28.75 L 325 28.75 L 321.25 28.75 M 303.75 46.25 L 300 46.25 L 296.25 46.25 L 296.25 50 L 296.25 62.5 L 296.25 71.25 L 287.5 71.25 L 278.75 71.25 L 278.75 62.5 L 278.75 12.5 L 278.75 3.7500000000000004 L 287.5 3.7500000000000004 L 296.25 3.7500000000000004 L 296.25 12.5 L 296.25 25 L 296.25 28.75 L 300 28.75 L 303.75 28.75 M 246.25 28.75 L 246.25 25 L 246.25 21.25 L 250 21.25 L 253.75 21.25 L 253.75 25 L 253.75 28.75 L 250 28.75 L 187.5 28.75 L 178.75 28.75 L 178.75 37.5 L 178.75 46.25 L 187.5 46.25 L 200 46.25 L 203.75 46.25 L 203.75 50 L 203.75 53.75 L 200 53.75 L 178.75 53.75 L 178.75 75 L 178.75 100 L 178.75 103.75 L 175 103.75 L 150 103.75 L 146.25 103.75 L 146.25 100 L 146.25 96.25 M 196.25 128.75 L 196.25 75 L 196.25 71.25 L 200 71.25 L 221.25 71.25 L 221.25 50 L 221.25 46.25 L 225 46.25 L 250 46.25 L 253.75 46.25 L 253.75 50 L 253.75 62.5 L 253.75 71.25 L 262.5 71.25 L 271.25 71.25 L 271.25 62.5 L 271.25 25 L 271.25 3.7500000000000004 L 250 3.7500000000000004 L 187.5 3.7500000000000004 L 178.75 3.7500000000000004 L 178.75 12.5 L 178.75 21.25 L 187.5 21.25 L 225 21.25 L 228.75 21.25 L 228.75 25 L 228.75 28.75 M 128.75 78.75 L 128.75 75 L 128.75 53.75 L 150 53.75 L 153.75 53.75 L 153.75 50 L 153.75 12.5 L 153.75 3.7500000000000004 L 162.5 3.7500000000000004 L 171.25 3.7500000000000004 L 171.25 12.5 L 171.25 75 L 171.25 78.75 L 175 78.75 L 178.75 78.75 M 96.25 46.25 L 125 46.25 L 146.25 46.25 L 146.25 25 L 146.25 3.7500000000000004 L 125 3.7500000000000004 L 112.5 3.7500000000000004 L 103.75 3.7500000000000004 L 103.75 12.5 L 103.75 21.25 L 112.5 21.25 L 125 21.25 L 128.75 21.25 L 128.75 25 L 128.75 28.75 L 125 28.75 L 96.25 28.75 M 71.25 53.75 L 75 53.75 L 78.75 53.75 L 78.75 50 L 78.75 12.5 L 78.75 3.7500000000000004 L 87.5 3.7500000000000004 L 96.25 3.7500000000000004 L 96.25 12.5 L 96.25 100 L 96.25 121.25 L 75 121.25 L 71.25 121.25 L 71.25 125 L 71.25 153.75 M 78.75 28.75 L 75 28.75 L 71.25 28.75 L 71.25 25 L 71.25 3.7500000000000004 L 50 3.7500000000000004 L 12.5 3.7500000000000004 L 3.7500000000000004 3.7500000000000004 L 3.7500000000000004 12.5 L 3.7500000000000004 21.25 L 12.5 21.25 L 50 21.25 L 53.75 21.25 L 53.75 25 L 53.75 28.75 L 50 28.75 L 12.5 28.75 L 3.7500000000000004 28.75 L 3.7500000000000004 37.5 L 3.7500000000000004 46.25 L 12.5 46.25 L 25 46.25 L 28.75 46.25 L 28.75 50 L 28.75 87.5 L 28.75 96.25 L 37.5 96.25 L 46.25 96.25 L 46.25 87.5 L 46.25 50 L 46.25 46.25 L 50 46.25 L 53.75 46.25 L 53.75 50 L 53.75 153.75 "/>
</svg>
