<?xml version="1.0" encoding="UTF-8"?>
<svg xmlns="http://www.w3.org/2000/svg" xmlns:xlink="http://www.w3.org/1999/xlink" width="500" height="500" viewBox="0 0 500 500">
<rect x="-50" y="-50" width="600" height="600" fill="rgb(100%, 100%, 100%)" fill-opacity="1"/>
<path fill="none" stroke-width="3.75" stroke-linecap="square" stroke-linejoin="miter" stroke="rgb(100%, 0%, 0%)" stroke-opacity="1" stroke-miterlimit="10" d="M 412.5 0 L 412.5 12.5 L 425 12.5 L 437.5 12.5 L 437.5 25 L 437.5 75 L 437.5 87.5 L 450 87.5 L 475 87.5 L 487.5 87.5 L 487.5 100 L 487.5 125 L 487.5 137.5 L 475 137.5 L 450 137.5 L 437.5 137.5 L 437.5 125 L 437.5 112.5 L 425 112.5 L 412.5 112.5 L 412.5 125 L 412.5 137.5 L 400 137.5 L 387.5 137.5 L 387.5 150 L 387.5 162.5 L 375 162.5 L 362.5 162.5 L 362.5 175 L 362.5 200 L 362.5 212.5 L 350 212.5 L 337.5 212.5 L 337.5 225 L 337.5 237.5 L 350 237.5 L 362.5 237.5 L 362.5 250 L 362.5 262.5 L 375 262.5 L 387.5 262.5 L 387.5 250 L 387.5 225 L 387.5 212.5 L 400 212.5 L 425 212.5 L 437.5 212.5 L 437.5 225 L 437.5 275 L 437.5 287.5 L 450 287.5 L 462.5 287.5 L 462.5 300 L 462.5 312.5 L 475 312.5 L 487.5 312.5 L 487.5 325 L 487.5 337.5 L 475 337.5 L 462.5 337.5 L 462.5 350 L 462.5 375 L 462.5 387.5 L 475 387.5 L 487.5 387.5 L 487.5 400 L 487.5 412.5 L 475 412.5 L 425 412.5 L 412.5 412.5 L 412.5 425 L 412.5 475 L 412.5 487.5 L 400 487.5 L 300 487.5 L 287.5 487.5 L 287.5 475 L 287.5 462.5 L 275 462.5 L 262.5 462.5 L 262.5 450 L 262.5 437.5 L 250 437.5 L 200 437.5 L 187.5 437.5 L 187.5 425 L 187.5 350 L 187.5 337.5 L 200 337.5 L 212.5 337.5 L 212.5 325 L 212.5 312.5 L 200 312.5 L 175 312.5 L 162.5 312.5 L 162.5 300 L 162.5 287.5 L 150 287.5 L 137.5 287.5 L 137.5 275 L 137.5 262.5 L 150 262.5 L 162.5 262.5 L 162.5 250 L 162.5 237.5 L 150 237.5 L 125 237.5 L 112.5 237.5 L 112.5 250 L 112.5 262.5 L 100 262.5 L 87.5 262.5 L 87.5 250 L 87.5 237.5 L 75 237.5 L 62.5 237.5 L 62.5 225 L 62.5 200 L 62.5 187.5 L 50 187.5 L 37.5 187.5 L 37.5 200 L 37.5 225 L 37.5 237.5 L 25 237.5 L 12.5 237.5 L 12.5 250 L 12.5 275 L 12.5 287.5 L 25 287.5 L 37.5 287.5 L 37.5 300 L 37.5 312.5 L 25 312.5 L 12.5 312.5 L 12.5 325 L 12.5 350 L 12.5 362.5 L 25 362.5 L 50 362.5 L 62.5 362.5 L 62.5 375 L 62.5 425 L 62.5 437.5 L 75 437.5 L 87.5 437.5 L 87.5 450 L 87.5 475 L 87.5 487.5 L 75 487.5 L 25 487.5 L 12.5 487.5 L 12.5 475 L 12.5 462.5 L 0 462.5 "/>
<path fill="none" stroke-width="3.75" stroke-linecap="square" stroke-linejoin="miter" stroke="rgb(0%, 0%, 0%)" stroke-opacity="1" stroke-miterlimit="10" d="M 421.25 0 L 421.25 3.7500000000000004 L 425 3.7500000000000004 L 446.25 3.7500000000000004 L 446.25 25 L 446.25 75 L 446.25 78.75 L 450 78.75 L 475 78.75 L 478.75 78.75 L 478.75 75 L 478.75 50 L 478.75 46.25 L 475 46.25 L 471.25 46.25 L 471.25 50 L 471.25 62.5 L 471.25 71.25 L 462.5 71.25 L 453.75 71.25 L 453.75 62.5 L 453.75 50 L 453.75 28.75 L 475 28.75 L 478.75 28.75 L 478.75 25 L 478.75 21.25 L 475 21.25 L 462.5 21.25 L 453.75 21.25 L 453.75 12.5 L 453.75 3.7500000000000004 L 462.5 3.7500000000000004 L 475 3.7500000000000004 L 496.25 3.7500000000000004 L 496.25 25 L 496.25 125 L 496.25 146.25 L 475 146.25 L 471.25 146.25 L 471.25 150 L 471.25 187.5 L 471.25 196.25 L 462.5 196.25 L 453.75 196.25 L 453.75 187.5 L 453.75 175 L 453.75 171.25 L 450 171.25 L 412.5 171.25 L 403.75 171.25 L 403.75 162.5 L 403.75 153.75 L 412.5 153.75 L 450 153.75 L 453.75 153.75 L 453.75 150 L 453.75 146.25 L 450 146.25 L 428.75 146.25 L 428.75 125 L 428.75 121.25 L 425 121.25 L 421.25 121.25 L 421.25 125 L 421.25 146.25 L 400 146.25 L 396.25 146.25 L 396.25 150 L 396.25 187.5 L 396.25 196.25 L 387.5 196.25 L 378.75 196.25 L 378.75 187.5 L 378.75 175 L 378.75 171.25 L 375 171.25 L 371.25 171.25 L 371.25 175 L 371.25 200 L 371.25 221.25 L 350 221.25 L 346.25 221.25 L 346.25 225 L 346.25 228.75 L 350 228.75 L 371.25 228.75 L 371.25 250 L 371.25 253.75 L 375 253.75 L 378.75 253.75 L 378.75 250 L 378.75 225 L 378.75 203.75 L 400 203.75 L 403.75 203.75 L 403.75 200 L 403.75 178.75 L 425 178.75 L 437.5 178.75 L 446.25 178.75 L 446.25 187.5 L 446.25 196.25 L 437.5 196.25 L 425 196.25 L 421.25 196.25 L 421.25 200 L 421.25 203.75 L 425 203.75 L 462.5 203.75 L 471.25 203.75 L 471.25 212.5 L 471.25 221.25 L 462.5 221.25 L 450 221.25 L 446.25 221.25 L 446.25 225 L 446.25 228.75 L 450 228.75 L 462.5 228.75 L 471.25 228.75 L 471.25 237.5 L 471.25 246.25 L 462.5 246.25 L 450 246.25 L 446.25 246.25 L 446.25 250 L 446.25 275 L 446.25 278.75 L 450 278.75 L 453.75 278.75 L 453.75 275 L 453.75 253.75 L 475 253.75 L 478.75 253.75 L 478.75 250 L 478.75 162.5 L 478.75 153.75 L 487.5 153.75 L 496.25 153.75 L 496.25 162.5 L 496.25 287.5 L 496.25 296.25 L 487.5 296.25 L 478.75 296.25 L 478.75 287.5 L 478.75 275 L 478.75 271.25 L 475 271.25 L 471.25 271.25 L 471.25 275 L 471.25 300 L 471.25 303.75 L 475 303.75 L 496.25 303.75 L 496.25 325 L 496.25 362.5 L 496.25 371.25 L 487.5 371.25 L 478.75 371.25 L 478.75 362.5 L 478.75 350 L 478.75 346.25 L 475 346.25 L 471.25 346.25 L 471.25 350 L 471.25 375 L 471.25 378.75 L 475 378.75 L 496.25 378.75 L 496.25 400 L 496.25 462.5 L 496.25 471.25 L 487.5 471.25 L 478.75 471.25 L 478.75 462.5 L 478.75 425 L 478.75 421.25 L 475 421.25 L 471.25 421.25 L 471.25 425 L 471.25 475 L 471.25 478.75 L 475 478.75 L 487.5 478.75 L 496.25 478.75 L 496.25 487.5 L 496.25 496.25 L 487.5 496.25 L 437.5 496.25 L 428.75 496.25 L 428.75 487.5 L 428.75 478.75 L 437.5 478.75 L 450 478.75 L 453.75 478.75 L 453.75 475 L 453.75 450 L 453.75 446.25 L 450 446.25 L 446.25 446.25 L 446.25 450 L 446.25 462.5 L 446.25 471.25 L 437.5 471.25 L 428.75 471.25 L 428.75 462.5 L 428.75 450 L 428.75 428.75 L 450 428.75 L 453.75 428.75 L 453.75 425 L 453.75 421.25 L 450 421.25 L 425 421.25 L 421.25 421.25 L 421.25 425 L 421.25 475 L 421.25 496.25 L 400 496.25 L 300 496.25 L 278.75 496.25 L 278.75 475 L 278.75 471.25 L 275 471.25 L 250 471.25 L 246.25 471.25 L 246.25 475 L 246.25 478.75 L 250 478.75 L 262.5 478.75 L 271.25 478.75 L 271.25 487.5 L 271.25 496.25 L 262.5 496.25 L 200 496.25 L 178.75 496.25 L 178.75 475 L 178.75 462.5 L 178.75 453.75 L 187.5 453.75 L 196.25 453.75 L 196.25 462.5 L 196.25 475 L 196.25 478.75 L 200 478.75 L 203.75 478.75 L 203.75 475 L 203.75 462.5 L 203.75 453.75 L 212.5 453.75 L 221.25 453.75 L 221.25 462.5 L 221.25 475 L 221.25 478.75 L 225 478.75 L 228.75 478.75 L 228.75 475 L 228.75 453.75 L 250 453.75 L 253.75 453.75 L 253.75 450 L 253.75 446.25 L 250 446.25 L 200 446.25 L 178.75 446.25 L 178.75 425 L 178.75 350 L 178.75 346.25 L 175 346.25 L 162.5 346.25 L 153.75 346.25 L 153.75 337.5 L 153.75 328.75 L 162.5 328.75 L 200 328.75 L 203.75 328.75 L 203.75 325 L 203.75 321.25 L 200 321.25 L 175 321.25 L 153.75 321.25 L 153.75 300 L 153.75 296.25 L 150 296.25 L 146.25 296.25 L 146.25 300 L 146.25 312.5 L 146.25 321.25 L 137.5 321.25 L 128.75 321.25 L 128.75 312.5 L 128.75 275 L 128.75 253.75 L 150 253.75 L 153.75 253.75 L 153.75 250 L 153.75 246.25 L 150 246.25 L 125 246.25 L 121.25 246.25 L 121.25 250 L 121.25 300 L 121.25 321.25 L 100 321.25 L 87.5 321.25 L 78.75 321.25 L 78.75 312.5 L 78.75 303.75 L 87.5 303.75 L 100 303.75 L 103.75 303.75 L 103.75 300 L 103.75 275 L 103.75 271.25 L 100 271.25 L 96.25 271.25 L 96.25 275 L 96.25 287.5 L 96.25 296.25 L 87.5 296.25 L 78.75 296.25 L 78.75 287.5 L 78.75 250 L 78.75 246.25 L 75 246.25 L 53.75 246.25 L 53.75 225 L 53.75 200 L 53.75 196.25 L 50 196.25 L 46.25 196.25 L 46.25 200 L 46.25 262.5 L 46.25 271.25 L 37.5 271.25 L 28.75 271.25 L 28.75 262.5 L 28.75 250 L 28.75 246.25 L 25 246.25 L 21.25 246.25 L 21.25 250 L 21.25 275 L 21.25 278.75 L 25 278.75 L 50 278.75 L 53.75 278.75 L 53.75 275 L 53.75 262.5 L 53.75 253.75 L 62.5 253.75 L 71.25 253.75 L 71.25 262.5 L 71.25 275 L 71.25 296.25 L 50 296.25 L 46.25 296.25 L 46.25 300 L 46.25 303.75 L 50 303.75 L 62.5 303.75 L 71.25 303.75 L 71.25 312.5 L 71.25 321.25 L 62.5 321.25 L 25 321.25 L 21.25 321.25 L 21.25 325 L 21.25 350 L 21.25 353.75 L 25 353.75 L 28.75 353.75 L 28.75 350 L 28.75 328.75 L 50 328.75 L 62.5 328.75 L 71.25 328.75 L 71.25 337.5 L 71.25 346.25 L 62.5 346.25 L 50 346.25 L 46.25 346.25 L 46.25 350 L 46.25 353.75 L 50 353.75 L 75 353.75 L 96.25 353.75 L 96.25 375 L 96.25 387.5 L 96.25 396.25 L 87.5 396.25 L 78.75 396.25 L 78.75 387.5 L 78.75 375 L 78.75 371.25 L 75 371.25 L 71.25 371.25 L 71.25 375 L 71.25 425 L 71.25 428.75 L 75 428.75 L 100 428.75 L 103.75 428.75 L 103.75 425 L 103.75 421.25 L 100 421.25 L 87.5 421.25 L 78.75 421.25 L 78.75 412.5 L 78.75 403.75 L 87.5 403.75 L 100 403.75 L 103.75 403.75 L 103.75 400 L 103.75 350 L 103.75 346.25 L 100 346.25 L 87.5 346.25 L 78.75 346.25 L 78.75 337.5 L 78.75 328.75 L 87.5 328.75 L 137.5 328.75 L 146.25 328.75 L 146.25 337.5 L 146.25 346.25 L 137.5 346.25 L 125 346.25 L 121.25 346.25 L 121.25 350 L 121.25 353.75 L 125 353.75 L 137.5 353.75 L 146.25 353.75 L 146.25 362.5 L 146.25 371.25 L 137.5 371.25 L 125 371.25 L 121.25 371.25 L 121.25 375 L 121.25 400 L 121.25 403.75 L 125 403.75 L 150 403.75 L 153.75 403.75 L 153.75 400 L 153.75 396.25 L 150 396.25 L 137.5 396.25 L 128.75 396.25 L 128.75 387.5 L 128.75 378.75 L 137.5 378.75 L 150 378.75 L 153.75 378.75 L 153.75 375 L 153.75 362.5 L 153.75 353.75 L 162.5 353.75 L 171.25 353.75 L 171.25 362.5 L 171.25 400 L 171.25 421.25 L 150 421.25 L 125 421.25 L 121.25 421.25 L 121.25 425 L 121.25 428.75 L 125 428.75 L 146.25 428.75 L 146.25 450 L 146.25 453.75 L 150 453.75 L 153.75 453.75 L 153.75 450 L 153.75 437.5 L 153.75 428.75 L 162.5 428.75 L 171.25 428.75 L 171.25 437.5 L 171.25 450 L 171.25 471.25 L 150 471.25 L 146.25 471.25 L 146.25 475 L 146.25 478.75 L 150 478.75 L 162.5 478.75 L 171.25 478.75 L 171.25 487.5 L 171.25 496.25 L 162.5 496.25 L 150 496.25 L 128.75 496.25 L 128.75 475 L 128.75 471.25 L 125 471.25 L 121.25 471.25 L 121.25 475 L 121.25 487.5 L 121.25 496.25 L 112.5 496.25 L 103.75 496.25 L 103.75 487.5 L 103.75 475 L 103.75 453.75 L 125 453.75 L 128.75 453.75 L 128.75 450 L 128.75 446.25 L 125 446.25 L 100 446.25 L 96.25 446.25 L 96.25 450 L 96.25 475 L 96.25 496.25 L 75 496.25 L 25 496.25 L 3.7500000000000004 496.25 L 3.7500000000000004 475 L 3.7500000000000004 471.25 L 0 471.25 M 403.75 0 L 403.75 21.25 L 425 21.25 L 428.75 21.25 L 428.75 25 L 428.75 50 L 428.75 53.75 L 425 53.75 L 412.5 53.75 L 403.75 53.75 L 403.75 62.5 L 403.75 71.25 L 412.5 71.25 L 425 71.25 L 428.75 71.25 L 428.75 75 L 428.75 78.75 L 425 78.75 L 375 78.75 L 371.25 78.75 L 371.25 75 L 371.25 71.25 L 375 71.25 L 387.5 71.25 L 396.25 71.25 L 396.25 62.5 L 396.25 53.75 L 387.5 53.75 L 375 53.75 L 371.25 53.75 L 371.25 50 L 371.25 37.5 L 371.25 28.75 L 362.5 28.75 L 353.75 28.75 L 353.75 37.5 L 353.75 75 L 353.75 78.75 L 350 78.75 L 346.25 78.75 L 346.25 75 L 346.25 62.5 L 346.25 53.75 L 337.5 53.75 L 328.75 53.75 L 328.75 62.5 L 328.75 75 L 328.75 78.75 L 325 78.75 L 321.25 78.75 L 321.25 75 L 321.25 62.5 L 321.25 53.75 L 312.5 53.75 L 303.75 53.75 L 303.75 62.5 L 303.75 75 L 303.75 96.25 L 325 96.25 L 350 96.25 L 353.75 96.25 L 353.75 100 L 353.75 112.5 L 353.75 121.25 L 362.5 121.25 L 371.25 121.25 L 371.25 112.5 L 371.25 100 L 371.25 96.25 L 375 96.25 L 475 96.25 L 478.75 96.25 L 478.75 100 L 478.75 125 L 478.75 128.75 L 475 128.75 L 471.25 128.75 L 471.25 125 L 471.25 112.5 L 471.25 103.75 L 462.5 103.75 L 453.75 103.75 L 453.75 112.5 L 453.75 125 L 453.75 128.75 L 450 128.75 L 446.25 128.75 L 446.25 125 L 446.25 103.75 L 425 103.75 L 387.5 103.75 L 378.75 103.75 L 378.75 112.5 L 378.75 121.25 L 387.5 121.25 L 400 121.25 L 403.75 121.25 L 403.75 125 L 403.75 128.75 L 400 128.75 L 362.5 128.75 L 353.75 128.75 L 353.75 137.5 L 353.75 146.25 L 362.5 146.25 L 375 146.25 L 378.75 146.25 L 378.75 150 L 378.75 153.75 L 375 153.75 L 350 153.75 L 346.25 153.75 L 346.25 150 L 346.25 137.5 L 346.25 128.75 L 337.5 128.75 L 328.75 128.75 L 328.75 137.5 L 328.75 150 L 328.75 153.75 L 325 153.75 L 300 153.75 L 296.25 153.75 L 296.25 150 L 296.25 146.25 L 300 146.25 L 312.5 146.25 L 321.25 146.25 L 321.25 137.5 L 321.25 128.75 L 312.5 128.75 L 300 128.75 L 278.75 128.75 L 278.75 150 L 278.75 187.5 L 278.75 196.25 L 287.5 196.25 L 296.25 196.25 L 296.25 187.5 L 296.25 175 L 296.25 171.25 L 300 171.25 L 303.75 171.25 L 303.75 175 L 303.75 187.5 L 303.75 196.25 L 312.5 196.25 L 321.25 196.25 L 321.25 187.5 L 321.25 175 L 321.25 171.25 L 325 171.25 L 328.75 171.25 L 328.75 175 L 328.75 187.5 L 328.75 196.25 L 337.5 196.25 L 346.25 196.25 L 346.25 187.5 L 346.25 175 L 346.25 171.25 L 350 171.25 L 353.75 171.25 L 353.75 175 L 353.75 200 L 353.75 203.75 L 350 203.75 L 328.75 203.75 L 328.75 225 L 328.75 228.75 L 325 228.75 L 321.25 228.75 L 321.25 225 L 321.25 212.5 L 321.25 203.75 L 312.5 203.75 L 303.75 203.75 L 303.75 212.5 L 303.75 225 L 303.75 228.75 L 300 228.75 L 287.5 228.75 L 278.75 228.75 L 278.75 237.5 L 278.75 246.25 L 287.5 246.25 L 350 246.25 L 353.75 246.25 L 353.75 250 L 353.75 253.75 L 350 253.75 L 337.5 253.75 L 328.75 253.75 L 328.75 262.5 L 328.75 271.25 L 337.5 271.25 L 350 271.25 L 353.75 271.25 L 353.75 275 L 353.75 278.75 L 350 278.75 L 337.5 278.75 L 328.75 278.75 L 328.75 287.5 L 328.75 296.25 L 337.5 296.25 L 387.5 296.25 L 396.25 296.25 L 396.25 287.5 L 396.25 278.75 L 387.5 278.75 L 375 278.75 L 371.25 278.75 L 371.25 275 L 371.25 271.25 L 375 271.25 L 412.5 271.25 L 421.25 271.25 L 421.25 262.5 L 421.25 253.75 L 412.5 253.75 L 400 253.75 L 396.25 253.75 L 396.25 250 L 396.25 225 L 396.25 221.25 L 400 221.25 L 403.75 221.25 L 403.75 225 L 403.75 237.5 L 403.75 246.25 L 412.5 246.25 L 421.25 246.25 L 421.25 237.5 L 421.25 225 L 421.25 221.25 L 425 221.25 L 428.75 221.25 L 428.75 225 L 428.75 275 L 428.75 278.75 L 425 278.75 L 412.5 278.75 L 403.75 278.75 L 403.75 287.5 L 403.75 296.25 L 412.5 296.25 L 425 296.25 L 428.75 296.25 L 428.75 300 L 428.75 312.5 L 428.75 321.25 L 437.5 321.25 L 446.25 321.25 L 446.25 312.5 L 446.25 300 L 446.25 296.25 L 450 296.25 L 453.75 296.25 L 453.75 300 L 453.75 321.25 L 475 321.25 L 478.75 321.25 L 478.75 325 L 478.75 328.75 L 475 328.75 L 437.5 328.75 L 428.75 328.75 L 428.75 337.5 L 428.75 346.25 L 437.5 346.25 L 450 346.25 L 453.75 346.25 L 453.75 350 L 453.75 353.75 L 450 353.75 L 437.5 353.75 L 428.75 353.75 L 428.75 362.5 L 428.75 371.25 L 437.5 371.25 L 450 371.25 L 453.75 371.25 L 453.75 375 L 453.75 396.25 L 475 396.25 L 478.75 396.25 L 478.75 400 L 478.75 403.75 L 475 403.75 L 450 403.75 L 446.25 403.75 L 446.25 400 L 446.25 387.5 L 446.25 378.75 L 437.5 378.75 L 428.75 378.75 L 428.75 387.5 L 428.75 400 L 428.75 403.75 L 425 403.75 L 421.25 403.75 L 421.25 400 L 421.25 350 L 421.25 328.75 L 400 328.75 L 396.25 328.75 L 396.25 325 L 396.25 321.25 L 400 321.25 L 412.5 321.25 L 421.25 321.25 L 421.25 312.5 L 421.25 303.75 L 412.5 303.75 L 400 303.75 L 378.75 303.75 L 378.75 325 L 378.75 328.75 L 375 328.75 L 371.25 328.75 L 371.25 325 L 371.25 312.5 L 371.25 303.75 L 362.5 303.75 L 353.75 303.75 L 353.75 312.5 L 353.75 325 L 353.75 328.75 L 350 328.75 L 346.25 328.75 L 346.25 325 L 346.25 303.75 L 325 303.75 L 312.5 303.75 L 303.75 303.75 L 303.75 312.5 L 303.75 321.25 L 312.5 321.25 L 325 321.25 L 328.75 321.25 L 328.75 325 L 328.75 346.25 L 350 346.25 L 353.75 346.25 L 353.75 350 L 353.75 353.75 L 350 353.75 L 328.75 353.75 L 328.75 375 L 328.75 387.5 L 328.75 396.25 L 337.5 396.25 L 346.25 396.25 L 346.25 387.5 L 346.25 375 L 346.25 371.25 L 350 371.25 L 353.75 371.25 L 353.75 375 L 353.75 387.5 L 353.75 396.25 L 362.5 396.25 L 371.25 396.25 L 371.25 387.5 L 371.25 350 L 371.25 346.25 L 375 346.25 L 378.75 346.25 L 378.75 350 L 378.75 362.5 L 378.75 371.25 L 387.5 371.25 L 396.25 371.25 L 396.25 362.5 L 396.25 350 L 396.25 346.25 L 400 346.25 L 403.75 346.25 L 403.75 350 L 403.75 400 L 403.75 403.75 L 400 403.75 L 396.25 403.75 L 396.25 400 L 396.25 387.5 L 396.25 378.75 L 387.5 378.75 L 378.75 378.75 L 378.75 387.5 L 378.75 400 L 378.75 421.25 L 400 421.25 L 403.75 421.25 L 403.75 425 L 403.75 428.75 L 400 428.75 L 375 428.75 L 371.25 428.75 L 371.25 425 L 371.25 403.75 L 350 403.75 L 325 403.75 L 321.25 403.75 L 321.25 400 L 321.25 362.5 L 321.25 353.75 L 312.5 353.75 L 303.75 353.75 L 303.75 362.5 L 303.75 437.5 L 303.75 446.25 L 312.5 446.25 L 321.25 446.25 L 321.25 437.5 L 321.25 425 L 321.25 421.25 L 325 421.25 L 350 421.25 L 353.75 421.25 L 353.75 425 L 353.75 428.75 L 350 428.75 L 328.75 428.75 L 328.75 450 L 328.75 453.75 L 325 453.75 L 312.5 453.75 L 303.75 453.75 L 303.75 462.5 L 303.75 471.25 L 312.5 471.25 L 325 471.25 L 346.25 471.25 L 346.25 450 L 346.25 446.25 L 350 446.25 L 353.75 446.25 L 353.75 450 L 353.75 471.25 L 375 471.25 L 387.5 471.25 L 396.25 471.25 L 396.25 462.5 L 396.25 453.75 L 387.5 453.75 L 375 453.75 L 371.25 453.75 L 371.25 450 L 371.25 446.25 L 375 446.25 L 400 446.25 L 403.75 446.25 L 403.75 450 L 403.75 475 L 403.75 478.75 L 400 478.75 L 300 478.75 L 296.25 478.75 L 296.25 475 L 296.25 412.5 L 296.25 403.75 L 287.5 403.75 L 278.75 403.75 L 278.75 412.5 L 278.75 450 L 278.75 453.75 L 275 453.75 L 271.25 453.75 L 271.25 450 L 271.25 428.75 L 250 428.75 L 200 428.75 L 196.25 428.75 L 196.25 425 L 196.25 400 L 196.25 396.25 L 200 396.25 L 212.5 396.25 L 221.25 396.25 L 221.25 387.5 L 221.25 378.75 L 212.5 378.75 L 200 378.75 L 196.25 378.75 L 196.25 375 L 196.25 371.25 L 200 371.25 L 225 371.25 L 228.75 371.25 L 228.75 375 L 228.75 396.25 L 250 396.25 L 253.75 396.25 L 253.75 400 L 253.75 403.75 L 250 403.75 L 212.5 403.75 L 203.75 403.75 L 203.75 412.5 L 203.75 421.25 L 212.5 421.25 L 250 421.25 L 271.25 421.25 L 271.25 400 L 271.25 396.25 L 275 396.25 L 287.5 396.25 L 296.25 396.25 L 296.25 387.5 L 296.25 378.75 L 287.5 378.75 L 275 378.75 L 271.25 378.75 L 271.25 375 L 271.25 371.25 L 275 371.25 L 287.5 371.25 L 296.25 371.25 L 296.25 362.5 L 296.25 353.75 L 287.5 353.75 L 275 353.75 L 253.75 353.75 L 253.75 375 L 253.75 378.75 L 250 378.75 L 246.25 378.75 L 246.25 375 L 246.25 353.75 L 225 353.75 L 200 353.75 L 196.25 353.75 L 196.25 350 L 196.25 346.25 L 200 346.25 L 262.5 346.25 L 271.25 346.25 L 271.25 337.5 L 271.25 328.75 L 262.5 328.75 L 225 328.75 L 221.25 328.75 L 221.25 325 L 221.25 303.75 L 200 303.75 L 175 303.75 L 171.25 303.75 L 171.25 300 L 171.25 278.75 L 150 278.75 L 146.25 278.75 L 146.25 275 L 146.25 271.25 L 150 271.25 L 171.25 271.25 L 171.25 250 L 171.25 246.25 L 175 246.25 L 178.75 246.25 L 178.75 250 L 178.75 275 L 178.75 296.25 L 200 296.25 L 225 296.25 L 228.75 296.25 L 228.75 300 L 228.75 321.25 L 250 321.25 L 275 321.25 L 278.75 321.25 L 278.75 325 L 278.75 346.25 L 300 346.25 L 312.5 346.25 L 321.25 346.25 L 321.25 337.5 L 321.25 328.75 L 312.5 328.75 L 300 328.75 L 296.25 328.75 L 296.25 325 L 296.25 303.75 L 275 303.75 L 271.25 303.75 L 271.25 300 L 271.25 296.25 L 275 296.25 L 312.5 296.25 L 321.25 296.25 L 321.25 287.5 L 321.25 278.75 L 312.5 278.75 L 300 278.75 L 296.25 278.75 L 296.25 275 L 296.25 271.25 L 300 271.25 L 312.5 271.25 L 321.25 271.25 L 321.25 262.5 L 321.25 253.75 L 312.5 253.75 L 300 253.75 L 278.75 253.75 L 278.75 275 L 278.75 278.75 L 275 278.75 L 253.75 278.75 L 253.75 300 L 253.75 303.75 L 250 303.75 L 246.25 303.75 L 246.25 300 L 246.25 262.5 L 246.25 253.75 L 237.5 253.75 L 228.75 253.75 L 228.75 262.5 L 228.75 275 L 228.75 278.75 L 225 278.75 L 200 278.75 L 196.25 278.75 L 196.25 275 L 196.25 250 L 196.25 246.25 L 200 246.25 L 203.75 246.25 L 203.75 250 L 203.75 262.5 L 203.75 271.25 L 212.5 271.25 L 221.25 271.25 L 221.25 262.5 L 221.25 250 L 221.25 246.25 L 225 246.25 L 250 246.25 L 253.75 246.25 L 253.75 250 L 253.75 262.5 L 253.75 271.25 L 262.5 271.25 L 271.25 271.25 L 271.25 262.5 L 271.25 225 L 271.25 221.25 L 275 221.25 L 287.5 221.25 L 296.25 221.25 L 296.25 212.5 L 296.25 203.75 L 287.5 203.75 L 275 203.75 L 271.25 203.75 L 271.25 200 L 271.25 187.5 L 271.25 178.75 L 262.5 178.75 L 253.75 178.75 L 253.75 187.5 L 253.75 200 L 253.75 203.75 L 250 203.75 L 237.5 203.75 L 228.75 203.75 L 228.75 212.5 L 228.75 221.25 L 237.5 221.25 L 250 221.25 L 253.75 221.25 L 253.75 225 L 253.75 228.75 L 250 228.75 L 175 228.75 L 171.25 228.75 L 171.25 225 L 171.25 221.25 L 175 221.25 L 200 221.25 L 221.25 221.25 L 221.25 200 L 221.25 196.25 L 225 196.25 L 246.25 196.25 L 246.25 175 L 246.25 150 L 246.25 146.25 L 250 146.25 L 253.75 146.25 L 253.75 150 L 253.75 162.5 L 253.75 171.25 L 262.5 171.25 L 271.25 171.25 L 271.25 162.5 L 271.25 125 L 271.25 121.25 L 275 121.25 L 337.5 121.25 L 346.25 121.25 L 346.25 112.5 L 346.25 103.75 L 337.5 103.75 L 300 103.75 L 296.25 103.75 L 296.25 100 L 296.25 87.5 L 296.25 78.75 L 287.5 78.75 L 278.75 78.75 L 278.75 87.5 L 278.75 100 L 278.75 103.75 L 275 103.75 L 237.5 103.75 L 228.75 103.75 L 228.75 112.5 L 228.75 121.25 L 237.5 121.25 L 250 121.25 L 253.75 121.25 L 253.75 125 L 253.75 128.75 L 250 128.75 L 225 128.75 L 221.25 128.75 L 221.25 125 L 221.25 112.5 L 221.25 103.75 L 212.5 103.75 L 203.75 103.75 L 203.75 112.5 L 203.75 125 L 203.75 146.25 L 225 146.25 L 228.75 146.25 L 228.75 150 L 228.75 175 L 228.75 178.75 L 225 178.75 L 221.25 178.75 L 221.25 175 L 221.25 162.5 L 221.25 153.75 L 212.5 153.75 L 203.75 153.75 L 203.75 162.5 L 203.75 200 L 203.75 203.75 L 200 203.75 L 196.25 203.75 L 196.25 200 L 196.25 100 L 196.25 96.25 L 200 96.25 L 250 96.25 L 271.25 96.25 L 271.25 75 L 271.25 71.25 L 275 71.25 L 296.25 71.25 L 296.25 50 L 296.25 46.25 L 300 46.25 L 337.5 46.25 L 346.25 46.25 L 346.25 37.5 L 346.25 28.75 L 337.5 28.75 L 325 28.75 L 321.25 28.75 L 321.25 25 L 321.25 21.25 L 325 21.25 L 375 21.25 L 378.75 21.25 L 378.75 25 L 378.75 46.25 L 400 46.25 L 412.5 46.25 L 421.25 46.25 L 421.25 37.5 L 421.25 28.75 L 412.5 28.75 L 400 28.75 L 396.25 28.75 L 396.25 25 L 396.25 3.7500000000000004 L 375 3.7500000000000004 L 325 3.7500000000000004 L 303.75 3.7500000000000004 L 303.75 25 L 303.75 28.75 L 300 28.75 L 278.75 28.75 L 278.75 50 L 278.75 53.75 L 275 53.75 L 271.25 53.75 L 271.25 50 L 271.25 25 L 271.25 21.25 L 275 21.25 L 287.5 21.25 L 296.25 21.25 L 296.25 12.5 L 296.25 3.7500000000000004 L 287.5 3.7500000000000004 L 150 3.7500000000000004 L 128.75 3.7500000000000004 L 128.75 25 L 128.75 46.25 L 150 46.25 L 162.5 46.25 L 171.25 46.25 L 171.25 37.5 L 171.25 28.75 L 162.5 28.75 L 150 28.75 L 146.25 28.75 L 146.25 25 L 146.25 21.25 L 150 21.25 L 200 21.25 L 203.75 21.25 L 203.75 25 L 203.75 37.5 L 203.75 46.25 L 212.5 46.25 L 221.25 46.25 L 221.25 37.5 L 221.25 25 L 221.25 21.25 L 225 21.25 L 250 21.25 L 253.75 21.25 L 253.75 25 L 253.75 28.75 L 250 28.75 L 228.75 28.75 L 228.75 50 L 228.75 62.5 L 228.75 71.25 L 237.5 71.25 L 246.25 71.25 L 246.25 62.5 L 246.25 50 L 246.25 46.25 L 250 46.25 L 253.75 46.25 L 253.75 50 L 253.75 75 L 253.75 78.75 L 250 78.75 L 200 78.75 L 196.25 78.75 L 196.25 75 L 196.25 71.25 L 200 71.25 L 212.5 71.25 L 221.25 71.25 L 221.25 62.5 L 221.25 53.75 L 212.5 53.75 L 200 53.75 L 196.25 53.75 L 196.25 50 L 196.25 37.5 L 196.25 28.75 L 187.5 28.75 L 178.75 28.75 L 178.75 37.5 L 178.75 50 L 178.75 53.75 L 175 53.75 L 162.5 53.75 L 153.75 53.75 L 153.75 62.5 L 153.75 71.25 L 162.5 71.25 L 175 71.25 L 178.75 71.25 L 178.75 75 L 178.75 78.75 L 175 78.75 L 162.5 78.75 L 153.75 78.75 L 153.75 87.5 L 153.75 96.25 L 162.5 96.25 L 175 96.25 L 178.75 96.25 L 178.75 100 L 178.75 125 L 178.75 128.75 L 175 128.75 L 171.25 128.75 L 171.25 125 L 171.25 112.5 L 171.25 103.75 L 162.5 103.75 L 153.75 103.75 L 153.75 112.5 L 153.75 125 L 153.75 146.25 L 175 146.25 L 178.75 146.25 L 178.75 150 L 178.75 153.75 L 175 153.75 L 162.5 153.75 L 153.75 153.75 L 153.75 162.5 L 153.75 171.25 L 162.5 171.25 L 175 171.25 L 178.75 171.25 L 178.75 175 L 178.75 178.75 L 175 178.75 L 162.5 178.75 L 153.75 178.75 L 153.75 187.5 L 153.75 196.25 L 162.5 196.25 L 175 196.25 L 178.75 196.25 L 178.75 200 L 178.75 203.75 L 175 203.75 L 153.75 203.75 L 153.75 225 L 153.75 228.75 L 150 228.75 L 146.25 228.75 L 146.25 225 L 146.25 187.5 L 146.25 178.75 L 137.5 178.75 L 128.75 178.75 L 128.75 187.5 L 128.75 225 L 128.75 228.75 L 125 228.75 L 121.25 228.75 L 121.25 225 L 121.25 150 L 121.25 146.25 L 125 146.25 L 128.75 146.25 L 128.75 150 L 128.75 162.5 L 128.75 171.25 L 137.5 171.25 L 146.25 171.25 L 146.25 162.5 L 146.25 100 L 146.25 78.75 L 125 78.75 L 121.25 78.75 L 121.25 75 L 121.25 71.25 L 125 71.25 L 137.5 71.25 L 146.25 71.25 L 146.25 62.5 L 146.25 53.75 L 137.5 53.75 L 125 53.75 L 103.75 53.75 L 103.75 75 L 103.75 78.75 L 100 78.75 L 78.75 78.75 L 78.75 100 L 78.75 112.5 L 78.75 121.25 L 87.5 121.25 L 96.25 121.25 L 96.25 112.5 L 96.25 100 L 96.25 96.25 L 100 96.25 L 125 96.25 L 128.75 96.25 L 128.75 100 L 128.75 125 L 128.75 128.75 L 125 128.75 L 121.25 128.75 L 121.25 125 L 121.25 112.5 L 121.25 103.75 L 112.5 103.75 L 103.75 103.75 L 103.75 112.5 L 103.75 150 L 103.75 153.75 L 100 153.75 L 96.25 153.75 L 96.25 150 L 96.25 128.75 L 75 128.75 L 71.25 128.75 L 71.25 125 L 71.25 100 L 71.25 78.75 L 50 78.75 L 46.25 78.75 L 46.25 75 L 46.25 71.25 L 50 71.25 L 62.5 71.25 L 71.25 71.25 L 71.25 62.5 L 71.25 53.75 L 62.5 53.75 L 25 53.75 L 21.25 53.75 L 21.25 50 L 21.25 25 L 21.25 21.25 L 25 21.25 L 28.75 21.25 L 28.75 25 L 28.75 37.5 L 28.75 46.25 L 37.5 46.25 L 46.25 46.25 L 46.25 37.5 L 46.25 25 L 46.25 21.25 L 50 21.25 L 53.75 21.25 L 53.75 25 L 53.75 46.25 L 75 46.25 L 78.75 46.25 L 78.75 50 L 78.75 62.5 L 78.75 71.25 L 87.5 71.25 L 96.25 71.25 L 96.25 62.5 L 96.25 50 L 96.25 28.75 L 75 28.75 L 71.25 28.75 L 71.25 25 L 71.25 21.25 L 75 21.25 L 100 21.25 L 103.75 21.25 L 103.75 25 L 103.75 37.5 L 103.75 46.25 L 112.5 46.25 L 121.25 46.25 L 121.25 37.5 L 121.25 25 L 121.25 3.7500000000000004 L 100 3.7500000000000004 L 25 3.7500000000000004 L 3.7500000000000004 3.7500000000000004 L 3.7500000000000004 25 L 3.7500000000000004 50 L 3.7500000000000004 71.25 L 25 71.25 L 28.75 71.25 L 28.75 75 L 28.75 78.75 L 25 78.75 L 12.5 78.75 L 3.7500000000000004 78.75 L 3.7500000000000004 87.5 L 3.7500000000000004 96.25 L 12.5 96.25 L 25 96.25 L 28.75 96.25 L 28.75 100 L 28.75 103.75 L 25 103.75 L 3.7500000000000004 103.75 L 3.7500000000000004 125 L 3.7500000000000004 137.5 L 3.7500000000000004 146.25 L 12.5 146.25 L 21.25 146.25 L 21.25 137.5 L 21.25 125 L 21.25 121.25 L 25 121.25 L 28.75 121.25 L 28.75 125 L 28.75 137.5 L 28.75 146.25 L 37.5 146.25 L 46.25 146.25 L 46.25 137.5 L 46.25 100 L 46.25 96.25 L 50 96.25 L 53.75 96.25 L 53.75 100 L 53.75 125 L 53.75 146.25 L 75 146.25 L 78.75 146.25 L 78.75 150 L 78.75 187.5 L 78.75 196.25 L 87.5 196.25 L 96.25 196.25 L 96.25 187.5 L 96.25 175 L 96.25 171.25 L 100 171.25 L 103.75 171.25 L 103.75 175 L 103.75 250 L 103.75 253.75 L 100 253.75 L 96.25 253.75 L 96.25 250 L 96.25 212.5 L 96.25 203.75 L 87.5 203.75 L 78.75 203.75 L 78.75 212.5 L 78.75 225 L 78.75 228.75 L 75 228.75 L 71.25 228.75 L 71.25 225 L 71.25 200 L 71.25 178.75 L 50 178.75 L 25 178.75 L 21.25 178.75 L 21.25 175 L 21.25 171.25 L 25 171.25 L 62.5 171.25 L 71.25 171.25 L 71.25 162.5 L 71.25 153.75 L 62.5 153.75 L 25 153.75 L 3.7500000000000004 153.75 L 3.7500000000000004 175 L 3.7500000000000004 196.25 L 25 196.25 L 28.75 196.25 L 28.75 200 L 28.75 203.75 L 25 203.75 L 12.5 203.75 L 3.7500000000000004 203.75 L 3.7500000000000004 212.5 L 3.7500000000000004 221.25 L 12.5 221.25 L 25 221.25 L 28.75 221.25 L 28.75 225 L 28.75 228.75 L 25 228.75 L 3.7500000000000004 228.75 L 3.7500000000000004 250 L 3.7500000000000004 275 L 3.7500000000000004 296.25 L 25 296.25 L 28.75 296.25 L 28.75 300 L 28.75 303.75 L 25 303.75 L 3.7500000000000004 303.75 L 3.7500000000000004 325 L 3.7500000000000004 400 L 3.7500000000000004 421.25 L 25 421.25 L 37.5 421.25 L 46.25 421.25 L 46.25 412.5 L 46.25 403.75 L 37.5 403.75 L 25 403.75 L 21.25 403.75 L 21.25 400 L 21.25 375 L 21.25 371.25 L 25 371.25 L 50 371.25 L 53.75 371.25 L 53.75 375 L 53.75 378.75 L 50 378.75 L 37.5 378.75 L 28.75 378.75 L 28.75 387.5 L 28.75 396.25 L 37.5 396.25 L 50 396.25 L 53.75 396.25 L 53.75 400 L 53.75 425 L 53.75 446.25 L 75 446.25 L 78.75 446.25 L 78.75 450 L 78.75 475 L 78.75 478.75 L 75 478.75 L 71.25 478.75 L 71.25 475 L 71.25 453.75 L 50 453.75 L 46.25 453.75 L 46.25 450 L 46.25 437.5 L 46.25 428.75 L 37.5 428.75 L 28.75 428.75 L 28.75 437.5 L 28.75 450 L 28.75 471.25 L 50 471.25 L 53.75 471.25 L 53.75 475 L 53.75 478.75 L 50 478.75 L 25 478.75 L 21.25 478.75 L 21.25 475 L 21.25 437.5 L 21.25 428.75 L 12.5 428.75 L 3.7500000000000004 428.75 L 3.7500000000000004 437.5 L 3.7500000000000004 450 L 3.7500000000000004 453.75 L 0 453.75 "/>
</svg>
