<?xml version="1.0" encoding="UTF-8"?>
<svg xmlns="http://www.w3.org/2000/svg" xmlns:xlink="http://www.w3.org/1999/xlink" width="125" height="125" viewBox="0 0 125 125">
<path fill="none" stroke-width="3.75" stroke-linecap="round" stroke-linejoin="miter" stroke="rgb(0%, 0%, 0%)" stroke-opacity="1" stroke-miterlimit="10" d="M 0 103.75 C 2.070312 103.75 3.75 102.070312 3.75 100 C 3.75 88.265625 13.265625 78.75 25 78.75 L 53.75 78.75 M 0 121.25 C 5.636719 121.25 11.039062 119.011719 15.027344 115.027344 C 19.011719 111.039062 21.25 105.636719 21.25 100 C 21.25 97.929688 22.929688 96.25 25 96.25 L 53.75 96.25 M 96.25 53.75 L 100 53.75 C 111.734375 53.75 121.25 63.265625 121.25 75 C 121.25 80.636719 119.011719 86.039062 115.027344 90.027344 C 111.039062 94.011719 105.636719 96.25 100 96.25 L 71.25 96.25 M 53.75 71.25 L 53.75 100 C 53.75 102.070312 52.070312 103.75 50 103.75 C 47.929688 103.75 46.25 102.070312 46.25 100 L 46.25 96.25 M 71.25 71.25 L 71.25 100 C 71.25 102.070312 72.929688 103.75 75 103.75 L 112.5 103.75 C 117.332031 103.75 121.25 107.667969 121.25 112.5 C 121.25 114.820312 120.328125 117.046875 118.6875 118.6875 C 117.046875 120.328125 114.820312 121.25 112.5 121.25 L 50 121.25 C 44.363281 121.25 38.960938 119.011719 34.972656 115.027344 C 30.988281 111.039062 28.75 105.636719 28.75 100 L 28.75 96.25 M 46.25 53.75 L 78.75 53.75 M 46.25 71.25 L 78.75 71.25 M 28.75 53.75 L 12.5 53.75 C 7.667969 53.75 3.75 57.667969 3.75 62.5 C 3.75 64.820312 4.671875 67.046875 6.3125 68.6875 C 7.953125 70.328125 10.179688 71.25 12.5 71.25 L 28.75 71.25 M 78.75 46.25 L 78.75 75 C 78.75 77.070312 77.070312 78.75 75 78.75 L 71.25 78.75 M 96.25 46.25 L 96.25 75 C 96.25 77.070312 97.929688 78.75 100 78.75 C 102.070312 78.75 103.75 77.070312 103.75 75 C 103.75 72.929688 102.070312 71.25 100 71.25 L 96.25 71.25 M 53.75 46.25 L 53.75 53.75 M 71.25 46.25 L 71.25 53.75 M 28.75 28.75 L 12.5 28.75 C 7.667969 28.75 3.75 32.667969 3.75 37.5 C 3.75 39.820312 4.671875 42.046875 6.3125 43.6875 C 7.953125 45.328125 10.179688 46.25 12.5 46.25 L 28.75 46.25 M 46.25 46.25 L 100 46.25 C 105.636719 46.25 111.039062 44.011719 115.027344 40.027344 C 119.011719 36.039062 121.25 30.636719 121.25 25 C 121.25 22.929688 122.929688 21.25 125 21.25 M 96.25 28.75 L 96.25 25 C 96.25 22.929688 97.929688 21.25 100 21.25 C 102.070312 21.25 103.75 22.929688 103.75 25 C 103.75 27.070312 102.070312 28.75 100 28.75 L 46.25 28.75 M 53.75 28.75 L 53.75 25 C 53.75 13.265625 63.265625 3.75 75 3.75 L 125 3.75 M 71.25 28.75 L 71.25 25 C 71.25 22.929688 72.929688 21.25 75 21.25 C 77.070312 21.25 78.75 22.929688 78.75 25 L 78.75 28.75 M 46.25 78.75 L 46.25 25 C 46.25 13.265625 36.734375 3.75 25 3.75 L 12.5 3.75 C 7.667969 3.75 3.75 7.667969 3.75 12.5 C 3.75 14.820312 4.671875 17.046875 6.3125 18.6875 C 7.953125 20.328125 10.179688 21.25 12.5 21.25 L 25 21.25 C 27.070312 21.25 28.75 22.929688 28.75 25 L 28.75 78.75 "/>
</svg>
