<?xml version="1.0" encoding="UTF-8" standalone="no"?>
<svg
   width="550"
   height="550"
   viewBox="0 0 145.52114 145.52114"
   version="1.1"
   xmlns="http://www.w3.org/2000/svg">
  <rect
     style="fill:#000000;fill-opacity:1;stroke-width:0.264584"
     width="145.52113"
     height="145.52113"
     x="0"
     y="0"
     rx="13.229195"
     ry="13.229195" />
  <path
     style="fill:#ffffff;stroke-width:0.976583;fill-opacity:1"
     d="m 1.68827,30.803609 26.458391,83.913411 -1e-6,5.1e-4 H 40.700443 L 46.216915,97.221924 39.939763,77.314563 34.423808,94.809654 14.242052,30.803609 Z m 25.108082,0 26.457874,83.913411 h 12.5543 l 20.181239,-64.006057 5.516468,17.495612 6.277155,-19.907356 -5.516477,-17.49561 h -12.5543 l -20.181237,64.00553 -20.18124,-64.00553 z m 27.808698,0 -6.866779,21.778562 6.276634,19.907357 13.143928,-41.685919 z m 50.21565,0 -26.458392,83.913411 h 12.553783 l 20.181759,-64.006057 20.18123,64.006057 h 12.55379 L 117.37448,30.803609 Z m 0.76067,42.228001 -6.276629,19.907361 6.866789,21.778559 h 12.55326 z"
     />
</svg>
